<svg width="24" height="24" viewBox="0 0 24 24" fill="none" xmlns="http://www.w3.org/2000/svg">
<path fill-rule="evenodd" clip-rule="evenodd" d="M21.2765 15.475L19.2515 13.45V10C19.2466 6.14323 16.3365 2.9098 12.5015 2.5V1H11.0015V2.5C7.17987 2.93567 4.28363 6.15371 4.25154 10V13.45L2.22654 15.475C2.0784 15.6087 1.99618 15.8005 2.00154 16V18.25C1.98813 18.4527 2.06283 18.6514 2.20649 18.795C2.35015 18.9387 2.54881 19.0134 2.75154 19H8.00154C8.00154 21.0711 9.68047 22.75 11.7515 22.75C13.8226 22.75 15.5015 21.0711 15.5015 19H20.7515C20.9543 19.0134 21.1529 18.9387 21.2966 18.795C21.4403 18.6514 21.5149 18.4527 21.5015 18.25V16C21.5069 15.8005 21.4247 15.6087 21.2765 15.475ZM11.7515 21.25C10.5089 21.25 9.50154 20.2426 9.50154 19H14.0015C14.0015 20.2426 12.9942 21.25 11.7515 21.25ZM20.0015 17.5H3.50154V16.3L5.52654 14.275C5.67468 14.1413 5.7569 13.9495 5.75154 13.75V10C5.75154 6.68629 8.43783 4 11.7515 4C15.0652 4 17.7515 6.68629 17.7515 10V13.75C17.7462 13.9495 17.8284 14.1413 17.9765 14.275L20.0015 16.3V17.5Z" fill="#616161"/>
<path d="M16.45 1C18.2849 1.4098 21.195 4.64323 21.2 6.5H19.7C19.7 5.44029 17.4097 2.91549 16.45 2.54642V1Z" fill="#616161"/>
<path d="M2.19995 6.5C2.23204 4.65371 5.12828 1.43567 6.94995 1L6.94841 2.54661C5.98942 2.91637 3.69995 5.44082 3.69995 6.5H2.19995Z" fill="#616161"/>
</svg>
