<svg width="24" height="24" viewBox="0 0 24 24" fill="none" xmlns="http://www.w3.org/2000/svg">
<path fill-rule="evenodd" clip-rule="evenodd" d="M3.25 17.5V16.3L5.275 14.275C5.42314 14.1413 5.50536 13.9495 5.5 13.75V10C5.50144 7.69382 6.82454 5.59256 8.90361 4.59461C10.9827 3.59665 13.4497 3.87864 15.25 5.32L16.33 4.2475C15.1828 3.25805 13.7577 2.64765 12.25 2.5V1H10.75V2.5C6.92833 2.93567 4.03209 6.15371 4 10V13.45L1.975 15.475C1.82686 15.6087 1.74464 15.8005 1.75 16V17.5H3.25ZM19 13.45V10C18.9953 8.82654 18.7153 7.67055 18.1825 6.625L22 2.8075L20.9425 1.75L1 21.6925L2.0575 22.75L5.8075 19H7.75C7.75 21.0711 9.42893 22.75 11.5 22.75C13.5711 22.75 15.25 21.0711 15.25 19H20.5C20.7027 19.0134 20.9014 18.9387 21.045 18.795C21.1887 18.6514 21.2634 18.4527 21.25 18.25V16C21.2554 15.8005 21.1731 15.6087 21.025 15.475L19 13.45ZM11.5 21.25C10.2574 21.25 9.25 20.2426 9.25 19H13.75C13.75 20.2426 12.7426 21.25 11.5 21.25ZM19.75 17.5H7.315L17.065 7.75C17.3521 8.4654 17.4998 9.22912 17.5 10V13.75C17.4946 13.9495 17.5769 14.1413 17.725 14.275L19.75 16.3V17.5Z" fill="#616161"/>
</svg>
