<svg width="24" height="24" viewBox="0 0 24 24" fill="none" xmlns="http://www.w3.org/2000/svg">
<path fill-rule="evenodd" clip-rule="evenodd" d="M18.2515 11.5V13.45L20.2765 15.475C20.4247 15.6087 20.5069 15.8005 20.5015 16V18.25C20.5149 18.4527 20.4403 18.6514 20.2966 18.795C20.1529 18.9387 19.9543 19.0134 19.7515 19H14.5015C14.5015 21.0711 12.8226 22.75 10.7515 22.75C8.68047 22.75 7.00154 21.0711 7.00154 19H1.75154C1.54881 19.0134 1.35015 18.9387 1.20649 18.795C1.06283 18.6514 0.988128 18.4527 1.00154 18.25V16C0.996183 15.8005 1.0784 15.6087 1.22654 15.475L3.25154 13.45V10C3.28363 6.15371 6.17987 2.93567 10.0015 2.5V1H11.5015V2.5C12.2789 2.57802 13.0386 2.78061 13.7515 3.1V4.8175C12.8423 4.28245 11.8065 4.0002 10.7515 4C7.43783 4 4.75154 6.68629 4.75154 10V13.75C4.7569 13.9495 4.67468 14.1413 4.52654 14.275L2.50154 16.3V17.5H19.0015V16.3L16.9765 14.275C16.8284 14.1413 16.7462 13.9495 16.7515 13.75V11.5H18.2515ZM8.50154 19C8.50154 20.2426 9.5089 21.25 10.7515 21.25C11.9942 21.25 13.0015 20.2426 13.0015 19H8.50154Z" fill="#616161"/>
<path fill-rule="evenodd" clip-rule="evenodd" d="M18.5 11C20.9853 11 23 8.98528 23 6.5C23 4.01472 20.9853 2 18.5 2C16.0147 2 14 4.01472 14 6.5C14 8.98528 16.0147 11 18.5 11Z" fill="#FC2E48"/>
<path d="M18.59 4.656C17.774 4.656 17.288 5.298 17.288 6.054C17.288 6.822 17.84 7.314 18.518 7.314C18.962 7.314 19.292 7.116 19.508 6.87C19.466 7.998 19.088 8.418 18.428 8.418C18.104 8.418 17.78 8.322 17.606 8.22L17.474 8.568C17.66 8.694 18.038 8.82 18.452 8.82C19.424 8.82 19.988 8.082 19.988 6.678V6.414C19.988 5.274 19.49 4.656 18.59 4.656ZM18.596 5.052C19.238 5.052 19.508 5.544 19.508 6.294V6.408C19.34 6.642 18.998 6.912 18.614 6.912C18.128 6.912 17.762 6.642 17.762 6.012C17.762 5.454 18.074 5.052 18.596 5.052Z" fill="white"/>
</svg>
