<svg width="24" height="24" viewBox="0 0 24 24" fill="none" xmlns="http://www.w3.org/2000/svg">
<path fill-rule="evenodd" clip-rule="evenodd" d="M20.2603 17.0301L21.3427 19.7619L23 19.7619V21.0509H20.4668L19.0376 17.4438C18.5471 17.5539 18.0194 17.6134 17.4673 17.6134C16.5438 17.6134 15.6887 17.447 14.9622 17.1554L16.0048 19.7619H17.5655V21.0509H15.1321L12.8174 15.2643C12.4207 15.4881 11.9633 15.6164 11.4762 15.6164C10.9208 15.6164 10.4039 15.4499 9.97175 15.1648L9.19543 17.1057L7.10019 16.058L5.10304 21.0509H2.57145V19.7619H4.23035L6.4236 14.2785L8.51884 15.3261L9.01655 14.0819C8.83746 13.718 8.73644 13.3089 8.73644 12.8766C8.73644 12.6222 8.77202 12.376 8.83724 12.1421C8.76501 12.1448 8.69162 12.1461 8.61707 12.1461C7.59669 12.1461 6.36336 11.6567 4.95128 10.6914C3.93984 10.0001 3.20834 9.31555 3.1777 9.28676L2.67793 8.81711L3.1777 8.34746C3.20834 8.31867 3.93984 7.63418 4.95128 6.94277C5.78676 6.37167 6.5596 5.96725 7.26282 5.73208L6.397 4.28906H1V3H7.12691L8.61978 5.48815C9.80945 5.48866 10.6972 5.83147 11.2583 6.50715C11.7212 7.0645 11.9462 7.82011 11.9462 8.81715C11.9462 9.32272 11.8881 9.76595 11.7707 10.153C12.8471 10.2686 13.7383 11.0102 14.0732 12.0055C14.9399 11.4341 16.1323 11.0863 17.4673 11.0863C20.1785 11.0863 22.3023 12.5199 22.3023 14.3499C22.3023 15.4722 21.5034 16.4452 20.2603 17.0301ZM4.59885 8.81672C5.59972 9.64005 7.35237 10.8571 8.61707 10.8571C10.0851 10.8571 10.6571 10.2851 10.6571 8.81707C10.6571 7.34904 10.0851 6.77708 8.61707 6.77708C7.34919 6.77708 5.59856 7.99331 4.59885 8.81672ZM10.0255 12.8766C10.0255 13.6765 10.6763 14.3273 11.4762 14.3273C12.2762 14.3273 12.9269 13.6765 12.9269 12.8766C12.9269 12.0767 12.2761 11.4259 11.4762 11.4259C10.6763 11.4259 10.0255 12.0767 10.0255 12.8766ZM13.9213 14.3498C13.9213 14.8904 14.3436 15.3022 14.682 15.5453L15.8715 16.1053C15.8715 16.1053 16.9031 16.3244 17.4673 16.3244C17.8427 16.3244 18.2083 16.2909 18.5552 16.2262L19.7829 15.8253C19.8892 15.7723 19.9916 15.7159 20.0888 15.6552C20.434 15.4394 21.0132 14.9829 21.0132 14.3498C21.0132 13.7167 20.434 13.2602 20.0888 13.0444C19.6309 12.7583 19.067 12.558 18.4476 12.4551L17.0206 12.392C16.1922 12.452 15.4321 12.678 14.8458 13.0445C14.5005 13.2602 13.9213 13.7168 13.9213 14.3498Z" fill="#616161"/>
</svg>
