<svg width="24" height="24" viewBox="0 0 24 24" fill="none" xmlns="http://www.w3.org/2000/svg">
<path fill-rule="evenodd" clip-rule="evenodd" d="M12 1.5C6.20101 1.5 1.5 6.20101 1.5 12C1.5 17.799 6.20101 22.5 12 22.5C17.799 22.5 22.5 17.799 22.5 12C22.5 9.21523 21.3938 6.54451 19.4246 4.57538C17.4555 2.60625 14.7848 1.5 12 1.5ZM12 5.25C13.864 5.25 15.375 6.76104 15.375 8.625C15.375 10.489 13.864 12 12 12C10.136 12 8.625 10.489 8.625 8.625C8.623 7.72928 8.97794 6.86968 9.61131 6.23631C10.2447 5.60294 11.1043 5.248 12 5.25ZM18 18.69C14.5928 21.7699 9.40715 21.7699 6 18.69V18.255C5.94089 16.1178 7.61352 14.3314 9.75 14.25H14.25C16.3757 14.3353 18.0425 16.1055 18 18.2325V18.69Z" fill="#616161"/>
</svg>
