<svg width="25" height="25" viewBox="0 0 25 25" fill="none" xmlns="http://www.w3.org/2000/svg">
<path d="M19.5059 0H12.8867H6.2675C3.02195 0 0.886719 2.17794 0.886719 5.16726V12.0427V18.9181C0.886719 21.9075 3.06466 24.0854 6.2675 24.0854H12.8867H19.5059C22.7515 24.0854 24.8867 21.9075 24.8867 18.9181V12.0427V5.16726C24.8867 2.17794 22.7515 0 19.5059 0Z" fill="url(#paint0_linear)"/>
<path d="M12.8869 6.96091C12.289 6.96091 11.7339 7.04632 11.1787 7.17443V5.9787V5.85059C11.1787 5.80788 11.1787 5.80788 11.1787 5.76518C11.0506 4.31322 9.94027 3.24561 8.57372 3.24561C7.20717 3.24561 6.09686 4.31322 5.96875 5.76518C5.96875 5.80788 5.96875 10.6762 5.96875 10.6762V13.8791C5.96875 13.9218 5.96875 13.9218 5.96875 13.9645C6.01145 17.7652 9.08618 20.7972 12.8869 20.7972C16.6876 20.7972 19.805 17.6798 19.805 13.8791C19.805 10.0356 16.6876 6.96091 12.8869 6.96091ZM12.8869 19.7296C9.64134 19.7296 7.03637 17.1246 7.03637 13.8791V5.89329C7.03637 5.0392 7.71963 4.35593 8.57372 4.35593C9.42781 4.35593 10.1111 5.0392 10.1111 5.89329V13.7936C10.1111 15.331 11.3495 16.6549 12.8869 16.6549C14.4243 16.6549 15.6627 15.4164 15.6627 13.8791C15.6627 12.3417 14.4243 11.1033 12.8869 11.1033C12.2463 11.1033 11.6485 11.3168 11.1787 11.7011V10.5054C11.6912 10.2492 12.289 10.0783 12.8869 10.0783C14.9794 10.0783 16.6449 11.7865 16.6449 13.8364C16.6449 15.8862 14.9367 17.5944 12.8869 17.5944C10.7944 17.5944 9.12889 15.8862 9.12889 13.8364V5.85059C9.12889 5.59436 8.87266 5.33813 8.61643 5.33813C8.3175 5.33813 8.10398 5.59436 8.10398 5.85059V13.8791C8.10398 14.0072 8.10398 14.1353 8.10398 14.2207C8.2748 16.7403 10.3673 18.7047 12.9296 18.7047C15.62 18.7047 17.7552 16.5267 17.7552 13.8791C17.7552 11.2314 15.5773 9.05343 12.9296 9.05343C12.3317 9.05343 11.7766 9.18155 11.2214 9.35237V8.28475C11.7766 8.11393 12.3317 8.02852 12.9296 8.02852C16.1751 8.02852 18.7801 10.6335 18.7801 13.8791C18.7374 17.1246 16.0897 19.7296 12.8869 19.7296ZM11.1787 13.8791C11.1787 12.9396 11.9474 12.1709 12.8869 12.1709C13.8264 12.1709 14.5951 12.9396 14.5951 13.8791C14.5951 14.8186 13.8264 15.5872 12.8869 15.5872C11.9474 15.5872 11.1787 14.8186 11.1787 13.8791Z" fill="white"/>
<defs>
<linearGradient id="paint0_linear" x1="12.8761" y1="0" x2="12.8761" y2="24.0486" gradientUnits="userSpaceOnUse">
<stop stop-color="#86C440"/>
<stop offset="1" stop-color="#15A449"/>
</linearGradient>
</defs>
</svg>
