<svg width="24" height="24" viewBox="0 0 24 24" fill="none" xmlns="http://www.w3.org/2000/svg">
<path fill-rule="evenodd" clip-rule="evenodd" d="M1.5 20.9997H22.5V22.4997H1.5V20.9997ZM20.25 8.24968C20.6642 8.24968 21 7.91389 21 7.49968V5.24968C20.9999 4.93391 20.802 4.65204 20.505 4.54468L12.255 1.54468C12.0902 1.48511 11.9098 1.48511 11.745 1.54468L3.495 4.54468C3.19804 4.65204 3.00013 4.93391 3 5.24968V7.49968C3 7.91389 3.33579 8.24968 3.75 8.24968H4.5V17.9997H3V19.4997H21V17.9997H19.5V8.24968H20.25ZM4.5 5.77468L12 3.04468L19.5 5.77468V6.74968H4.5V5.77468ZM13.5 17.9997H10.5V8.24968H13.5V17.9997ZM6 8.24968H9V17.9997H6V8.24968ZM18 17.9997H15V8.24968H18V17.9997Z" fill="#2C2C2C"/>
</svg>
