<svg width="24" height="24" viewBox="0 0 24 24" fill="none" xmlns="http://www.w3.org/2000/svg">
<path d="M8.25754 21.6378C8.20657 21.9767 8.39181 22.307 8.70754 22.4403C8.80053 22.4781 8.89968 22.4984 9.00004 22.5003C9.23883 22.4909 9.45889 22.3684 9.59254 22.1703L19.3425 9.42027C19.5029 9.20331 19.5344 8.91691 19.425 8.67027C19.2988 8.41273 19.0368 8.2497 18.75 8.25027H15.1875L16.485 2.41527C16.5354 2.19101 16.4801 1.95606 16.335 1.77777C16.1921 1.60153 15.977 1.4995 15.75 1.50027H8.25004C7.89479 1.49077 7.58165 1.7319 7.50004 2.07777L5.25004 11.8278C5.1964 12.0544 5.25104 12.293 5.39793 12.4737C5.54481 12.6543 5.76728 12.7565 6.00004 12.7503H9.62254L8.25754 21.6378Z" fill="#616161"/>
</svg>
