<svg width="24" height="24" viewBox="0 0 24 24" fill="none" xmlns="http://www.w3.org/2000/svg">
<path fill-rule="evenodd" clip-rule="evenodd" d="M15.75 21C16.5784 21 17.25 20.3284 17.25 19.5C17.25 18.6716 16.5784 18 15.75 18C14.9216 18 14.25 18.6716 14.25 19.5C14.25 20.3284 14.9216 21 15.75 21ZM15.75 6C16.5784 6 17.25 5.32843 17.25 4.5C17.25 3.67157 16.5784 3 15.75 3C14.9216 3 14.25 3.67157 14.25 4.5C14.25 5.32843 14.9216 6 15.75 6ZM3 13.5C3.82843 13.5 4.5 12.8284 4.5 12C4.5 11.1716 3.82843 10.5 3 10.5C2.17157 10.5 1.5 11.1716 1.5 12C1.5 12.8284 2.17157 13.5 3 13.5ZM21 9C19.6358 9.00406 18.4465 9.92887 18.1065 11.25H14.8935C14.6785 10.3937 14.0942 9.67723 13.2986 9.29432C12.5031 8.91142 11.5786 8.90168 10.7752 9.26775L8.3925 6.29025C8.78444 5.77552 8.99774 5.14696 9 4.5C9 2.84315 7.65685 1.5 6 1.5C4.34315 1.5 3 2.84315 3 4.5C3 6.15685 4.34315 7.5 6 7.5C6.4229 7.49902 6.84072 7.40773 7.2255 7.23225L9.6075 10.2098C8.79798 11.266 8.79798 12.734 9.6075 13.7902L7.2255 16.7677C6.84072 16.5923 6.4229 16.501 6 16.5C4.34315 16.5 3 17.8431 3 19.5C3 21.1569 4.34315 22.5 6 22.5C7.65685 22.5 9 21.1569 9 19.5C8.99779 18.853 8.78449 18.2245 8.3925 17.7097L10.7745 14.7323C11.578 15.0986 12.5027 15.089 13.2984 14.7061C14.0941 14.3231 14.6785 13.6065 14.8935 12.75H18.1065C18.4989 14.2557 19.979 15.21 21.5125 14.9461C23.0459 14.6821 24.1217 13.2878 23.9881 11.7376C23.8545 10.1874 22.556 8.99769 21 9ZM4.5 4.5C4.5 3.67157 5.17157 3 6 3C6.82843 3 7.5 3.67157 7.5 4.5C7.5 5.32843 6.82843 6 6 6C5.17192 5.99917 4.50083 5.32808 4.5 4.5ZM4.5 19.5C4.5 20.3284 5.17157 21 6 21C6.82808 20.9992 7.49917 20.3281 7.5 19.5C7.5 18.6716 6.82843 18 6 18C5.17157 18 4.5 18.6716 4.5 19.5ZM12 13.5C11.1716 13.5 10.5 12.8284 10.5 12C10.5 11.1716 11.1716 10.5 12 10.5C12.8284 10.5 13.5 11.1716 13.5 12C13.4992 12.8281 12.8281 13.4992 12 13.5ZM19.5 12C19.5 12.8284 20.1716 13.5 21 13.5C21.8281 13.4992 22.4992 12.8281 22.5 12C22.5 11.1716 21.8284 10.5 21 10.5C20.1716 10.5 19.5 11.1716 19.5 12Z" fill="#616161"/>
</svg>
