<svg width="24" height="24" viewBox="0 0 24 24" fill="none" xmlns="http://www.w3.org/2000/svg">
<path d="M12 1C5.93475 1 1 5.93449 1 12C1 18.0655 5.93475 23 12 23C18.0655 23 23 18.0655 23 12C23 5.93449 18.0653 1 12 1ZM12 21.3942C6.82012 21.3942 2.60583 17.1799 2.60583 12C2.60583 6.82012 6.82012 2.60583 12 2.60583C17.1799 2.60583 21.3942 6.82007 21.3942 11.9997C21.3942 17.1799 17.1799 21.3942 12 21.3942Z" fill="#616161"/>
<path d="M15.7466 12.0002H12.2673V7.18268C12.2673 6.7392 11.9078 6.37977 11.4643 6.37977C11.0209 6.37977 10.6614 6.7392 10.6614 7.18268V12.8031C10.6614 13.2466 11.0209 13.606 11.4643 13.606H15.7466C16.19 13.606 16.5495 13.2466 16.5495 12.8031C16.5495 12.3596 16.19 12.0002 15.7466 12.0002Z" fill="#616161"/>
</svg>
