<svg width="117" height="20" viewBox="0 0 117 20" fill="none" xmlns="http://www.w3.org/2000/svg">
<path fill-rule="evenodd" clip-rule="evenodd" d="M17.5782 11.9512C17.2295 12.1717 16.8187 12.199 16.5065 12.0229C16.1099 11.799 15.8919 11.2746 15.8919 10.5454V8.36341C15.8919 7.30976 15.4753 6.56 14.7787 6.35756C13.5982 6.01366 12.7104 7.45805 12.3768 8.00049L10.2948 11.3761V7.25024C10.2714 6.30098 9.96312 5.73317 9.37775 5.56195C8.99043 5.44878 8.41092 5.49415 7.84799 6.35561L3.1836 13.8454C2.55915 12.6599 2.23363 11.3399 2.23531 10C2.23531 5.48829 5.85092 1.81805 10.2948 1.81805C14.7387 1.81805 18.3538 5.48829 18.3538 10C18.3538 10.0078 18.3558 10.0146 18.3563 10.022C18.3563 10.0298 18.3548 10.0366 18.3553 10.0444C18.3973 10.918 18.1143 11.6132 17.5782 11.9517V11.9512ZM20.1446 10.0005V10V9.97756L20.1441 9.95512C20.1192 4.46049 15.7109 0 10.2943 0C4.8636 0 0.44458 4.48585 0.44458 10C0.44458 15.5137 4.86361 20 10.2948 20C12.787 20 15.1656 19.0527 16.9914 17.3332C17.3543 16.9917 17.3758 16.4166 17.0392 16.0488C16.96 15.9614 16.8641 15.8907 16.7573 15.8409C16.6504 15.7911 16.5346 15.763 16.4168 15.7585C16.2989 15.754 16.1814 15.773 16.071 15.8144C15.9606 15.8559 15.8596 15.919 15.7738 16C14.2939 17.4015 12.333 18.1823 10.2948 18.182C7.91531 18.182 5.77434 17.1288 4.29775 15.4585L8.50409 8.70439V11.818C8.50409 13.3137 9.08409 13.7971 9.57043 13.9385C10.0573 14.08 10.8012 13.9834 11.5821 12.7151L13.8958 8.96439C13.9699 8.84342 14.0382 8.73902 14.1007 8.64878V10.5454C14.1007 11.9434 14.6607 13.0615 15.6368 13.6122C16.5168 14.1088 17.6231 14.0639 18.5246 13.4951C19.6173 12.8049 20.206 11.5332 20.1446 10.0005ZM33.8582 6.5839C34.0948 6.72781 34.2997 7.0478 34.2997 7.3361C34.2997 7.8 33.9056 8.1839 33.4641 8.1839C33.3539 8.1839 33.2436 8.15219 33.149 8.12C32.6285 7.7361 31.9665 7.48 31.2729 7.48C29.6339 7.48 28.4987 8.8239 28.4987 10.4878C28.4987 12.1522 29.6339 13.48 31.2729 13.48C32.0924 13.48 32.8178 13.1439 33.3695 12.6322C33.512 12.5297 33.6827 12.4739 33.8582 12.4722C34.2997 12.4722 34.6465 12.8239 34.6465 13.2722C34.6465 13.56 34.4729 13.8161 34.2524 13.96C33.4641 14.6322 32.3924 15.08 31.289 15.08C28.767 15.08 26.7173 13 26.7173 10.44C26.7173 7.88 28.7665 5.8 31.289 5.8C32.2348 5.8 33.1329 6.0878 33.8582 6.5839ZM38.4699 8.52C40.188 8.52 41.6382 9.9761 41.6382 11.7678C41.6382 13.56 40.188 15.08 38.4699 15.08C36.6729 15.08 35.1753 13.56 35.1753 11.7678C35.1753 9.9761 36.6729 8.52 38.4699 8.52ZM38.4538 13.48C39.2109 13.48 39.8568 12.76 39.8568 11.7839C39.8568 10.8083 39.2109 10.2 38.4538 10.2C37.6343 10.2 36.9563 10.7922 36.9563 11.7839C36.9563 12.76 37.6343 13.48 38.4538 13.48ZM42.7187 14.0878V9.5122C42.7187 9.0161 43.1129 8.6 43.6017 8.6C44.0904 8.6 44.5002 9.0161 44.5002 9.5122V14.0878C44.5002 14.5839 44.0904 15 43.6017 15C43.1129 15 42.7187 14.5839 42.7187 14.0878ZM42.5773 6.8722C42.5773 6.28 43.0338 5.8 43.6017 5.8C44.1846 5.8 44.6578 6.28 44.6578 6.8722C44.6578 7.44781 44.1846 7.9122 43.6017 7.9122C43.0338 7.9122 42.5773 7.44781 42.5773 6.8722ZM47.9138 11.6078V14.0878C47.9138 14.5839 47.5041 15 47.0148 15C46.5265 15 46.1319 14.5839 46.1319 14.0878V9.3039C46.1319 8.92 46.4475 8.6 46.826 8.6C47.2041 8.6 47.5041 8.92 47.5041 9.3039C48.229 8.6322 48.8592 8.52 49.4582 8.52C51.2397 8.52 52.028 9.8639 52.028 11.3839V14.0878C52.028 14.5839 51.6182 15 51.1295 15C50.6407 15 50.2465 14.5839 50.2465 14.0878V11.6078C50.2465 10.8239 50.1519 10.1678 49.0329 10.1678C48.2446 10.1678 47.9134 10.8239 47.9134 11.6078H47.9138ZM57.8217 12.5522C57.6168 12.5522 57.4753 12.4561 57.3646 12.3278L55.2836 10.0722V14.0878C55.2836 14.5839 54.8739 15 54.3851 15C53.8963 15 53.5021 14.5839 53.5021 14.0878V6.13659C53.5276 6.0696 53.5732 6.01211 53.6325 5.97195C53.6919 5.93179 53.7622 5.91092 53.8338 5.9122C53.9909 5.9122 54.1168 6.04049 54.2119 6.13659L57.5221 9.86439C57.6168 9.97659 57.7426 10.0405 57.806 10.0405C57.869 10.0405 57.9948 9.97659 58.0895 9.86488L61.4002 6.13659C61.4948 6.04049 61.6207 5.9122 61.7782 5.9122C61.9358 5.9122 62.0621 6.00829 62.1095 6.13659V14.0878C62.1095 14.5839 61.7153 15 61.2265 15C60.7378 15 60.328 14.5839 60.328 14.0878V10.0722L58.2475 12.3278C58.1368 12.4561 57.9948 12.5522 57.8217 12.5522ZM66.3899 13.48C67.1939 13.48 67.8714 12.76 67.8714 11.7839C67.8714 10.8083 67.1782 10.1678 66.3899 10.1678C65.6017 10.1678 64.9709 10.8239 64.9709 11.7839C64.9709 12.7278 65.6017 13.48 66.3899 13.48ZM68.2817 14.2961L68.2495 14.0878C67.9031 14.7756 66.7992 15.08 66.0899 15.08C64.4187 15.08 63.1895 13.56 63.1895 11.7678C63.1895 9.9761 64.4504 8.52 66.1846 8.52C66.4841 8.52 67.4773 8.6 68.2495 9.5122L68.2812 9.3039C68.2812 8.92 68.5807 8.6 68.9592 8.6C69.3373 8.6 69.6524 8.92 69.6524 9.3039V14.2961C69.6524 14.68 69.3373 15 68.9587 15C68.5807 15 68.2807 14.68 68.2807 14.2961H68.2817ZM74.5953 10.1678H74.4065C73.287 10.2322 73.0665 10.8722 73.0665 11.6078V14.0878C73.0665 14.5839 72.6568 15 72.168 15C71.6792 15 71.2851 14.5839 71.2851 14.0878V9.3039C71.2851 8.92 71.6002 8.6 71.9787 8.6C72.3573 8.6 72.6568 8.92 72.6568 9.3039C73.3187 8.68 73.8548 8.5522 74.4065 8.52H74.5797C75.0056 8.52 75.3992 8.88781 75.3992 9.3522C75.3992 9.7839 75.0212 10.1678 74.5953 10.1678ZM81.4612 13.6722C81.5402 13.8 81.5875 13.9439 81.5875 14.1039C81.5875 14.5678 81.1617 15 80.7046 15C80.3895 15 80.1212 14.76 79.9163 14.5039L77.8675 12.12V14.0878C77.8675 14.5839 77.4573 15 76.9685 15C76.4797 15 76.0856 14.5839 76.0856 14.0878V6.82439C76.0856 6.32781 76.4797 5.9122 76.9685 5.9122C77.4573 5.9122 77.867 6.32781 77.867 6.82439V11.3522L79.9163 9.08C80.1212 8.84 80.3734 8.6 80.689 8.6C81.1304 8.6 81.5402 9.0161 81.5402 9.48C81.5402 9.6239 81.5085 9.76781 81.4295 9.8961L79.806 11.6717L81.4612 13.6717V13.6722ZM84.9538 10.2C84.4651 10.2 83.6768 10.4561 83.6768 11.2078H86.246C86.246 10.44 85.4265 10.2 84.9534 10.2H84.9538ZM87.2865 12.3439H83.6768C83.6768 13.4161 84.7012 13.5761 85.1582 13.5761C85.4899 13.5761 85.9626 13.5122 86.3251 13.3517C86.4353 13.2722 86.6246 13.2078 86.7821 13.2078C87.1763 13.2078 87.507 13.5444 87.507 13.9444C87.507 14.2161 87.3339 14.4561 87.1134 14.5839C86.5617 14.9839 85.8519 15.08 85.1743 15.08C83.3773 15.08 81.8797 14.1044 81.8797 11.8478C81.8797 10.0722 82.7939 8.52 84.9221 8.52C86.6402 8.52 87.9485 9.64 87.9802 11.64C87.9802 12.0239 87.6651 12.3439 87.2865 12.3439ZM92.2451 15.08H91.7563C90.4002 15.08 89.6124 14.4878 89.6124 12.36V10.1678H89.1553C88.7295 10.1678 88.3514 9.7839 88.3514 9.3522C88.3514 8.88781 88.7295 8.52 89.1553 8.52H89.6124V6.8239C89.6124 6.32781 90.0065 5.91171 90.4953 5.91171C90.9836 5.91171 91.3939 6.32781 91.3939 6.8239V8.52H92.1343C92.5602 8.52 92.9387 8.88781 92.9387 9.3522C92.9387 9.7839 92.5602 10.1678 92.1343 10.1678H91.3939V12.0078C91.3939 13.2239 91.4568 13.48 91.9929 13.48H92.2451C92.6704 13.48 93.0329 13.8322 93.0329 14.28C93.0329 14.7122 92.6704 15.08 92.2451 15.08ZM100.876 6.5839C101.112 6.72781 101.318 7.0478 101.318 7.3361C101.318 7.8 100.924 8.1839 100.482 8.1839C100.372 8.1839 100.261 8.15219 100.167 8.12C99.6465 7.7361 98.9846 7.48 98.2909 7.48C96.6519 7.48 95.5163 8.8239 95.5163 10.4878C95.5163 12.1522 96.6514 13.48 98.2909 13.48C99.1104 13.48 99.8358 13.1439 100.388 12.6322C100.53 12.5297 100.701 12.4739 100.876 12.4722C101.318 12.4722 101.664 12.8239 101.664 13.2722C101.664 13.56 101.491 13.8161 101.27 13.96C100.482 14.6322 99.41 15.08 98.3065 15.08C95.7846 15.08 93.7353 13 93.7353 10.44C93.7353 7.88 95.7841 5.8 98.3065 5.8C99.2529 5.8 100.151 6.0878 100.876 6.5839ZM105.393 13.48C106.197 13.48 106.875 12.76 106.875 11.7839C106.875 10.8083 106.181 10.1678 105.393 10.1678C104.605 10.1678 103.974 10.8239 103.974 11.7839C103.974 12.7278 104.605 13.48 105.393 13.48H105.393ZM107.285 14.2961L107.253 14.0878C106.907 14.7756 105.803 15.08 105.093 15.08C103.423 15.08 102.193 13.56 102.193 11.7678C102.193 9.9761 103.454 8.52 105.188 8.52C105.488 8.52 106.481 8.6 107.253 9.5122L107.285 9.3039C107.285 8.92 107.584 8.6 107.963 8.6C108.341 8.6 108.656 8.92 108.656 9.3039V14.2961C108.656 14.68 108.341 15 107.963 15C107.584 15 107.285 14.68 107.285 14.2961ZM113.551 13.48C114.34 13.48 114.97 12.7278 114.97 11.7839C114.97 10.8239 114.34 10.1678 113.551 10.1678C112.763 10.1678 112.069 10.8078 112.069 11.7839C112.069 12.76 112.748 13.48 113.551 13.48ZM112.069 14.5522V16.8239C112.069 17.32 111.66 17.7361 111.171 17.7361C110.683 17.7361 110.288 17.32 110.288 16.8239V9.3039C110.288 8.92 110.604 8.6 110.982 8.6C111.36 8.6 111.66 8.92 111.66 9.36781C112.322 8.68 113.142 8.52 113.756 8.52C115.49 8.52 116.751 9.9761 116.751 11.7678C116.751 13.56 115.522 15.08 113.851 15.08C113.331 15.08 112.558 14.92 112.069 14.5522Z" fill="#17181B"/>
</svg>
