<svg width="24" height="24" viewBox="0 0 24 24" fill="none" xmlns="http://www.w3.org/2000/svg">
<path fill-rule="evenodd" clip-rule="evenodd" d="M13.305 22.5L12 21.75L15 16.5H19.5C20.3284 16.5 21 15.8284 21 15V6C21 5.17157 20.3284 4.5 19.5 4.5H4.5C3.67157 4.5 3 5.17157 3 6V15C3 15.8284 3.67157 16.5 4.5 16.5H11.25V18H4.5C2.84315 18 1.5 16.6569 1.5 15V6C1.5 4.34315 2.84315 3 4.5 3H19.5C21.1569 3 22.5 4.34315 22.5 6V15C22.5 16.6569 21.1569 18 19.5 18H15.87L13.305 22.5ZM12.75 6.75H11.25V9.75H8.25V11.25H11.25V14.25H12.75V11.25H15.75V9.75H12.75V6.75Z" fill="#616161"/>
</svg>
