<svg width="24" height="24" viewBox="0 0 24 24" fill="none" xmlns="http://www.w3.org/2000/svg">
<path fill-rule="evenodd" clip-rule="evenodd" d="M21.6667 10.25C21.9888 10.25 22.25 9.98882 22.25 9.66667V6.33333C22.25 6.01118 21.9888 5.75 21.6667 5.75H2.33333C2.01118 5.75 1.75 6.01118 1.75 6.33333V9.66667C1.75 9.98882 2.01118 10.25 2.33333 10.25C3.11572 10.25 3.75 10.8843 3.75 11.6667C3.75 12.4491 3.11572 13.0833 2.33333 13.0833C2.01118 13.0833 1.75 13.3445 1.75 13.6667V17C1.75 17.3222 2.01118 17.5833 2.33333 17.5833H21.6667C21.9888 17.5833 22.25 17.3222 22.25 17V13.6667C22.25 13.3445 21.9888 13.0833 21.6667 13.0833C20.8843 13.0833 20.25 12.4491 20.25 11.6667C20.25 10.8843 20.8843 10.25 21.6667 10.25ZM19.1077 12.0337C19.2602 13.0964 20.0516 13.9459 21.0833 14.1838V16.4167H2.91667V14.1839C4.21222 13.8861 5.08457 12.6393 4.8923 11.2996C4.73977 10.2369 3.94845 9.38743 2.91667 9.14956V6.91667H21.0833V9.14948C19.7878 9.44724 18.9154 10.6941 19.1077 12.0337ZM4.25065 7.0835H3.08398V8.25016H4.25065V7.0835ZM8.91667 7.0835H7.75V8.25016H8.91667V7.0835ZM8.91667 8.4165H7.75V9.58317H8.91667V8.4165ZM8.91667 9.75H7.75V10.9167H8.91667V9.75ZM8.91667 11.083H7.75V12.2497H8.91667V11.083ZM8.91667 12.4165H7.75V13.5832H8.91667V12.4165ZM8.91667 13.75H7.75V14.9167H8.91667V13.75ZM8.91667 15.083H7.75V16.2497H8.91667V15.083ZM20.9186 7.0835H19.752V8.25016H20.9186V7.0835ZM20.9186 15.083H19.752V16.2497H20.9186V15.083ZM4.25065 15.083H3.08398V16.2497H4.25065V15.083ZM12.0013 8.0835C11.1269 8.0835 10.418 8.79238 10.418 9.66683C10.418 10.5413 11.1269 11.2502 12.0013 11.2502C12.8757 11.2502 13.5846 10.5413 13.5846 9.66683C13.5846 8.79238 12.8757 8.0835 12.0013 8.0835ZM12.0013 10.0835C11.7712 10.0835 11.5846 9.89697 11.5846 9.66683C11.5846 9.43669 11.7712 9.25016 12.0013 9.25016C12.2314 9.25016 12.418 9.43669 12.418 9.66683C12.418 9.89697 12.2314 10.0835 12.0013 10.0835ZM16.0013 12.083C15.1269 12.083 14.418 12.7919 14.418 13.6663C14.418 14.5408 15.1269 15.2497 16.0013 15.2497C16.8757 15.2497 17.5846 14.5408 17.5846 13.6663C17.5846 12.7919 16.8757 12.083 16.0013 12.083ZM16.0013 14.083C15.7712 14.083 15.5846 13.8965 15.5846 13.6663C15.5846 13.4362 15.7712 13.2497 16.0013 13.2497C16.2314 13.2497 16.418 13.4362 16.418 13.6663C16.418 13.8965 16.2314 14.083 16.0013 14.083ZM16.4309 8.76348L16.9023 9.23487L11.5691 14.5681L11.5691 14.5681L16.9023 9.23487L16.4309 8.76347L16.4309 8.76348ZM16.4309 8.40992L10.7441 14.0967L11.5691 14.9216L17.2559 9.23487L16.4309 8.40992Z" fill="#616161"/>
</svg>
