<svg width="24" height="24" viewBox="0 0 24 24" fill="none" xmlns="http://www.w3.org/2000/svg">
<g clip-path="url(#clip0)">
<path d="M22.5 8.81376C22.5 7.71194 21.6036 6.81553 20.5018 6.81553C19.4 6.81553 18.5037 7.71194 18.5037 8.81376C18.5037 9.34344 18.7112 9.82537 19.0489 10.1833C18.4483 10.8552 17.576 11.2793 16.6061 11.2793C15.036 11.2793 13.7209 10.1694 13.4027 8.69312C13.7701 8.33054 13.9982 7.8273 13.9982 7.27167C13.9982 6.16985 13.1018 5.27344 12 5.27344C10.8982 5.27344 10.0018 6.16985 10.0018 7.27167C10.0018 7.8273 10.2301 8.33054 10.5973 8.69312C10.2791 10.1694 8.96404 11.2793 7.39391 11.2793C6.42396 11.2793 5.55173 10.8552 4.95108 10.1833C5.28882 9.82537 5.49646 9.34344 5.49646 8.81376C5.49646 7.71194 4.60004 6.81553 3.49823 6.81553C2.39642 6.81553 1.5 7.71194 1.5 8.81376C1.5 9.76865 2.17339 10.5688 3.07013 10.7652C3.28274 12.5199 3.73311 14.7341 4.68576 16.2403V18.0852C4.68576 18.4268 4.96262 18.7038 5.3042 18.7038H18.6958C19.0374 18.7038 19.3142 18.4268 19.3142 18.0852V16.2403C20.2669 14.7341 20.7173 12.5201 20.9299 10.7652C21.8266 10.5686 22.5 9.76865 22.5 8.81376ZM19.7406 8.81376C19.7406 8.39399 20.082 8.05241 20.5018 8.05241C20.9215 8.05241 21.2631 8.39399 21.2631 8.81376C21.2631 9.23353 20.9215 9.57495 20.5018 9.57495C20.082 9.57495 19.7406 9.23353 19.7406 8.81376ZM11.2386 7.27167C11.2386 6.8519 11.5802 6.51031 12 6.51031C12.4198 6.51031 12.7612 6.8519 12.7612 7.27167C12.7612 7.69144 12.4198 8.03286 12 8.03286C11.5802 8.03286 11.2386 7.69144 11.2386 7.27167ZM2.73688 8.81376C2.73688 8.39399 3.07846 8.05241 3.49823 8.05241C3.918 8.05241 4.25942 8.39399 4.25942 8.81376C4.25942 9.23353 3.918 9.57495 3.49823 9.57495C3.07846 9.57495 2.73688 9.23353 2.73688 8.81376ZM5.92264 17.4668V16.6748H18.0774V17.4668H5.92264ZM18.356 15.4378H5.64418C4.99322 14.3336 4.61943 12.7823 4.40506 11.3824C5.20182 12.0876 6.24868 12.5162 7.39391 12.5162C9.44982 12.5162 11.1888 11.1347 11.7321 9.25131C11.8198 9.26317 11.9092 9.26974 12 9.26974C12.0908 9.26974 12.1802 9.26317 12.2679 9.25131C12.8112 11.1347 14.5502 12.5162 16.6061 12.5162C17.7516 12.5162 18.7991 12.0873 19.5959 11.3814C19.3817 12.7812 19.0079 14.3323 18.356 15.4378Z" fill="#616161"/>
</g>
<defs>
<clipPath id="clip0">
<rect x="1.5" y="1.5" width="21" height="21" fill="white"/>
</clipPath>
</defs>
</svg>
