<svg width="24" height="24" viewBox="0 0 24 24" fill="none" xmlns="http://www.w3.org/2000/svg">
<path fill-rule="evenodd" clip-rule="evenodd" d="M18.75 7.5002H18.705C18.31 4.09616 15.4269 1.52832 12 1.52832C8.57311 1.52832 5.69004 4.09616 5.295 7.5002H5.25C3.17893 7.5002 1.5 9.17913 1.5 11.2502C1.5 13.3213 3.17893 15.0002 5.25 15.0002H6.75V8.2502C6.75 5.3507 9.1005 3.0002 12 3.0002C14.8995 3.0002 17.25 5.3507 17.25 8.2502V15.7502C17.249 17.1663 16.2578 18.3889 14.8725 18.6827C14.4583 17.2299 13.0285 16.3118 11.5351 16.5396C10.0417 16.7674 8.95066 18.0701 8.98842 19.5803C9.02617 21.0905 10.1809 22.337 11.6838 22.4899C13.1867 22.6428 14.5689 21.6543 14.91 20.1827C17.1092 19.8566 18.7407 17.9734 18.75 15.7502V15.0002C20.8211 15.0002 22.5 13.3213 22.5 11.2502C22.5 9.17913 20.8211 7.5002 18.75 7.5002ZM3 11.2502C3 10.0076 4.00736 9.0002 5.25 9.0002V13.5002C4.00736 13.5002 3 12.4928 3 11.2502ZM12 21.0002C11.1716 21.0002 10.5 20.3286 10.5 19.5002C10.5 18.6718 11.1716 18.0002 12 18.0002C12.8284 18.0002 13.5 18.6718 13.5 19.5002C13.5 20.3286 12.8284 21.0002 12 21.0002ZM18.75 13.5002V9.0002C19.9926 9.0002 21 10.0076 21 11.2502C21 12.4928 19.9926 13.5002 18.75 13.5002Z" fill="#616161"/>
</svg>
