<svg width="24" height="24" viewBox="0 0 24 24" fill="none" xmlns="http://www.w3.org/2000/svg">
<path fill-rule="evenodd" clip-rule="evenodd" d="M12.0002 2.24993C9.40943 2.23383 6.92011 3.25589 5.08814 5.08787C3.25616 6.91985 2.2341 9.40917 2.25019 11.9999V12.7499C2.25019 18.1347 6.61541 22.4999 12.0002 22.4999H17.2502V20.9999H12.0002C9.81215 20.9999 7.71373 20.1307 6.16656 18.5836C4.61938 17.0364 3.75019 14.938 3.75019 12.7499V11.9999C3.73813 9.80822 4.60346 7.70279 6.15325 6.15299C7.70305 4.60319 9.80848 3.73787 12.0002 3.74993C14.2107 3.67378 16.3536 4.5185 17.9176 6.08248C19.4816 7.64647 20.3263 9.78942 20.2502 11.9999C20.2502 14.6924 19.2002 15.7499 17.5052 15.7499C16.3202 15.7499 15.7502 14.7824 15.7502 13.4999V7.49993H14.2502V8.95493C13.717 8.0163 12.7037 7.45465 11.6252 7.49993C9.36111 7.4916 7.5167 9.3159 7.50019 11.5799V13.1699C7.5167 15.434 9.36111 17.2582 11.6252 17.2499C12.9034 17.2874 14.082 16.5626 14.6252 15.4049C15.1684 16.531 16.3074 17.2476 17.5577 17.2499C19.8602 17.2499 21.7502 15.7499 21.7502 11.9999C21.8081 9.39673 20.7995 6.88296 18.9583 5.04176C17.1172 3.20057 14.6034 2.19196 12.0002 2.24993ZM14.2502 13.1699C14.2502 14.6197 13.0749 15.7949 11.6252 15.7949C10.1754 15.7949 9.00019 14.6197 9.00019 13.1699V11.5799C9.00019 10.1302 10.1754 8.95493 11.6252 8.95493C13.0749 8.95493 14.2502 10.1302 14.2502 11.5799V13.1699Z" fill="#616161"/>
</svg>
