<svg width="24" height="24" viewBox="0 0 24 24" fill="none" xmlns="http://www.w3.org/2000/svg">
<rect width="24" height="24" fill="white"/>
<path d="M7.57017 7.31508C7.23963 6.9845 6.6757 7.10536 6.51101 7.54448L1.04228 22.1277C0.848542 22.6443 1.35447 23.1516 1.87204 22.9575C2.60448 22.6828 15.8675 17.7091 16.4552 17.4888C16.8923 17.3249 17.0169 16.7618 16.6847 16.4296L7.57017 7.31508ZM7.36642 8.93426L10.0149 11.5827C10.1981 13.7852 11.0141 15.9026 12.3445 17.6536L9.58751 18.6875C7.52531 16.5424 6.4729 13.5432 6.75321 10.5695L7.36642 8.93426ZM5.62878 20.172C4.99301 19.4499 4.46423 18.6452 4.05214 17.7724L5.60855 13.6219C5.99511 15.7448 6.94858 17.6438 8.2859 19.1755L5.62878 20.172ZM3.45113 19.3751C3.72079 19.8207 4.02026 20.247 4.34801 20.6523L2.74704 21.2527L3.45113 19.3751ZM13.6113 17.1786C12.6448 16.0026 11.951 14.6193 11.5787 13.1466L15.0654 16.6333L13.6113 17.1786Z" fill="#616161"/>
<path d="M15.9753 13.0378C16.227 13.2895 16.6351 13.2895 16.8868 13.0378C19.3114 10.6131 21.6724 11.3628 21.696 11.3706C22.0336 11.4831 22.3986 11.3007 22.5112 10.963C22.6238 10.6254 22.4412 10.2603 22.1036 10.1477C21.9765 10.1054 18.9571 9.1446 15.9754 12.1264C15.7236 12.378 15.7236 12.7862 15.9753 13.0378Z" fill="#616161"/>
<path d="M10.9623 8.02462C11.214 8.27632 11.6221 8.27636 11.8738 8.02462C14.8555 5.0429 13.8947 2.0235 13.8524 1.8964C13.7398 1.55873 13.3748 1.37617 13.0372 1.48878C12.6995 1.60136 12.517 1.96635 12.6295 2.30402C12.6374 2.32761 13.387 4.68856 10.9623 7.11322C10.7106 7.36488 10.7106 7.77297 10.9623 8.02462Z" fill="#616161"/>
<path d="M13.2409 9.39187C12.9892 9.64356 12.9892 10.0516 13.2409 10.3033C13.4903 10.5527 13.8955 10.556 14.1485 10.3071C14.4815 10.1412 15.5149 10.7635 16.0892 10.1894C16.6574 9.62118 16.0537 8.60877 16.2045 8.25395C16.5598 8.1028 17.5718 8.70673 18.14 8.13863C18.7082 7.57045 18.1046 6.55804 18.2553 6.20318C18.6111 6.05198 19.6226 6.656 20.1907 6.08786C20.759 5.51967 20.1553 4.50726 20.3061 4.15241C20.6598 4.00198 21.6738 4.60462 22.2416 4.03704C22.8157 3.46288 22.1946 2.42761 22.3593 2.09639C22.6072 1.84444 22.6058 1.43922 22.3554 1.18877C22.1038 0.937076 21.6957 0.937076 21.444 1.18877C20.936 1.69676 21.0354 2.41391 21.1311 2.92662C20.6184 2.83094 19.9013 2.73156 19.3933 3.2395C18.8853 3.74749 18.9847 4.46464 19.0804 4.97735C18.5676 4.88171 17.8504 4.78225 17.3425 5.29028C16.8345 5.79827 16.9339 6.51541 17.0296 7.02813C16.5168 6.93244 15.7997 6.83302 15.2918 7.34101C14.7838 7.849 14.8832 8.56615 14.9789 9.07886C14.4661 8.98326 13.7488 8.88388 13.2409 9.39187Z" fill="#616161"/>
<path d="M16.8868 3.92329C17.1385 3.67159 17.1385 3.26355 16.8868 3.01185C16.6351 2.76016 16.227 2.76016 15.9753 3.01185C15.7236 3.26355 15.7236 3.67159 15.9753 3.92329C16.227 4.17498 16.6351 4.17498 16.8868 3.92329Z" fill="#616161"/>
<path d="M20.9882 8.66931C21.3442 8.66931 21.6327 8.38076 21.6327 8.02482C21.6327 7.66887 21.3442 7.38032 20.9882 7.38032C20.6323 7.38032 20.3437 7.66887 20.3437 8.02482C20.3437 8.38076 20.6323 8.66931 20.9882 8.66931Z" fill="#616161"/>
<path d="M19.621 13.9488C19.3693 14.2005 19.3693 14.6085 19.621 14.8602C19.8727 15.1119 20.2808 15.1119 20.5325 14.8602C20.7841 14.6085 20.7841 14.2005 20.5325 13.9488C20.2808 13.6971 19.8727 13.6971 19.621 13.9488Z" fill="#616161"/>
<path d="M10.5066 4.83452C10.7583 4.58282 10.7583 4.17477 10.5066 3.92307C10.2549 3.67138 9.84686 3.67138 9.59516 3.92307C9.34347 4.17473 9.34347 4.58282 9.59516 4.83452C9.84686 5.08621 10.2549 5.08621 10.5066 4.83452Z" fill="#616161"/>
</svg>
