<svg width="24" height="24" viewBox="0 0 24 24" fill="none" xmlns="http://www.w3.org/2000/svg">
<path fill-rule="evenodd" clip-rule="evenodd" d="M9.75 15.75H19.6275L17.6925 17.6925L18.75 18.75L22.5 15L18.75 11.25L17.6925 12.3075L19.6275 14.25H9.75V15.75ZM16.2825 6.96751C16.4229 7.10905 16.5012 7.30066 16.5 7.50001V10.5H15V9.00001H10.5C9.67157 9.00001 9 8.32844 9 7.50001V3.00001H3V21H15V19.5H16.5V21C16.5 21.8284 15.8284 22.5 15 22.5H3C2.17157 22.5 1.5 21.8284 1.5 21V3.00001C1.5 2.17159 2.17157 1.50001 3 1.50001H10.5C10.6994 1.49886 10.891 1.57712 11.0325 1.71751L16.2825 6.96751ZM10.5 3.30751V7.50001H14.6925L10.5 3.30751Z" fill="#616161"/>
</svg>
