<svg width="25" height="25" viewBox="0 0 25 25" fill="none" xmlns="http://www.w3.org/2000/svg">
<path d="M23.5629 24.0215C24.2889 24.0215 24.8867 23.4236 24.8867 22.6976V1.34533C24.8867 0.619349 24.2889 0.0214844 23.5629 0.0214844H2.21056C1.48458 0.0214844 0.886719 0.619349 0.886719 1.34533V22.6976C0.886719 23.4236 1.48458 24.0215 2.21056 24.0215H23.5629Z" fill="#445D99"/>
<path d="M17.4565 24.0215V14.7119H20.5739L21.0437 11.082H17.4565V8.77592C17.4565 7.70831 17.7554 7.02503 19.2501 7.02503H21.1718V3.77948C20.8302 3.73678 19.7198 3.65137 18.396 3.65137C15.6202 3.65137 13.7412 5.35955 13.7412 8.43429V11.1247H10.5811V14.7546H13.6985V24.0642H17.4565V24.0215Z" fill="white"/>
</svg>
