<svg width="24" height="24" viewBox="0 0 24 24" fill="none" xmlns="http://www.w3.org/2000/svg">
<path fill-rule="evenodd" clip-rule="evenodd" d="M19.5302 6.73142C20.1551 6.10657 20.1551 5.09349 19.5302 4.46864C18.9054 3.84379 17.8923 3.84379 17.2674 4.46864L11.9999 9.73614L6.73272 4.46894C6.10787 3.84409 5.09479 3.84409 4.46994 4.46894C3.84509 5.09379 3.84509 6.10687 4.46994 6.73172L9.73714 11.9989L4.46864 17.2674C3.84379 17.8923 3.84379 18.9054 4.46864 19.5302C5.09349 20.1551 6.10657 20.1551 6.73142 19.5302L11.9999 14.2617L17.2687 19.5305C17.8936 20.1554 18.9067 20.1554 19.5315 19.5305C20.1564 18.9057 20.1564 17.8926 19.5315 17.2677L14.2627 11.9989L19.5302 6.73142Z" fill="#F2583E"/>
</svg>
