<svg width="24" height="24" viewBox="0 0 24 24" fill="none" xmlns="http://www.w3.org/2000/svg">
<path fill-rule="evenodd" clip-rule="evenodd" d="M5.41568 2.58676C4.63463 1.80571 3.3683 1.80571 2.58725 2.58676C1.8062 3.36781 1.8062 4.63414 2.58725 5.41519L9.17151 11.9995L2.58579 18.5852C1.80474 19.3662 1.80474 20.6326 2.58579 21.4136C3.36684 22.1947 4.63316 22.1947 5.41421 21.4136L11.9999 14.8279L18.5855 21.4134C19.3665 22.1945 20.6329 22.1945 21.4139 21.4134C22.195 20.6324 22.195 19.366 21.4139 18.585L14.8284 11.9995L21.4124 5.41538C22.1935 4.63433 22.1935 3.368 21.4124 2.58695C20.6314 1.8059 19.3651 1.8059 18.584 2.58695L11.9999 9.17103L5.41568 2.58676Z" />
</svg>
