<svg width="24" height="24" viewBox="0 0 24 24" fill="none" xmlns="http://www.w3.org/2000/svg">
<path d="M1.75 12.501C1.75 7.1162 6.11522 2.75098 11.5 2.75098C14.0859 2.75098 16.5658 3.77821 18.3943 5.60669C20.2228 7.43517 21.25 9.91512 21.25 12.501C21.25 17.8858 16.8848 22.251 11.5 22.251C6.11522 22.251 1.75 17.8858 1.75 12.501Z" stroke="#616161" stroke-width="1.5"/>
<path d="M10.3471 14.513H11.9631C11.6911 12.129 14.5391 11.265 14.5391 8.92898C14.5391 7.05698 13.2431 6.00098 11.3871 6.00098C10.0591 6.00098 8.98712 6.64098 8.20312 7.53698L9.24312 8.48098C9.77112 7.88898 10.4271 7.50498 11.1791 7.50498C12.1871 7.50498 12.7471 8.17698 12.7471 9.05698C12.7471 10.801 9.96313 11.825 10.3471 14.513ZM11.1791 18.481C11.8671 18.481 12.4111 17.953 12.4111 17.201C12.4111 16.449 11.8671 15.889 11.1791 15.889C10.4751 15.889 9.94713 16.449 9.94713 17.201C9.94713 17.953 10.4751 18.481 11.1791 18.481Z" fill="#616161"/>
</svg>
