<svg width="24" height="24" viewBox="0 0 24 24" fill="none" xmlns="http://www.w3.org/2000/svg">
<path fill-rule="evenodd" clip-rule="evenodd" d="M16.8376 4.5C17.9407 4.49907 18.9977 4.94242 19.7701 5.73C21.4093 7.39413 21.4093 10.0659 19.7701 11.73L12.0001 19.5975L4.23008 11.73C2.59086 10.0659 2.59086 7.39413 4.23008 5.73C5.00289 4.94302 6.05959 4.49968 7.16258 4.49968C8.26556 4.49968 9.32226 4.94302 10.0951 5.73L12.0001 7.68L13.8976 5.745C14.6678 4.94787 15.7291 4.49841 16.8376 4.5ZM16.8376 3C15.331 2.99873 13.8874 3.60429 12.8326 4.68L12.0001 5.52L11.1676 4.68C10.1115 3.60629 8.66859 3.00158 7.16258 3.00158C5.65656 3.00158 4.21361 3.60629 3.15758 4.68C0.944871 6.9325 0.944871 10.5425 3.15758 12.795L12.0001 21.75L20.8426 12.795C23.0553 10.5425 23.0553 6.9325 20.8426 4.68C19.7868 3.60571 18.3438 3.00042 16.8376 3Z" fill="#616161"/>
</svg>
