<svg width="24" height="24" viewBox="0 0 24 24" fill="none" xmlns="http://www.w3.org/2000/svg">
<path fill-rule="evenodd" clip-rule="evenodd" d="M8.70717 22.4398C8.39144 22.3065 8.20621 21.9762 8.25717 21.6373L9.62217 12.7498H5.99967C5.76691 12.756 5.54444 12.6538 5.39756 12.4732C5.25067 12.2925 5.19603 12.0539 5.24967 11.8273L7.49967 2.07728C7.58128 1.73141 7.89442 1.49029 8.24967 1.49978H15.7497C15.9766 1.49901 16.1917 1.60104 16.3347 1.77728C16.4797 1.95557 16.535 2.19052 16.4847 2.41478L15.1872 8.24978H18.7497C19.0365 8.24921 19.2985 8.41224 19.4247 8.66978C19.5341 8.91642 19.5026 9.20282 19.3422 9.41978L9.59217 22.1698C9.45853 22.3679 9.23847 22.4905 8.99967 22.4998C8.89931 22.4979 8.80016 22.4776 8.70717 22.4398ZM13.3122 9.74978L14.8122 2.99978H8.84967L6.94467 11.2498H11.3772L10.1847 18.9598L17.2497 9.74978H13.3122Z" fill="#616161"/>
</svg>
