<svg width="24" height="24" viewBox="0 0 24 24" fill="none" xmlns="http://www.w3.org/2000/svg">
<path fill-rule="evenodd" clip-rule="evenodd" d="M8.3475 5.16728L8.85 2.99978H14.85L13.35 9.74978H17.25L15.3825 12.1873L16.455 13.2598L19.3575 9.45728C19.5179 9.24032 19.5494 8.95392 19.44 8.70728C19.3226 8.43015 19.051 8.25003 18.75 8.24978H15.1875L16.5 2.41478C16.5503 2.19052 16.495 1.95557 16.35 1.77728C16.2038 1.59688 15.9822 1.4944 15.75 1.49978H8.25C7.89475 1.49029 7.58161 1.73141 7.5 2.07728L7.095 3.91478L8.3475 5.16728ZM22.5 21.4423L15.5175 14.4598L14.4525 13.3873L7.95 6.89228L6.6975 5.63978L2.5575 1.49978L1.5 2.55728L6.3 7.36478L5.25 11.8273C5.19636 12.0539 5.251 12.2925 5.39789 12.4732C5.54477 12.6538 5.76724 12.756 6 12.7498H9.6225L8.25 21.6373C8.19904 21.9762 8.38427 22.3065 8.7 22.4398C8.79533 22.4785 8.89712 22.4988 9 22.4998C9.23212 22.4992 9.45091 22.3912 9.5925 22.2073L14.6025 15.6598L21.4425 22.4998L22.5 21.4423ZM6.945 11.2498L7.5525 8.60978L10.1925 11.2498H6.945ZM10.185 18.9598L11.25 12.2773L13.5 14.5873L10.185 18.9598Z" fill="#616161"/>
</svg>
