<svg width="25" height="24" viewBox="0 0 25 24" fill="none" xmlns="http://www.w3.org/2000/svg">
<path d="M24.8867 19.6333C24.8867 22.0503 22.9362 24.0008 20.5192 24.0008H5.25421C2.83725 24.0008 0.886719 22.0503 0.886719 19.6333V4.5379C0.886719 2.12094 2.83725 0.17041 5.25421 0.17041H20.5192C22.9362 0.17041 24.8867 2.12094 24.8867 4.5379V19.6333Z" fill="#E84437"/>
<path d="M14.7944 11.2379H12.8439H9.49407V13.4004H12.5471C12.5471 13.7397 12.4199 14.0365 12.1654 14.3333C11.5294 15.0965 10.5541 15.6054 9.49407 15.6054C7.58594 15.6054 6.01704 14.0365 6.01704 12.1283C6.01704 10.2202 7.58594 8.65131 9.49407 8.65131C10.3421 8.65131 11.1054 8.94813 11.7414 9.45697L13.2255 7.88806C12.2503 6.9976 10.9358 6.48877 9.49407 6.48877C6.39866 6.48877 3.85449 8.99054 3.85449 12.1283C3.85449 15.2238 6.35626 17.7679 9.49407 17.7679C10.5965 17.7679 11.5718 17.4711 12.4623 16.9199C14.0736 15.9446 14.9216 14.1637 14.9216 12.1283C14.8792 11.8315 14.8368 11.5347 14.7944 11.2379Z" fill="white"/>
<path d="M22.0031 11.1106H19.7133V8.8208H18.1868V11.1106H15.9395V12.637H18.1868V14.8844H19.7133V12.637H22.0031V11.1106Z" fill="white"/>
</svg>
