<svg width="24" height="24" viewBox="0 0 24 24" fill="none" xmlns="http://www.w3.org/2000/svg">
<path fill-rule="evenodd" clip-rule="evenodd" d="M12.4575 1.65764C12.1849 1.44224 11.8001 1.44224 11.5275 1.65764L0.75 10.0651L1.68 11.2501L3 10.2151V19.5001C3 20.3286 3.67157 21.0001 4.5 21.0001H19.5C20.3284 21.0001 21 20.3286 21 19.5001V10.2226L22.32 11.2501L23.25 10.0726L12.4575 1.65764ZM13.5 19.5001H10.5V13.5001H13.5V19.5001ZM15 19.5001V13.5001C15 12.6717 14.3284 12.0001 13.5 12.0001H10.5C9.67157 12.0001 9 12.6717 9 13.5001V19.5001H4.5V9.04514L12 3.20264L19.5 9.05264V19.5001H15Z" fill="#A8A8A8"/>
</svg>
