<svg width="24" height="24" viewBox="0 0 24 24" fill="none" xmlns="http://www.w3.org/2000/svg">
<path d="M1.75713 11.3485L2.875 10.472V19.5001C2.875 20.3976 3.60254 21.1251 4.5 21.1251H19.5C20.3975 21.1251 21.125 20.3976 21.125 19.5001V10.4783L22.2432 11.3488L22.3412 11.425L22.4181 11.3276L23.3481 10.1501L23.4261 10.0514L23.3269 9.97407L12.535 1.55957C12.5349 1.55948 12.5348 1.5594 12.5347 1.55931C12.2168 1.30835 11.7682 1.30835 11.4503 1.55932C11.4502 1.55941 11.4501 1.55949 11.45 1.55957L0.673115 9.96658L0.574268 10.0437L0.651667 10.1423L1.58167 11.3273L1.65881 11.4256L1.75713 11.3485ZM10.625 19.3751V13.6251H13.375V19.3751H10.625ZM15.125 19.3751V13.5001C15.125 12.6027 14.3975 11.8751 13.5 11.8751H10.5C9.60254 11.8751 8.875 12.6027 8.875 13.5001V19.3751H4.625V9.10622L12 3.36113L19.375 9.11367V19.3751H15.125Z" fill="#2C2C2C" stroke="#2C2C2C" stroke-width="0.25"/>
</svg>
