<svg width="24" height="25" viewBox="0 0 24 25" fill="none" xmlns="http://www.w3.org/2000/svg">
<path d="M22.2898 3.125H1.71022C1.31799 3.125 1 3.45614 1 3.86481V20.5798C1 20.9884 1.31799 21.3196 1.71022 21.3196H22.2898C22.682 21.3196 23 20.9884 23 20.5798V3.86481C23 3.45624 22.682 3.125 22.2898 3.125ZM21.5796 4.60473V18.7195L15.8983 12.4262C15.7641 12.2776 15.5769 12.1932 15.381 12.1932C15.3809 12.1932 15.3809 12.1932 15.3809 12.1932C15.1851 12.1932 14.998 12.2776 14.8637 12.426L12.4376 15.1118L9.18487 10.6442C9.05059 10.4597 8.84122 10.3514 8.61897 10.3514C8.61878 10.3514 8.61859 10.3514 8.6184 10.3514C8.39596 10.3516 8.18649 10.4603 8.0524 10.6452L2.42044 18.4072V4.60473H21.5796ZM20.6414 19.8401H3.16134L8.61992 12.3167L11.8133 16.7028C11.9396 16.8764 12.1328 16.983 12.3415 16.9945C12.5499 17.0054 12.7532 16.9213 12.8964 16.7627L15.3807 14.0127L20.6414 19.8401Z" fill="#616161"/>
<path d="M15.7001 10.7941C16.9876 10.7941 18.0351 9.70303 18.0351 8.362C18.0351 7.02076 16.9876 5.92969 15.7001 5.92969C14.4126 5.92969 13.3652 7.02086 13.3652 8.362C13.3652 9.70303 14.4127 10.7941 15.7001 10.7941ZM15.7001 7.40921C16.2044 7.40921 16.6146 7.83663 16.6146 8.3619C16.6146 8.88707 16.2044 9.31438 15.7001 9.31438C15.1958 9.31438 14.7857 8.88707 14.7857 8.3619C14.7857 7.83663 15.1959 7.40921 15.7001 7.40921Z" fill="#616161"/>
</svg>
