<svg width="24" height="24" viewBox="0 0 24 24" fill="none" xmlns="http://www.w3.org/2000/svg">
<path fill-rule="evenodd" clip-rule="evenodd" d="M12 3.5C7.30558 3.5 3.5 7.30558 3.5 12C3.5 16.6944 7.30558 20.5 12 20.5C16.6944 20.5 20.5 16.6944 20.5 12C20.5 9.74566 19.6045 7.58365 18.0104 5.98959C16.4163 4.39553 14.2543 3.5 12 3.5ZM1.5 12C1.5 6.20101 6.20101 1.5 12 1.5C14.7848 1.5 17.4555 2.60625 19.4246 4.57538C21.3938 6.54451 22.5 9.21523 22.5 12C22.5 17.799 17.799 22.5 12 22.5C6.20101 22.5 1.5 17.799 1.5 12Z" fill="#616161"/>
<path fill-rule="evenodd" clip-rule="evenodd" d="M12 5.25C12.6213 5.25 13.125 5.75368 13.125 6.375C13.125 6.99632 12.6213 7.5 12 7.5C11.3787 7.5 10.875 6.99632 10.875 6.375C10.875 5.75368 11.3787 5.25 12 5.25Z" fill="#616161"/>
<path fill-rule="evenodd" clip-rule="evenodd" d="M15 18.0902H9V16.4102H11.16V11.3402H9.75V9.66016H12.8475V16.4102H15V18.0902Z" fill="#616161"/>
</svg>
