<svg width="24" height="24" viewBox="0 0 24 24" fill="none" xmlns="http://www.w3.org/2000/svg">
<path fill-rule="evenodd" clip-rule="evenodd" d="M23.2047 11.745C22.348 9.50312 20.8541 7.56085 18.9072 6.1575L22.4997 2.5575L21.4422 1.5L1.49968 21.4425L2.55718 22.5L6.38218 18.6825C8.0895 19.6776 10.0238 20.2173 11.9997 20.25C16.9963 20.0621 21.4017 16.9187 23.2047 12.255C23.2643 12.0902 23.2643 11.9098 23.2047 11.745ZM11.9997 16.875C10.9659 16.8745 9.95934 16.5434 9.12718 15.93L10.4997 14.5725C11.6686 15.213 13.12 15.0054 14.0625 14.0629C15.0051 13.1203 15.2127 11.669 14.5722 10.5L15.9297 9.1425C17.007 10.6222 17.1632 12.5812 16.3339 14.2129C15.5046 15.8446 13.83 16.8731 11.9997 16.875ZM3.39718 16.3575L7.14718 12.6075C7.12768 12.4056 7.12017 12.2028 7.12468 12C7.12881 9.30932 9.309 7.12913 11.9997 7.125C12.1977 7.12605 12.3956 7.13857 12.5922 7.1625L15.4272 4.335C14.3238 3.95603 13.1663 3.75847 11.9997 3.75C7.00311 3.9379 2.59766 7.08128 0.794681 11.745C0.735106 11.9098 0.735106 12.0902 0.794681 12.255C1.3707 13.787 2.25668 15.1836 3.39718 16.3575Z" fill="#616161"/>
</svg>
