<svg width="24" height="24" viewBox="0 0 24 24" fill="none" xmlns="http://www.w3.org/2000/svg">
<path d="M21 19.5938V4.40625C21 4.01786 20.8627 3.68638 20.5882 3.41183C20.3136 3.13728 19.9821 3 19.5938 3H4.40625C4.01786 3 3.68638 3.13728 3.41183 3.41183C3.13728 3.68638 3 4.01786 3 4.40625V19.5938C3 19.9821 3.13728 20.3136 3.41183 20.5882C3.68638 20.8627 4.01786 21 4.40625 21H19.5938C19.9821 21 20.3136 20.8627 20.5882 20.5882C20.8627 20.3136 21 19.9821 21 19.5938ZM12 5.53125C13.3259 5.53125 14.5497 5.78906 15.6713 6.30469C16.793 6.82031 17.6802 7.52009 18.3331 8.40402C18.986 9.28795 19.3125 10.2522 19.3125 11.2969C19.3125 12.3415 18.986 13.3058 18.3331 14.1897C17.6802 15.0737 16.793 15.7734 15.6713 16.2891C14.5497 16.8047 13.3259 17.0625 12 17.0625C11.558 17.0625 11.1261 17.0324 10.7042 16.9721C10.2489 17.3002 9.64453 17.7188 8.89118 18.2277C8.13783 18.7366 7.71094 18.9978 7.61049 19.0112C7.55022 19.0379 7.4933 19.0346 7.43973 19.0011C7.41295 18.9877 7.39453 18.966 7.38449 18.9358C7.37444 18.9057 7.36942 18.8806 7.36942 18.8605V18.8304C7.37612 18.7969 7.62388 17.9129 8.11272 16.1786C7.06808 15.6629 6.23605 14.9732 5.61663 14.1094C4.99721 13.2455 4.6875 12.308 4.6875 11.2969C4.6875 10.2522 5.01395 9.28795 5.66685 8.40402C6.31975 7.52009 7.20703 6.82031 8.32868 6.30469C9.45033 5.78906 10.6741 5.53125 12 5.53125ZM8.29353 12.8237V10.3125H8.93638C9.03013 10.3125 9.12388 10.2824 9.21763 10.2221C9.31138 10.1618 9.35826 10.0748 9.35826 9.96094C9.35826 9.85379 9.31473 9.76339 9.22768 9.68973C9.14062 9.61607 9.05692 9.57924 8.97656 9.57924H6.8471C6.59263 9.57924 6.4654 9.69643 6.4654 9.9308C6.4654 10.058 6.50893 10.1535 6.59598 10.2171C6.68304 10.2807 6.78013 10.3125 6.88728 10.3125H7.53013V12.8237C7.53013 12.9576 7.56362 13.0681 7.63058 13.1551C7.69754 13.2422 7.79129 13.2857 7.91183 13.2857C8.02567 13.2857 8.11775 13.2372 8.18806 13.1401C8.25837 13.043 8.29353 12.9375 8.29353 12.8237ZM11.8292 13.2857C12.0435 13.1987 12.1038 13.0045 12.01 12.7031C11.9967 12.6362 11.8493 12.216 11.5681 11.4425C11.2868 10.6691 11.1194 10.2254 11.0658 10.1116C10.9185 9.7567 10.7143 9.57924 10.4531 9.57924C10.1786 9.57924 9.96429 9.7567 9.81027 10.1116C9.77009 10.2054 9.60603 10.654 9.31808 11.4576C9.03013 12.2612 8.87946 12.6763 8.86607 12.7031C8.83259 12.75 8.82589 12.8387 8.84598 12.9693C8.86607 13.0999 8.92299 13.192 9.01674 13.2455C9.12388 13.2924 9.22935 13.2974 9.33315 13.2606C9.43694 13.2238 9.50893 13.1652 9.54911 13.0848L9.73996 12.5525H11.1663C11.2266 12.7467 11.2701 12.8739 11.2969 12.9342C11.4375 13.2422 11.615 13.3594 11.8292 13.2857ZM14.029 13.2857C14.1429 13.2857 14.2467 13.2506 14.3404 13.1802C14.4342 13.1099 14.481 13.0145 14.481 12.894C14.481 12.7734 14.4392 12.6797 14.3555 12.6127C14.2718 12.5458 14.1629 12.5123 14.029 12.5123H13.115V10.0413C13.115 9.92746 13.0815 9.82199 13.0145 9.72489C12.9475 9.62779 12.8538 9.57924 12.7333 9.57924C12.6127 9.57924 12.5206 9.62277 12.457 9.70982C12.3934 9.79688 12.3616 9.90737 12.3616 10.0413V12.8237C12.3616 12.9576 12.3934 13.0681 12.457 13.1551C12.5206 13.2422 12.6127 13.2857 12.7333 13.2857C12.74 13.2857 12.75 13.284 12.7634 13.2807C12.7768 13.2773 12.7868 13.2757 12.7935 13.2757C12.8002 13.2757 12.8103 13.2773 12.8237 13.2807C12.8371 13.284 12.8471 13.2857 12.8538 13.2857H14.029ZM17.2433 13.2355C17.3371 13.1484 17.3823 13.048 17.3789 12.9342C17.3756 12.8203 17.3404 12.7199 17.2734 12.6328C17.2667 12.6261 17.2132 12.5558 17.1127 12.4219C17.0123 12.2879 16.875 12.1038 16.7009 11.8694C16.5268 11.635 16.3761 11.4308 16.2489 11.2567C16.8783 10.6138 17.1964 10.2891 17.2031 10.2824C17.2835 10.202 17.332 10.1083 17.3488 10.0011C17.3655 9.89397 17.3337 9.79018 17.2533 9.68973C17.0792 9.50223 16.8817 9.51897 16.6607 9.73996C16.654 9.74665 16.5837 9.81864 16.4498 9.95591C16.3158 10.0932 16.1518 10.2606 15.9576 10.4581C15.7634 10.6557 15.5893 10.8315 15.4353 10.9855V10.0413C15.4353 9.92746 15.4001 9.82199 15.3298 9.72489C15.2595 9.62779 15.1674 9.57924 15.0536 9.57924C14.933 9.57924 14.8393 9.62277 14.7723 9.70982C14.7054 9.79688 14.6719 9.90737 14.6719 10.0413V12.8237C14.6719 12.9576 14.7054 13.0681 14.7723 13.1551C14.8393 13.2422 14.933 13.2857 15.0536 13.2857C15.1674 13.2857 15.2595 13.2372 15.3298 13.1401C15.4001 13.043 15.4353 12.9375 15.4353 12.8237V12.0804L15.5658 11.9498L15.7065 11.7991C16.3025 12.6027 16.6205 13.0346 16.6607 13.0949C16.7411 13.202 16.8315 13.269 16.9319 13.2958C17.0324 13.3225 17.1362 13.3025 17.2433 13.2355ZM9.96094 11.8192L10.4531 10.3527L10.9554 11.8192H9.96094Z" fill="#616161"/>
</svg>
