<svg width="25" height="25" viewBox="0 0 25 25" fill="none" xmlns="http://www.w3.org/2000/svg">
<path d="M24.8447 22.1095C24.8447 23.1603 24.0041 24.043 22.9112 24.043H2.82017C1.76938 24.043 0.886719 23.2023 0.886719 22.1095V1.97642C0.886719 0.925631 1.72735 0.0429688 2.82017 0.0429688H22.9533C24.0041 0.0429688 24.8867 0.883599 24.8867 1.97642V22.1095H24.8447Z" fill="#FFE600"/>
<path d="M13.118 3.91016C8.03218 3.91016 3.91309 7.14658 3.91309 11.1396C3.91309 13.7035 5.63638 15.9732 8.15827 17.2762L7.27561 20.5126C7.23358 20.5967 7.27561 20.7228 7.35967 20.8068C7.4017 20.8489 7.48577 20.8909 7.5278 20.8909C7.56983 20.8909 7.65389 20.8489 7.69592 20.8489L11.4367 18.327C11.9831 18.411 12.5295 18.4531 13.076 18.4531C18.1618 18.4531 22.2809 15.2166 22.2809 11.1816C22.3229 7.14658 18.2038 3.91016 13.118 3.91016Z" fill="#381E1E"/>
<path d="M7.14888 10.0042H6.14012C6.01403 10.0042 5.88793 9.96221 5.80387 9.92018C5.71981 9.87815 5.63574 9.75206 5.63574 9.66799C5.63574 9.62596 5.63574 9.58393 5.63574 9.58393C5.63574 9.45783 5.67777 9.33174 5.80387 9.24768C5.88793 9.16361 6.05606 9.12158 6.18215 9.12158H9.25045C9.37655 9.12158 9.50264 9.16361 9.58671 9.20565C9.67077 9.24768 9.75483 9.37377 9.75483 9.45783C9.75483 9.49987 9.75483 9.5419 9.75483 9.5419C9.75483 9.71002 9.7128 9.79409 9.58671 9.87815C9.50264 9.96221 9.33452 10.0042 9.20842 10.0042H8.19967V13.4508C8.19967 13.619 8.15763 13.745 8.07357 13.8291C7.98951 13.9132 7.86341 13.9972 7.69529 13.9972C7.56919 13.9972 7.4431 13.9552 7.35903 13.8711C7.27497 13.7871 7.19091 13.703 7.19091 13.5769C7.19091 13.5349 7.19091 13.4929 7.19091 13.4508L7.14888 10.0042Z" fill="#FFE600"/>
<path d="M10.0072 9.33186C10.0493 9.20576 10.1333 9.1217 10.2174 9.07967C10.3015 9.03764 10.4276 8.99561 10.5536 8.99561H10.8058C10.9319 8.99561 11.058 9.03764 11.1421 9.07967C11.2262 9.1217 11.3102 9.24779 11.3522 9.41592L12.6132 13.1147C12.6552 13.2408 12.6973 13.3249 12.6973 13.4089C12.6973 13.4509 12.6973 13.493 12.6973 13.535C12.6973 13.6611 12.6552 13.7872 12.5291 13.8713C12.4871 13.9553 12.361 13.9974 12.2349 13.9974C11.9827 13.9974 11.8146 13.9133 11.7726 13.7031L11.4783 12.9045H9.75505L9.46083 13.7031C9.37676 13.9133 9.25067 13.9974 8.99848 13.9974C8.87238 13.9974 8.78832 13.9553 8.70426 13.9133C8.6202 13.8292 8.57816 13.7452 8.53613 13.6191C8.53613 13.577 8.53613 13.535 8.53613 13.493C8.53613 13.4509 8.53613 13.3669 8.57816 13.2828C8.57816 13.1988 8.6202 13.1147 8.66223 13.0727L10.0072 9.33186ZM10.6377 10.1725L10.0072 12.1059H11.2262L10.6377 10.1725Z" fill="#FFE600"/>
<path d="M12.9082 9.54202C12.9082 9.37389 12.9503 9.24779 13.0343 9.16373C13.1184 9.07967 13.2445 8.99561 13.4126 8.99561C13.5387 8.99561 13.6648 9.03764 13.7489 9.1217C13.8329 9.20576 13.917 9.28983 13.917 9.41592C13.917 9.45795 13.917 9.49998 13.917 9.54202V12.9886H15.6823C15.8084 12.9886 15.9345 13.0306 16.0606 13.0727C16.1447 13.1567 16.2287 13.2408 16.2287 13.3249C16.2287 13.3669 16.2287 13.4089 16.2287 13.4089C16.2287 13.535 16.1867 13.6611 16.0606 13.7452C15.9765 13.8292 15.8084 13.8713 15.6823 13.8713H13.4967C13.3286 13.8713 13.2025 13.8292 13.1184 13.7872C13.0343 13.7031 12.9503 13.6191 12.9082 13.4509C12.9082 13.3669 12.9082 13.3249 12.8662 13.2408L12.9082 9.54202Z" fill="#FFE600"/>
<path d="M16.3545 9.54202C16.3545 9.37389 16.3965 9.24779 16.4806 9.16373C16.5646 9.07967 16.6907 8.99561 16.8589 8.99561C16.985 8.99561 17.1111 9.03764 17.1951 9.1217C17.2792 9.20576 17.3632 9.28983 17.3632 9.41592C17.3632 9.45795 17.3632 9.49998 17.3632 9.54202V11.1392L19.0445 9.24779C19.1286 9.16373 19.1706 9.1217 19.2547 9.07967C19.2967 9.03764 19.3808 9.03764 19.4648 9.03764C19.5909 9.03764 19.675 9.07967 19.8011 9.1217C19.8851 9.20576 19.9692 9.28983 19.9692 9.37389C19.9692 9.37389 19.9692 9.37389 19.9692 9.41592V9.45795C19.9692 9.54202 19.9692 9.58405 19.9272 9.66811C19.8851 9.71014 19.8431 9.7942 19.8011 9.83624L18.7083 11.0131L20.0112 13.0306L20.0533 13.0727C20.1373 13.1988 20.1794 13.3249 20.2214 13.3669C20.2214 13.3669 20.2214 13.3669 20.2214 13.4089V13.4509C20.2214 13.6191 20.1794 13.7872 20.0533 13.8713C19.9272 13.9553 19.8011 13.9974 19.675 13.9974C19.5489 13.9974 19.4648 13.9974 19.4228 13.9553C19.3387 13.9133 19.2967 13.8292 19.2126 13.7452L17.9937 11.7697L17.4053 12.3581V13.4509C17.4053 13.6191 17.3632 13.7452 17.2792 13.8292C17.1951 13.9133 17.069 13.9974 16.9009 13.9974C16.7748 13.9974 16.6487 13.9553 16.5646 13.8713C16.4806 13.7872 16.3965 13.7031 16.3965 13.577C16.3965 13.535 16.3965 13.493 16.3965 13.4509L16.3545 9.54202Z" fill="#FFE600"/>
</svg>
