<svg width="25" height="25" viewBox="0 0 25 25" fill="none" xmlns="http://www.w3.org/2000/svg">
<path d="M22.9533 0.0429688H2.82017C1.76938 0.0429688 0.886719 0.883599 0.886719 1.97642V22.1095C0.886719 23.1603 1.72735 24.043 2.82017 24.043H22.9533C24.0041 24.043 24.8867 23.2023 24.8867 22.1095V1.93439C24.8447 0.883599 24.0041 0.0429688 22.9533 0.0429688Z" fill="#F3D70E"/>
<path d="M16.8172 5.42285H10.4704C10.0501 5.42285 9.71387 5.7591 9.71387 6.17942V12.4841C9.71387 12.9045 10.0501 13.2407 10.4704 13.2407H13.4126C13.3706 13.9973 13.0764 14.7959 12.614 15.5104C12.1097 16.309 11.0168 17.2337 11.0168 17.2337C10.9328 17.3178 10.8487 17.4018 10.8487 17.5279C10.8487 17.612 10.8907 17.6961 10.9748 17.7801L13.0344 20.0919C13.0344 20.0919 13.1184 20.1759 13.2025 20.2179C13.2865 20.26 13.4126 20.26 13.4547 20.1759C16.9853 17.4439 17.4897 14.0393 17.5738 12.1899V6.22145C17.5738 5.7591 17.2375 5.42285 16.8172 5.42285Z" fill="white"/>
</svg>
