<svg width="24" height="24" viewBox="0 0 24 24" fill="none" xmlns="http://www.w3.org/2000/svg">
<path fill-rule="evenodd" clip-rule="evenodd" d="M18.8238 5.6078C18.8237 5.60332 18.8235 5.59883 18.8232 5.59434C18.8219 5.57656 18.8202 5.5591 18.8166 5.54179C18.8131 5.52449 18.8081 5.50719 18.8025 5.49052C18.8011 5.48636 18.7996 5.48219 18.798 5.47803C18.7921 5.46217 18.7854 5.44662 18.7777 5.43156L18.7764 5.42916C18.7681 5.41346 18.7585 5.39856 18.7481 5.38398C18.7455 5.38029 18.7428 5.37677 18.74 5.37309C18.729 5.35867 18.7175 5.34473 18.7045 5.33175L14.9929 1.62016C14.9799 1.60719 14.966 1.59565 14.9516 1.58459C14.9479 1.58187 14.9442 1.57899 14.9405 1.57642C14.9259 1.56601 14.9112 1.5564 14.8956 1.54823L14.8924 1.54662C14.8777 1.53893 14.8623 1.53236 14.8468 1.52644C14.8424 1.52483 14.8383 1.52339 14.8338 1.52195C14.8171 1.51634 14.8003 1.51138 14.7828 1.50785C14.7657 1.50449 14.7479 1.50256 14.7303 1.50128C14.7258 1.50112 14.7213 1.5008 14.7168 1.50064C14.7122 1.50048 14.7075 1.5 14.7029 1.5H5.41016C5.18361 1.5 5 1.68361 5 1.91016V19.4658C5 19.6923 5.18361 19.8759 5.41016 19.8759H10.5852V21.0898C10.5852 21.239 10.6663 21.3764 10.7969 21.4487C10.9276 21.5209 11.087 21.5166 11.2134 21.4373L12.7756 20.4573L14.3377 21.4373C14.4042 21.479 14.48 21.5 14.5557 21.5C14.624 21.5 14.6924 21.483 14.7542 21.4488C14.8848 21.3766 14.9659 21.2391 14.9659 21.0898V19.8759H18.4143C18.6409 19.8759 18.8245 19.6923 18.8245 19.4658V5.62174C18.8245 5.6171 18.824 5.61245 18.8238 5.6078ZM15.1131 2.90046L17.4242 5.21159H15.1131V2.90046ZM10.3829 13.1685C10.354 13.0902 10.3071 12.9622 10.306 12.9098C10.338 12.87 10.4492 12.7997 10.5173 12.7568C10.6634 12.6645 10.8291 12.5597 10.9493 12.3959C11.0705 12.2304 11.1199 12.0393 11.1635 11.8708C11.1825 11.7971 11.2133 11.678 11.2396 11.633C11.254 11.63 11.2843 11.6256 11.3411 11.6256C11.3868 11.6256 11.4379 11.6282 11.4921 11.6309C11.5542 11.634 11.6183 11.6372 11.6853 11.6372C11.833 11.6372 11.9522 11.6205 12.0604 11.5845C12.2493 11.5216 12.4003 11.4 12.5336 11.2927C12.6073 11.2334 12.7307 11.1341 12.7736 11.128C12.8206 11.1341 12.9438 11.2334 13.0175 11.2927C13.1508 11.4 13.302 11.5216 13.4909 11.5845C13.5991 11.6205 13.7181 11.6372 13.866 11.6372C13.9328 11.6372 13.9971 11.634 14.0591 11.6309C14.1132 11.6282 14.1643 11.6256 14.2101 11.6256C14.267 11.6256 14.2971 11.6298 14.3117 11.633C14.338 11.678 14.3688 11.7971 14.3877 11.8708C14.4312 12.0393 14.4808 12.2304 14.602 12.3959C14.722 12.5597 14.8877 12.6643 15.034 12.7568C15.1019 12.7999 15.2131 12.87 15.2451 12.9098C15.244 12.9622 15.1971 13.0902 15.1684 13.1685C15.1074 13.3347 15.0383 13.5231 15.0383 13.7318C15.0383 13.9406 15.1074 14.129 15.1682 14.2953C15.1971 14.3737 15.244 14.5017 15.2451 14.5541C15.2131 14.5938 15.1019 14.664 15.034 14.7071C14.8877 14.7994 14.722 14.9041 14.602 15.0679C14.4808 15.2334 14.4312 15.4245 14.3877 15.5931C14.3688 15.6666 14.3378 15.7858 14.3117 15.8308C14.2971 15.8339 14.267 15.8382 14.2101 15.8382C14.1643 15.8382 14.1132 15.8356 14.0591 15.8329C13.9971 15.8299 13.9328 15.8267 13.866 15.8267C13.7181 15.8267 13.5991 15.8433 13.4909 15.8794C13.302 15.9422 13.1508 16.064 13.0175 16.1711C12.9449 16.2298 12.8238 16.327 12.7756 16.3357C12.7273 16.327 12.6064 16.2298 12.5338 16.1711C12.4003 16.064 12.2493 15.9422 12.0604 15.8794C11.9522 15.8433 11.833 15.8267 11.6853 15.8267C11.6185 15.8267 11.5542 15.8299 11.4921 15.8329C11.4381 15.8356 11.387 15.8382 11.3411 15.8382C11.2843 15.8382 11.2541 15.8339 11.2396 15.8308C11.2133 15.7858 11.1825 15.6668 11.1635 15.5931C11.12 15.4245 11.0705 15.2334 10.9493 15.0679C10.8292 14.9041 10.6636 14.7994 10.5173 14.7071C10.4494 14.6641 10.3382 14.5938 10.3061 14.5541C10.3073 14.5018 10.3542 14.3737 10.3829 14.2953C10.4439 14.1292 10.513 13.9408 10.513 13.732C10.513 13.5231 10.4438 13.3347 10.3829 13.1685ZM14.1456 20.3483L12.9936 19.6256C12.8603 19.5421 12.6908 19.5421 12.5575 19.6256L11.4055 20.3483V16.6572C11.4491 16.656 11.4919 16.6544 11.5334 16.6523C11.5877 16.6494 11.639 16.6468 11.6853 16.6468C11.758 16.6468 11.7891 16.6536 11.8011 16.6576C11.85 16.6739 11.9439 16.7495 12.0193 16.8102C12.2108 16.9644 12.449 17.1562 12.7756 17.1562C13.1021 17.1562 13.3403 16.9644 13.5318 16.8102C13.6073 16.7495 13.7011 16.6739 13.7498 16.6577C13.762 16.6537 13.7931 16.647 13.8658 16.647C13.9121 16.647 13.9634 16.6495 14.0177 16.6523C14.0592 16.6544 14.102 16.6561 14.1454 16.6572L14.1456 20.3483ZM14.9659 19.0556V16.3267C15.0878 16.161 15.1388 15.9649 15.1819 15.7983C15.2045 15.7108 15.2354 15.5912 15.2636 15.5529C15.2916 15.5144 15.3959 15.4486 15.472 15.4005C15.6739 15.273 15.9251 15.1142 16.0249 14.8139C16.1236 14.5177 16.0209 14.2378 15.9384 14.0129C15.9009 13.9108 15.8585 13.795 15.8585 13.7318C15.8585 13.6687 15.9009 13.553 15.9384 13.451C16.0209 13.226 16.1236 12.946 16.0249 12.6497C15.9251 12.3496 15.6739 12.1909 15.472 12.0633C15.3959 12.0153 15.2916 11.9493 15.2636 11.9111C15.2354 11.8727 15.2045 11.753 15.1819 11.6655C15.1229 11.4372 15.0495 11.153 14.7983 10.9687C14.5984 10.8223 14.3668 10.8053 14.21 10.8053C14.1437 10.8053 14.0796 10.8085 14.0177 10.8117C13.9634 10.8144 13.9121 10.817 13.866 10.817C13.7931 10.817 13.762 10.8103 13.75 10.8063C13.7013 10.7901 13.6074 10.7145 13.5319 10.6536C13.3403 10.4996 13.1021 10.3078 12.7756 10.3078C12.4492 10.3078 12.2108 10.4996 12.0193 10.6536C11.9439 10.7143 11.85 10.7901 11.8013 10.8063C11.7893 10.8103 11.758 10.817 11.6853 10.817C11.6391 10.817 11.5877 10.8144 11.5334 10.8116C11.4716 10.8085 11.4076 10.8053 11.3411 10.8053C11.1845 10.8053 10.9529 10.8223 10.7531 10.9687C10.5018 11.153 10.4282 11.4372 10.3693 11.6655C10.3467 11.753 10.3158 11.8727 10.2877 11.911C10.2595 11.9493 10.1552 12.0153 10.0791 12.0633C9.87724 12.1909 9.62618 12.3496 9.5262 12.6497C9.42751 12.9461 9.53021 13.226 9.61272 13.451C9.65021 13.553 9.69267 13.6687 9.69267 13.7318C9.69267 13.795 9.65021 13.9108 9.61272 14.0129C9.53021 14.2378 9.42751 14.5177 9.5262 14.8141C9.62618 15.1142 9.8774 15.273 10.0791 15.4005C10.1554 15.4486 10.2595 15.5146 10.2877 15.5529C10.3158 15.5912 10.3467 15.7108 10.3693 15.7983C10.4124 15.9649 10.4635 16.1612 10.5854 16.3267V19.0556H5.82031V2.32031H14.2927V5.62174C14.2927 5.84829 14.4764 6.0319 14.7029 6.0319H18.0042V19.0556H14.9659Z" fill="#616161" stroke="#616161" stroke-width="0.5"/>
<path fill-rule="evenodd" clip-rule="evenodd" d="M7.41406 8.03174H12.6983C12.9247 8.03174 13.1085 7.84813 13.1085 7.62158C13.1085 7.39503 12.9247 7.21143 12.6983 7.21143H7.41406C7.18752 7.21143 7.00391 7.39503 7.00391 7.62158C7.00391 7.84813 7.18768 8.03174 7.41406 8.03174Z" fill="#616161" stroke="#616161" stroke-width="0.5"/>
<path fill-rule="evenodd" clip-rule="evenodd" d="M7.41406 5.82031H9.69835C9.92474 5.82031 10.1085 5.6367 10.1085 5.41016C10.1085 5.18361 9.92474 5 9.69835 5H7.41406C7.18752 5 7.00391 5.18361 7.00391 5.41016C7.00391 5.6367 7.18768 5.82031 7.41406 5.82031Z" fill="#616161" stroke="#616161" stroke-width="0.5"/>
</svg>
