<svg width="24" height="24" viewBox="0 0 24 24" fill="none" xmlns="http://www.w3.org/2000/svg">
<path fill-rule="evenodd" clip-rule="evenodd" d="M11.75 12.25C10.2312 12.25 9 13.4812 9 15C9 16.5188 10.2312 17.75 11.75 17.75C13.2688 17.75 14.5 16.5188 14.5 15C14.5 13.4812 13.2688 12.25 11.75 12.25ZM10.5 15C10.5 14.3096 11.0596 13.75 11.75 13.75C12.4404 13.75 13 14.3096 13 15C13 15.6904 12.4404 16.25 11.75 16.25C11.0596 16.25 10.5 15.6904 10.5 15Z" fill="#616161"/>
<path fill-rule="evenodd" clip-rule="evenodd" d="M11.75 1.25C9.12665 1.25 7 3.37665 7 6V7.25947C5.32189 7.38713 4 8.78919 4 10.5V18.5C4 20.2949 5.45507 21.75 7.25 21.75H16.25C18.0449 21.75 19.5 20.2949 19.5 18.5V10.5C19.5 8.78919 18.1781 7.38713 16.5 7.25947V6C16.5 3.37665 14.3734 1.25 11.75 1.25ZM8.5 6C8.5 4.20507 9.95507 2.75 11.75 2.75C13.5449 2.75 15 4.20507 15 6V7.25H8.5V6ZM5.5 10.5C5.5 9.5335 6.2835 8.75 7.25 8.75H16.25C17.2165 8.75 18 9.5335 18 10.5V18.5C18 19.4665 17.2165 20.25 16.25 20.25H7.25C6.2835 20.25 5.5 19.4665 5.5 18.5V10.5Z" fill="#616161"/>
</svg>
