<svg fill="none" height="24" viewBox="0 0 24 24" width="24" xmlns="http://www.w3.org/2000/svg"><path d="m21.3281 21.9984h-17.65622v-11.7968h-1.17188v-4.68754h3.85547c-.02695-.06562-.04336-.11289-.06485-.15625-.49023-1.03554-.19023-2.22344.72852-2.90586.33125-.24609.71133-.36445 1.10586-.45156h.58594c.06015.01836.11992.03906.18086.0543.55945.11775 1.05489.43991 1.3894.90351.15.2043.2891.41641.4415.61875.5078.67344 1.1144 1.24727 1.7773 1.77657.0453-.03633.0859-.06758.1254-.09961.7812-.63477 1.4699-1.35625 2.0246-2.20118.2509-.39204.6184-.69559 1.0508-.86796.1902-.07813.3906-.12422.5883-.18477h.5859c.0355.01447.0721.02622.1094.03516 1.323.21679 2.1953 1.50312 1.8984 2.80586-.0512.22421-.1437.43906-.2223.67265h3.8395v4.68753h-1.1719zm-10.5996-1.1808v-10.6004h-5.87459v10.6004zm9.4141 0v-10.6h-5.8742v10.6zm-9.4141-11.7969v-2.31953h-7.04608v2.31953zm1.1996-2.32656v14.12346h1.1477v-14.12307zm2.3438 0v2.31992h7.0457v-2.31953zm-3.4375-1.18047.0496-.07344c-.1703-.15117-.3637-.28359-.5078-.45742-.37659-.45547-.72542-.93398-1.0969-1.39414-.26055-.32265-.6168-.45156-1.02344-.40351-.28771.03328-.55266.17266-.74308.39089s-.29261.49962-.28661.78918c.00587.29632.12435.57927.33136.79136s.48701.33739.7831.35044c.3246.01797.65078.00625.97656.00664zm3.3156-.00273c.8441 0 1.6703.01328 2.4957-.00469.5637-.0125.9984-.41172 1.1027-.95703.0466-.2549.0068-.51805-.1132-.74773-.1199-.22969-.3131-.41277-.5489-.52024-.4843-.22734-1.0547-.0918-1.4004.34531-.1929.24492-.3558.51367-.5539.75391-.3117.37969-.6429.74375-.9804 1.13086z" fill="#616161"/></svg>