<svg width="24" height="24" viewBox="0 0 24 24" fill="none" xmlns="http://www.w3.org/2000/svg">
<path fill-rule="evenodd" clip-rule="evenodd" d="M11.9997 1.5C9.20759 1.50629 6.70751 3.23103 5.7102 5.839C4.71289 8.44696 5.42423 11.3998 7.49973 13.2675V22.5L11.9997 19.5L16.4997 22.5V13.2675C18.5752 11.3998 19.2866 8.44696 18.2893 5.839C17.292 3.23103 14.7919 1.50629 11.9997 1.5ZM14.9997 19.695L12.8322 18.255L11.9997 17.7L11.1672 18.255L8.99973 19.695V14.2875C10.8865 15.2394 13.113 15.2394 14.9997 14.2875V19.695ZM15.6672 12C13.8788 13.746 11.1076 13.9891 9.04246 12.5813C6.97736 11.1734 6.19105 8.50492 7.16279 6.20222C8.13453 3.89952 10.5949 2.60111 13.0442 3.09836C15.4936 3.59562 17.2529 5.75066 17.2497 8.25C17.248 9.66194 16.6775 11.0137 15.6672 12Z" fill="#616161"/>
</svg>
