<svg width="24" height="24" viewBox="0 0 24 24" fill="none" xmlns="http://www.w3.org/2000/svg">
<path fill-rule="evenodd" clip-rule="evenodd" d="M18.4762 12C18.4762 15.5767 15.5767 18.4762 12 18.4762C8.4233 18.4762 5.52381 15.5767 5.52381 12C5.52381 8.4233 8.4233 5.52381 12 5.52381C15.5767 5.52381 18.4762 8.4233 18.4762 12ZM20 12C20 16.4183 16.4183 20 12 20C7.58172 20 4 16.4183 4 12C4 7.58172 7.58172 4 12 4C16.4183 4 20 7.58172 20 12ZM9.07912 9.4026L9.02607 8.68932H7.42857V15.0675H9.13217V10.558C9.34832 10.1571 9.69808 9.95671 10.1814 9.95671C10.5312 9.95671 10.7788 10.0392 10.9242 10.2043C11.0696 10.3693 11.1423 10.6366 11.1423 11.006V15.0675H12.8459L12.84 10.6877C13.0365 10.2004 13.3902 9.95671 13.9011 9.95671C14.2587 9.95671 14.5082 10.0412 14.6497 10.2102C14.7912 10.3752 14.8619 10.6385 14.8619 11.0001V15.0675H16.5714V10.9942C16.5714 10.1846 16.4024 9.57944 16.0645 9.17859C15.7265 8.77382 15.2117 8.57143 14.52 8.57143C13.6908 8.57143 13.0522 8.89564 12.6042 9.54407C12.2977 8.89564 11.7338 8.57143 10.9124 8.57143C10.1422 8.57143 9.53106 8.84848 9.07912 9.4026Z" fill="#F2583E"/>
</svg>
