<svg width="25" height="24" viewBox="0 0 25 24" fill="none" xmlns="http://www.w3.org/2000/svg">
<path d="M24.8867 19.6476C24.8867 22.0606 22.9478 23.9995 20.5348 23.9995H5.2386C2.82568 23.9995 0.886719 22.0606 0.886719 19.6476V4.52376C0.886719 2.11083 2.82568 0.171875 5.2386 0.171875H20.5348C22.9478 0.171875 24.8867 2.11083 24.8867 4.52376V19.6476Z" fill="#31B24A"/>
<path d="M19.6734 2.11084H5.75601C3.98941 2.11084 2.52441 3.57583 2.52441 5.34244V13.0121C2.52441 14.7787 3.94632 16.2437 5.75601 16.2437H10.5388L12.1761 18.9152C12.1761 18.9152 12.1761 18.9582 12.2192 19.0013C12.3054 19.1737 12.4777 19.2599 12.6932 19.2599C12.9086 19.2599 13.081 19.1306 13.1671 19.0013C13.2102 18.9582 13.2102 18.9152 13.2102 18.9152L14.8476 16.2437H19.6303C21.3969 16.2437 22.8619 14.7787 22.8619 13.0121V5.34244C22.905 3.57583 21.44 2.11084 19.6734 2.11084Z" fill="white"/>
<path d="M7.04831 7.75515C7.04831 7.75515 6.48817 7.75515 5.97111 8.22912V6.24707H4.76465V11.4607H6.0142V11.0729C6.0142 11.0729 6.31582 11.59 7.04831 11.59C7.04831 11.59 8.81492 11.5038 8.81492 9.65102C8.81492 9.65102 8.72874 7.75515 7.04831 7.75515ZM6.78978 10.4697C6.3589 10.4697 5.97111 10.125 5.97111 9.65102C5.97111 9.22014 6.31582 8.83235 6.78978 8.83235C7.22066 8.83235 7.60845 9.17706 7.60845 9.65102C7.56537 10.125 7.22066 10.4697 6.78978 10.4697Z" fill="#F27528"/>
<path d="M9.20215 6.11768V7.32414C9.20215 7.32414 9.76229 7.28106 9.76229 8.35826V11.4175H10.9688V8.09973C10.9688 8.09973 11.0118 6.11768 9.20215 6.11768Z" fill="#F27528"/>
<path d="M13.9427 7.75537C13.9427 7.75537 11.8745 7.75537 11.8745 9.69433C11.8745 9.69433 11.7883 11.5902 13.9427 11.5902C13.9427 11.5902 16.054 11.5902 16.054 9.69433C16.0109 9.69433 16.0971 7.75537 13.9427 7.75537ZM13.9427 10.4699C13.5118 10.4699 13.124 10.1252 13.124 9.65125C13.124 9.22037 13.4688 8.83257 13.9427 8.83257C14.3736 8.83257 14.7614 9.17728 14.7614 9.65125C14.7183 10.1252 14.3736 10.4699 13.9427 10.4699Z" fill="#F27528"/>
<path d="M19.4579 7.8847V8.2294C19.4579 8.2294 19.1132 7.75543 18.4238 7.75543C18.4238 7.75543 16.6572 7.66926 16.6572 9.65131C16.6572 9.65131 16.6572 11.5041 18.3807 11.5041C18.3807 11.5041 19.0702 11.5472 19.4579 11.0301V11.3317C19.4579 11.3317 19.5441 12.2366 18.6824 12.2366H18.3807V13.3569H18.8547C18.8547 13.3569 20.6644 13.3569 20.6644 11.4179V7.8847H19.4579ZM18.7254 10.47C18.2946 10.47 17.9068 10.1253 17.9068 9.65131C17.9068 9.22043 18.2515 8.83263 18.7254 8.83263C19.1563 8.83263 19.5441 9.17734 19.5441 9.65131C19.5441 10.1253 19.1563 10.47 18.7254 10.47Z" fill="#F27528"/>
</svg>
