<svg width="24" height="24" viewBox="0 0 24 24" fill="none" xmlns="http://www.w3.org/2000/svg">
<g clip-path="url(#clip0)">
<path d="M3.39286 3C3.22545 3 3.07645 3.06362 2.94587 3.19085C2.81529 3.31808 2.75 3.46875 2.75 3.64286V20.3571C2.75 20.5312 2.81529 20.6819 2.94587 20.8092C3.07645 20.9364 3.22545 21 3.39286 21H20.1071C20.2746 21 20.4235 20.9364 20.5541 20.8092C20.6847 20.6819 20.75 20.5312 20.75 20.3571V3.64286C20.75 3.46875 20.6847 3.31808 20.5541 3.19085C20.4235 3.06362 20.2746 3 20.1071 3H3.39286ZM6.7779 7.5H10.2433L13.2567 12V7.5H16.7221V16.5H13.2567L10.2433 12V16.5H6.7779V7.5Z" fill="#616161"/>
</g>
<defs>
<clipPath id="clip0">
<rect x="2.75" y="3" width="18" height="18" fill="white"/>
</clipPath>
</defs>
</svg>
