<svg width="24" height="24" viewBox="0 0 24 24" fill="none" xmlns="http://www.w3.org/2000/svg">
<path fill-rule="evenodd" clip-rule="evenodd" d="M22.5 21.4425L2.5575 1.5L1.5 2.5575L7.5 8.5575L1.995 10.545C1.70365 10.6555 1.51099 10.9347 1.51099 11.2463C1.51099 11.5578 1.70365 11.837 1.995 11.9475L9.195 14.8275L12.075 22.0275C12.1856 22.3056 12.4509 22.4913 12.75 22.5C13.0603 22.4936 13.3346 22.2969 13.44 22.005L15.45 16.5L21.45 22.5L22.5 21.4425ZM4.35 11.25L8.655 9.75L10.9425 12L9.57 13.3725L4.35 11.25ZM12.75 19.65L10.6575 14.4L12 13.0575L14.25 15.345L12.75 19.65ZM11.7675 8.5875L17.4975 6.5025L15.4125 12.2325L16.5825 13.4025L19.455 5.505C19.5536 5.23155 19.4854 4.92572 19.2798 4.72017C19.0743 4.51461 18.7684 4.44636 18.495 4.545L10.5975 7.4175L11.7675 8.5875Z" fill="#616161"/>
</svg>
