<svg width="26" height="24" viewBox="0 0 26 24" fill="none" xmlns="http://www.w3.org/2000/svg">
<path fill-rule="evenodd" clip-rule="evenodd" d="M13.0001 0.75C11.9681 0.75 11.0253 1.29002 10.5055 2.18707L1.14014 18.3499C0.620078 19.2476 0.619842 20.3378 1.1401 21.2358C1.65987 22.1329 2.60268 22.6728 3.63473 22.6728H22.3653C23.3973 22.6728 24.3401 22.1327 24.86 21.2358C25.3801 20.338 25.3799 19.2476 24.86 18.3499L15.4946 2.18702C14.9749 1.29007 14.0321 0.75 13.0001 0.75ZM12.2552 4.18585C12.4105 3.91256 12.6856 3.75 13 3.75C13.3144 3.75 13.5896 3.91261 13.7448 4.18588L22.1337 18.9483C22.2887 19.2212 22.2887 19.5413 22.1337 19.8141C21.9783 20.0874 21.7032 20.25 21.3889 20.25H4.61113C4.29669 20.25 4.02158 20.0874 3.86629 19.8141C3.71123 19.5412 3.71125 19.2212 3.86629 18.9483L12.2552 4.18585Z" fill="#616161"/>
<path fill-rule="evenodd" clip-rule="evenodd" d="M12 9.5C12 8.94772 12.4477 8.5 13 8.5C13.5523 8.5 14 8.94772 14 9.5V13.5C14 14.0523 13.5523 14.5 13 14.5C12.4477 14.5 12 14.0523 12 13.5V9.5ZM12.9989 15.918C12.2807 15.918 11.6973 16.5014 11.6973 17.2196C11.6973 17.9379 12.2807 18.5213 12.9989 18.5213C13.7171 18.5213 14.3006 17.9379 14.3006 17.2196C14.3006 16.5014 13.7172 15.918 12.9989 15.918ZM11.75 9.5C11.75 8.80964 12.3096 8.25 13 8.25C13.6904 8.25 14.25 8.80964 14.25 9.5V13.5C14.25 14.1904 13.6904 14.75 13 14.75C12.3096 14.75 11.75 14.1904 11.75 13.5V9.5ZM11.4473 17.2196C11.4473 16.3633 12.1426 15.668 12.9989 15.668C13.8553 15.668 14.5506 16.3633 14.5506 17.2196C14.5506 18.076 13.8552 18.7713 12.9989 18.7713C12.1426 18.7713 11.4473 18.076 11.4473 17.2196Z" fill="#616161"/>
<path d="M12.25 9.5C12.25 9.08579 12.5858 8.75 13 8.75C13.4142 8.75 13.75 9.08579 13.75 9.5V13.5C13.75 13.9142 13.4142 14.25 13 14.25C12.5858 14.25 12.25 13.9142 12.25 13.5V9.5Z" fill="#616161"/>
<path fill-rule="evenodd" clip-rule="evenodd" d="M13 8.5C12.4477 8.5 12 8.94772 12 9.5V13.5C12 14.0523 12.4477 14.5 13 14.5C13.5523 14.5 14 14.0523 14 13.5V9.5C14 8.94772 13.5523 8.5 13 8.5ZM13 8.75C12.5858 8.75 12.25 9.08579 12.25 9.5V13.5C12.25 13.9142 12.5858 14.25 13 14.25C13.4142 14.25 13.75 13.9142 13.75 13.5V9.5C13.75 9.08579 13.4142 8.75 13 8.75Z" fill="#616161"/>
<path d="M11.9473 17.2196C11.9473 16.6395 12.4188 16.168 12.9989 16.168C13.5791 16.168 14.0506 16.6395 14.0506 17.2196C14.0506 17.7998 13.5791 18.2713 12.9989 18.2713C12.4188 18.2713 11.9473 17.7998 11.9473 17.2196Z" fill="#616161"/>
<path fill-rule="evenodd" clip-rule="evenodd" d="M11.6973 17.2196C11.6973 16.5014 12.2807 15.918 12.9989 15.918C13.7172 15.918 14.3006 16.5014 14.3006 17.2196C14.3006 17.9379 13.7171 18.5213 12.9989 18.5213C12.2807 18.5213 11.6973 17.9379 11.6973 17.2196ZM12.9989 16.168C12.4188 16.168 11.9473 16.6395 11.9473 17.2196C11.9473 17.7998 12.4188 18.2713 12.9989 18.2713C13.5791 18.2713 14.0506 17.7998 14.0506 17.2196C14.0506 16.6395 13.5791 16.168 12.9989 16.168Z" fill="#616161"/>
<path fill-rule="evenodd" clip-rule="evenodd" d="M13 3.75C12.6856 3.75 12.4105 3.91256 12.2552 4.18585L3.86629 18.9483C3.71125 19.2212 3.71123 19.5412 3.86629 19.8141C4.02158 20.0874 4.29669 20.25 4.61113 20.25H21.3889C21.7032 20.25 21.9783 20.0874 22.1337 19.8141C22.2887 19.5413 22.2887 19.2212 22.1337 18.9483L13.7448 4.18588C13.5896 3.91261 13.3144 3.75 13 3.75ZM21.9163 19.6906C21.8048 19.8869 21.612 20 21.3889 20H4.61113C4.38795 20 4.19517 19.8869 4.08366 19.6906C3.97211 19.4943 3.97212 19.2681 4.08366 19.0718L12.4726 4.30936C12.5841 4.1131 12.7769 4 13 4C13.2231 4 13.416 4.11314 13.5275 4.30939L21.9164 19.0718C22.0279 19.2682 22.0279 19.4943 21.9163 19.6906Z" fill="#616161"/>
<path fill-rule="evenodd" clip-rule="evenodd" d="M21.3889 20C21.612 20 21.8048 19.8869 21.9163 19.6906C22.0279 19.4943 22.0279 19.2682 21.9164 19.0718L13.5275 4.30939C13.416 4.11314 13.2231 4 13 4C12.7769 4 12.5841 4.1131 12.4726 4.30936L4.08366 19.0718C3.97212 19.2681 3.97211 19.4943 4.08366 19.6906C4.19517 19.8869 4.38795 20 4.61113 20H21.3889ZM13 4.25C12.8682 4.25 12.7577 4.31364 12.69 4.43287L4.30102 19.1953C4.233 19.315 4.233 19.4474 4.30102 19.5671C4.36876 19.6863 4.4792 19.75 4.61113 19.75H21.3889C21.5207 19.75 21.6312 19.6864 21.699 19.5671C21.767 19.4474 21.767 19.3151 21.699 19.1953L13.3101 4.43291C13.2424 4.31367 13.1319 4.25 13 4.25Z" fill="#616161"/>
</svg>
