<svg width="25" height="24" viewBox="0 0 25 24" fill="none" xmlns="http://www.w3.org/2000/svg">
<path d="M7.48989 10.1641H6.25C6.0943 10.1641 5.94496 10.2261 5.835 10.3363C5.72504 10.4466 5.66356 10.5961 5.66407 10.7519L5.6727 15.2029C5.6727 15.5264 5.93504 15.7888 6.25864 15.7888C6.58223 15.7888 6.84457 15.5264 6.84457 15.2029V13.8514C7.08414 13.8502 7.34008 13.8491 7.48989 13.8491C8.51942 13.8491 9.35703 13.0226 9.35703 12.0066C9.35703 10.9906 8.51942 10.1641 7.48989 10.1641ZM7.48989 12.6773C7.33875 12.6773 7.08188 12.6783 6.84137 12.6796C6.84012 12.4301 6.83903 12.1615 6.83903 12.0066C6.83903 11.8741 6.83836 11.5967 6.83766 11.3359H7.48985C7.86672 11.3359 8.18512 11.643 8.18512 12.0066C8.18512 12.3702 7.86676 12.6773 7.48989 12.6773Z" fill="#616161"/>
<path d="M12.4738 10.1641H11.25C11.0944 10.1641 10.9452 10.2259 10.8353 10.3361C10.7254 10.4462 10.6638 10.5955 10.6641 10.7511C10.6641 10.7511 10.6728 15.0576 10.6728 15.0732C10.6734 15.2286 10.7357 15.3775 10.846 15.487C10.9558 15.5959 11.1041 15.657 11.2588 15.657H11.261C11.298 15.6569 12.1709 15.6536 12.5199 15.6475C13.8439 15.6243 14.8048 14.4733 14.8048 12.9105C14.8048 11.2678 13.868 10.1641 12.4738 10.1641ZM12.4994 14.4758C12.3477 14.4784 12.0866 14.4806 11.8427 14.4821C11.8411 13.9732 11.8379 11.8648 11.837 11.3359H12.4738C13.5493 11.3359 13.6329 12.5412 13.6329 12.9106C13.6329 13.6798 13.2824 14.4621 12.4994 14.4758Z" fill="#616161"/>
<path d="M18.6665 11.2891C18.9901 11.2891 19.2525 11.0267 19.2525 10.7031C19.2525 10.3795 18.9901 10.1172 18.6665 10.1172H16.875C16.5514 10.1172 16.2891 10.3795 16.2891 10.7031V15.1233C16.2891 15.4469 16.5514 15.7093 16.875 15.7093C17.1986 15.7093 17.4609 15.4469 17.4609 15.1233V13.4573H18.5242C18.8478 13.4573 19.1102 13.195 19.1102 12.8714C19.1102 12.5478 18.8478 12.2855 18.5242 12.2855H17.4609V11.2891H18.6665Z" fill="#616161"/>
<path d="M20.3906 7.66406H19.9609V7.49691C19.9609 6.74371 19.6755 6.02789 19.1573 5.48125L16.7236 2.91402C16.1729 2.33316 15.3979 2 14.5975 2H6.79688C5.82762 2 5.03906 2.78855 5.03906 3.75781V7.66406H4.60938C3.64012 7.66406 2.85156 8.45262 2.85156 9.42188V16.4531C2.85156 17.4224 3.64012 18.2109 4.60938 18.2109H5.03906V20.2422C5.03906 21.2114 5.82762 22 6.79688 22H18.2031C19.1724 22 19.9609 21.2114 19.9609 20.2422V18.2109H20.3906C21.3599 18.2109 22.1484 17.4224 22.1484 16.4531V9.42188C22.1484 8.45262 21.3599 7.66406 20.3906 7.66406ZM6.21094 3.75781C6.21094 3.43473 6.47379 3.17188 6.79688 3.17188H14.5975C15.0777 3.17188 15.5427 3.37176 15.8731 3.72031L18.3069 6.28754C18.6179 6.61551 18.7891 7.045 18.7891 7.49691V7.66406H6.21094V3.75781ZM18.7891 20.2422C18.7891 20.5653 18.5262 20.8281 18.2031 20.8281H6.79688C6.47379 20.8281 6.21094 20.5653 6.21094 20.2422V18.2109H18.7891V20.2422ZM20.9766 16.4531C20.9766 16.7762 20.7137 17.0391 20.3906 17.0391H4.60938C4.28629 17.0391 4.02344 16.7762 4.02344 16.4531V9.42188C4.02344 9.09879 4.28629 8.83594 4.60938 8.83594H20.3906C20.7137 8.83594 20.9766 9.09879 20.9766 9.42188V16.4531Z" fill="#616161"/>
</svg>
