<svg width="24" height="24" viewBox="0 0 24 24" fill="none" xmlns="http://www.w3.org/2000/svg">
<path d="M20.8156 3.5322H17.4286V2.1774C17.4286 1.80297 17.1254 1.5 16.7512 1.5H7.26734C6.89323 1.5 6.58994 1.80297 6.58994 2.1774V3.5322H3.20279C2.82868 3.5322 2.52539 3.83517 2.52539 4.20975V5.56455C2.52539 7.94843 4.29579 9.92182 6.58994 10.2523V10.3065C6.58994 13.0648 8.66283 15.3437 11.3319 15.6787V17.0807H7.94474C7.57063 17.0807 7.26734 17.3836 7.26734 17.758V21.1452H6.58994C6.21584 21.1452 5.91254 21.4482 5.91254 21.8226C5.91254 22.197 6.21584 22.5 6.58994 22.5H17.4286C17.8027 22.5 18.106 22.197 18.106 21.8226C18.106 21.4482 17.8027 21.1452 17.4286 21.1452H16.7512V17.758C16.7512 17.3836 16.448 17.0807 16.0738 17.0807H12.6867V15.6787C15.3558 15.3437 17.4286 13.0648 17.4286 10.3065V10.2523C19.7228 9.92182 21.4932 7.94843 21.4932 5.56455V4.20975C21.4932 3.83517 21.1897 3.5322 20.8156 3.5322ZM15.3963 18.4354V21.1452H8.62214V18.4354H15.3963ZM3.88019 5.56455V4.88715H6.58994V8.88313C5.04593 8.56847 3.88019 7.20005 3.88019 5.56455ZM16.0738 10.3065C16.0738 12.5478 14.2506 14.3709 12.0093 14.3709C9.76801 14.3709 7.94474 12.5478 7.94474 10.3065V2.8548H16.0738V10.3065ZM20.1382 5.56455C20.1382 7.20005 18.9727 8.56847 17.4286 8.88313V4.88715H20.1382V5.56455Z" fill="#616161"/>
</svg>
