<svg width="24" height="24" viewBox="0 0 24 24" fill="none" xmlns="http://www.w3.org/2000/svg">
<path d="M2.29243 2.29243H5.39426V1H1V5.39426H2.29243V2.29243Z" fill="#616161"/>
<path d="M19.9193 20.0286V6.90045H16.3409V8.19288H18.6269V9.94731H17.0084V11.2397H18.6269V13.08H14.9305V11.1064H13.6381V13.08H13.6168H10.9975V7.80071H12.5118V6.50828H10.9975V4.11914H4.04883V11.0678H9.70506V15.8147H7.62955V18.7362H4.71624V20.0286H10.9975V18.7362H8.92198V17.1071H10.9975V14.3724H12.9706V20.0286H19.9193V20.0286ZM18.6269 18.7362H14.263V14.3724H18.6269V18.7362ZM5.34126 5.41157H9.70506V9.77537H5.34126V5.41157Z" fill="#616161"/>
<path d="M16.3623 4.11914H19.9194V5.41157H16.3623V4.11914Z" fill="#616161"/>
<path d="M6.85547 6.83984H8.19033V8.13227H6.85547V6.83984Z" fill="#616161"/>
<path d="M15.6729 15.9082H17.0077V17.2006H15.6729V15.9082Z" fill="#616161"/>
<path d="M13.3652 4.11914H14.7001V5.41157H13.3652V4.11914Z" fill="#616161"/>
<path d="M13.6162 8.5293H14.9511V9.82173H13.6162V8.5293Z" fill="#616161"/>
<path d="M4.69434 15.8145H6.0292V17.1069H4.69434V15.8145Z" fill="#616161"/>
<path d="M4.41602 13.0801H8.16858V14.3725H4.41602V13.0801Z" fill="#616161"/>
<path d="M2.29243 18.6484H1V23.0427H5.39426V21.7503H2.29243V18.6484Z" fill="#616161"/>
<path d="M18.6064 1V2.29243L21.7083 2.29247V5.3943H23.0007V1.00004L18.6064 1Z" fill="#616161"/>
<path d="M21.7083 21.7503L18.6064 21.7502V23.0427L23.0007 23.0427V18.6484H21.7083V21.7503Z" fill="#616161"/>
</svg>
