<svg width="24" height="24" viewBox="0 0 24 24" fill="none" xmlns="http://www.w3.org/2000/svg">
<path d="M5.34375 18.875H17.4922C18.7845 18.875 19.8359 17.8236 19.8359 16.5312V4.34375C19.8359 3.05141 18.7845 2 17.4922 2H5.34375C4.05141 2 3 3.05141 3 4.34375V19.6562C3 20.9486 4.05141 22 5.34375 22H16.7109H17.4922C18.7845 22 19.8359 20.9486 19.8359 19.6562V19.6543C19.1826 20.1458 18.3709 20.4375 17.4922 20.4375H16.7109H5.34375C4.91297 20.4375 4.5625 20.087 4.5625 19.6562C4.5625 19.2255 4.91297 18.875 5.34375 18.875ZM4.5625 4.34375C4.5625 3.91297 4.91297 3.5625 5.34375 3.5625H17.4922C17.923 3.5625 18.2734 3.91297 18.2734 4.34375V16.5312C18.2734 16.962 17.923 17.3125 17.4922 17.3125H5.34375C5.06996 17.3125 4.80695 17.3597 4.5625 17.4464V4.34375ZM10.1094 8.58516H8.54688C8.54688 7.78367 8.89039 7.01652 9.48938 6.48031C10.0962 5.93703 10.9125 5.67734 11.7292 5.76805C13.0375 5.91324 14.0911 6.96402 14.2343 8.26664C14.3648 9.45469 13.6681 10.3072 13.1327 10.8451C12.9949 10.9835 12.8677 11.1048 12.7555 11.2119C12.245 11.6988 12.1799 11.7806 12.1799 12.117V12.1562H10.6174V12.117C10.6174 11.0917 11.1085 10.6234 11.6771 10.0811C11.7876 9.97574 11.9019 9.8668 12.0253 9.74277C12.5299 9.23586 12.726 8.84547 12.6812 8.43734C12.6172 7.8557 12.1444 7.38621 11.5569 7.32102C11.1762 7.27891 10.8118 7.39359 10.5316 7.64453C10.2593 7.8882 10.1094 8.22227 10.1094 8.58516ZM10.6172 13.3281H12.1797V14.8906H10.6172V13.3281Z" fill="#616161"/>
</svg>
