<svg width="24" height="24" viewBox="0 0 24 24" fill="none" xmlns="http://www.w3.org/2000/svg">
<path fill-rule="evenodd" clip-rule="evenodd" d="M1 12.5C1 6.70101 5.70101 2 11.5 2C14.2848 2 16.9555 3.10625 18.9246 5.07538C20.8938 7.04451 22 9.71523 22 12.5C22 18.299 17.299 23 11.5 23C5.70101 23 1 18.299 1 12.5ZM2.5 12.5C2.5 17.4706 6.52944 21.5 11.5 21.5C16.4706 21.5 20.5 17.4706 20.5 12.5C20.5 7.52944 16.4706 3.5 11.5 3.5C6.52944 3.5 2.5 7.52944 2.5 12.5Z" fill="#616161"/>
<path fill-rule="evenodd" clip-rule="evenodd" d="M11.5 6.5C8.18629 6.5 5.5 9.18629 5.5 12.5C5.5 15.8137 8.18629 18.5 11.5 18.5C14.8137 18.5 17.5 15.8137 17.5 12.5C17.5 9.18629 14.8137 6.5 11.5 6.5Z" fill="#FFA500"/>
</svg>
