<svg width="18" height="19" viewBox="0 0 18 19" fill="none" xmlns="http://www.w3.org/2000/svg">
<path d="M3.99771 8.39232C4.39577 8.39232 4.75533 8.13174 4.90931 7.73139C5.54505 6.07993 7.03993 4.91607 8.78266 4.91607C9.74318 4.91607 10.6238 5.27501 11.3297 5.87036L10.7764 5.96376C10.5874 5.9957 10.4403 6.1592 10.4147 6.36585C10.3891 6.57237 10.4912 6.77275 10.6655 6.85815L13.7085 8.35079C13.8419 8.4161 13.9964 8.40354 14.1194 8.3174C14.2421 8.23112 14.3167 8.08305 14.3175 7.92374L14.3333 4.26797C14.3343 4.06 14.21 3.87608 14.0277 3.81545C13.8451 3.75483 13.6479 3.83177 13.5422 4.00489L13.1228 4.69216C12.0045 3.49194 10.4722 2.75 8.78266 2.75C6.22087 2.75 4.0183 4.45571 3.0789 6.88004C2.94843 7.21607 2.98132 7.60084 3.16604 7.90484C3.35076 8.20896 3.66301 8.39232 3.99771 8.39232Z" fill="#616161"/>
<path d="M14.3978 11.0949C14.213 10.7908 13.9007 10.6074 13.5661 10.6074C13.168 10.6074 12.8084 10.868 12.6545 11.2683C12.0187 12.9198 10.5238 14.0837 8.7811 14.0837C7.82057 14.0837 6.93998 13.7247 6.23397 13.1294L6.78735 13.036C6.97634 13.0041 7.12338 12.8406 7.14904 12.6339C7.17468 12.4274 7.0726 12.227 6.8983 12.1416L3.85527 10.649C3.72185 10.5837 3.56734 10.5962 3.44437 10.6823C3.32166 10.7686 3.24707 10.9167 3.24628 11.076L3.23048 14.7317C3.22941 14.9397 3.35373 15.1236 3.53603 15.1843C3.71862 15.2449 3.9159 15.1679 4.02151 14.9948L4.44094 14.3075C5.55919 15.5078 7.09154 16.2497 8.78108 16.2497C11.3429 16.2497 13.5454 14.544 14.4848 12.1197C14.6153 11.7837 14.5825 11.3989 14.3978 11.0949Z" fill="#616161"/>
</svg>
