<svg width="24" height="24" viewBox="0 0 24 24" fill="none" xmlns="http://www.w3.org/2000/svg">
<path fill-rule="evenodd" clip-rule="evenodd" d="M9.00001 7.4998H5.08501C7.07711 4.43825 10.8452 3.05106 14.3469 4.09014C17.8486 5.12922 20.2502 8.34719 20.25 11.9998H21.75C21.7542 7.89019 19.1812 4.21916 15.3166 2.8212C11.4521 1.42325 7.12592 2.59856 4.50001 5.7598V2.9998H3.00001V8.9998H9.00001V7.4998ZM15 16.4998H18.915C16.9229 19.5614 13.1548 20.9485 9.65308 19.9095C6.15138 18.8704 3.74977 15.6524 3.75001 11.9998H2.25001C2.24577 16.1094 4.81884 19.7804 8.68337 21.1784C12.5479 22.5764 16.8741 21.401 19.5 18.2398V20.9998H21V14.9998H15V16.4998Z" fill="#616161"/>
</svg>
