<svg width="18" height="19" viewBox="0 0 18 19" fill="none" xmlns="http://www.w3.org/2000/svg">
<path fill-rule="evenodd" clip-rule="evenodd" d="M6.18746 8.37496H11.8125V10.625H6.18746V8.37496ZM8.17141 17.0318C8.39092 17.2519 8.68913 17.3754 8.99997 17.375C9.31074 17.3756 9.60893 17.2523 9.82854 17.0324L16.5324 10.3285C16.9891 9.87057 16.9891 9.12938 16.5324 8.67141L9.82854 1.96754C9.37057 1.51082 8.62938 1.51082 8.17141 1.96754L1.46754 8.67197C1.01082 9.12994 1.01082 9.87113 1.46754 10.3291L8.17141 17.0318ZM8.97353 4.26094C8.98053 4.25408 8.98998 4.2503 8.99978 4.25044V4.25C9.00964 4.24998 9.0191 4.25392 9.02603 4.26094L14.2394 9.4748C14.2535 9.48911 14.2535 9.51211 14.2394 9.52642L9.02516 14.7394C9.01085 14.7535 8.98784 14.7535 8.97353 14.7394L3.76059 9.52555C3.74647 9.51124 3.74647 9.48824 3.76059 9.47393L8.97353 4.26094Z" fill="#616161"/>
</svg>
