<svg width="24" height="24" viewBox="0 0 24 24" fill="none" xmlns="http://www.w3.org/2000/svg">
<path fill-rule="evenodd" clip-rule="evenodd" d="M8.25902 3.90634C8.25902 4.87493 7.47281 5.66134 6.50402 5.66134C5.53524 5.66134 4.74902 4.87493 4.74902 3.90634C4.74902 2.93776 5.53524 2.15134 6.50402 2.15134C7.47281 2.15134 8.25902 2.93776 8.25902 3.90634ZM7.12902 3.90634C7.12902 4.25092 6.84866 4.53134 6.50402 4.53134C6.15939 4.53134 5.87902 4.25092 5.87902 3.90634C5.87902 3.56177 6.15939 3.28134 6.50402 3.28134C6.84866 3.28134 7.12902 3.56177 7.12902 3.90634Z" fill="#616161"/>
<path fill-rule="evenodd" clip-rule="evenodd" d="M11.5918 20.8541C11.5918 19.8857 12.3778 19.0991 13.3467 19.0991C14.3156 19.0991 15.1016 19.8857 15.1016 20.8541C15.1016 21.8225 14.3156 22.6091 13.3467 22.6091C12.3778 22.6091 11.5918 21.8225 11.5918 20.8541ZM12.7218 20.8541C12.7218 20.5095 13.0021 20.2291 13.3467 20.2291C13.6913 20.2291 13.9716 20.5095 13.9716 20.8541C13.9716 21.1987 13.6913 21.4791 13.3467 21.4791C13.0021 21.4791 12.7218 21.1987 12.7218 20.8541Z" fill="#616161"/>
<path d="M2.90255 10.6261C2.90255 10.9115 2.67127 11.1428 2.3859 11.1428C2.10053 11.1428 1.86926 10.9115 1.86926 10.6261C1.86926 10.3407 2.10053 10.1095 2.3859 10.1095C2.67127 10.1095 2.90255 10.3407 2.90255 10.6261Z" fill="#616161"/>
<path fill-rule="evenodd" clip-rule="evenodd" d="M3.53255 10.6261C3.53255 11.2594 3.01921 11.7728 2.3859 11.7728C1.7526 11.7728 1.23926 11.2594 1.23926 10.6261C1.23926 9.99281 1.7526 9.47947 2.3859 9.47947C3.01921 9.47947 3.53255 9.99281 3.53255 10.6261ZM2.3859 11.1428C2.67127 11.1428 2.90255 10.9115 2.90255 10.6261C2.90255 10.3407 2.67127 10.1095 2.3859 10.1095C2.10053 10.1095 1.86926 10.3407 1.86926 10.6261C1.86926 10.9115 2.10053 11.1428 2.3859 11.1428Z" fill="#616161"/>
<path d="M22.1809 15.7423C22.1809 16.0277 21.9496 16.259 21.6642 16.259C21.3789 16.259 21.1476 16.0277 21.1476 15.7423C21.1476 15.457 21.3789 15.2257 21.6642 15.2257C21.9496 15.2257 22.1809 15.457 22.1809 15.7423Z" fill="#616161"/>
<path fill-rule="evenodd" clip-rule="evenodd" d="M22.8109 15.7423C22.8109 16.3756 22.2975 16.889 21.6642 16.889C21.0309 16.889 20.5176 16.3756 20.5176 15.7423C20.5176 15.109 21.0309 14.5957 21.6642 14.5957C22.2975 14.5957 22.8109 15.109 22.8109 15.7423ZM21.6642 16.259C21.9496 16.259 22.1809 16.0277 22.1809 15.7423C22.1809 15.457 21.9496 15.2257 21.6642 15.2257C21.3789 15.2257 21.1476 15.457 21.1476 15.7423C21.1476 16.0277 21.3789 16.259 21.6642 16.259Z" fill="#616161"/>
<path d="M22.5764 9.33011L21.87 8.62374C22.0846 7.9771 22.1359 7.2884 22.0163 6.60909C21.8692 5.77352 20.7663 4.30663 20.1645 3.70483C19.5627 3.10304 18.0959 2.0001 17.2602 1.85304C16.5809 1.73351 15.8922 1.78477 15.2456 1.99935L14.5392 1.29299L11.8279 4.00429L12.4247 4.60107L7.84137 11.1937L8.35007 11.7024L4.15312 16.4414L4.5222 16.8105L1.86926 19.4634L4.40596 22.0001L7.05891 19.3472L7.42799 19.7163L12.1669 15.5193L12.6756 16.0281L19.2683 11.4447L19.8651 12.0414L22.5764 9.33011ZM19.3337 4.53562C19.9701 5.17197 20.9755 6.76982 20.8857 7.63946L16.2299 2.98363C17.0995 2.89382 18.6973 3.89928 19.3337 4.53562ZM14.5392 2.95461L20.9148 9.33014L19.8651 10.3798L13.4896 4.00429L14.5392 2.95461ZM4.40596 20.3385L3.53088 19.4634L5.35303 17.6413L6.22812 18.5164L4.40596 20.3385ZM7.47687 18.1035L5.76586 16.3925L9.18239 12.5347L11.3346 14.687L7.47687 18.1035ZM12.7187 14.4095L9.45991 11.1507L13.2567 5.433L18.4363 10.6127L12.7187 14.4095Z" fill="#616161"/>
<path fill-rule="evenodd" clip-rule="evenodd" d="M22.7531 9.3301L19.8651 12.2182L19.2538 11.607L12.6611 16.1904L12.1617 15.6909L7.42279 19.8878L7.05891 19.524L4.40596 22.1769L1.69248 19.4634L4.34543 16.8105L3.98154 16.4465L8.1785 11.7076L7.67907 11.2082L12.2624 4.61555L11.6512 4.00429L14.5392 1.11621L15.28 1.85698C15.9248 1.65595 16.608 1.61135 17.2819 1.72993C17.7282 1.80848 18.3231 2.13514 18.8701 2.50485C19.4217 2.87771 19.9453 3.30884 20.2529 3.61645C20.5605 3.92405 20.9916 4.4477 21.3645 4.9993C21.7342 5.54623 22.0609 6.14111 22.1394 6.58742C22.258 7.26135 22.2134 7.94455 22.0124 8.58934L22.7531 9.3301ZM21.87 8.62374C22.0846 7.9771 22.1359 7.2884 22.0163 6.60909C21.8692 5.77352 20.7663 4.30663 20.1645 3.70483C19.5627 3.10304 18.0959 2.0001 17.2602 1.85304C16.5809 1.73351 15.8922 1.78477 15.2456 1.99935L14.5392 1.29299L11.8279 4.00429L12.4247 4.60107L7.84137 11.1937L8.35007 11.7024L4.15312 16.4414L4.5222 16.8105L1.86926 19.4634L4.40596 22.0001L7.05891 19.3472L7.42799 19.7163L12.1669 15.5193L12.6756 16.0281L19.2683 11.4447L19.8651 12.0414L22.5764 9.33011L21.87 8.62374ZM20.2722 6.05978C19.9568 5.47993 19.5531 4.9318 19.2453 4.62401C18.9375 4.31623 18.3894 3.91254 17.8095 3.59713C17.5203 3.43979 17.2263 3.3062 16.9536 3.21765C16.8061 3.16976 16.6675 3.13593 16.541 3.11796L20.7514 7.32835C20.7334 7.2018 20.6996 7.06319 20.6517 6.9157C20.5631 6.64298 20.4296 6.34904 20.2722 6.05978ZM20.89 7.46699C20.8927 7.52709 20.8914 7.58472 20.8857 7.63946L16.2299 2.98363C16.2846 2.97798 16.3423 2.97666 16.4024 2.97932C17.2969 3.01896 18.7374 3.93935 19.3337 4.53562C19.93 5.13191 20.8504 6.57246 20.89 7.46699ZM14.5392 2.95461L20.9148 9.33014L19.8651 10.3798L13.4896 4.00429L14.5392 2.95461ZM13.6663 4.00429L19.8651 10.203L20.738 9.33014L14.5392 3.13138L13.6663 4.00429ZM4.40596 20.3385L3.53088 19.4634L5.35303 17.6413L6.22812 18.5164L4.40596 20.3385ZM6.05134 18.5164L4.40596 20.1617L3.70765 19.4634L5.35303 17.818L6.05134 18.5164ZM7.48207 17.9319L11.1523 14.6814L9.18791 12.717L5.93744 16.3873L7.48207 17.9319ZM5.76586 16.3925L7.47687 18.1035L11.3346 14.687L9.18239 12.5347L5.76586 16.3925ZM12.7348 14.2488L9.62062 11.1346L13.2763 5.6294L18.2399 10.593L12.7348 14.2488ZM18.4363 10.6127L12.7187 14.4095L9.45991 11.1507L13.2567 5.433L18.4363 10.6127Z" fill="#616161"/>
</svg>
