<svg width="24" height="24" viewBox="0 0 24 24" fill="none" xmlns="http://www.w3.org/2000/svg">
<path fill-rule="evenodd" clip-rule="evenodd" d="M22.4998 21.4423L16.8373 15.7498C19.6493 12.357 19.2985 7.35315 16.0405 4.38591C12.7825 1.41868 7.76774 1.53573 4.65173 4.65173C1.53573 7.76774 1.41868 12.7825 4.38591 16.0405C7.35315 19.2985 12.357 19.6493 15.7498 16.8373L21.4423 22.4998L22.4998 21.4423ZM3.74985 10.4998C3.74985 6.77193 6.77193 3.74985 10.4998 3.74985C14.2278 3.74985 17.2498 6.77193 17.2498 10.4998C17.2498 14.2278 14.2278 17.2498 10.4998 17.2498C6.77193 17.2498 3.74985 14.2278 3.74985 10.4998Z" fill="#616161"/>
</svg>
