<svg width="24" height="24" viewBox="0 0 24 24" fill="none" xmlns="http://www.w3.org/2000/svg">
<path fill-rule="evenodd" clip-rule="evenodd" d="M7.5 11.9985C7.5 14.4838 9.51472 16.4985 12 16.4985C13.1972 16.5107 14.3488 16.0405 15.1954 15.1939C16.042 14.3474 16.5122 13.1957 16.5 11.9985C16.5 9.51325 14.4853 7.49854 12 7.49854C9.51472 7.49854 7.5 9.51325 7.5 11.9985ZM9.85811 9.85665C10.4248 9.28994 11.1988 8.97987 12 8.99854C12.8012 8.97987 13.5752 9.28994 14.1419 9.85665C14.7086 10.4234 15.0187 11.1973 15 11.9985C15.0187 12.7998 14.7086 13.5737 14.1419 14.1404C13.5752 14.7071 12.8012 15.0172 12 14.9985C11.1988 15.0172 10.4248 14.7071 9.85811 14.1404C9.29141 13.5737 8.98134 12.7998 9 11.9985C8.98134 11.1973 9.29141 10.4234 9.85811 9.85665Z" fill="#616161"/>
<path fill-rule="evenodd" clip-rule="evenodd" d="M20.2461 11.4201V12.5676L21.6636 13.8651C22.2033 14.3383 22.3322 15.1274 21.9711 15.7476L20.2611 18.7476C19.9934 19.2113 19.499 19.4971 18.9636 19.4976C18.8006 19.4989 18.6385 19.4735 18.4836 19.4226L16.6686 18.8076C16.3514 19.0168 16.0207 19.2047 15.6786 19.3701L15.2961 21.2601C15.1546 21.9728 14.5226 22.4815 13.7961 22.4676H10.2561C9.52964 22.4815 8.89766 21.9728 8.7561 21.2601L8.3736 19.3701C8.03398 19.2046 7.70576 19.0167 7.3911 18.8076L5.5686 19.4226C5.41374 19.4735 5.25162 19.4989 5.0886 19.4976C4.55325 19.4971 4.05878 19.2113 3.7911 18.7476L2.0211 15.7476C1.64306 15.1205 1.77304 14.3121 2.3286 13.8351L3.7461 12.5751V11.4276L2.3286 10.1301C1.78895 9.65699 1.66005 8.86788 2.0211 8.24762L3.7911 5.24762C4.05878 4.784 4.55325 4.49817 5.0886 4.49762C5.24998 4.48664 5.41208 4.50184 5.5686 4.54262L7.3536 5.18762C7.67083 4.97848 8.00155 4.79057 8.3436 4.62512L8.7261 2.73512C8.86766 2.02245 9.49964 1.5137 10.2261 1.52762H13.7361C14.4626 1.5137 15.0946 2.02245 15.2361 2.73512L15.6186 4.62512C15.9582 4.79061 16.2864 4.97853 16.6011 5.18762L18.4236 4.57262C18.5785 4.52171 18.7406 4.49637 18.9036 4.49762C19.439 4.49817 19.9334 4.784 20.2011 5.24762L21.9711 8.24762C22.3545 8.86947 22.2341 9.67708 21.6861 10.1601L20.2461 11.4201ZM16.335 17.1261L18.9075 17.9961L20.6775 14.9961L18.6375 13.1436C18.7762 12.3672 18.7762 11.5724 18.6375 10.7961L20.6775 8.99609L18.9075 5.99609L16.3275 6.83609C15.7232 6.33295 15.0387 5.93491 14.3025 5.65859L13.77 2.99609H10.23L9.69751 5.68859C8.95546 5.95728 8.26721 6.35601 7.66501 6.86609L5.09251 5.99609L3.32251 8.99609L5.36251 10.8486C5.22383 11.6249 5.22383 12.4197 5.36251 13.1961L3.32251 14.9961L5.09251 17.9961L7.67251 17.1561C8.2768 17.6592 8.96133 18.0573 9.69751 18.3336L10.23 20.9961H13.77L14.3025 18.3036C15.0446 18.0349 15.7328 17.6362 16.335 17.1261Z" fill="#616161"/>
</svg>
