<svg width="24" height="24" viewBox="0 0 24 24" fill="none" xmlns="http://www.w3.org/2000/svg">
<path fill-rule="evenodd" clip-rule="evenodd" d="M1.58609 21.7487C1.85778 21.7524 2.11026 21.609 2.24609 21.3737C4.27816 17.9119 7.98208 15.775 11.9961 15.7487V20.2487C11.9976 20.5514 12.181 20.8236 12.4611 20.9387C12.7404 21.0561 13.0629 20.994 13.2786 20.7812L22.2786 11.7812C22.4206 11.6403 22.5004 11.4486 22.5004 11.2487C22.5004 11.0487 22.4206 10.857 22.2786 10.7162L13.2786 1.71616C13.0629 1.50335 12.7404 1.44121 12.4611 1.55866C12.181 1.67371 11.9976 1.94588 11.9961 2.24866V6.83116C5.57772 7.65555 0.764892 13.1101 0.746094 19.5812C0.74787 20.0827 0.780431 20.5836 0.843594 21.0812C0.882009 21.4011 1.12053 21.6608 1.43609 21.7262L1.58609 21.7487ZM12.3711 14.2487C8.49985 14.1931 4.79896 15.8379 2.24609 18.7487C2.71221 13.1285 7.19058 8.67875 12.8136 8.24866C13.2012 8.21363 13.4977 7.88788 13.4961 7.49866V4.05616L20.6886 11.2487L13.4961 18.4412V14.9987C13.4961 14.5844 13.1603 14.2487 12.7461 14.2487H12.3411H12.3711Z" fill="#616161"/>
</svg>
