<svg width="24" height="24" viewBox="0 0 24 24" fill="none" xmlns="http://www.w3.org/2000/svg">
<path d="M17.8312 14.3348L21.5631 10.6971C21.9574 10.3127 22.0994 9.73777 21.9291 9.21402C21.759 8.69027 21.3062 8.30851 20.7612 8.22932L15.6038 7.47987L13.2974 2.80645C13.0537 2.31261 12.5507 2 12 2C11.4493 2 10.9463 2.3127 10.7026 2.80645L8.39617 7.47987L3.23875 8.22932C2.69379 8.30851 2.24103 8.69027 2.07088 9.21402C1.90064 9.73777 2.04262 10.3127 2.43693 10.6971L6.16885 14.3348L5.28783 19.4713C5.19475 20.0141 5.41785 20.5627 5.86338 20.8864C6.309 21.2102 6.89959 21.2528 7.38707 20.9965L12 18.5714L16.6129 20.9965C16.8246 21.1078 17.0558 21.1627 17.2861 21.1627C17.5861 21.1627 17.8846 21.0695 18.1366 20.8864C18.5821 20.5627 18.8053 20.0141 18.7122 19.4713L17.8312 14.3348Z" fill="#616161"/>
</svg>
