<svg width="16" height="17" viewBox="0 0 16 17" fill="none" xmlns="http://www.w3.org/2000/svg">
<path fill-rule="evenodd" clip-rule="evenodd" d="M8.00075 3.76004L9.38075 6.55004L9.61075 7.05004L10.1108 7.12504L13.1908 7.57004L11.0008 9.72004L10.6258 10.085L10.7158 10.585L11.2408 13.65L8.48575 12.205L8.00075 12L7.53575 12.245L4.78076 13.67L5.28076 10.605L5.37075 10.105L5.00075 9.72004L2.79076 7.54504L5.87075 7.10004L6.37075 7.02504L6.60075 6.52504L8.00075 3.76004ZM8.00063 1.5L5.72563 6.11L0.640625 6.845L4.32063 10.435L3.45063 15.5L8.00063 13.11L12.5506 15.5L11.6806 10.435L15.3606 6.85L10.2756 6.11L8.00063 1.5Z" fill="#616161"/>
</svg>
