<svg width="24" height="24" viewBox="0 0 24 24" fill="none" xmlns="http://www.w3.org/2000/svg">
<path d="M15.8332 7.46388H10.3695C10.026 7.46388 9.74763 7.74225 9.74763 8.08576C9.74763 8.42925 10.026 8.70764 10.3695 8.70764H15.8332C16.1769 8.70764 16.4551 8.42935 16.4551 8.08579L15.8332 7.46388Z" fill="#616161"/>
<path d="M16.4551 8.08579L15.8332 7.46388C16.1767 7.46388 16.455 7.74224 16.4551 8.08579Z" fill="#616161"/>
<path d="M10.3695 11.6776H17.9256C18.2691 11.6776 18.5475 11.956 18.5475 12.2995C18.5475 12.643 18.2691 12.9214 17.9256 12.9214H10.3695C10.026 12.9214 9.74763 12.643 9.74763 12.2995C9.74763 11.956 10.026 11.6776 10.3695 11.6776Z" fill="#616161"/>
<path d="M10.3699 15.6306H15.8336C16.1771 15.6306 16.4555 15.9089 16.4555 16.2525C16.4555 16.596 16.1773 16.8743 15.8336 16.8743H10.3699C10.0264 16.8743 9.74805 16.5959 9.74805 16.2525C9.74805 15.9089 10.0264 15.6306 10.3699 15.6306Z" fill="#616161"/>
<path fill-rule="evenodd" clip-rule="evenodd" d="M5.82427 11.0964H4.03402C2.36123 11.0964 1 12.4579 1 14.1305V18.9838C1 20.6566 2.36121 22.0178 4.03402 22.0178C4.1711 22.0178 4.30591 22.0087 4.43756 21.991L4.45412 21.9888H18.8557C20.8647 21.9888 22.5 20.3538 22.5 18.3445V2.62188C22.5 2.27836 22.2216 2 21.8781 2H6.44615C6.10266 2 5.82427 2.27836 5.82427 2.62188V11.0964ZM6.53714 20.745L6.7275 20.3795C6.94506 19.9618 7.06803 19.4872 7.06803 18.9838V3.24371H21.2563V18.3444C21.2563 19.6482 20.1597 20.745 18.8557 20.745H6.53714ZM4.28406 20.7741C5.02567 20.6281 5.71842 19.9892 5.82436 19.2338V12.3402H4.03406C3.0468 12.3402 2.24376 13.1432 2.24376 14.1305V18.9838C2.24376 19.971 3.04646 20.7741 4.03406 20.7741H4.28406Z" fill="#616161"/>
</svg>
