<svg width="24" height="24" viewBox="0 0 24 24" fill="none" xmlns="http://www.w3.org/2000/svg">
<path fill-rule="evenodd" clip-rule="evenodd" d="M19.5 8.24979H15V4.49979C15.1574 3.00035 14.0694 1.65723 12.57 1.49979C12.3807 1.47728 12.1893 1.47728 12 1.49979H10.8225C10.3069 1.51391 9.86595 1.87468 9.75 2.37729V2.46729L9 7.22229L6.345 11.2498H1.5V21.7498H15.75C21.33 21.7498 22.5 18.4873 22.5 15.7498V11.2498C22.6574 9.75035 21.5694 8.40723 20.07 8.24979C19.8807 8.22728 19.6893 8.22728 19.5 8.24979ZM6 20.2498H3V12.7498H6V20.2498ZM21 15.7498C21 18.8173 19.335 20.2498 15.75 20.2498H7.5V12.2248L10.5 7.77729L11.0475 3.74979L11.1525 2.99979H12C13.08 2.99979 13.5 3.41979 13.5 4.49979V9.74979H19.5C20.58 9.74979 21 10.1698 21 11.2498V15.7498Z" fill="#616161"/>
</svg>
