<svg width="24" height="24" viewBox="0 0 16 16" fill="none" xmlns="http://www.w3.org/2000/svg">
<path fill-rule="evenodd" clip-rule="evenodd" d="M1.46666 8.00013C1.46666 4.39771 4.39757 1.4668 7.99999 1.4668C11.6024 1.4668 14.5333 4.39771 14.5333 8.00013C14.5333 11.6026 11.6024 14.5335 7.99999 14.5335C4.39757 14.5335 1.46666 11.6026 1.46666 8.00013ZM2.65719 8.00013C2.65719 10.9463 5.05378 13.3429 7.99999 13.3429C10.9462 13.3429 13.3428 10.9463 13.3428 8.00013C13.3428 5.05406 10.9462 2.65733 7.99999 2.65733C5.05377 2.65733 2.65719 5.05406 2.65719 8.00013Z" fill="#616161"/>
<path fill-rule="evenodd" clip-rule="evenodd" d="M8.44278 5.21468V8.06406L10.4199 10.0411C10.5884 10.2095 10.5883 10.4826 10.4198 10.6513C10.2515 10.8198 9.97834 10.8198 9.80976 10.6512L7.70629 8.5479C7.61748 8.45908 7.57667 8.34059 7.58242 8.22181L7.58273 8.21537L7.58242 8.20894C7.5821 8.20234 7.5815 8.19668 7.581 8.19258L7.57996 8.18486V5.21468C7.57996 4.97633 7.7731 4.7832 8.01143 4.7832C8.24964 4.7832 8.44278 4.97631 8.44278 5.21468Z" fill="#616161"/>
</svg>
