<svg width="25" height="24" viewBox="0 0 25 24" fill="none" xmlns="http://www.w3.org/2000/svg">
<path d="M24.8867 19.6472C24.8867 22.0601 22.9478 23.999 20.5348 23.999H5.23861C2.82568 23.999 0.886719 22.0601 0.886719 19.6472V4.52327C0.886719 2.11035 2.82568 0.171387 5.23861 0.171387H20.5348C22.9478 0.171387 24.8867 2.11035 24.8867 4.52327V19.6472Z" fill="#F17422"/>
<path d="M9.80589 7.53967C9.80589 8.61687 8.90104 9.52171 7.82385 9.52171C6.74665 9.52171 5.8418 8.61687 5.8418 7.53967C5.8418 6.46247 6.74665 5.55762 7.82385 5.55762C8.94413 5.55762 9.80589 6.41938 9.80589 7.53967Z" fill="white"/>
<path d="M14.8469 7.53967C14.8469 8.61687 13.9421 9.52171 12.8649 9.52171C11.7877 9.52171 10.8828 8.61687 10.8828 7.53967C10.8828 6.46247 11.7877 5.55762 12.8649 5.55762C13.9421 5.55762 14.8469 6.41938 14.8469 7.53967Z" fill="white"/>
<path d="M14.8469 12.2359C14.8469 13.3131 13.9421 14.218 12.8649 14.218C11.7877 14.218 10.8828 13.3131 10.8828 12.2359C10.8828 11.1587 11.7877 10.2539 12.8649 10.2539C13.9421 10.2539 14.8469 11.1587 14.8469 12.2359Z" fill="white"/>
<path d="M14.8469 16.9757C14.8469 18.0529 13.9421 18.9578 12.8649 18.9578C11.7877 18.9578 10.8828 18.0529 10.8828 16.9757C10.8828 15.8985 11.7877 14.9937 12.8649 14.9937C13.9421 14.9937 14.8469 15.8985 14.8469 16.9757Z" fill="white"/>
<path d="M19.845 7.53967C19.845 8.61687 18.9401 9.52171 17.8629 9.52171C16.7857 9.52171 15.8809 8.61687 15.8809 7.53967C15.8809 6.46247 16.7857 5.55762 17.8629 5.55762C18.9832 5.55762 19.845 6.41938 19.845 7.53967Z" fill="white"/>
</svg>
