<svg width="24" height="25" viewBox="0 0 24 25" fill="none" xmlns="http://www.w3.org/2000/svg">
<mask id="path-1-inside-1" fill="white">
<path fill-rule="evenodd" clip-rule="evenodd" d="M4.64878 11.9413L5.96445 11.8619V10.5438C5.96445 9.99218 6.12217 9.02939 6.62386 8.17848C7.09586 7.37793 7.86788 6.66954 9.21408 6.44616C10.8327 6.17758 11.962 6.66986 12.7706 7.38233C13.6268 8.13686 14.1519 9.17407 14.3655 9.92026L14.7771 11.358L16.1846 10.8526C17.5449 10.3642 18.3472 10.5662 18.8299 10.89C18.8162 10.9051 18.8027 10.9194 18.7889 10.9332C17.5818 12.1497 16.375 13.366 15.1687 14.5821C15.0522 14.7035 14.9451 14.7381 14.7663 14.7193C14.5871 14.7002 14.4041 14.7128 14.2206 14.7255C14.1061 14.7334 13.9914 14.7414 13.8773 14.7416C13.7649 14.7416 13.6223 14.7328 13.546 14.6666C13.1243 14.303 12.7062 13.9347 12.2881 13.5665C11.8299 13.1629 11.3716 12.7592 10.9086 12.3617C10.7613 12.2353 10.7782 12.1061 10.7959 11.9707C10.7996 11.9429 10.8032 11.9147 10.8055 11.8863C10.8304 11.6597 10.8078 11.4304 10.7393 11.2132C10.6708 10.9959 10.5578 10.7956 10.4076 10.625C10.2574 10.4544 10.0734 10.3174 9.86746 10.2228C9.66147 10.1282 9.43808 10.0781 9.2117 10.0758C8.98531 10.0734 8.76094 10.1189 8.55307 10.2092C8.3452 10.2995 8.15843 10.4327 8.00481 10.6001C7.85118 10.7675 7.73412 10.9655 7.66115 11.1813C7.58819 11.3971 7.56095 11.6259 7.5812 11.8529C7.5975 12.0575 7.55733 12.1894 7.38906 12.3218C5.50868 13.8099 3.63252 15.3028 1.76058 16.8005C1.65733 16.4511 1.59531 16.0342 1.59531 15.5348C1.59531 14.0529 2.14406 13.2214 2.73381 12.7264C3.37733 12.1863 4.16867 11.9703 4.64878 11.9413ZM2.42554 17.9597C2.51114 18.0463 2.59908 18.1226 2.68713 18.1903C3.30087 18.6622 4.06924 18.823 4.55032 18.8181L4.56445 18.818V18.818H21.0171C21.5581 18.6082 22.405 17.9745 22.405 16.7606C22.405 15.3857 21.3288 14.6285 20.7791 14.4381L19.7823 14.0927L19.8395 13.0394C19.8572 12.7131 19.7912 12.3202 19.6414 11.9468C18.437 13.1531 17.2372 14.3643 16.042 15.5804C15.9779 15.6454 15.968 15.7803 15.9622 15.884C15.9558 15.9928 15.9588 16.1038 15.9617 16.2145C15.967 16.4177 15.9723 16.62 15.9203 16.8067C15.6938 17.622 14.8496 18.0863 14.0164 17.904C13.2054 17.7264 12.6669 16.9415 12.7722 16.0786C12.773 16.0726 12.7737 16.0666 12.7744 16.0607C12.7929 15.9107 12.8079 15.7888 12.6639 15.6648C11.7898 14.9055 10.9204 14.1407 10.0556 13.3705C9.93218 13.2603 9.82738 13.265 9.66902 13.2802C9.32721 13.3153 8.98238 13.3072 8.64257 13.2562C8.45975 13.2269 8.3404 13.2362 8.19833 13.35C6.29914 14.867 4.39859 16.3838 2.49667 17.9005C2.47277 17.9195 2.44933 17.9391 2.42554 17.9597ZM4.56445 20.218H21.2374C22.0933 19.9841 23.805 18.9652 23.805 16.7606C23.805 14.556 22.0933 13.4118 21.2374 13.1152C21.3329 11.3568 19.9988 8.56835 16.6262 9.27312C16.3365 9.33367 16.0317 9.42 15.7115 9.53497C15.6445 9.30085 15.5545 9.04588 15.4404 8.78008C14.6313 6.89437 12.6108 4.46339 8.98491 5.06504C5.36675 5.66541 4.56445 9.04478 4.56445 10.5438C3.10807 10.6317 0.195312 11.753 0.195312 15.5348C0.195312 19.3167 3.10807 20.2327 4.56445 20.218Z"/>
</mask>
<path fill-rule="evenodd" clip-rule="evenodd" d="M4.64878 11.9413L5.96445 11.8619V10.5438C5.96445 9.99218 6.12217 9.02939 6.62386 8.17848C7.09586 7.37793 7.86788 6.66954 9.21408 6.44616C10.8327 6.17758 11.962 6.66986 12.7706 7.38233C13.6268 8.13686 14.1519 9.17407 14.3655 9.92026L14.7771 11.358L16.1846 10.8526C17.5449 10.3642 18.3472 10.5662 18.8299 10.89C18.8162 10.9051 18.8027 10.9194 18.7889 10.9332C17.5818 12.1497 16.375 13.366 15.1687 14.5821C15.0522 14.7035 14.9451 14.7381 14.7663 14.7193C14.5871 14.7002 14.4041 14.7128 14.2206 14.7255C14.1061 14.7334 13.9914 14.7414 13.8773 14.7416C13.7649 14.7416 13.6223 14.7328 13.546 14.6666C13.1243 14.303 12.7062 13.9347 12.2881 13.5665C11.8299 13.1629 11.3716 12.7592 10.9086 12.3617C10.7613 12.2353 10.7782 12.1061 10.7959 11.9707C10.7996 11.9429 10.8032 11.9147 10.8055 11.8863C10.8304 11.6597 10.8078 11.4304 10.7393 11.2132C10.6708 10.9959 10.5578 10.7956 10.4076 10.625C10.2574 10.4544 10.0734 10.3174 9.86746 10.2228C9.66147 10.1282 9.43808 10.0781 9.2117 10.0758C8.98531 10.0734 8.76094 10.1189 8.55307 10.2092C8.3452 10.2995 8.15843 10.4327 8.00481 10.6001C7.85118 10.7675 7.73412 10.9655 7.66115 11.1813C7.58819 11.3971 7.56095 11.6259 7.5812 11.8529C7.5975 12.0575 7.55733 12.1894 7.38906 12.3218C5.50868 13.8099 3.63252 15.3028 1.76058 16.8005C1.65733 16.4511 1.59531 16.0342 1.59531 15.5348C1.59531 14.0529 2.14406 13.2214 2.73381 12.7264C3.37733 12.1863 4.16867 11.9703 4.64878 11.9413ZM2.42554 17.9597C2.51114 18.0463 2.59908 18.1226 2.68713 18.1903C3.30087 18.6622 4.06924 18.823 4.55032 18.8181L4.56445 18.818V18.818H21.0171C21.5581 18.6082 22.405 17.9745 22.405 16.7606C22.405 15.3857 21.3288 14.6285 20.7791 14.4381L19.7823 14.0927L19.8395 13.0394C19.8572 12.7131 19.7912 12.3202 19.6414 11.9468C18.437 13.1531 17.2372 14.3643 16.042 15.5804C15.9779 15.6454 15.968 15.7803 15.9622 15.884C15.9558 15.9928 15.9588 16.1038 15.9617 16.2145C15.967 16.4177 15.9723 16.62 15.9203 16.8067C15.6938 17.622 14.8496 18.0863 14.0164 17.904C13.2054 17.7264 12.6669 16.9415 12.7722 16.0786C12.773 16.0726 12.7737 16.0666 12.7744 16.0607C12.7929 15.9107 12.8079 15.7888 12.6639 15.6648C11.7898 14.9055 10.9204 14.1407 10.0556 13.3705C9.93218 13.2603 9.82738 13.265 9.66902 13.2802C9.32721 13.3153 8.98238 13.3072 8.64257 13.2562C8.45975 13.2269 8.3404 13.2362 8.19833 13.35C6.29914 14.867 4.39859 16.3838 2.49667 17.9005C2.47277 17.9195 2.44933 17.9391 2.42554 17.9597ZM4.56445 20.218H21.2374C22.0933 19.9841 23.805 18.9652 23.805 16.7606C23.805 14.556 22.0933 13.4118 21.2374 13.1152C21.3329 11.3568 19.9988 8.56835 16.6262 9.27312C16.3365 9.33367 16.0317 9.42 15.7115 9.53497C15.6445 9.30085 15.5545 9.04588 15.4404 8.78008C14.6313 6.89437 12.6108 4.46339 8.98491 5.06504C5.36675 5.66541 4.56445 9.04478 4.56445 10.5438C3.10807 10.6317 0.195312 11.753 0.195312 15.5348C0.195312 19.3167 3.10807 20.2327 4.56445 20.218Z" fill="#616161"/>
<path d="M5.96445 11.8619L6.03673 13.0597C6.67025 13.0215 7.16445 12.4966 7.16445 11.8619H5.96445ZM4.64878 11.9413L4.5765 10.7435L4.5765 10.7435L4.64878 11.9413ZM6.62386 8.17848L5.59016 7.56901L5.59016 7.56901L6.62386 8.17848ZM9.21408 6.44616L9.41052 7.62997L9.41052 7.62997L9.21408 6.44616ZM12.7706 7.38233L11.9772 8.28265L11.9772 8.28265L12.7706 7.38233ZM14.3655 9.92026L15.5192 9.59001L15.5192 9.59001L14.3655 9.92026ZM14.7771 11.358L13.6234 11.6882C13.7148 12.0074 13.9343 12.2745 14.2297 12.4259C14.5252 12.5773 14.8702 12.5996 15.1826 12.4874L14.7771 11.358ZM16.1846 10.8526L15.7791 9.72321L15.7791 9.72321L16.1846 10.8526ZM18.8299 10.89L19.7185 11.6966C19.9528 11.4383 20.0633 11.0909 20.0211 10.7447C19.9788 10.3985 19.7881 10.0879 19.4985 9.89355L18.8299 10.89ZM18.7889 10.9332L17.9417 10.0833L17.9371 10.0879L18.7889 10.9332ZM15.1687 14.5821L14.3167 13.737C14.3121 13.7417 14.3074 13.7465 14.3028 13.7513L15.1687 14.5821ZM14.7663 14.7193L14.639 15.9125L14.6411 15.9128L14.7663 14.7193ZM14.2206 14.7255L14.1379 13.5284L14.1379 13.5284L14.2206 14.7255ZM13.8773 14.7416L13.8773 15.9416L13.8797 15.9416L13.8773 14.7416ZM13.546 14.6666L14.3329 13.7605L14.3296 13.7577L13.546 14.6666ZM12.2881 13.5665L13.0813 12.6659L13.0813 12.6659L12.2881 13.5665ZM10.9086 12.3617L11.6903 11.4512L11.6901 11.4511L10.9086 12.3617ZM10.7959 11.9707L9.60604 11.8151L9.60604 11.8152L10.7959 11.9707ZM10.8055 11.8863L9.61269 11.7553C9.61142 11.7669 9.61032 11.7785 9.60938 11.7901L10.8055 11.8863ZM10.7393 11.2132L11.8837 10.8522L11.8837 10.8522L10.7393 11.2132ZM8.00481 10.6001L7.12059 9.78882L7.12059 9.78882L8.00481 10.6001ZM7.66115 11.1813L6.52438 10.7969L6.52438 10.7969L7.66115 11.1813ZM7.5812 11.8529L8.77746 11.7576L8.77646 11.7463L7.5812 11.8529ZM7.38906 12.3218L6.64673 11.379L6.6444 11.3808L7.38906 12.3218ZM1.76058 16.8005L0.609776 17.1406C0.723043 17.5238 1.01969 17.8256 1.40099 17.9453C1.78229 18.0651 2.19818 17.9872 2.51026 17.7375L1.76058 16.8005ZM2.73381 12.7264L1.96232 11.8073L1.96232 11.8073L2.73381 12.7264ZM2.42554 17.9597L1.64021 17.0524C1.38912 17.2697 1.23932 17.5814 1.22644 17.9132C1.21357 18.245 1.33877 18.5673 1.57227 18.8035L2.42554 17.9597ZM2.68713 18.1903L3.4186 17.239L3.4186 17.239L2.68713 18.1903ZM4.55032 18.8181L4.53826 17.6182L4.5382 17.6182L4.55032 18.8181ZM4.56445 18.818H5.76445C5.76445 18.4976 5.63636 18.1906 5.40871 17.9652C5.18105 17.7398 4.87272 17.6148 4.55239 17.618L4.56445 18.818ZM4.56445 18.818H3.36445C3.36445 19.4808 3.90171 20.018 4.56445 20.018V18.818ZM21.0171 18.818V20.018C21.1656 20.018 21.3127 19.9905 21.4511 19.9368L21.0171 18.818ZM20.7791 14.4381L20.3862 15.572L20.3862 15.572L20.7791 14.4381ZM19.7823 14.0927L18.5841 14.0277C18.555 14.5622 18.8836 15.0513 19.3894 15.2266L19.7823 14.0927ZM19.8395 13.0394L18.6412 12.9743L18.6412 12.9743L19.8395 13.0394ZM19.6414 11.9468L20.7551 11.5C20.6049 11.1256 20.2767 10.8518 19.8816 10.7711C19.4864 10.6903 19.0771 10.8135 18.7922 11.0989L19.6414 11.9468ZM16.042 15.5804L16.8972 16.4222L16.8978 16.4215L16.042 15.5804ZM15.9622 15.884L17.1602 15.9541L17.1603 15.9513L15.9622 15.884ZM15.9617 16.2145L17.1612 16.1831L17.1612 16.1831L15.9617 16.2145ZM15.9203 16.8067L14.7643 16.4846L14.7641 16.4855L15.9203 16.8067ZM14.0164 17.904L13.7597 19.0762L13.7599 19.0763L14.0164 17.904ZM12.7722 16.0786L13.9634 16.2241L13.9635 16.2232L12.7722 16.0786ZM12.7744 16.0607L11.5834 15.9142L11.5834 15.9142L12.7744 16.0607ZM12.6639 15.6648L11.877 16.5707L11.8805 16.5738L12.6639 15.6648ZM10.0556 13.3705L9.2564 14.2656L9.25748 14.2666L10.0556 13.3705ZM9.66902 13.2802L9.55406 12.0857L9.54636 12.0865L9.66902 13.2802ZM8.64257 13.2562L8.4526 14.4411L8.46419 14.4428L8.64257 13.2562ZM8.19833 13.35L8.94727 14.2876L8.94825 14.2868L8.19833 13.35ZM2.49667 17.9005L3.24269 18.8404L3.24484 18.8387L2.49667 17.9005ZM21.2374 20.218V21.418C21.3443 21.418 21.4507 21.4038 21.5538 21.3756L21.2374 20.218ZM4.56445 20.218L4.56445 19.018L4.55234 19.0181L4.56445 20.218ZM21.2374 13.1152L20.0392 13.0502C20.0102 13.5847 20.3387 14.0738 20.8446 14.2491L21.2374 13.1152ZM16.6262 9.27312L16.8717 10.4477L16.8717 10.4477L16.6262 9.27312ZM15.7115 9.53497L14.5578 9.86522C14.6492 10.1844 14.8687 10.4514 15.1641 10.6029C15.4596 10.7543 15.8045 10.7766 16.117 10.6644L15.7115 9.53497ZM15.4404 8.78008L14.3376 9.25325L14.3376 9.25326L15.4404 8.78008ZM8.98491 5.06504L9.18135 6.24886L9.18135 6.24886L8.98491 5.06504ZM4.56445 10.5438L4.63673 11.7417C5.27025 11.7034 5.76445 11.1785 5.76445 10.5438H4.56445ZM5.89218 10.6641L4.5765 10.7435L4.72105 13.1391L6.03673 13.0597L5.89218 10.6641ZM4.76445 10.5438V11.8619H7.16445V10.5438H4.76445ZM5.59016 7.56901C4.95903 8.63944 4.76445 9.82228 4.76445 10.5438H7.16445C7.16445 10.1621 7.28531 9.41933 7.65757 8.78795L5.59016 7.56901ZM9.01765 5.26235C7.27601 5.55134 6.21793 6.50427 5.59016 7.56901L7.65757 8.78795C7.9738 8.2516 8.45976 7.78773 9.41052 7.62997L9.01765 5.26235ZM13.5639 6.48201C12.5077 5.55131 11.0211 4.92991 9.01765 5.26235L9.41052 7.62997C10.6443 7.42525 11.4163 7.78841 11.9772 8.28265L13.5639 6.48201ZM15.5192 9.59001C15.2561 8.67093 14.6261 7.41796 13.5639 6.48201L11.9772 8.28265C12.6276 8.85575 13.0478 9.6772 13.2119 10.2505L15.5192 9.59001ZM15.9308 11.0277L15.5192 9.59001L13.2119 10.2505L13.6234 11.6882L15.9308 11.0277ZM15.7791 9.72321L14.3716 10.2286L15.1826 12.4874L16.5901 11.982L15.7791 9.72321ZM19.4985 9.89355C18.6234 9.30643 17.4027 9.14021 15.7791 9.72321L16.5901 11.982C17.6872 11.5881 18.071 11.8259 18.1613 11.8865L19.4985 9.89355ZM17.9414 10.0835L17.9417 10.0833L19.6361 11.783C19.6665 11.7527 19.694 11.7235 19.7185 11.6966L17.9414 10.0835ZM17.9371 10.0879C16.7299 11.3045 15.5231 12.5209 14.3167 13.737L16.0206 15.4272C17.2269 14.2112 18.4336 12.9949 19.6407 11.7784L17.9371 10.0879ZM14.3028 13.7513C14.3356 13.7172 14.4372 13.6236 14.6075 13.5661C14.7673 13.5123 14.8859 13.5253 14.8916 13.5259L14.6411 15.9128C14.8255 15.9321 15.0871 15.9372 15.3742 15.8404C15.6719 15.74 15.8853 15.5685 16.0345 15.413L14.3028 13.7513ZM14.8937 13.5261C14.5916 13.4938 14.302 13.517 14.1379 13.5284L14.3034 15.9227C14.5062 15.9086 14.5826 15.9065 14.639 15.9125L14.8937 13.5261ZM14.1379 13.5284C14.0164 13.5368 13.942 13.5415 13.8749 13.5416L13.8797 15.9416C14.0408 15.9413 14.1958 15.9301 14.3034 15.9227L14.1379 13.5284ZM13.8773 13.5416C13.8425 13.5416 13.8619 13.5393 13.9071 13.5473C13.9326 13.5518 13.9849 13.5626 14.0523 13.5891C14.119 13.6152 14.2237 13.6657 14.3329 13.7605L12.7592 15.5726C13.0392 15.8158 13.3474 15.8855 13.4891 15.9106C13.6528 15.9395 13.7998 15.9416 13.8773 15.9416V13.5416ZM14.3296 13.7577C13.9135 13.399 13.5002 13.0349 13.0813 12.6659L11.495 14.467C11.9123 14.8345 12.3351 15.207 12.7624 15.5754L14.3296 13.7577ZM13.0813 12.6659C12.624 12.2632 12.16 11.8545 11.6903 11.4512L10.1269 13.2722C10.5832 13.6639 11.0358 14.0625 11.495 14.467L13.0813 12.6659ZM11.6901 11.4511C11.7398 11.4937 11.8036 11.561 11.8603 11.6573C11.9184 11.7558 11.9532 11.858 11.9705 11.9523C11.9869 12.041 11.9851 12.1083 11.9836 12.1353C11.9825 12.1559 11.9803 12.1685 11.9858 12.1263L9.60604 11.8152C9.60185 11.8472 9.5582 12.1043 9.61022 12.3869C9.67505 12.739 9.85885 13.0421 10.127 13.2723L11.6901 11.4511ZM11.9858 12.1263C11.9888 12.1032 11.9966 12.0456 12.0017 11.9825L9.60938 11.7901C9.6098 11.785 9.61004 11.7835 9.6095 11.788C9.60924 11.7902 9.60886 11.7933 9.60827 11.7979C9.60766 11.8028 9.60699 11.8079 9.60604 11.8151L11.9858 12.1263ZM11.9984 12.0173C12.0414 11.6252 12.0024 11.2284 11.8837 10.8522L9.59491 11.5742C9.61329 11.6325 9.6194 11.6942 9.61269 11.7553L11.9984 12.0173ZM11.8837 10.8522C11.765 10.476 11.5692 10.1284 11.3083 9.83207L9.5069 11.4179C9.54638 11.4628 9.57652 11.5159 9.59491 11.5742L11.8837 10.8522ZM11.3083 9.83207C11.0475 9.53574 10.7273 9.29719 10.3683 9.1323L9.36665 11.3133C9.41955 11.3376 9.46743 11.3731 9.5069 11.4179L11.3083 9.83207ZM10.3683 9.1323C10.0092 8.96739 9.6194 8.87993 9.22413 8.87583L9.19926 11.2757C9.25677 11.2763 9.31377 11.289 9.36665 11.3133L10.3683 9.1323ZM9.22413 8.87583C8.82887 8.87174 8.43735 8.9511 8.07492 9.10855L9.03122 11.3098C9.08454 11.2866 9.14175 11.2751 9.19926 11.2757L9.22413 8.87583ZM8.07492 9.10855C7.71251 9.266 7.38751 9.4979 7.12059 9.78882L8.88902 11.4114C8.92935 11.3674 8.97789 11.333 9.03122 11.3098L8.07492 9.10855ZM7.12059 9.78882C6.85369 10.0797 6.65075 10.4232 6.52438 10.7969L8.79793 11.5657C8.81749 11.5078 8.84868 11.4553 8.88902 11.4114L7.12059 9.78882ZM6.52438 10.7969C6.39802 11.1706 6.35091 11.5666 6.38594 11.9595L8.77646 11.7463C8.771 11.6851 8.77836 11.6235 8.79793 11.5657L6.52438 10.7969ZM6.38499 11.9482C6.38606 11.9617 6.37282 11.8427 6.43509 11.6816C6.50335 11.5051 6.6105 11.4075 6.64674 11.379L8.13139 13.2647C8.33589 13.1037 8.54726 12.8739 8.6736 12.5471C8.79394 12.2359 8.79263 11.9486 8.7774 11.7576L6.38499 11.9482ZM6.6444 11.3808C4.76234 12.8702 2.88451 14.3644 1.0109 15.8635L2.51026 17.7375C4.38053 16.2411 6.25502 14.7496 8.13373 13.2628L6.6444 11.3808ZM0.395312 15.5348C0.395312 16.1337 0.469731 16.6667 0.609776 17.1406L2.91138 16.4604C2.84493 16.2355 2.79531 15.9348 2.79531 15.5348H0.395312ZM1.96232 11.8073C1.09796 12.5328 0.395312 13.7022 0.395312 15.5348H2.79531C2.79531 14.4037 3.19015 13.9101 3.5053 13.6455L1.96232 11.8073ZM4.5765 10.7435C3.88307 10.7853 2.83401 11.0756 1.96232 11.8073L3.5053 13.6455C3.92065 13.2969 4.45428 13.1552 4.72105 13.1391L4.5765 10.7435ZM1.57227 18.8035C1.69896 18.9316 1.82811 19.0435 1.95565 19.1416L3.4186 17.239C3.37005 17.2017 3.32331 17.161 3.27881 17.1159L1.57227 18.8035ZM1.95565 19.1416C2.82286 19.8084 3.86852 20.025 4.56244 20.018L4.5382 17.6182C4.42512 17.6193 4.23287 17.5994 4.01291 17.5335C3.79578 17.4684 3.58837 17.3696 3.4186 17.239L1.95565 19.1416ZM4.56238 20.018L4.57652 20.0179L4.55239 17.618L4.53826 17.6182L4.56238 20.018ZM3.36445 18.818V18.818H5.76445V18.818H3.36445ZM4.56445 20.018H21.0171V17.618H4.56445V20.018ZM21.4511 19.9368C22.2752 19.6171 23.605 18.637 23.605 16.7606H21.205C21.205 17.065 21.1062 17.2602 20.9908 17.3992C20.8595 17.5573 20.6907 17.6575 20.5831 17.6993L21.4511 19.9368ZM23.605 16.7606C23.605 14.6895 22.0031 13.5922 21.1719 13.3042L20.3862 15.572C20.4682 15.6003 20.6981 15.7209 20.8962 15.9466C21.0754 16.1509 21.205 16.4115 21.205 16.7606H23.605ZM21.1719 13.3042L20.1752 12.9588L19.3894 15.2266L20.3862 15.572L21.1719 13.3042ZM20.9805 14.1578L21.0377 13.1044L18.6412 12.9743L18.5841 14.0277L20.9805 14.1578ZM21.0377 13.1044C21.066 12.5838 20.9624 12.0166 20.7551 11.5L18.5277 12.3936C18.6201 12.6239 18.6484 12.8423 18.6412 12.9743L21.0377 13.1044ZM16.8978 16.4215C18.0908 15.2077 19.2884 13.9988 20.4906 12.7946L18.7922 11.0989C17.5855 12.3075 16.3835 13.521 15.1861 14.7392L16.8978 16.4215ZM17.1603 15.9513C17.1635 15.8953 17.1644 15.9166 17.1559 15.9581C17.1508 15.983 17.1377 16.04 17.1064 16.1131C17.0755 16.1853 17.0139 16.3036 16.8972 16.4222L15.1867 14.7386C14.9069 15.0229 14.8298 15.354 14.8046 15.4773C14.7737 15.6284 14.7668 15.769 14.7641 15.8168L17.1603 15.9513ZM17.1612 16.1831C17.1581 16.0632 17.1573 16.0035 17.1602 15.9541L14.7643 15.8139C14.7544 15.9821 14.7594 16.1444 14.7621 16.246L17.1612 16.1831ZM17.0763 17.1287C17.1852 16.7377 17.1656 16.3483 17.1612 16.1831L14.7621 16.246C14.7649 16.3554 14.7659 16.4134 14.7637 16.4624C14.7617 16.5067 14.758 16.5073 14.7643 16.4846L17.0763 17.1287ZM13.7599 19.0763C15.1597 19.3825 16.6648 18.6102 17.0765 17.1278L14.7641 16.4855C14.7228 16.6339 14.5395 16.7901 14.2729 16.7317L13.7599 19.0763ZM11.5811 15.9332C11.4053 17.3723 12.3071 18.7581 13.7597 19.0762L14.2732 16.7318C14.1038 16.6947 13.9284 16.5107 13.9634 16.2241L11.5811 15.9332ZM11.5834 15.9142C11.5827 15.9199 11.5818 15.9269 11.581 15.9341L13.9635 16.2232C13.9641 16.2183 13.9647 16.2133 13.9655 16.2072L11.5834 15.9142ZM11.8805 16.5738C11.8343 16.5339 11.7705 16.4678 11.7129 16.3709C11.6535 16.2709 11.6177 16.1668 11.6 16.0707C11.5835 15.9813 11.5856 15.9146 11.5867 15.8921C11.5876 15.8758 11.5891 15.8677 11.5834 15.9142L13.9655 16.2072C13.9695 16.1748 14.0117 15.9149 13.9602 15.6354C13.8941 15.2769 13.7065 14.9791 13.4474 14.7558L11.8805 16.5738ZM9.25748 14.2666C10.126 15.0401 10.9991 15.8082 11.877 16.5707L13.4509 14.7589C12.5805 14.0028 11.7148 13.2413 10.8537 12.4744L9.25748 14.2666ZM9.78397 14.4747C9.82292 14.4709 9.82175 14.4717 9.80923 14.472C9.79265 14.4724 9.74061 14.4729 9.66951 14.4605C9.59338 14.4472 9.51068 14.422 9.429 14.3812C9.34965 14.3415 9.29238 14.2977 9.2564 14.2656L10.8548 12.4753C10.6422 12.2855 10.3839 12.1488 10.0813 12.0961C9.83674 12.0535 9.61418 12.0799 9.55406 12.0857L9.78397 14.4747ZM8.46419 14.4428C8.90365 14.5089 9.34961 14.5193 9.79167 14.4739L9.54636 12.0865C9.30481 12.1113 9.06112 12.1056 8.82094 12.0695L8.46419 14.4428ZM8.94825 14.2868C8.92596 14.3046 8.88414 14.3347 8.82336 14.364C8.76022 14.3945 8.69144 14.417 8.62124 14.4298C8.49112 14.4536 8.40715 14.4337 8.45261 14.441L8.83252 12.0713C8.69517 12.0493 8.46011 12.0194 8.18909 12.069C7.88998 12.1238 7.64572 12.2552 7.44842 12.4131L8.94825 14.2868ZM3.24484 18.8387C5.14701 17.3218 7.04782 15.8048 8.94727 14.2876L7.4494 12.4124C5.55046 13.9292 3.65016 15.4458 1.74851 16.9623L3.24484 18.8387ZM3.21086 18.8671C3.22576 18.8542 3.23568 18.846 3.24269 18.8404L1.75066 16.9606C1.70986 16.9929 1.67291 17.0241 1.64021 17.0524L3.21086 18.8671ZM21.2374 19.018H4.56445V21.418H21.2374V19.018ZM22.605 16.7606C22.605 18.2177 21.4857 18.9062 20.9211 19.0605L21.5538 21.3756C22.7009 21.0621 25.005 19.7126 25.005 16.7606H22.605ZM20.8446 14.2491C21.438 14.4547 22.605 15.2672 22.605 16.7606H25.005C25.005 13.8448 22.7486 12.3689 21.6303 11.9814L20.8446 14.2491ZM16.8717 10.4477C18.1563 10.1793 18.8932 10.5745 19.3389 11.0716C19.8477 11.6391 20.0715 12.4543 20.0392 13.0502L22.4357 13.1803C22.4988 12.0177 22.1033 10.5596 21.1258 9.46939C20.0852 8.3088 18.4688 7.66216 16.3807 8.09849L16.8717 10.4477ZM16.117 10.6644C16.3892 10.5666 16.6405 10.4961 16.8717 10.4477L16.3807 8.09849C16.0325 8.17128 15.6742 8.27335 15.3059 8.40557L16.117 10.6644ZM14.3376 9.25326C14.4326 9.47445 14.5053 9.68173 14.5578 9.86522L16.8651 9.20473C16.7836 8.91998 16.6764 8.61731 16.5432 8.3069L14.3376 9.25326ZM9.18135 6.24886C10.6665 6.00242 11.7555 6.37467 12.5645 6.96128C13.405 7.57072 13.9943 8.45312 14.3376 9.25325L16.5432 8.3069C16.0774 7.22132 15.2519 5.94538 13.9734 5.01832C12.6634 4.06843 10.9292 3.52602 8.78848 3.88123L9.18135 6.24886ZM5.76445 10.5438C5.76445 9.96391 5.92829 8.96443 6.45158 8.0769C6.94941 7.23254 7.76902 6.48321 9.18135 6.24886L8.78848 3.88123C6.58265 4.24725 5.19202 5.48779 4.38417 6.85796C3.60176 8.18498 3.36445 9.62472 3.36445 10.5438H5.76445ZM1.39531 15.5348C1.39531 13.9945 1.96969 13.1067 2.60523 12.5732C3.28685 12.0011 4.12119 11.7728 4.63673 11.7417L4.49218 9.34603C3.55134 9.4028 2.20111 9.77904 1.06225 10.735C-0.122687 11.7296 -1.00469 13.2933 -1.00469 15.5348H1.39531ZM4.55234 19.0181C4.03595 19.0233 3.22132 18.8533 2.56521 18.3488C1.96557 17.8878 1.39531 17.0727 1.39531 15.5348H-1.00469C-1.00469 17.7788 -0.118569 19.3127 1.10227 20.2514C2.26664 21.1467 3.63657 21.4275 4.57657 21.418L4.55234 19.0181Z" fill="#616161" mask="url(#path-1-inside-1)"/>
</svg>
