<svg width="24" height="24" viewBox="0 0 24 24" fill="none" xmlns="http://www.w3.org/2000/svg">
<path d="M20.3717 10.9585C20.3266 10.9898 20.2831 11.0233 20.2413 11.059C18.9503 12.348 17.6613 13.6396 16.3743 14.9337C16.3085 15.0002 16.2984 15.1377 16.2924 15.2436C16.2738 15.5583 16.3319 15.8909 16.2493 16.1853C16.0166 17.0174 15.1492 17.4912 14.2931 17.3051C13.4597 17.1257 12.9064 16.3228 13.0147 15.4422C13.0344 15.2807 13.0571 15.1515 12.9034 15.0199C12.0025 14.2474 11.1091 13.4669 10.2233 12.6784C10.0965 12.5659 9.9888 12.5707 9.82608 12.5863C9.47487 12.6221 9.12056 12.6139 8.7714 12.5618C8.58355 12.5318 8.46091 12.5414 8.31494 12.6575C6.36391 14.2081 4.41107 15.7561 2.45645 17.3016C2.37569 17.3686 2.29911 17.4386 2.19622 17.5283C2.94102 18.2091 3.76598 18.644 4.7417 18.647C9.85539 18.6629 14.9693 18.6629 20.0834 18.647C20.3409 18.6451 20.5971 18.6087 20.8449 18.5387C22.0085 18.2151 22.8975 17.1358 22.989 15.9621C23.0901 14.6651 22.4273 13.4854 21.2828 12.9662C21.0705 12.8698 20.9837 12.752 20.964 12.5271C20.9037 11.9622 20.6998 11.4222 20.3717 10.9585ZM1.35091 16.4347C1.50346 16.3205 1.58243 16.2648 1.65781 16.2056C3.59608 14.6717 5.53555 13.1392 7.47622 11.6082C7.64911 11.4724 7.69039 11.3378 7.67364 11.1296C7.65284 10.8979 7.68083 10.6644 7.7558 10.4442C7.83076 10.224 7.95105 10.0219 8.1089 9.85103C8.26675 9.68015 8.45865 9.54425 8.67225 9.45209C8.88584 9.35992 9.11637 9.31354 9.34899 9.31594C9.5816 9.31833 9.81114 9.36945 10.0228 9.46599C10.2344 9.56253 10.4235 9.70235 10.5778 9.87644C10.7321 10.0505 10.8482 10.255 10.9186 10.4767C10.989 10.6985 11.0122 10.9325 10.9867 11.1637C10.9711 11.3336 10.9101 11.4933 11.0925 11.6489C12.0025 12.4266 12.8944 13.2222 13.8025 14.0011C13.8809 14.0687 14.0275 14.0783 14.1429 14.0777C14.448 14.0777 14.7561 14.0232 15.0564 14.0549C15.2401 14.0741 15.3472 14.0388 15.4698 13.915C16.7062 12.6706 17.9461 11.4293 19.1896 10.191C19.2495 10.1311 19.3033 10.0605 19.3858 9.96542C18.0853 9.14345 16.7841 9.15721 15.459 9.83082C15.4202 9.73211 15.3992 9.67827 15.3777 9.62263C14.9709 8.42112 14.1492 7.40397 13.06 6.75378C11.9708 6.1036 10.6855 5.86297 9.43484 6.07511C7.27701 6.42448 5.47453 8.18927 5.09884 10.3543C5.06056 10.5744 4.99654 10.6719 4.75187 10.6881C2.44688 10.8418 0.788573 12.8046 1.02188 15.121C1.06436 15.5463 1.22827 15.9591 1.35091 16.4347Z" fill="white"/>
<path d="M20.3708 10.958C20.6994 11.4226 20.9033 11.9637 20.9631 12.5296C20.9852 12.7545 21.0696 12.8724 21.2819 12.9687C22.4264 13.4879 23.0892 14.6677 22.9881 15.9646C22.8966 17.1384 22.0076 18.2176 20.844 18.5412C20.5962 18.6112 20.34 18.6476 20.0825 18.6495C14.9688 18.6555 9.85489 18.6555 4.74079 18.6495C3.76508 18.6465 2.94011 18.2116 2.19531 17.5308C2.29821 17.4411 2.37478 17.3687 2.45674 17.3041C4.41097 15.7562 6.3638 14.2082 8.31524 12.66C8.46121 12.5439 8.58384 12.5344 8.77169 12.5643C9.12085 12.6164 9.47517 12.6246 9.82637 12.5888C9.98909 12.5732 10.0968 12.5685 10.2236 12.6809C11.1122 13.467 12.0055 14.2475 12.9037 15.0224C13.0574 15.154 13.0347 15.2832 13.015 15.4448C12.9067 16.3254 13.46 17.1264 14.2934 17.3077C15.1495 17.4937 16.0169 17.0199 16.2496 16.1878C16.3322 15.8934 16.2741 15.5608 16.2927 15.2461C16.2987 15.1403 16.3088 15.0027 16.3746 14.9363C17.658 13.6393 18.9466 12.3477 20.2404 11.0615C20.2821 11.0248 20.3256 10.9903 20.3708 10.958Z" fill="#616161"/>
<path d="M1.35091 16.4348C1.22827 15.9593 1.06436 15.5465 1.02188 15.1187C0.788573 12.8024 2.44688 10.8396 4.75187 10.6858C4.99654 10.6697 5.06056 10.5722 5.09884 10.352C5.47453 8.1894 7.27701 6.42461 9.43484 6.07524C10.6852 5.86297 11.9702 6.10325 13.0594 6.75297C14.1485 7.40269 14.9705 8.41931 15.3777 9.62037C15.3962 9.67601 15.4202 9.72985 15.459 9.82856C16.7841 9.15734 18.0853 9.14358 19.3858 9.96495C19.3057 10.0601 19.25 10.1301 19.1896 10.1899C17.9493 11.4314 16.7094 12.6728 15.4698 13.9139C15.3502 14.0377 15.2401 14.073 15.0564 14.0539C14.7573 14.0222 14.448 14.076 14.1429 14.0766C14.0275 14.0766 13.8809 14.0676 13.8025 14C12.8944 13.2223 12.0025 12.4237 11.0925 11.6478C10.9101 11.4922 10.9729 11.3325 10.9867 11.1626C11.0122 10.9314 10.989 10.6974 10.9186 10.4757C10.8482 10.254 10.7321 10.0495 10.5778 9.87538C10.4235 9.70129 10.2344 9.56146 10.0228 9.46492C9.81114 9.36838 9.5816 9.31726 9.34899 9.31487C9.11637 9.31248 8.88584 9.35886 8.67225 9.45102C8.45865 9.54318 8.26675 9.67909 8.1089 9.84997C7.95105 10.0208 7.83076 10.2229 7.7558 10.4431C7.68083 10.6633 7.65284 10.8968 7.67364 11.1285C7.69039 11.3373 7.64911 11.4719 7.47622 11.6071C5.53236 13.135 3.59289 14.6679 1.65781 16.2057C1.58243 16.2649 1.50346 16.3206 1.35091 16.4348Z" fill="#616161"/>
</svg>
