<svg width="24" height="24" viewBox="0 0 24 24" fill="none" xmlns="http://www.w3.org/2000/svg">
<path fill-rule="evenodd" clip-rule="evenodd" d="M8.94 18.7051C11.4989 18.7212 13.9577 17.7118 15.7672 15.9023C17.5767 14.0928 18.5861 11.634 18.57 9.0751V8.6326C19.2267 8.15147 19.7951 7.56023 20.25 6.8851C19.6316 7.15555 18.9773 7.33491 18.3075 7.4176C19.0177 6.99444 19.5506 6.32835 19.8075 5.5426C19.1456 5.93968 18.4199 6.21883 17.6625 6.3676C16.6139 5.25027 14.9461 4.97529 13.5943 5.69684C12.2425 6.41839 11.5428 7.95705 11.8875 9.4501C9.16635 9.31653 6.63036 8.03218 4.9125 5.9176C4.02372 7.46019 4.4828 9.42766 5.9625 10.4176C5.43646 10.3973 4.92259 10.2534 4.4625 9.9976V10.0351C4.45287 11.6359 5.56204 13.0263 7.125 13.3726C6.63573 13.5042 6.12322 13.5247 5.625 13.4326C6.07495 14.7902 7.33014 15.7181 8.76 15.7501C7.56691 16.7105 6.08407 17.2391 4.5525 17.2501C4.28396 17.2423 4.01606 17.2198 3.75 17.1826C5.30022 18.1703 7.1019 18.691 8.94 18.6826" fill="#616161"/>
</svg>
