<svg width="25" height="24" viewBox="0 0 25 24" fill="none" xmlns="http://www.w3.org/2000/svg">
<path d="M24.8867 19.5689C24.8867 21.9859 22.9362 23.9364 20.5192 23.9364H5.25421C2.83725 23.9364 0.886719 21.9859 0.886719 19.5689V4.51593C0.886719 2.09897 2.83725 0.148438 5.25421 0.148438H20.5192C22.9362 0.148438 24.8867 2.09897 24.8867 4.51593V19.5689Z" fill="#2AA8E0"/>
<path d="M20.7734 7.7809C20.1798 8.03531 19.5862 8.20492 18.9077 8.28973C19.5862 7.90811 20.095 7.27206 20.307 6.50881C19.671 6.89044 18.9925 7.14485 18.2717 7.27206C17.678 6.63602 16.83 6.25439 15.8971 6.25439C14.1162 6.25439 12.6745 7.69609 12.6745 9.47701C12.6745 9.73143 12.7169 9.98584 12.7593 10.1979C10.0879 10.0706 7.71337 8.75616 6.10206 6.80563C5.80524 7.27206 5.67803 7.8233 5.67803 8.41694C5.67803 9.51941 6.22927 10.5371 7.11973 11.0883C6.61089 11.0883 6.10206 10.9187 5.67803 10.6643V10.7067C5.67803 12.2756 6.7805 13.5901 8.2646 13.8869C8.01019 13.9717 7.71337 14.0141 7.41655 14.0141C7.20453 14.0141 6.99252 14.0141 6.82291 13.9717C7.24694 15.2438 8.43421 16.1767 9.83351 16.2191C8.73103 17.0671 7.33174 17.6184 5.80524 17.6184C5.55082 17.6184 5.29641 17.6184 5.04199 17.576C6.48369 18.5088 8.1798 19.0176 10.0031 19.0176C15.9395 19.0176 19.2045 14.0989 19.2045 9.81623C19.2045 9.68902 19.2045 9.51941 19.2045 9.3922C19.7558 8.96818 20.307 8.41694 20.7734 7.7809Z" fill="white"/>
</svg>
