<svg width="24" height="24" viewBox="0 0 24 24" fill="none" xmlns="http://www.w3.org/2000/svg">
<path fill-rule="evenodd" clip-rule="evenodd" d="M9.75 13.0086C8.23122 13.0086 7 14.2398 7 15.7586C7 17.2774 8.23122 18.5086 9.75 18.5086C11.2688 18.5086 12.5 17.2774 12.5 15.7586C12.5 14.2398 11.2688 13.0086 9.75 13.0086ZM8.5 15.7586C8.5 15.0682 9.05964 14.5086 9.75 14.5086C10.4404 14.5086 11 15.0682 11 15.7586C11 16.4489 10.4404 17.0086 9.75 17.0086C9.05964 17.0086 8.5 16.4489 8.5 15.7586Z" fill="#616161"/>
<path d="M17.75 2C15.1266 2 13 4.12665 13 6.75V8.00859L14.5 8V6.75C14.5 4.95507 15.9551 3.5 17.75 3.5C19.5449 3.5 21 4.95507 21 6.75V8L22.5 8.00947V6.75C22.5 4.12665 20.3734 2 17.75 2Z" fill="#616161"/>
<path fill-rule="evenodd" clip-rule="evenodd" d="M5 8.01806C3.32189 8.14572 2 9.54778 2 11.2586V19.2586C2 21.0535 3.45507 22.5086 5.25 22.5086H14.25C16.0449 22.5086 17.5 21.0535 17.5 19.2586V11.2586C17.5 9.54778 16.1781 8.14572 14.5 8.01806L13 8.00859H6.5L5 8.01806ZM3.5 11.2586C3.5 10.2921 4.2835 9.50859 5.25 9.50859H14.25C15.2165 9.50859 16 10.2921 16 11.2586V19.2586C16 20.2251 15.2165 21.0086 14.25 21.0086H5.25C4.2835 21.0086 3.5 20.2251 3.5 19.2586V11.2586Z" fill="#616161"/>
</svg>
