<svg width="24" height="24" viewBox="0 0 24 24" fill="none" xmlns="http://www.w3.org/2000/svg">
<path d="M9.70576 18.0065L7.23123 20.4811C6.20534 21.507 4.544 21.507 3.51897 20.4813C2.49374 19.456 2.49374 17.7945 3.51876 16.7695L8.46868 11.8196C9.49371 10.7945 11.1552 10.7945 12.1802 11.8196C12.522 12.1613 13.076 12.1613 13.4177 11.8196C13.7594 11.4779 13.7594 10.9238 13.4177 10.5821C11.7092 8.87366 8.93971 8.87366 7.23123 10.5821L2.28136 15.532C0.572881 17.2405 0.572881 20.01 2.28136 21.7185C3.98963 23.4279 6.75935 23.4279 8.46872 21.7185L10.9433 19.244C11.285 18.9022 11.285 18.3482 10.9433 18.0065C10.6015 17.6648 10.0475 17.6648 9.70576 18.0065Z" fill="#616161"/>
<path d="M20.7171 3.28136C19.0086 1.57288 16.2382 1.57288 14.5297 3.28136L11.5608 6.25025C11.2191 6.59195 11.2191 7.14599 11.5608 7.4877C11.9025 7.8294 12.4566 7.8294 12.7983 7.4877L15.7672 4.5188C16.7922 3.49374 18.4546 3.49374 19.4797 4.5188C20.5047 5.54383 20.5047 7.20534 19.4797 8.23037L14.0354 13.6747C13.0103 14.6998 11.3488 14.6998 10.3238 13.6747C9.9821 13.333 9.42806 13.333 9.08636 13.6747C8.74465 14.0164 8.74465 14.5704 9.08636 14.9121C10.7948 16.6206 13.5643 16.6206 15.2728 14.9121L20.7171 9.46786C22.4256 7.75939 22.4256 4.98983 20.7171 3.28136Z" fill="#616161"/>
</svg>
