<svg width="24" height="24" viewBox="0 0 24 24" fill="none" xmlns="http://www.w3.org/2000/svg">
<path fill-rule="evenodd" clip-rule="evenodd" d="M24 10.5H21V7.5H19.5V10.5H16.5V12H19.5V15H21V12H24V10.5ZM9 3C11.0711 3 12.75 4.67893 12.75 6.75C12.75 8.82107 11.0711 10.5 9 10.5C6.92893 10.5 5.25 8.82107 5.25 6.75C5.25 4.67893 6.92893 3 9 3ZM9 1.5C6.1005 1.5 3.75 3.85051 3.75 6.75C3.75 9.6495 6.1005 12 9 12C11.8995 12 14.25 9.6495 14.25 6.75C14.25 3.85051 11.8995 1.5 9 1.5ZM16.5 22.5H15V18.75C15 16.6789 13.3211 15 11.25 15H6.75C4.67893 15 3 16.6789 3 18.75V22.5H1.5V18.75C1.5 15.8505 3.85051 13.5 6.75 13.5H11.25C14.1495 13.5 16.5 15.8505 16.5 18.75V22.5Z" fill="#616161"/>
</svg>
