<svg width="24" height="24" viewBox="0 0 24 24" fill="none" xmlns="http://www.w3.org/2000/svg">
<path fill-rule="evenodd" clip-rule="evenodd" d="M11.5 3C13.5711 3 15.25 4.67893 15.25 6.75C15.25 8.82107 13.5711 10.5 11.5 10.5C9.42893 10.5 7.75 8.82107 7.75 6.75C7.75 4.67893 9.42893 3 11.5 3ZM11.5 1.5C8.6005 1.5 6.25 3.85051 6.25 6.75C6.25 9.6495 8.6005 12 11.5 12C14.3995 12 16.75 9.6495 16.75 6.75C16.75 3.85051 14.3995 1.5 11.5 1.5ZM19 22.5H17.5V18.75C17.5 16.6789 15.8211 15 13.75 15H9.25C7.17893 15 5.5 16.6789 5.5 18.75V22.5H4V18.75C4 15.8505 6.35051 13.5 9.25 13.5H13.75C16.6495 13.5 19 15.8505 19 18.75V22.5Z" fill="#616161"/>
</svg>
