<svg width="24" height="24" viewBox="0 0 24 24" fill="none" xmlns="http://www.w3.org/2000/svg">
<path fill-rule="evenodd" clip-rule="evenodd" d="M9 1.5C6.1005 1.5 3.75 3.85051 3.75 6.75C3.75 9.6495 6.1005 12 9 12C11.8995 12 14.25 9.6495 14.25 6.75C14.25 3.85051 11.8995 1.5 9 1.5ZM12.75 6.75C12.75 4.67893 11.0711 3 9 3C6.92893 3 5.25 4.67893 5.25 6.75C5.25 8.82107 6.92893 10.5 9 10.5C11.0711 10.5 12.75 8.82107 12.75 6.75ZM16.5 10.5V12H24V10.5H16.5ZM15 22.5H16.5V18.75C16.5 15.8505 14.1495 13.5 11.25 13.5H6.75C3.85051 13.5 1.5 15.8505 1.5 18.75V22.5H3V18.75C3 16.6789 4.67893 15 6.75 15H11.25C13.3211 15 15 16.6789 15 18.75V22.5Z" fill="#616161"/>
</svg>
