<svg width="24" height="24" viewBox="0 0 24 24" fill="none" xmlns="http://www.w3.org/2000/svg">
<path fill-rule="evenodd" clip-rule="evenodd" d="M8 1.5C5.1005 1.5 2.75 3.85051 2.75 6.75C2.75 9.6495 5.1005 12 8 12C10.8995 12 13.25 9.6495 13.25 6.75C13.25 3.85051 10.8995 1.5 8 1.5ZM11.75 6.75C11.75 4.67893 10.0711 3 8 3C5.92893 3 4.25 4.67893 4.25 6.75C4.25 8.82107 5.92893 10.5 8 10.5C10.0711 10.5 11.75 8.82107 11.75 6.75ZM14 22.5H15.5V18.75C15.5 15.8505 13.1495 13.5 10.25 13.5H5.75C2.85051 13.5 0.5 15.8505 0.5 18.75V22.5H2V18.75C2 16.6789 3.67893 15 5.75 15H10.25C12.3211 15 14 16.6789 14 18.75V22.5Z" fill="#A8A8A8"/>
<path d="M15.4949 12.1799L18.2143 15L21.1071 12.0267L23.503 9.56411C23.7798 9.27967 23.7801 8.82671 23.5037 8.54191C23.2158 8.24521 22.7397 8.24499 22.4515 8.54143L18.2143 12.9L16.5244 11.1783C16.2469 10.8956 15.7928 10.891 15.5096 11.1681C15.2276 11.444 15.221 11.8959 15.4949 12.1799Z" fill="#A8A8A8"/>
</svg>
