<svg width="24" height="25" viewBox="0 0 24 25" fill="none" xmlns="http://www.w3.org/2000/svg">
<path d="M15.2979 11.6089L11.1449 8.58999C10.9925 8.47952 10.7902 8.46288 10.6231 8.54873C10.4548 8.63392 10.3496 8.80696 10.3496 8.99397V15.0297C10.3496 15.2187 10.4548 15.3911 10.6231 15.4763C10.6944 15.5122 10.7722 15.5302 10.8508 15.5302C10.9533 15.5302 11.0571 15.4976 11.1449 15.433L15.2979 12.4168C15.429 12.3203 15.5055 12.1712 15.5055 12.0128C15.5062 11.8518 15.4276 11.7034 15.2979 11.6089Z" fill="#616161"/>
<path d="M12.0003 2.00195C6.47639 2.00195 2 6.47834 2 12.0023C2 17.5242 6.47639 21.9993 12.0003 21.9993C17.5229 21.9993 22 17.5236 22 12.0023C22.0007 6.47834 17.5229 2.00195 12.0003 2.00195ZM12.0003 20.3308C7.40015 20.3308 3.67049 16.6031 3.67049 12.0023C3.67049 7.40344 7.40015 3.67112 12.0003 3.67112C16.5998 3.67112 20.3288 7.40277 20.3288 12.0023C20.3295 16.6031 16.5998 20.3308 12.0003 20.3308Z" fill="#616161"/>
</svg>
