<svg width="24" height="24" viewBox="0 0 24 24" fill="none" xmlns="http://www.w3.org/2000/svg">
<path fill-rule="evenodd" clip-rule="evenodd" d="M3.92968 16.8825L5.00218 15.8175C3.82784 14.7631 2.90516 13.4585 2.30218 12C3.82468 8.1975 8.02468 5.25 11.9997 5.25C13.0226 5.2635 14.0363 5.44596 14.9997 5.79L16.1622 4.62C14.8442 4.06299 13.4304 3.76751 11.9997 3.75C7.00311 3.9379 2.59766 7.08128 0.794681 11.745C0.735106 11.9098 0.735106 12.0902 0.794681 12.255C1.46087 14.0228 2.535 15.6083 3.92968 16.8825ZM18.8997 6.165C20.8482 7.56527 22.3447 9.5049 23.2047 11.745C23.2643 11.9098 23.2643 12.0902 23.2047 12.255C21.4017 16.9187 16.9963 20.0621 11.9997 20.25C10.0227 20.2181 8.08759 19.6755 6.38218 18.675L2.55718 22.5L1.49968 21.4425L21.4422 1.5L22.4997 2.5575L18.8997 6.165ZM11.7747 9.0225C10.289 9.13031 9.10749 10.3119 8.99968 11.7975L7.63468 13.155C7.22709 11.607 7.67249 9.95908 8.80438 8.8272C9.93626 7.69531 11.5842 7.24991 13.1322 7.6575L11.7747 9.0225ZM14.9997 12C14.9933 13.0686 14.4189 14.053 13.4919 14.5845C12.5649 15.116 11.4251 15.1143 10.4997 14.58L14.5797 10.5C14.8493 10.9543 14.9942 11.4717 14.9997 12ZM7.49968 17.565C8.8826 18.316 10.4262 18.7225 11.9997 18.75C15.9747 18.75 20.1747 15.8025 21.6972 12C20.8864 10.0766 19.5406 8.42624 17.8197 7.245L15.6672 9.3975C16.908 11.1858 16.691 13.6057 15.152 15.1448C13.6129 16.6839 11.1929 16.9008 9.40468 15.66L7.49968 17.565Z" fill="#616161"/>
</svg>
