<svg width="24" height="24" viewBox="0 0 24 24" fill="none" xmlns="http://www.w3.org/2000/svg">
<path fill-rule="evenodd" clip-rule="evenodd" d="M23.2047 11.745C21.4017 7.08128 16.9963 3.9379 11.9997 3.75C7.00311 3.9379 2.59766 7.08128 0.794681 11.745C0.735106 11.9098 0.735106 12.0902 0.794681 12.255C2.59766 16.9187 7.00311 20.0621 11.9997 20.25C16.9963 20.0621 21.4017 16.9187 23.2047 12.255C23.2643 12.0902 23.2643 11.9098 23.2047 11.745ZM7.49968 12C7.49968 9.51472 9.5144 7.5 11.9997 7.5C14.485 7.5 16.4997 9.51472 16.4997 12C16.4997 14.4853 14.485 16.5 11.9997 16.5C9.5144 16.5 7.49968 14.4853 7.49968 12ZM8.99968 12C8.99968 13.6569 10.3428 15 11.9997 15C12.7953 15 13.5584 14.6839 14.121 14.1213C14.6836 13.5587 14.9997 12.7956 14.9997 12C14.9997 10.3431 13.6565 9 11.9997 9C10.3428 9 8.99968 10.3431 8.99968 12ZM2.30218 12C3.82468 15.8025 8.02468 18.75 11.9997 18.75C15.9747 18.75 20.1747 15.8025 21.6972 12C20.1747 8.1975 15.9747 5.25 11.9997 5.25C8.02468 5.25 3.82468 8.1975 2.30218 12Z" fill="#616161"/>
</svg>
