<svg width="24" height="24" viewBox="0 0 24 24" fill="none" xmlns="http://www.w3.org/2000/svg">
<path fill-rule="evenodd" clip-rule="evenodd" d="M11.9997 15C13.6565 15 14.9997 13.6569 14.9997 12C14.9997 10.3431 13.6565 9 11.9997 9C10.3428 9 8.99968 10.3431 8.99968 12C8.99968 13.6569 10.3428 15 11.9997 15ZM11.9997 3.75C16.9963 3.9379 21.4017 7.08128 23.2047 11.745C23.2643 11.9098 23.2643 12.0902 23.2047 12.255C21.4017 16.9187 16.9963 20.0621 11.9997 20.25C7.00311 20.0621 2.59766 16.9187 0.794681 12.255C0.735106 12.0902 0.735106 11.9098 0.794681 11.745C2.59766 7.08128 7.00311 3.9379 11.9997 3.75ZM7.12468 12C7.12468 14.6924 9.30729 16.875 11.9997 16.875C14.6904 16.8709 16.8706 14.6907 16.8747 12C16.8747 9.30761 14.6921 7.125 11.9997 7.125C9.30729 7.125 7.12468 9.30761 7.12468 12Z" fill="#616161"/>
</svg>
