<svg width="25" height="24" viewBox="0 0 25 24" fill="none" xmlns="http://www.w3.org/2000/svg">
<path d="M18.8956 9.32731L18.0737 9.70273L15.0406 6.25397C13.6993 4.72892 11.6977 3.98698 9.68666 4.26959L6.26953 4.74959V4H1.5V12.9375H6.26953V11.7649H7.16453C7.67349 12.6054 8.44186 13.2874 9.34107 13.6915L8.3108 14.1621L10.7241 19.4455H5.36719V20.7346H23.5V19.4455L18.8956 9.32731ZM4.98047 11.6484H2.78906V5.28906H4.98047V11.6484ZM8.12058 10.8321L7.94243 10.4758H6.26953V6.05133L9.86602 5.54619C11.4462 5.32425 13.0188 5.90704 14.0726 7.10531L16.849 10.2621L15.8731 10.7079C15.4804 10.1649 14.8422 9.81062 14.1224 9.81062H11.055V11.0997H14.1224C14.6025 11.0997 14.993 11.4903 14.993 11.9704V12.8411H11.3711C9.98568 12.841 8.74015 12.0712 8.12058 10.8321ZM10.0189 14.7991L11.4835 14.1301H16.2822V11.9704C16.2822 11.9597 16.2815 11.9492 16.2813 11.9386L18.2587 11.0354L22.1001 19.4455H12.1413L10.0189 14.7991Z" fill="#616161"/>
</svg>
