<svg width="24" height="24" viewBox="0 0 24 24" fill="none" xmlns="http://www.w3.org/2000/svg">
<rect width="24" height="24" fill="white"/>
<path d="M12.0001 2.5C6.76211 2.5 2.5 6.76211 2.5 12.0001C2.5 17.2381 6.76211 21.5 12.0001 21.5C17.2381 21.5 21.5 17.2381 21.5 12.0001C21.5 6.76211 17.2381 2.5 12.0001 2.5V2.5ZM12.0001 20.2045C7.47625 20.2045 3.79546 16.5237 3.79546 12.0001C3.79546 7.47625 7.47625 3.79546 12.0001 3.79546C16.5237 3.79546 20.2045 7.47625 20.2045 12.0001C20.2045 16.5237 16.5237 20.2045 12.0001 20.2045Z" fill="#616161"/>
<path d="M16.542 12.4318H15.4141L15.6231 11.5682H16.5343C16.8918 11.5682 17.182 11.278 17.182 10.9205C17.182 10.5629 16.8918 10.2727 16.5343 10.2727H15.9375L16.162 9.34605C16.2466 8.99894 16.0333 8.64819 15.6853 8.56438C15.3372 8.47899 14.9874 8.69311 14.9037 9.04116L13.8932 13.2082L12.6193 9.00574C12.5374 8.73201 12.2852 8.54541 12.0002 8.54541C11.7151 8.54541 11.463 8.73201 11.38 9.00495L10.1062 13.2074L9.09569 9.04037C9.01188 8.69311 8.66129 8.4763 8.31418 8.56359C7.96691 8.64819 7.75358 8.99799 7.83834 9.34605L8.06274 10.2727H7.46609C7.10854 10.2727 6.81836 10.5629 6.81836 10.9205C6.81836 11.278 7.10854 11.5682 7.46609 11.5682H8.37712L8.58617 12.4318H7.46609C7.10854 12.4318 6.81836 12.722 6.81836 13.0795C6.81836 13.4371 7.10854 13.7272 7.46609 13.7272H8.90055L9.40833 15.8233C9.47664 16.1075 9.72697 16.3096 10.0189 16.3182C10.3454 16.3052 10.5735 16.1368 10.6571 15.8588L12.0002 11.4265L13.3431 15.8588C13.4252 16.1317 13.6774 16.3182 13.9624 16.3182H13.9805C14.2723 16.3096 14.5228 16.1075 14.5911 15.8233L15.0997 13.7272H16.5411C16.8986 13.7272 17.1888 13.4371 17.1888 13.0795C17.1888 12.722 16.8996 12.4318 16.542 12.4318Z" fill="#616161"/>
</svg>
