<svg width="24" height="24" viewBox="0 0 24 24" fill="none" xmlns="http://www.w3.org/2000/svg">
<path fill-rule="evenodd" clip-rule="evenodd" d="M1.5 20.2499H22.5V21.7499H1.5V20.2499ZM19.0575 6.74987C19.3392 6.46852 19.4974 6.08674 19.4974 5.68862C19.4974 5.29051 19.3392 4.90872 19.0575 4.62737L16.3725 1.94237C16.0911 1.66071 15.7094 1.50244 15.3112 1.50244C14.9131 1.50244 14.5314 1.66071 14.25 1.94237L3 13.1924V17.9999H7.8075L19.0575 6.74987ZM15.3075 2.99987L18 5.69237L15.75 7.94237L13.0575 5.24987L15.3075 2.99987ZM4.5 16.4999V13.8074L12 6.30737L14.6925 8.99987L7.1925 16.4999H4.5Z" fill="white"/>
</svg>
