<svg width="25" height="24" viewBox="0 0 25 24" fill="none" xmlns="http://www.w3.org/2000/svg">
<path d="M24.8867 19.6333C24.8867 22.0503 22.9362 24.0008 20.5192 24.0008H5.25421C2.83725 24.0008 0.886719 22.0503 0.886719 19.6333V4.5379C0.886719 2.12094 2.83725 0.17041 5.25421 0.17041H20.5192C22.9362 0.17041 24.8867 2.12094 24.8867 4.5379V19.6333Z" fill="#D2262B"/>
<path d="M17.8904 7.42107C17.3815 7.33627 14.8798 7.25146 12.8868 7.25146C10.8939 7.25146 8.39213 7.33627 7.8833 7.42107C6.99284 7.54828 6.48401 7.97231 6.22959 9.03238C6.14479 9.3716 6.01758 11.3221 6.01758 12.043V12.2126C6.01758 12.9334 6.14479 14.884 6.22959 15.2232C6.48401 16.2833 6.99284 16.6649 7.8833 16.8345C8.39213 16.9193 10.8939 17.0041 12.8868 17.0041C14.8798 17.0041 17.3815 16.9193 17.8904 16.8345C18.7808 16.7073 19.2897 16.2833 19.5441 15.2232C19.6289 14.884 19.7561 12.9334 19.7561 12.2126V12.043C19.7561 11.3221 19.6289 9.3716 19.5441 9.03238C19.2897 7.97231 18.8232 7.54828 17.8904 7.42107Z" fill="white"/>
<path d="M11.2334 10.3472L14.5408 12.0857L11.2334 13.8666V10.3472Z" fill="#D12628"/>
</svg>
