<svg width="24" height="24" viewBox="0 0 24 24" fill="none" xmlns="http://www.w3.org/2000/svg">
<path fill-rule="evenodd" clip-rule="evenodd" d="M22.0571 6.9449C21.8139 6.04137 21.1081 5.3356 20.2046 5.0924C18.5696 4.6499 11.9996 4.6499 11.9996 4.6499C11.9996 4.6499 5.42959 4.6499 3.79459 5.0924C2.89106 5.3356 2.18529 6.04137 1.94209 6.9449C1.6368 8.61235 1.48865 10.3048 1.49959 11.9999C1.48865 13.695 1.6368 15.3875 1.94209 17.0549C2.18529 17.9584 2.89106 18.6642 3.79459 18.9074C5.42959 19.3499 11.9996 19.3499 11.9996 19.3499C11.9996 19.3499 18.5696 19.3499 20.2046 18.9074C21.1081 18.6642 21.8139 17.9584 22.0571 17.0549C22.3624 15.3875 22.5105 13.695 22.4996 11.9999C22.5105 10.3048 22.3624 8.61235 22.0571 6.9449ZM9.89959 15.1499V8.8499L15.3521 11.9999L9.89959 15.1499Z" fill="#616161"/>
</svg>
