<svg xmlns="http://www.w3.org/2000/svg" viewBox="0 0 24 24"><defs><style>.cls-1{fill:#2c2c2c;}.cls-2{fill:#00a2d0;}.cls-3{fill:#ff006c;}</style></defs><title>자산 31</title><g id="레이어_2" data-name="레이어 2"><g id="레이어_1-2" data-name="레이어 1"><path class="cls-1" d="M15.75,9.22a2.6,2.6,0,0,0-.82-.56,2.64,2.64,0,0,0-1.48-.16,2.35,2.35,0,0,0-.45.14,2.38,2.38,0,0,0-.41.23,1.89,1.89,0,0,0-.34.35L12,9.56l-.26-.34A1.86,1.86,0,0,0,11,8.64a2.54,2.54,0,0,0-1.82,0,2.9,2.9,0,0,0-.79.47l-.24.2L7.5,8.6v6.94H8.79V11a1.24,1.24,0,0,1,.1-.5,1.22,1.22,0,0,1,.27-.41,1.3,1.3,0,0,1,.41-.28,1.33,1.33,0,0,1,1,0,1.34,1.34,0,0,1,.69.69,1.24,1.24,0,0,1,.1.5v4.5h1.29V11a1.24,1.24,0,0,1,.1-.5,1.22,1.22,0,0,1,.27-.41,1.3,1.3,0,0,1,.41-.28,1.33,1.33,0,0,1,1,0,1.34,1.34,0,0,1,.69.69,1.24,1.24,0,0,1,.1.5v4.5H16.5V11a2.59,2.59,0,0,0-.2-1A2.46,2.46,0,0,0,15.75,9.22Z"/><path class="cls-2" d="M12,4.4A7.6,7.6,0,1,1,4.4,12,7.61,7.61,0,0,1,12,4.4M12,3a9,9,0,1,0,9,9,9,9,0,0,0-9-9Z"/><path class="cls-3" d="M12,1.4A10.6,10.6,0,1,1,1.4,12,10.62,10.62,0,0,1,12,1.4M12,0A12,12,0,1,0,24,12,12,12,0,0,0,12,0Z"/></g></g></svg>