<svg width="32" height="16" viewBox="0 0 32 16" fill="none" xmlns="http://www.w3.org/2000/svg">
<g clip-path="url(#clip0_15259_140611)">
<path d="M31.7271 3.57027L31.6865 3.37092C31.2507 1.28286 29.4667 -0.0078125 27.0036 -0.0078125H4.85597C2.39288 -0.0078125 0.592008 1.28962 0.156151 3.37092L0.113917 3.57196C0.0320247 4.05463 -0.00585719 4.54374 0.000732525 5.03326V10.8768C0.000240712 11.2947 0.0256319 11.7122 0.0767561 12.1269V12.1489C0.367327 14.5512 2.15298 15.9871 4.85259 15.9871H20.8661C20.9333 15.9871 20.9978 15.9604 21.0453 15.9129C21.0928 15.8654 21.1195 15.8009 21.1195 15.7337V6.27325C21.1195 6.20605 21.0928 6.1416 21.0453 6.09407C20.9978 6.04655 20.9333 6.01985 20.8661 6.01985H19.942C19.8748 6.01985 19.8104 6.04655 19.7628 6.09407C19.7153 6.1416 19.6886 6.20605 19.6886 6.27325V14.5664H5.21243C2.81521 14.5664 1.43838 13.1034 1.43669 10.9308V5.01806C1.43669 2.82188 2.81183 1.41295 5.21074 1.41295H26.659C29.0579 1.41295 30.4178 2.81174 30.4178 5.00285V10.9156C30.4178 13.0882 29.0545 14.5579 26.6556 14.5579H26.1657H25.5811H25.3075C25.2402 14.5579 25.1758 14.5846 25.1283 14.6321C25.0807 14.6797 25.0541 14.7441 25.0541 14.8113V15.7455C25.0541 15.8125 25.0805 15.8767 25.1277 15.9241C25.1748 15.9716 25.2389 15.9985 25.3058 15.9989H25.9494H26.2079H27.0154C29.7184 15.9989 31.4821 14.5579 31.7727 12.1539V12.132C31.8239 11.7172 31.8498 11.2998 31.8504 10.8819V5.03833C31.8555 4.54878 31.8171 4.05975 31.7355 3.57703" fill="#2C2C2C"/>
<path d="M13.2539 10.3494C13.2539 11.3073 13.8519 11.9577 14.7456 11.9577H15.1443C15.178 11.9579 15.2113 11.9515 15.2424 11.9388C15.2736 11.9261 15.3019 11.9073 15.3258 11.8836C15.3496 11.8599 15.3686 11.8317 15.3815 11.8006C15.3944 11.7696 15.4011 11.7363 15.4011 11.7026V10.9035C15.4017 10.8703 15.3955 10.8374 15.383 10.8066C15.3705 10.7758 15.352 10.7479 15.3284 10.7245C15.3048 10.7007 15.2766 10.6818 15.2456 10.669C15.2145 10.6563 15.1812 10.6499 15.1477 10.6501H14.6865V4.25926C14.6865 4.19206 14.6598 4.1276 14.6123 4.08008C14.5647 4.03256 14.5003 4.00586 14.4331 4.00586H13.5073C13.4401 4.00586 13.3756 4.03256 13.3281 4.08008C13.2806 4.1276 13.2539 4.19206 13.2539 4.25926V10.3562" fill="#2C2C2C"/>
<path d="M16.4727 6.79273V10.3505C16.4727 11.3067 17.0724 11.9504 17.966 11.9504H18.3529C18.4201 11.9504 18.4846 11.9237 18.5321 11.8761C18.5796 11.8286 18.6063 11.7642 18.6063 11.697V10.8979C18.6065 10.8642 18.5996 10.8308 18.586 10.7999C18.5739 10.7694 18.5555 10.7418 18.532 10.7188C18.5086 10.6951 18.4808 10.6762 18.45 10.6635C18.4192 10.6507 18.3862 10.6442 18.3529 10.6445H17.9035V6.79273C17.9031 6.72582 17.8762 6.66179 17.8287 6.61464C17.7812 6.56748 17.717 6.54101 17.6501 6.54102H16.7261C16.6591 6.54101 16.5949 6.56748 16.5475 6.61464C16.5 6.66179 16.4731 6.72582 16.4727 6.79273Z" fill="#2C2C2C"/>
<path d="M12.1565 4.35957L12.1666 4.32917C12.1718 4.3121 12.1752 4.29455 12.1767 4.27679C12.1783 4.24922 12.1783 4.22159 12.1767 4.19401C12.1679 4.16498 12.1554 4.13718 12.1396 4.11124L12.1244 4.08758L12.0889 4.05548L12.0551 4.03184L12.0179 4.01494C11.9891 4.0072 11.9597 4.00156 11.9301 3.99805H10.8742H10.8388C10.8179 4.00109 10.7974 4.00676 10.7779 4.01494C10.7469 4.02706 10.7187 4.04547 10.6952 4.069L7.44989 6.85815C7.27683 7.03011 7.17349 7.26001 7.15977 7.50359C7.14605 7.74718 7.22291 7.98723 7.37556 8.17755L10.6665 11.8435L10.6817 11.8587L10.6935 11.8688C10.7133 11.8889 10.7368 11.9049 10.7627 11.9161H10.7763C10.8037 11.9269 10.8329 11.9326 10.8624 11.933H11.9521C11.9787 11.9318 12.005 11.9261 12.0298 11.9161C12.0403 11.9126 12.0505 11.9081 12.0602 11.9026C12.0764 11.894 12.0917 11.8839 12.1058 11.8722C12.114 11.869 12.122 11.8651 12.1294 11.8604C12.148 11.8426 12.1629 11.8213 12.1734 11.7979C12.1734 11.7894 12.1734 11.781 12.1734 11.7725C12.1803 11.7511 12.1848 11.729 12.1869 11.7066V11.683C12.1859 11.6278 12.1669 11.5744 12.1328 11.5309L8.63414 7.52376L12.1058 4.42715C12.1266 4.40532 12.1438 4.3802 12.1565 4.35282" fill="#2C2C2C"/>
<path d="M16.7261 5.39959H17.6501C17.6998 5.39984 17.7485 5.38537 17.79 5.35802C17.8315 5.33066 17.8639 5.29163 17.8833 5.24586C17.896 5.21472 17.9029 5.1815 17.9035 5.14787V4.25758C17.9037 4.22386 17.8968 4.19049 17.8833 4.1596C17.8636 4.11408 17.831 4.0753 17.7896 4.048C17.7482 4.02069 17.6997 4.00605 17.6501 4.00587H16.7261C16.693 4.00564 16.6602 4.01193 16.6296 4.02438C16.599 4.03682 16.5711 4.05518 16.5476 4.07839C16.524 4.10161 16.5053 4.12924 16.4925 4.15969C16.4796 4.19015 16.4729 4.22283 16.4727 4.25589V5.15463C16.473 5.18359 16.4788 5.21223 16.4895 5.2391C16.5064 5.28839 16.5383 5.33118 16.5807 5.36147C16.6231 5.39175 16.674 5.40804 16.7261 5.40804" fill="#2C2C2C"/>
<path d="M6.45682 4.24364C6.45682 4.17643 6.43013 4.11198 6.3826 4.06445C6.33508 4.01693 6.27063 3.99023 6.20342 3.99023H5.27934C5.24927 3.99184 5.21963 3.99811 5.19149 4.00881L5.16784 4.02064C5.1479 4.02925 5.1296 4.04125 5.11377 4.05612L5.09519 4.07301C5.07658 4.09303 5.06119 4.11583 5.04959 4.14059C5.03593 4.17203 5.02901 4.20599 5.02931 4.24026V11.6735C5.02901 11.7078 5.03593 11.7417 5.04959 11.7732C5.0686 11.8194 5.10088 11.859 5.14237 11.887C5.18385 11.915 5.23268 11.93 5.28271 11.9303H6.2068C6.27372 11.9303 6.33791 11.9038 6.38539 11.8566C6.43286 11.8095 6.45976 11.7455 6.46021 11.6785V4.24533" fill="#2C2C2C"/>
<path d="M26.7534 9.41844L26.7635 9.37282V9.32214C26.8304 8.88586 26.8367 8.44243 26.7821 8.00444C26.6351 6.78809 25.7077 6.03125 24.3612 6.03125H22.0637C22.0304 6.03119 21.9975 6.03773 21.9667 6.05049C21.936 6.06324 21.9081 6.08197 21.8846 6.10558C21.8604 6.12904 21.8412 6.15714 21.8281 6.1882C21.8151 6.21926 21.8084 6.25265 21.8086 6.28635V7.19354C21.8091 7.22773 21.816 7.26153 21.8289 7.29321C21.8554 7.35358 21.9037 7.40181 21.964 7.42836C21.9957 7.44125 22.0295 7.44812 22.0637 7.44863H24.2058C25.0505 7.44863 25.4897 7.83381 25.4897 8.57713V8.60416C25.4897 9.36438 25.0573 9.74955 24.2058 9.74955H22.0721C22.0603 9.74875 22.0485 9.74875 22.0367 9.74955C22.0154 9.75161 21.9944 9.75615 21.9742 9.76306C21.9481 9.77404 21.9246 9.79013 21.9049 9.81037H21.8914C21.8917 9.81486 21.8917 9.81938 21.8914 9.82388C21.8722 9.84408 21.8567 9.86754 21.8458 9.89315C21.8394 9.91172 21.8354 9.93102 21.8339 9.95059C21.8331 9.96409 21.8331 9.97763 21.8339 9.99113V10.8983C21.8339 10.9655 21.8606 11.03 21.9082 11.0775C21.9557 11.125 22.0201 11.1517 22.0873 11.1517H24.4153C25.6604 11.1517 26.5456 10.476 26.7703 9.40323" fill="#2C2C2C"/>
</g>
<defs>
<clipPath id="clip0_15259_140611">
<rect width="31.8463" height="16" fill="white"/>
</clipPath>
</defs>
</svg>
