<svg width="144" height="17" viewBox="0 0 144 17" fill="none" xmlns="http://www.w3.org/2000/svg">
<path fill-rule="evenodd" clip-rule="evenodd" d="M17.1 2.40039C17 2.10039 16.8 1.90039 16.5 1.90039H13.6C13.3 1.90039 13.1 2.10039 13 2.40039L9.6 15.3004C9.5 15.6004 9.6 15.8004 9.9 15.8004H12C12.1 15.8004 12.2 15.8004 12.3 15.7004C12.4 15.6004 12.4 15.5004 12.4 15.3004L12.9 13.3004L16.8 11.1004L17.2 12.9004L17.8 15.3004C17.8 15.5004 17.9 15.6004 17.9 15.7004C18 15.8004 18.1 15.8004 18.2 15.8004H20.3C20.6 15.8004 20.6 15.6004 20.6 15.3004L17.1 2.40039ZM13.8 9.50039L15.1 4.40039L16.1 8.20039L13.8 9.50039Z" fill="white"/>
<path fill-rule="evenodd" clip-rule="evenodd" d="M29.3984 8.20039C28.4984 7.80039 27.3984 7.60039 26.1984 7.50039C24.9984 7.40039 24.3984 7.00039 24.3984 6.30039V5.90039C24.3984 5.30039 24.4984 4.80039 24.6984 4.60039C24.8984 4.40039 25.2984 4.30039 25.8984 4.30039H26.6984C27.2984 4.30039 27.6984 4.40039 27.8984 4.60039C28.0984 4.80039 28.1984 5.20039 28.1984 5.70039V5.80039C28.1984 6.10039 28.3984 6.30039 28.6984 6.30039H30.4984C30.7984 6.30039 30.9984 6.10039 30.9984 5.80039V5.40039C30.9984 4.30039 30.6984 3.40039 30.0984 2.80039C29.4984 2.20039 28.5984 1.90039 27.4984 1.90039H25.3984C24.2984 1.90039 23.3984 2.20039 22.7984 2.80039C22.1984 3.40039 21.8984 4.30039 21.8984 5.40039V6.20039C21.8984 7.10039 22.0984 7.80039 22.3984 8.40039C22.6984 9.00039 23.1984 9.30039 23.6984 9.50039C24.1984 9.70039 24.6984 9.90039 25.2984 10.0004C25.8984 10.1004 26.3984 10.2004 26.8984 10.2004C27.3984 10.2004 27.7984 10.4004 28.1984 10.6004C28.4984 10.8004 28.6984 11.1004 28.6984 11.6004V11.9004C28.6984 12.5004 28.5984 12.9004 28.3984 13.1004C28.1984 13.3004 27.7984 13.4004 27.1984 13.4004H26.1984C25.5984 13.4004 25.1984 13.3004 24.9984 13.1004C24.7984 12.9004 24.6984 12.5004 24.6984 12.0004V11.8004C24.6984 11.5004 24.4984 11.3004 24.1984 11.3004H22.3984C22.0984 11.3004 21.8984 11.4004 21.8984 11.8004V12.2004C21.8984 13.3004 22.1984 14.2004 22.7984 14.8004C23.3984 15.4004 24.2984 15.7004 25.3984 15.7004H27.6984C28.7984 15.7004 29.6984 15.4004 30.2984 14.8004C30.8984 14.2004 31.1984 13.3004 31.1984 12.2004V11.5004C31.1984 10.6004 30.9984 9.90039 30.6984 9.40039C30.2984 8.80039 29.8984 8.40039 29.3984 8.20039Z" fill="white"/>
<path fill-rule="evenodd" clip-rule="evenodd" d="M41.7984 9.4C41.4984 8.8 40.9984 8.5 40.4984 8.3C39.5984 7.9 38.4984 7.7 37.2984 7.6C36.0984 7.5 35.4984 7.1 35.4984 6.4V6C35.4984 5.4 35.5984 4.9 35.7984 4.7C35.9984 4.5 36.3984 4.4 36.9984 4.4H37.7984C38.3984 4.4 38.7984 4.5 38.9984 4.7C39.1984 4.9 39.2984 5.3 39.2984 5.8V5.9C39.2984 6.2 39.4984 6.4 39.7984 6.4H41.5984C41.8984 6.4 42.0984 6.2 42.0984 5.9V5.5C42.0984 4.4 41.7984 3.5 41.1984 2.9C40.5984 2.3 39.6984 2 38.5984 2H36.3984C35.2984 2 34.3984 2.3 33.7984 2.9C33.1984 3.5 32.8984 4.4 32.8984 5.5V6.3C32.8984 7.2 33.0984 7.9 33.3984 8.5C33.6984 9.1 34.1984 9.4 34.6984 9.6C35.1984 9.8 35.6984 10 36.2984 10.1C36.8984 10.2 37.3984 10.3 37.8984 10.3C38.3984 10.3 38.7984 10.5 39.1984 10.7C39.4984 10.9 39.6984 11.2 39.6984 11.7V12C39.6984 12.6 39.5984 13 39.3984 13.2C39.1984 13.4 38.7984 13.5 38.1984 13.5H37.1984C36.5984 13.5 36.1984 13.4 35.9984 13.2C35.7984 13 35.6984 12.6 35.6984 12.1V11.9C35.6984 11.6 35.4984 11.4 35.1984 11.4H33.3984C33.0984 11.4 32.8984 11.5 32.8984 11.9V12.3C32.8984 13.4 33.1984 14.3 33.7984 14.9C34.3984 15.5 35.2984 15.8 36.3984 15.8H38.6984C39.7984 15.8 40.6984 15.5 41.2984 14.9C41.8984 14.3 42.1984 13.4 42.1984 12.3V11.6C42.2984 10.6 42.0984 9.9 41.7984 9.4Z" fill="white"/>
<path fill-rule="evenodd" clip-rule="evenodd" d="M7.2 1.90039H3H1.5H0.799999C0.599999 1.90039 0.5 2.00039 0.5 2.20039V15.4004C0.5 15.6004 0.599999 15.7004 0.799999 15.7004H2.9C3.1 15.7004 3.2 15.6004 3.2 15.4004V10.7004C4.3 10.1004 7.4 8.40039 7.6 8.30039C7.9 8.10039 10 7.40039 10 4.90039C10.1 2.20039 7.2 1.90039 7.2 1.90039ZM6.4 6.10039L3.4 7.60039V4.70039C3.4 4.60039 3.5 4.50039 3.6 4.50039H6.2C6.2 4.50039 7 4.50039 7 5.30039C6.9 5.90039 6.4 6.10039 6.4 6.10039Z" fill="white"/>
<path d="M54.3 3.5H49.2V2.1H55.9V4.9C55.9 5.5 55.8 6.1 55.6 6.6C55.4 7.1 55.1 7.5 54.6 8C54.1 8.4 53.4 8.9 52.6 9.4C51.7 9.9 50.6 10.4 49.2 11L48.5 9.6C49.7 9.1 50.7 8.6 51.5 8.2C52.3 7.8 52.8 7.4 53.2 7.1C53.6 6.8 53.9 6.4 54 6.1C54.1 5.8 54.2 5.4 54.2 4.9V3.5H54.3ZM52.8 15.3H61.2V16.8H51.1V11.6H52.8V15.3ZM63.1 7H60.8V12.4H59.1V1H60.8V5.5H63.1V7Z" fill="white"/>
<path d="M64.4008 8.7H66.0008V3.4H64.5008V2H73.2008V3.4H71.7008V8.6C72.1008 8.6 72.4008 8.6 72.7008 8.5C73.0008 8.5 73.4008 8.4 73.7008 8.4L73.8008 9.8C73.3008 9.8 72.7008 9.9 72.2008 9.9C71.7008 9.9 71.0008 10 70.3008 10C69.6008 10 68.8008 10 67.8008 10.1C66.8008 10.1 65.7008 10.1 64.3008 10.1V8.7H64.4008ZM69.0008 15.3H77.5008V16.8H67.3008V11.7H69.0008V15.3ZM70.0008 8.7V3.4H67.6008V8.7H70.0008ZM75.5008 12.5V7.9H73.1008V6.4H75.5008V5.2H73.1008V3.7H75.5008V1H77.2008V12.5H75.5008Z" fill="white"/>
<path d="M82.8984 11.6C83.8984 11 84.6984 10.5 85.2984 10.1C85.9984 9.7 86.4984 9.3 86.9984 8.9C87.3984 8.5 87.7984 8.2 87.9984 7.9C88.2984 7.6 88.3984 7.3 88.5984 6.9C88.6984 6.6 88.7984 6.2 88.7984 5.9C88.7984 5.6 88.7984 5.2 88.7984 4.7V3.1H83.1984V1.6H90.5984V4.8C90.5984 5.4 90.5984 5.8 90.5984 6.3C90.5984 6.7 90.4984 7.1 90.2984 7.5C90.1984 7.9 89.9984 8.3 89.6984 8.7C89.3984 9.1 88.9984 9.5 88.4984 9.9C87.9984 10.3 87.3984 10.8 86.5984 11.3C85.7984 11.8 84.8984 12.4 83.7984 13.1L82.8984 11.6ZM98.1984 7.7H95.5984V16.6H93.7984V0H95.5984V6.1H98.1984V7.7Z" fill="white"/>
<path d="M103.2 0.601562C103.9 0.601562 104.5 0.701562 105 0.901562C105.5 1.10156 105.9 1.40156 106.3 1.70156C106.6 2.00156 106.9 2.40156 107.1 2.80156C107.3 3.20156 107.4 3.60156 107.4 4.10156V4.80156C107.4 5.20156 107.3 5.60156 107.1 6.10156C106.9 6.60156 106.7 6.90156 106.3 7.20156C106 7.50156 105.5 7.80156 105 8.00156C104.5 8.20156 103.9 8.30156 103.2 8.30156C102.5 8.30156 101.9 8.20156 101.4 8.00156C100.9 7.80156 100.5 7.50156 100.1 7.20156C99.8 6.90156 99.5 6.50156 99.3 6.10156C99.1 5.70156 99 5.30156 99 4.80156V4.10156C99 3.70156 99.1 3.30156 99.3 2.80156C99.5 2.40156 99.7 2.00156 100.1 1.70156C100.4 1.40156 100.9 1.10156 101.4 0.901562C101.9 0.701562 102.5 0.601562 103.2 0.601562ZM103.2 6.70156C103.6 6.70156 103.9 6.60156 104.2 6.50156C104.5 6.40156 104.8 6.20156 105 6.00156C105.2 5.80156 105.4 5.60156 105.5 5.40156C105.6 5.20156 105.7 4.90156 105.7 4.70156V4.20156C105.7 3.90156 105.6 3.70156 105.5 3.50156C105.4 3.30156 105.2 3.00156 105 2.90156C104.8 2.70156 104.5 2.60156 104.2 2.40156C103.9 2.30156 103.6 2.20156 103.2 2.20156C102.8 2.20156 102.5 2.30156 102.2 2.40156C101.9 2.50156 101.6 2.70156 101.4 2.90156C101.2 3.10156 101 3.30156 100.9 3.50156C100.8 3.70156 100.7 4.00156 100.7 4.20156V4.70156C100.7 5.00156 100.8 5.20156 100.9 5.40156C101 5.60156 101.2 5.90156 101.4 6.00156C101.6 6.20156 101.9 6.30156 102.2 6.50156C102.4 6.70156 102.8 6.70156 103.2 6.70156ZM112.1 9.40156V16.6016H101.7V9.40156H103.5V11.5016H110.3V9.40156H112.1ZM110.3 15.1016V12.9016H103.5V15.1016H110.3ZM110.3 8.60156V0.101562H112.1V8.60156H110.3Z" fill="white"/>
<path d="M118.099 2.5V0.200001H119.899V2.5H123.799V4H114.199V2.5H118.099ZM118.899 12.9C118.299 12.9 117.699 12.8 117.199 12.6C116.699 12.4 116.299 12.1 115.899 11.8C115.599 11.5 115.299 11.1 115.099 10.7C114.899 10.3 114.799 9.9 114.799 9.4V8.4C114.799 8 114.899 7.5 115.099 7.1C115.299 6.7 115.499 6.3 115.899 6C116.199 5.7 116.699 5.4 117.199 5.2C117.699 5 118.299 4.9 118.899 4.9C119.499 4.9 120.099 5 120.599 5.2C121.099 5.4 121.499 5.7 121.899 6C122.199 6.3 122.499 6.7 122.699 7.1C122.899 7.5 122.999 7.9 122.999 8.4V9.4C122.999 9.8 122.899 10.3 122.699 10.7C122.499 11.1 122.299 11.5 121.899 11.8C121.599 12.1 121.099 12.4 120.599 12.6C120.099 12.8 119.599 12.9 118.899 12.9ZM118.899 6.4C118.199 6.4 117.599 6.6 117.199 7C116.799 7.4 116.599 7.9 116.599 8.6V9.2C116.599 9.9 116.799 10.4 117.199 10.8C117.599 11.2 118.199 11.4 118.899 11.4C119.599 11.4 120.199 11.2 120.599 10.8C120.999 10.4 121.199 9.9 121.199 9.2V8.6C121.199 7.9 120.999 7.4 120.599 7C120.199 6.6 119.699 6.4 118.899 6.4ZM129.599 8.2H126.999V16.7H125.199V0H126.999V6.6H129.599V8.2Z" fill="white"/>
<path d="M130.398 11.6C131.398 11 132.198 10.5 132.798 10.1C133.498 9.7 133.998 9.3 134.498 8.9C134.898 8.5 135.298 8.2 135.498 7.9C135.798 7.6 135.898 7.3 136.098 6.9C136.198 6.6 136.298 6.2 136.298 5.9C136.298 5.6 136.298 5.2 136.298 4.7V3.1H130.598V1.6H137.998V4.8C137.998 5.3 137.998 5.8 137.998 6.3C137.998 6.7 137.898 7.2 137.698 7.5C137.598 7.9 137.298 8.3 137.098 8.7C136.798 9.1 136.398 9.5 135.898 9.9C135.398 10.3 134.798 10.8 133.998 11.3C133.198 11.8 132.298 12.4 131.198 13.1L130.398 11.6ZM141.698 16.6V0H143.498V16.6H141.698Z" fill="white"/>
</svg>
