<svg width="128" height="16" viewBox="0 0 128 16" fill="none" xmlns="http://www.w3.org/2000/svg">
<path fill-rule="evenodd" clip-rule="evenodd" d="M16.8031 1.5C16.7031 1.2 16.5031 1 16.2031 1H13.3031C13.0031 1 12.8031 1.2 12.7031 1.5L9.30313 14.4C9.20313 14.7 9.30312 14.9 9.60312 14.9H11.7031C11.8031 14.9 11.9031 14.9 12.0031 14.8C12.1031 14.7 12.1031 14.6 12.1031 14.4L12.6031 12.4L16.5031 10.2L16.9031 12L17.5031 14.4C17.5031 14.6 17.6031 14.7 17.6031 14.8C17.7031 14.9 17.8031 14.9 17.9031 14.9H20.0031C20.3031 14.9 20.3031 14.7 20.3031 14.4L16.8031 1.5ZM13.4031 8.7L14.7031 3.6L15.7031 7.4L13.4031 8.7Z" fill="white"/>
<path fill-rule="evenodd" clip-rule="evenodd" d="M29.0008 7.4001C28.1008 7.0001 27.0008 6.8001 25.8008 6.7001C24.6008 6.6001 24.0008 6.2001 24.0008 5.5001V5.1001C24.0008 4.5001 24.1008 4.0001 24.3008 3.8001C24.5008 3.6001 24.9008 3.5001 25.5008 3.5001H26.3008C26.9008 3.5001 27.3008 3.6001 27.5008 3.8001C27.7008 4.0001 27.8008 4.4001 27.8008 4.9001V5.0001C27.8008 5.3001 28.0008 5.5001 28.3008 5.5001H30.1008C30.4008 5.5001 30.6008 5.3001 30.6008 5.0001V4.6001C30.6008 3.5001 30.3008 2.6001 29.7008 2.0001C29.1008 1.4001 28.2008 1.1001 27.1008 1.1001H25.0008C23.9008 1.1001 23.0008 1.4001 22.4008 2.0001C21.8008 2.6001 21.5008 3.5001 21.5008 4.6001V5.4001C21.5008 6.3001 21.7008 7.0001 22.0008 7.6001C22.3008 8.2001 22.8008 8.5001 23.3008 8.7001C23.8008 8.9001 24.3008 9.1001 24.9008 9.2001C25.5008 9.3001 26.0008 9.4001 26.5008 9.4001C27.0008 9.4001 27.4008 9.6001 27.8008 9.8001C28.1008 10.0001 28.3008 10.3001 28.3008 10.8001V11.0001C28.3008 11.6001 28.2008 12.0001 28.0008 12.2001C27.8008 12.4001 27.4008 12.5001 26.8008 12.5001H25.8008C25.2008 12.5001 24.8008 12.4001 24.6008 12.2001C24.4008 12.0001 24.3008 11.6001 24.3008 11.1001V10.9001C24.3008 10.6001 24.1008 10.4001 23.8008 10.4001H21.8008C21.5008 10.4001 21.3008 10.5001 21.3008 10.9001V11.3001C21.3008 12.4001 21.6008 13.3001 22.2008 13.9001C22.8008 14.5001 23.7008 14.8001 24.8008 14.8001H27.1008C28.2008 14.8001 29.1008 14.5001 29.7008 13.9001C30.3008 13.3001 30.6008 12.4001 30.6008 11.3001V10.6001C30.6008 9.7001 30.4008 9.0001 30.1008 8.5001C29.9008 8.0001 29.5008 7.6001 29.0008 7.4001Z" fill="white"/>
<path fill-rule="evenodd" clip-rule="evenodd" d="M41.4016 8.5001C41.1016 7.9001 40.6016 7.6001 40.1016 7.4001C39.2016 7.0001 38.1016 6.8001 36.9016 6.7001C35.7016 6.6001 35.1016 6.2001 35.1016 5.5001V5.1001C35.1016 4.5001 35.2016 4.0001 35.4016 3.8001C35.6016 3.6001 36.0016 3.5001 36.6016 3.5001H37.4016C38.0016 3.5001 38.4016 3.6001 38.6016 3.8001C38.8016 4.0001 38.9016 4.4001 38.9016 4.9001V5.0001C38.9016 5.3001 39.1016 5.5001 39.4016 5.5001H41.2016C41.5016 5.5001 41.7016 5.3001 41.7016 5.0001V4.6001C41.7016 3.5001 41.4016 2.6001 40.8016 2.0001C40.2016 1.4001 39.3016 1.1001 38.2016 1.1001H36.1016C35.0016 1.1001 34.1016 1.4001 33.5016 2.0001C32.9016 2.6001 32.6016 3.5001 32.6016 4.6001V5.4001C32.6016 6.3001 32.8016 7.0001 33.1016 7.6001C33.4016 8.2001 33.9016 8.5001 34.4016 8.7001C34.9016 8.9001 35.4016 9.1001 36.0016 9.2001C36.6016 9.3001 37.1016 9.4001 37.6016 9.4001C38.1016 9.4001 38.5016 9.6001 38.9016 9.8001C39.2016 10.0001 39.4016 10.3001 39.4016 10.8001V11.0001C39.4016 11.6001 39.3016 12.0001 39.1016 12.2001C38.9016 12.4001 38.5016 12.5001 37.9016 12.5001H36.9016C36.3016 12.5001 35.9016 12.4001 35.7016 12.2001C35.5016 12.0001 35.4016 11.6001 35.4016 11.1001V10.9001C35.4016 10.6001 35.2016 10.4001 34.9016 10.4001H33.1016C32.8016 10.4001 32.6016 10.5001 32.6016 10.9001V11.3001C32.6016 12.4001 32.9016 13.3001 33.5016 13.9001C34.1016 14.5001 35.0016 14.8001 36.1016 14.8001H38.4016C39.5016 14.8001 40.4016 14.5001 41.0016 13.9001C41.6016 13.3001 41.9016 12.4001 41.9016 11.3001V10.6001C41.9016 9.8001 41.8016 9.1001 41.4016 8.5001Z" fill="white"/>
<path fill-rule="evenodd" clip-rule="evenodd" d="M6.80156 1H2.60156H1.10156H0.401563C0.201563 1 0.101562 1.1 0.101562 1.3V14.5C0.101562 14.7 0.201563 14.8 0.401563 14.8H2.50156C2.70156 14.8 2.80156 14.7 2.80156 14.5V9.8C3.90156 9.2 7.00156 7.5 7.20156 7.4C7.50156 7.2 9.60156 6.5 9.60156 4C9.70156 1.3 6.80156 1 6.80156 1ZM6.00156 5.2L3.00156 6.7V3.8C3.00156 3.7 3.10156 3.6 3.20156 3.6H5.80156C5.80156 3.6 6.60156 3.6 6.60156 4.4C6.60156 5 6.00156 5.2 6.00156 5.2Z" fill="white"/>
<path d="M56.9016 2.5001H51.8016V1.1001H58.5016V3.9001C58.5016 4.5001 58.4016 5.1001 58.2016 5.6001C58.0016 6.1001 57.7016 6.5001 57.2016 7.0001C56.7016 7.4001 56.0016 7.9001 55.2016 8.4001C54.3016 8.9001 53.2016 9.4001 51.8016 10.0001L51.1016 8.6001C52.3016 8.1001 53.3016 7.6001 54.1016 7.2001C54.9016 6.8001 55.4016 6.4001 55.8016 6.1001C56.2016 5.8001 56.5016 5.4001 56.6016 5.1001C56.7016 4.8001 56.8016 4.4001 56.8016 3.9001V2.5001H56.9016ZM55.5016 14.3001H63.9016V15.8001H53.8016V10.6001H55.5016V14.3001ZM65.7016 6.0001H63.4016V11.4001H61.8016V0.100098H63.5016V4.6001H65.8016V6.0001H65.7016Z" fill="white"/>
<path d="M67.0023 7.8H68.6023V2.5H67.1023V1.1H75.8023V2.5H74.3023V7.7C74.7023 7.7 75.0023 7.7 75.3023 7.6C75.6023 7.6 76.0023 7.5 76.3023 7.5L76.4023 8.9C75.9023 8.9 75.3023 9 74.8023 9C74.3023 9 73.6023 9.1 72.9023 9.1C72.2023 9.1 71.4023 9.1 70.4023 9.2C69.4023 9.2 68.3023 9.2 66.9023 9.2V7.8H67.0023ZM71.6023 14.3H80.1023V15.8H69.9023V10.7H71.6023V14.3ZM72.6023 7.7V2.4H70.2023V7.7H72.6023ZM78.2023 11.5V6.9H75.8023V5.4H78.2023V4.2H75.8023V2.7H78.2023V0H79.9023V11.5H78.2023Z" fill="white"/>
<path d="M84.3031 9.7999V4.7999H93.0031V2.7999H84.2031V1.3999H94.7031V6.2999H86.0031V8.3999H95.1031V9.7999H90.4031V12.3999H96.8031V13.7999H82.2031V12.3999H88.6031V9.7999H84.3031Z" fill="white"/>
<path d="M112.502 12.4V13.8H97.9023V12.4H112.502ZM110.302 1.6V3.9C110.302 4.7 110.302 5.4 110.302 6C110.302 6.6 110.202 7.2 110.202 7.8C110.102 8.4 110.102 8.9 110.002 9.4C109.902 9.9 109.802 10.5 109.702 11L108.002 10.8C108.202 9.7 108.402 8.6 108.502 7.6C108.602 6.6 108.602 5.5 108.602 4.5V3H99.8023V1.5H110.302V1.6Z" fill="white"/>
<path d="M114.301 4.3001C114.301 3.9001 114.401 3.5001 114.501 3.1001C114.701 2.7001 114.901 2.3001 115.201 1.9001C115.501 1.5001 115.901 1.3001 116.401 1.0001C116.901 0.800097 117.501 0.700096 118.201 0.700096C118.901 0.700096 119.401 0.800097 119.901 1.0001C120.401 1.2001 120.801 1.5001 121.101 1.9001C121.401 2.3001 121.701 2.6001 121.801 3.1001C122.001 3.5001 122.001 3.9001 122.001 4.3001V5.2001C122.001 5.6001 121.901 6.0001 121.801 6.4001C121.601 6.8001 121.401 7.2001 121.101 7.6001C120.801 8.0001 120.301 8.2001 119.901 8.5001C119.401 8.7001 118.801 8.8001 118.201 8.8001C117.501 8.8001 116.901 8.7001 116.401 8.5001C115.901 8.3001 115.501 8.0001 115.201 7.6001C114.901 7.2001 114.601 6.9001 114.501 6.4001C114.301 6.0001 114.301 5.6001 114.301 5.2001V4.3001ZM120.601 4.4001C120.601 4.1001 120.601 3.9001 120.501 3.6001C120.401 3.3001 120.301 3.1001 120.101 2.9001C119.901 2.7001 119.701 2.5001 119.401 2.4001C119.101 2.3001 118.801 2.2001 118.301 2.2001C117.901 2.2001 117.501 2.3001 117.201 2.4001C116.901 2.5001 116.701 2.7001 116.501 2.9001C116.301 3.1001 116.201 3.4001 116.101 3.6001C116.001 3.9001 116.001 4.1001 116.001 4.4001V5.2001C116.001 5.5001 116.001 5.7001 116.101 6.0001C116.201 6.3001 116.301 6.5001 116.501 6.7001C116.701 6.9001 116.901 7.1001 117.201 7.2001C117.501 7.3001 117.801 7.4001 118.301 7.4001C118.701 7.4001 119.101 7.3001 119.401 7.2001C119.701 7.1001 119.901 6.9001 120.101 6.7001C120.301 6.5001 120.401 6.2001 120.501 6.0001C120.601 5.7001 120.601 5.5001 120.601 5.2001V4.4001ZM118.601 14.3001H127.101V15.8001H116.901V10.5001H118.601V14.3001ZM125.101 11.4001V0.100098H126.801V11.4001H125.101Z" fill="white"/>
</svg>
