<svg width="125" height="26" viewBox="0 0 125 26" fill="none" xmlns="http://www.w3.org/2000/svg">
<path d="M106.422 8.6153C107.126 8.6153 107.84 8.35813 108.39 7.88665L107.873 7.06155C107.511 7.36158 107.06 7.59733 106.554 7.59733C105.543 7.59733 104.85 6.77223 104.85 5.52922C104.85 4.2755 105.565 3.45041 106.598 3.45041C107.005 3.45041 107.346 3.62186 107.676 3.90046L108.291 3.10751C107.862 2.72175 107.302 2.42171 106.532 2.42171C104.938 2.42171 103.542 3.55756 103.542 5.52922C103.542 7.47945 104.795 8.6153 106.422 8.6153Z" fill="#FFA500"/>
<path d="M111.536 8.6153C113.031 8.6153 114.383 7.47945 114.383 5.52922C114.383 3.55756 113.031 2.42171 111.536 2.42171C110.03 2.42171 108.688 3.55756 108.688 5.52922C108.688 7.47945 110.03 8.6153 111.536 8.6153ZM111.536 7.59733C110.579 7.59733 109.997 6.77223 109.997 5.52922C109.997 4.2755 110.579 3.45041 111.536 3.45041C112.481 3.45041 113.086 4.2755 113.086 5.52922C113.086 6.77223 112.481 7.59733 111.536 7.59733Z" fill="#FFA500"/>
<path d="M115.669 8.46529H116.945V2.57173H115.669V8.46529ZM116.307 1.46803C116.769 1.46803 117.098 1.17871 117.098 0.728657C117.098 0.28932 116.769 0 116.307 0C115.834 0 115.526 0.28932 115.526 0.728657C115.526 1.17871 115.834 1.46803 116.307 1.46803Z" fill="#FFA500"/>
<path d="M118.636 8.46529H119.912V4.28622C120.439 3.77187 120.824 3.49327 121.385 3.49327C122.088 3.49327 122.396 3.88974 122.396 4.91844V8.46529H123.671V4.7577C123.671 3.26824 123.099 2.42171 121.813 2.42171C120.989 2.42171 120.362 2.86105 119.813 3.39683H119.78L119.67 2.57173H118.636V8.46529Z" fill="#FFA500"/>
<path d="M0.462035 25.2961H1.2204C1.27911 20.9065 3.09799 16.7127 6.28942 13.6086C9.48086 10.5044 13.7925 8.73523 18.3055 8.67813V7.94049C13.5914 7.99765 9.08688 9.84453 5.75324 13.087C2.4196 16.3295 0.520799 20.7109 0.462035 25.2961Z" fill="#FF006C"/>
<path d="M18.5146 7.49114C13.6064 7.49787 8.90113 9.39735 5.43045 12.7731C1.95978 16.1489 0.00691793 20.7255 0 25.4996V25.72H1.67364V25.4996C1.68056 21.1573 3.45709 16.9947 6.61389 13.9242C9.7707 10.8537 14.0503 9.12575 18.5146 9.11903H18.7413V7.49114H18.5146ZM18.3055 8.67813C13.7925 8.73523 9.48086 10.5044 6.28942 13.6086C3.09799 16.7127 1.27911 20.9065 1.2204 25.2961H0.462035C0.520799 20.7109 2.4196 16.3295 5.75324 13.087C9.08688 9.84453 13.5914 7.99765 18.3055 7.94049V8.67813Z" fill="#FF006C"/>
<path d="M6.55514 25.2961H7.31351C7.37147 22.4782 8.54815 19.7914 10.5971 17.7985C12.6461 15.8055 15.4084 14.661 18.3055 14.6047V13.867C15.2073 13.9235 12.2522 15.1458 10.061 17.277C7.86986 19.4083 6.61323 22.2826 6.55514 25.2961Z" fill="#00A2D0"/>
<path d="M6.10185 25.4996V25.72H7.77549V25.4996C7.7778 22.73 8.90999 20.0744 10.9235 18.1159C12.937 16.1575 15.6672 15.0563 18.5147 15.054H18.7413V13.4261H18.5147C15.224 13.4306 12.0694 14.7041 9.74258 16.9673C7.41572 19.2306 6.10647 22.2989 6.10185 25.4996ZM18.3055 14.6047C15.4084 14.661 12.6461 15.8055 10.5971 17.7985C8.54815 19.7914 7.37147 22.4782 7.31351 25.2961H6.55514C6.61323 22.2826 7.86986 19.4083 10.061 17.277C12.2522 15.1458 15.2073 13.9235 18.3055 13.867V14.6047Z" fill="#00A2D0"/>
<path d="M12.6482 25.2961H13.4153C13.4689 24.0513 14.0013 22.8715 14.907 21.9905C15.8127 21.1095 17.0257 20.5917 18.3055 20.5396V19.7935C16.823 19.8481 15.4164 20.4453 14.3674 21.4657C13.3184 22.486 12.7043 23.8541 12.6482 25.2961Z" fill="#FF006C"/>
<path d="M12.2037 25.4996V25.72H13.8861V25.4996C13.8861 24.3011 14.3756 23.1516 15.2469 22.3041C16.1182 21.4566 17.2999 20.9805 18.5322 20.9805H18.7588V19.3611H18.5322C16.8575 19.3633 15.2518 20.0102 14.066 21.1605C12.8801 22.3107 12.2106 23.8707 12.2037 25.4996ZM18.3055 20.5396C17.0257 20.5917 15.8127 21.1095 14.907 21.9905C14.0013 22.8715 13.4689 24.0513 13.4153 25.2961H12.6482C12.7043 23.8541 13.3184 22.486 14.3674 21.4657C15.4164 20.4453 16.823 19.8481 18.3055 19.7935V20.5396Z" fill="#FF006C"/>
<path d="M37.3779 16.0799C37.0054 15.7222 36.568 15.4347 36.0878 15.2321C35.35 14.9319 34.5384 14.8465 33.7517 14.9862C33.5092 15.0281 33.2724 15.0964 33.0456 15.1897C32.8115 15.2814 32.5915 15.4041 32.3918 15.5543C32.1872 15.7011 32.0078 15.8786 31.8601 16.0799L31.4678 16.6056L31.0494 16.0884C30.7447 15.6905 30.3351 15.38 29.8639 15.1897C28.9444 14.8423 27.9244 14.8423 27.0048 15.1897C26.5482 15.3642 26.1241 15.6106 25.7496 15.9188L25.3748 16.2241L24.4072 15.1218V25.7879H26.4382V18.8863C26.4373 18.6243 26.4906 18.3648 26.5951 18.1233C26.6922 17.886 26.8371 17.6701 27.0212 17.4881C27.2053 17.3061 27.425 17.1617 27.6673 17.0634C27.9169 16.9606 28.1851 16.9076 28.4562 16.9076C28.7272 16.9076 28.9955 16.9606 29.245 17.0634C29.4918 17.1612 29.7146 17.3085 29.8988 17.4958C30.0895 17.6766 30.2407 17.8928 30.3434 18.1317C30.4479 18.3733 30.5012 18.6328 30.5003 18.8948V25.7963H32.5313V18.8863C32.5304 18.6243 32.5837 18.3648 32.6882 18.1233C32.7899 17.8879 32.9346 17.6725 33.1153 17.4874C33.3007 17.3074 33.5196 17.1635 33.7604 17.0634C34.01 16.9606 34.2782 16.9076 34.5493 16.9076C34.8203 16.9076 35.0886 16.9606 35.3381 17.0634C35.5825 17.1655 35.8045 17.3123 35.9919 17.4958C36.1772 17.6791 36.3251 17.8949 36.4278 18.1317C36.5322 18.3733 36.5856 18.6328 36.5847 18.8948V25.7963H38.607V18.8863C38.61 18.3567 38.5033 17.8319 38.2932 17.3432C38.0735 16.8693 37.7628 16.4406 37.3779 16.0799Z" fill="#2C2C2C"/>
<path d="M50.7147 16.2325C50.2156 15.7465 49.6233 15.3605 48.9713 15.0964C48.2737 14.8217 47.5273 14.6834 46.7747 14.6894C46.0291 14.6857 45.2905 14.83 44.6042 15.1134C43.9511 15.3982 43.3595 15.801 42.8608 16.3004C42.3462 16.8166 41.9379 17.4239 41.6579 18.0893C41.065 19.5376 41.065 21.1517 41.6579 22.5999C42.2135 23.9337 43.288 25.0001 44.6478 25.5674C45.6696 25.9896 46.7985 26.1021 47.8871 25.8904C48.9757 25.6786 49.9733 25.1524 50.7496 24.3804C51.2658 23.8687 51.6744 23.2639 51.9525 22.5999C52.2535 21.8874 52.4047 21.1234 52.3971 20.3531C52.4095 19.5549 52.2584 18.7623 51.9525 18.0215C51.6634 17.3526 51.243 16.7449 50.7147 16.2325ZM50.0261 21.8369C49.8488 22.268 49.5884 22.6623 49.259 22.9984C48.9375 23.3196 48.5518 23.5735 48.1258 23.7445C47.6904 23.9249 47.2218 24.0173 46.7485 24.0158C46.259 24.0209 45.7743 23.9225 45.3277 23.7276C44.9031 23.5431 44.5208 23.2779 44.2032 22.9475C43.8826 22.6096 43.6312 22.2154 43.4623 21.786C43.2776 21.3299 43.1858 20.8432 43.192 20.3531C43.1841 19.849 43.2758 19.3482 43.4623 18.8778C43.6271 18.4465 43.8791 18.0515 44.2032 17.7163C44.5228 17.3869 44.9125 17.1294 45.3451 16.9617C46.2255 16.6143 47.2105 16.6143 48.0909 16.9617C48.5196 17.1319 48.9059 17.3891 49.2241 17.7163C49.5517 18.0489 49.8093 18.4406 49.9825 18.8694C50.3501 19.8262 50.3501 20.88 49.9825 21.8369H50.0261Z" fill="#2C2C2C"/>
<path d="M63.3195 16.2919C62.878 15.8585 62.3539 15.5129 61.7766 15.2745C60.9257 14.9231 59.989 14.8162 59.0776 14.9664C58.1661 15.1167 57.318 15.5178 56.6336 16.1223L56.2501 16.4614L55.0559 15.1218V25.7879H57.0869V19.6324C57.0876 19.2687 57.1616 18.9086 57.3048 18.5726C57.4522 18.2576 57.6558 17.9705 57.9063 17.7248C58.304 17.3338 58.8129 17.0676 59.3675 16.9603C59.9221 16.853 60.497 16.9096 61.0182 17.1228C61.3414 17.2485 61.6372 17.4326 61.8899 17.6654C62.1422 17.9098 62.346 18.1972 62.4914 18.5133C62.6387 18.848 62.7129 19.2089 62.7093 19.5731V25.7285H64.7403V19.6324C64.7424 19.0037 64.615 18.381 64.3655 17.8011C64.1198 17.2373 63.7646 16.7249 63.3195 16.2919Z" fill="#2C2C2C"/>
<path d="M70.8073 15.1218C70.3638 15.1185 69.9244 15.2051 69.5172 15.3762C69.1269 15.5347 68.7717 15.765 68.4712 16.0545C68.1664 16.3534 67.9255 16.7082 67.7624 17.0982C67.5993 17.4882 67.5173 17.9057 67.521 18.3267C67.5148 18.7548 67.6009 19.1794 67.7738 19.5731C67.9377 19.9547 68.1743 20.3028 68.4712 20.599C68.7748 20.893 69.1326 21.1289 69.5259 21.2942C69.93 21.4654 70.3666 21.552 70.8073 21.5486H73.9802C74.2344 21.5407 74.4873 21.587 74.7212 21.6842C74.884 21.7603 75.0204 21.8812 75.1133 22.0319C75.2063 22.1826 75.2518 22.3565 75.2442 22.5321C75.2453 22.6943 75.2135 22.855 75.1505 23.0052C75.0875 23.1553 74.9946 23.2918 74.8771 23.4069C74.7596 23.522 74.6199 23.6133 74.4659 23.6756C74.312 23.7379 74.147 23.77 73.9802 23.77H67.521V25.737H73.9802C74.4181 25.7395 74.8516 25.6528 75.2529 25.4826C75.6465 25.3262 76.0026 25.0924 76.2989 24.7959C76.5963 24.4998 76.8382 24.1555 77.0137 23.7784C77.1835 23.3838 77.2695 22.9599 77.2665 22.5321C77.2733 22.132 77.192 21.7351 77.0281 21.3681C76.8642 21.001 76.6216 20.6723 76.3164 20.404C76.0135 20.132 75.6579 19.9215 75.2703 19.785C74.8571 19.638 74.4203 19.5633 73.9802 19.5646H70.8073C70.6438 19.562 70.4825 19.5276 70.3328 19.4635C70.1831 19.3995 70.0481 19.307 69.9356 19.1915C69.7084 18.9637 69.5777 18.661 69.5695 18.3437C69.5716 18.1853 69.6058 18.0289 69.6701 17.8834C69.7344 17.738 69.8276 17.6062 69.9443 17.4958C70.1746 17.2681 70.4876 17.1372 70.816 17.1313H77.1009V15.1218H70.8073Z" fill="#2C2C2C"/>
<path d="M82.5749 10.5095H80.5526V15.1218H77.0658V17.0889H80.5526V21.0568C80.549 21.6838 80.6796 22.3045 80.9361 22.8797C81.1663 23.459 81.5064 23.9911 81.9385 24.4483C82.386 24.8764 82.9124 25.2187 83.4901 25.4572C84.0815 25.7067 84.7197 25.8337 85.3643 25.8303H87.1687V23.8208H85.4253C85.0359 23.8249 84.6499 23.7498 84.2921 23.6004C83.9671 23.459 83.6716 23.2607 83.4204 23.0154C83.1699 22.7696 82.9663 22.4825 82.8189 22.1675C82.6601 21.8175 82.5771 21.4394 82.5749 21.0568V17.1228H87.1687V15.1218H82.5749V10.5095Z" fill="#2C2C2C"/>
<path d="M104.716 17.818C105.029 17.4623 105.415 17.1736 105.849 16.9702C106.606 16.6282 107.467 16.5738 108.264 16.8176C108.596 16.9211 108.91 17.0726 109.196 17.2669C109.482 17.4685 109.738 17.7082 109.955 17.9791L110.155 18.2589L111.576 16.8854C111.385 16.6158 111.166 16.3659 110.922 16.1393C110.594 15.8341 110.228 15.5693 109.833 15.3508C109.437 15.1363 109.015 14.9711 108.577 14.859C108.142 14.7474 107.694 14.6905 107.244 14.6894C106.497 14.6847 105.759 14.841 105.082 15.1473C104.424 15.4505 103.832 15.8736 103.339 16.3936C102.819 16.9398 102.408 17.5752 102.127 18.2674C101.827 19.0038 101.676 19.7898 101.682 20.582C101.679 21.3073 101.827 22.0256 102.118 22.6932C102.406 23.3268 102.814 23.902 103.321 24.3889C104.005 25.0486 104.851 25.5268 105.779 25.7776C106.707 26.0285 107.685 26.0437 108.621 25.8218C109.05 25.719 109.465 25.5682 109.859 25.3724C110.25 25.1679 110.619 24.9235 110.957 24.6433C111.187 24.4484 111.399 24.2357 111.593 24.0074L110.138 22.583C110.085 22.6593 110.016 22.7356 109.955 22.8119C109.733 23.0619 109.474 23.279 109.188 23.4563C108.916 23.6233 108.623 23.7545 108.316 23.8463C107.531 24.0721 106.691 24.0271 105.936 23.7191C105.289 23.4702 104.732 23.0384 104.339 22.4793C103.946 21.9201 103.734 21.2594 103.731 20.582C103.724 20.0587 103.816 19.5386 104.001 19.0474C104.157 18.5973 104.4 18.1801 104.716 17.818Z" fill="#2C2C2C"/>
<path d="M120.284 19.4629L123.806 15.1558H121.6L116.292 21.7012V10.5095H114.243V25.7879H115.298L116.292 24.6263L118.994 21.1501L122.673 25.7879H125L120.284 19.4629Z" fill="#2C2C2C"/>
<path d="M97.9515 16.2325C97.4562 15.742 96.8628 15.3554 96.2081 15.0964C95.5105 14.8217 94.764 14.6834 94.0114 14.6894C93.2658 14.6857 92.5273 14.83 91.8409 15.1134C90.4784 15.6811 89.4031 16.7514 88.851 18.0893C88.2703 19.5398 88.2703 21.1494 88.851 22.5999C89.1311 23.2649 89.5428 23.8698 90.0627 24.3804C90.5623 24.8787 91.1537 25.2813 91.8061 25.5674C92.4951 25.8529 93.2363 26 93.9853 26C94.7342 26 95.4755 25.8529 96.1645 25.5674C96.8169 25.2813 97.4082 24.8787 97.9079 24.3804C98.4215 23.8683 98.8272 23.2635 99.1021 22.5999C99.4031 21.8874 99.5543 21.1234 99.5466 20.3531C99.5591 19.5549 99.408 18.7623 99.1021 18.0215C98.8424 17.3578 98.4515 16.75 97.9515 16.2325ZM97.2628 21.8369C97.0855 22.268 96.8252 22.6623 96.4957 22.9984C96.1765 23.3223 95.7903 23.5766 95.3625 23.7445C94.9271 23.9249 94.4585 24.0173 93.9853 24.0158C93.5122 24.0159 93.0438 23.9236 92.608 23.7445C92.1815 23.5744 91.7957 23.3204 91.4748 22.9984C91.1452 22.6641 90.8874 22.2692 90.7165 21.8369C90.3449 20.8807 90.3449 19.8255 90.7165 18.8694C90.8896 18.4406 91.1472 18.0489 91.4748 17.7163C91.7945 17.3869 92.1842 17.1294 92.6167 16.9617C93.0501 16.7853 93.5156 16.6959 93.9853 16.6988C94.4579 16.6948 94.9265 16.7842 95.3625 16.9617C95.7927 17.1337 96.1815 17.3907 96.5045 17.7163C96.8262 18.0534 97.0831 18.4439 97.2628 18.8694C97.6235 19.8274 97.6235 20.8788 97.2628 21.8369Z" fill="#2C2C2C"/>
</svg>
