<svg width="126" height="32" viewBox="0 0 126 32" fill="none" xmlns="http://www.w3.org/2000/svg">
<g clip-path="url(#clip0_50_25400)">
<path d="M0.460938 27.2772H1.21981C1.27856 22.7711 3.09865 18.466 6.29221 15.2795C9.48577 12.0929 13.8003 10.2768 18.3163 10.2182V9.46094C13.599 9.51961 9.09153 11.4155 5.75567 14.7441C2.4198 18.0727 0.51974 22.5703 0.460938 27.2772Z" fill="#FF006C"/>
<path d="M18.527 9C13.6155 9.00691 8.90706 10.9568 5.43408 14.4222C1.96109 17.8876 0.00692254 22.5857 0 27.4865L0 27.7128H1.67476V27.4865C1.68168 23.0289 3.4594 18.7558 6.6183 15.6038C9.77721 12.4518 14.0596 10.678 18.527 10.6711H18.7538V9H18.527ZM18.3176 10.2185C13.8016 10.2771 9.48714 12.0932 6.29358 15.2798C3.10001 18.4664 1.27992 22.7715 1.22118 27.2776H0.462302C0.521105 22.5707 2.42117 18.073 5.75703 14.7444C9.0929 11.4159 13.6004 9.51997 18.3176 9.46129V10.2185Z" fill="#FF006C"/>
<path d="M6.5625 27.2794H7.32137C7.37937 24.3867 8.55684 21.6286 10.6072 19.5827C12.6575 17.5369 15.4217 16.362 18.3207 16.3041V15.5469C15.2204 15.6049 12.2633 16.8596 10.0707 19.0474C7.8781 21.2352 6.62063 24.1859 6.5625 27.2794Z" fill="#00A2D0"/>
<path d="M6.10938 27.4877V27.714H7.78413V27.4877C7.78644 24.6445 8.91938 21.9185 10.9342 19.908C12.949 17.8976 15.6811 16.7672 18.5305 16.7648H18.7573V15.0938H18.5305C15.2376 15.0984 12.0809 16.4056 9.75253 18.7289C7.42412 21.0523 6.11399 24.202 6.10938 27.4877ZM18.3211 16.3036C15.4221 16.3614 12.658 17.5363 10.6076 19.5822C8.5573 21.628 7.37983 24.3861 7.32183 27.2788H6.56295C6.62109 24.1853 7.87855 21.2347 10.0712 19.0469C12.2638 16.8591 15.2209 15.6043 18.3211 15.5463V16.3036Z" fill="#00A2D0"/>
<path d="M12.6562 27.2815H13.4238C13.4774 26.0036 14.0102 24.7925 14.9165 23.8881C15.8228 22.9838 17.0366 22.4522 18.3173 22.3987V21.6328C16.8338 21.6888 15.4263 22.3019 14.3765 23.3493C13.3268 24.3968 12.7124 25.8012 12.6562 27.2815Z" fill="#FF006C"/>
<path d="M12.2109 27.4889V27.7152H13.8944V27.4889C13.8944 26.2586 14.3842 25.0786 15.2561 24.2086C16.128 23.3386 17.3106 22.8499 18.5436 22.8499H18.7704V21.1875H18.5436C16.8678 21.1898 15.261 21.8539 14.0744 23.0346C12.8878 24.2154 12.2179 25.8168 12.2109 27.4889ZM18.3168 22.3973C17.0362 22.4507 15.8224 22.9823 14.916 23.8867C14.0097 24.7911 13.477 26.0022 13.4234 27.28H12.6558C12.7119 25.7998 13.3264 24.3953 14.3761 23.3479C15.4258 22.3005 16.8333 21.6874 18.3168 21.6314V22.3973Z" fill="#FF006C"/>
<path d="M37.4012 17.8148C37.0285 17.4476 36.5908 17.1525 36.1103 16.9445C35.372 16.6363 34.5599 16.5487 33.7726 16.6921C33.53 16.7351 33.293 16.8052 33.0661 16.9009C32.8318 16.9951 32.6116 17.121 32.4119 17.2752C32.2071 17.426 32.0275 17.6081 31.8798 17.8148L31.4873 18.3544L31.0686 17.8235C30.7636 17.415 30.3537 17.0963 29.8823 16.9009C28.9621 16.5443 27.9414 16.5443 27.0212 16.9009C26.5643 17.0801 26.14 17.333 25.7652 17.6495L25.3901 17.9628L24.4219 16.8313V27.7805H26.4543V20.6957C26.4533 20.4267 26.5067 20.1603 26.6113 19.9124C26.7084 19.6689 26.8534 19.4472 27.0376 19.2603C27.2219 19.0735 27.4417 18.9253 27.6842 18.8244C27.9339 18.7189 28.2023 18.6645 28.4736 18.6645C28.7448 18.6645 29.0132 18.7189 29.263 18.8244C29.5099 18.9248 29.7329 19.076 29.9172 19.2683C30.108 19.4538 30.2593 19.6759 30.362 19.9211C30.4666 20.169 30.52 20.4354 30.519 20.7044V27.7892H32.5514V20.6957C32.5505 20.4267 32.6039 20.1603 32.7084 19.9124C32.8102 19.6708 32.955 19.4496 33.1358 19.2596C33.3213 19.0749 33.5404 18.9272 33.7813 18.8244C34.0311 18.7189 34.2995 18.6645 34.5707 18.6645C34.8419 18.6645 35.1104 18.7189 35.3601 18.8244C35.6047 18.9292 35.8268 19.0799 36.0143 19.2683C36.1997 19.4565 36.3477 19.678 36.4505 19.9211C36.555 20.169 36.6084 20.4354 36.6075 20.7044V27.7892H38.6311V20.6957C38.6342 20.152 38.5274 19.6133 38.3171 19.1117C38.0973 18.6252 37.7864 18.185 37.4012 17.8148Z" fill="#2C2C2C"/>
<path d="M50.75 17.9749C50.2506 17.4759 49.6579 17.0797 49.0055 16.8086C48.3074 16.5266 47.5605 16.3846 46.8074 16.3908C46.0613 16.387 45.3222 16.5351 44.6354 16.826C43.9819 17.1184 43.3899 17.5319 42.8909 18.0445C42.376 18.5745 41.9674 19.1978 41.6872 19.881C41.0939 21.3676 41.0939 23.0246 41.6872 24.5113C42.2432 25.8805 43.3184 26.9752 44.6791 27.5576C45.7015 27.9909 46.8312 28.1065 47.9206 27.8891C49.0099 27.6717 50.0082 27.1315 50.7849 26.3391C51.3015 25.8137 51.7104 25.1929 51.9887 24.5113C52.2899 23.7799 52.4411 22.9956 52.4335 22.2048C52.446 21.3854 52.2947 20.5718 51.9887 19.8113C51.6994 19.1246 51.2787 18.5008 50.75 17.9749ZM50.0609 23.728C49.8835 24.1706 49.623 24.5753 49.2933 24.9204C48.9716 25.2501 48.5857 25.5107 48.1594 25.6863C47.7237 25.8715 47.2548 25.9663 46.7812 25.9648C46.2914 25.97 45.8063 25.869 45.3594 25.6689C44.9346 25.4795 44.552 25.2073 44.2342 24.8681C43.9134 24.5213 43.6618 24.1166 43.4928 23.6758C43.3079 23.2076 43.2161 22.708 43.2224 22.2048C43.2144 21.6874 43.3062 21.1733 43.4928 20.6904C43.6577 20.2476 43.9098 19.8422 44.2342 19.498C44.554 19.1599 44.944 18.8955 45.3769 18.7234C46.2579 18.3668 47.2435 18.3668 48.1245 18.7234C48.5535 18.8981 48.9401 19.1622 49.2585 19.498C49.5863 19.8395 49.8441 20.2416 50.0173 20.6817C50.3851 21.664 50.3851 22.7457 50.0173 23.728H50.0609Z" fill="#2C2C2C"/>
<path d="M63.3629 18.0379C62.9211 17.593 62.3967 17.2383 61.8189 16.9935C60.9674 16.6328 60.0302 16.5231 59.1181 16.6773C58.2061 16.8315 57.3574 17.2433 56.6726 17.8639L56.2888 18.212L55.0938 16.8368V27.786H57.1261V21.4672C57.1268 21.0938 57.2009 20.7241 57.3442 20.3792C57.4916 20.0558 57.6954 19.7612 57.9461 19.5088C58.344 19.1075 58.8533 18.8342 59.4082 18.7241C59.9632 18.6139 60.5385 18.672 61.0601 18.8909C61.3835 19.0199 61.6795 19.2089 61.9323 19.4479C62.1848 19.6988 62.3888 19.9938 62.5342 20.3183C62.6816 20.6619 62.7559 21.0324 62.7523 21.4062V27.7251H64.7847V21.4672C64.7867 20.8218 64.6592 20.1825 64.4096 19.5872C64.1637 19.0084 63.8083 18.4824 63.3629 18.0379Z" fill="#2C2C2C"/>
<path d="M70.8513 16.836C70.4074 16.8326 69.9678 16.9215 69.5603 17.0971C69.1698 17.2599 68.8143 17.4963 68.5136 17.7934C68.2086 18.1003 67.9676 18.4645 67.8044 18.8648C67.6412 19.2652 67.5591 19.6938 67.5628 20.126C67.5565 20.5654 67.6427 21.0013 67.8158 21.4054C67.9798 21.7972 68.2165 22.1546 68.5136 22.4586C68.8175 22.7604 69.1755 23.0025 69.569 23.1723C69.9734 23.3479 70.4103 23.4369 70.8513 23.4334H74.0263C74.2807 23.4253 74.5338 23.4728 74.7678 23.5726C74.9307 23.6508 75.0672 23.7749 75.1602 23.9295C75.2532 24.0842 75.2987 24.2628 75.2911 24.443C75.2923 24.6095 75.2604 24.7745 75.1974 24.9286C75.1343 25.0827 75.0413 25.2229 74.9238 25.341C74.8062 25.4591 74.6664 25.5529 74.5124 25.6168C74.3583 25.6808 74.1932 25.7137 74.0263 25.7137H67.5628V27.733H74.0263C74.4644 27.7355 74.8982 27.6466 75.2998 27.4719C75.6937 27.3113 76.0501 27.0713 76.3466 26.7669C76.6441 26.463 76.8862 26.1095 77.0618 25.7224C77.2318 25.3173 77.3178 24.8821 77.3148 24.443C77.3216 24.0323 77.2402 23.6249 77.0762 23.2481C76.9123 22.8713 76.6694 22.5338 76.364 22.2584C76.061 21.9792 75.7051 21.7631 75.3173 21.623C74.9038 21.472 74.4667 21.3954 74.0263 21.3967H70.8513C70.6877 21.394 70.5262 21.3587 70.3765 21.293C70.2267 21.2272 70.0916 21.1323 69.979 21.0138C69.7516 20.7799 69.6208 20.4692 69.6127 20.1434C69.6147 19.9808 69.6489 19.8203 69.7133 19.6709C69.7777 19.5216 69.8709 19.3864 69.9877 19.273C70.2182 19.0392 70.5314 18.9049 70.86 18.8988H77.1491V16.836H70.8513Z" fill="#2C2C2C"/>
<path d="M82.6299 12.1016H80.6063V16.8363H77.1172V18.8556H80.6063V22.9289C80.6027 23.5724 80.7334 24.2097 80.9901 24.8001C81.2204 25.3948 81.5607 25.941 81.9932 26.4103C82.4409 26.8498 82.9676 27.2012 83.5458 27.446C84.1375 27.7021 84.7762 27.8325 85.4212 27.829H87.2268V25.7662H85.4822C85.0926 25.7704 84.7064 25.6933 84.3483 25.54C84.0231 25.3948 83.7274 25.1913 83.476 24.9394C83.2254 24.6871 83.0216 24.3924 82.8742 24.069C82.7152 23.7097 82.6321 23.3216 82.6299 22.9289V18.8904H87.2268V16.8363H82.6299V12.1016Z" fill="#2C2C2C"/>
<path d="M104.786 19.6024C105.099 19.2372 105.485 18.9409 105.92 18.732C106.677 18.381 107.539 18.3251 108.336 18.5753C108.668 18.6816 108.983 18.8371 109.269 19.0366C109.555 19.2435 109.811 19.4897 110.028 19.7677L110.229 20.055L111.65 18.645C111.459 18.3683 111.24 18.1117 110.996 17.8791C110.667 17.5657 110.301 17.2939 109.906 17.0696C109.51 16.8495 109.088 16.6799 108.65 16.5648C108.214 16.4503 107.766 16.3918 107.315 16.3907C106.568 16.3858 105.829 16.5464 105.152 16.8607C104.494 17.172 103.902 17.6063 103.408 18.1402C102.887 18.7008 102.476 19.353 102.195 20.0637C101.895 20.8196 101.743 21.6265 101.75 22.4397C101.746 23.1842 101.895 23.9217 102.186 24.6069C102.475 25.2573 102.883 25.8478 103.39 26.3477C104.074 27.0249 104.921 27.5157 105.85 27.7733C106.778 28.0308 107.757 28.0464 108.693 27.8186C109.123 27.7131 109.538 27.5583 109.932 27.3573C110.324 27.1474 110.692 26.8965 111.031 26.6088C111.261 26.4087 111.474 26.1904 111.668 25.956L110.211 24.4938C110.159 24.5721 110.089 24.6505 110.028 24.7288C109.806 24.9854 109.547 25.2083 109.26 25.3903C108.989 25.5618 108.695 25.6964 108.388 25.7906C107.603 26.0224 106.762 25.9763 106.007 25.6601C105.359 25.4046 104.802 24.9613 104.409 24.3873C104.016 23.8134 103.804 23.135 103.8 22.4397C103.793 21.9026 103.885 21.3687 104.07 20.8644C104.227 20.4023 104.469 19.974 104.786 19.6024Z" fill="#2C2C2C"/>
<path d="M120.365 21.2926L123.889 16.8711H121.682L116.37 23.5903V12.1016H114.32V27.7855H115.376L116.37 26.5931L119.074 23.0246L122.755 27.7855H125.084L120.365 21.2926Z" fill="#2C2C2C"/>
<path d="M98.0189 17.9749C97.5233 17.4714 96.9296 17.0745 96.2744 16.8086C95.5763 16.5266 94.8293 16.3846 94.0762 16.3908C93.3301 16.387 92.5911 16.5351 91.9043 16.826C90.5409 17.4088 89.4649 18.5075 88.9124 19.881C88.3313 21.3699 88.3313 23.0223 88.9124 24.5113C89.1927 25.1939 89.6046 25.8149 90.1249 26.3391C90.6248 26.8506 91.2166 27.2639 91.8694 27.5576C92.5589 27.8506 93.3006 28.0016 94.0501 28.0016C94.7995 28.0016 95.5412 27.8506 96.2307 27.5576C96.8835 27.2639 97.4753 26.8506 97.9753 26.3391C98.4893 25.8134 98.8952 25.1925 99.1703 24.5113C99.4715 23.7799 99.6228 22.9956 99.6151 22.2048C99.6276 21.3854 99.4764 20.5718 99.1703 19.8113C98.9104 19.13 98.5193 18.5061 98.0189 17.9749ZM97.3298 23.728C97.1524 24.1706 96.8918 24.5753 96.5622 24.9204C96.2428 25.2528 95.8563 25.5139 95.4283 25.6863C94.9926 25.8715 94.5237 25.9663 94.0501 25.9648C93.5766 25.9648 93.108 25.8701 92.6719 25.6863C92.2451 25.5116 91.859 25.2509 91.5379 24.9204C91.2081 24.5772 90.9501 24.1718 90.7791 23.728C90.4073 22.7464 90.4073 21.6632 90.7791 20.6817C90.9523 20.2416 91.2101 19.8395 91.5379 19.498C91.8578 19.1599 92.2478 18.8955 92.6806 18.7234C93.1142 18.5423 93.58 18.4506 94.0501 18.4536C94.5231 18.4494 94.9919 18.5412 95.4283 18.7234C95.8587 18.9 96.2478 19.1638 96.5709 19.498C96.8929 19.8441 97.1499 20.245 97.3298 20.6817C97.6907 21.6652 97.6907 22.7445 97.3298 23.728Z" fill="#2C2C2C"/>
</g>
<defs>
<clipPath id="clip0_50_25400">
<rect width="125.083" height="19" fill="white" transform="translate(0 9)"/>
</clipPath>
</defs>
</svg>
