<svg width="158" height="24" viewBox="0 0 158 24" fill="none" xmlns="http://www.w3.org/2000/svg">
<g clip-path="url(#clip0)">
<path d="M0.583984 23.0868H1.54256C1.61677 17.3949 3.91583 11.9569 7.9498 7.93175C11.9838 3.90659 17.4337 1.61255 23.1381 1.53851V0.582031C17.1795 0.656146 11.4858 3.05098 7.27206 7.25549C3.05834 11.46 0.658262 17.1412 0.583984 23.0868Z" fill="#FF006C"/>
<path d="M23.4025 0C17.1985 0.00872515 11.251 2.47175 6.86409 6.84909C2.47717 11.2264 0.00874426 17.1609 0 23.3514L0 23.6372H2.11548V23.3514C2.12422 17.7207 4.36976 12.3232 8.35996 8.34169C12.3502 4.36021 17.7595 2.11958 23.4025 2.11086H23.689V0H23.4025ZM23.1381 1.53917C17.4337 1.61321 11.9838 3.90724 7.94978 7.9324C3.9158 11.9576 1.61674 17.3955 1.54254 23.0875H0.583961C0.658238 17.1419 3.05832 11.4607 7.27204 7.25614C11.4858 3.05163 17.1794 0.656799 23.1381 0.582684V1.53917Z" fill="#FF006C"/>
<path d="M8.28516 23.0875H9.24373C9.31699 19.4336 10.8043 15.9497 13.3942 13.3655C15.9841 10.7812 19.4757 9.29716 23.1376 9.22406V8.26758C19.2215 8.34085 15.4862 9.92575 12.7166 12.6893C9.94696 15.4529 8.35859 19.18 8.28516 23.0875Z" fill="#00A2D0"/>
<path d="M7.71289 23.3508V23.6367H9.82837V23.3508C9.83129 19.7595 11.2624 16.316 13.8074 13.7765C16.3525 11.237 19.8035 9.80908 23.4027 9.80617H23.6892V7.69531H23.4027C19.2433 7.70113 15.2559 9.35241 12.3148 12.2871C9.37362 15.2219 7.71872 19.2005 7.71289 23.3508ZM23.1383 9.22349C19.4763 9.29659 15.9848 10.7807 13.3949 13.3649C10.805 15.9491 9.31767 19.4331 9.24441 23.087H8.28583C8.35926 19.1794 9.94764 15.4523 12.7173 12.6887C15.4869 9.92518 19.2221 8.34027 23.1383 8.267V9.22349Z" fill="#00A2D0"/>
<path d="M15.9883 23.0883H16.9579C17.0255 21.4741 17.6985 19.9443 18.8433 18.8019C19.9882 17.6596 21.5214 16.9881 23.139 16.9206V15.9531C21.2652 16.0239 19.4873 16.7983 18.1613 18.1214C16.8353 19.4444 16.0592 21.2185 15.9883 23.0883Z" fill="#FF006C"/>
<path d="M15.4258 23.3523V23.6381H17.5523V23.3523C17.5523 21.7981 18.171 20.3077 19.2723 19.2087C20.3737 18.1098 21.8674 17.4924 23.4249 17.4924H23.7114V15.3926H23.4249C21.3081 15.3955 19.2785 16.2343 17.7797 17.7258C16.2808 19.2173 15.4345 21.2401 15.4258 23.3523ZM23.1385 16.9208C21.5208 16.9883 19.9876 17.6597 18.8428 18.8021C17.6979 19.9444 17.025 21.4743 16.9573 23.0884H15.9877C16.0586 21.2186 16.8347 19.4446 18.1607 18.1215C19.4867 16.7985 21.2646 16.024 23.1385 15.9533V16.9208Z" fill="#FF006C"/>
<path d="M47.2465 11.1377C46.7757 10.6739 46.2228 10.3011 45.6159 10.0383C44.6832 9.6491 43.6575 9.53835 42.663 9.71947C42.3566 9.77387 42.0572 9.86237 41.7705 9.98332C41.4746 10.1023 41.1965 10.2613 40.9442 10.4561C40.6856 10.6465 40.4587 10.8766 40.2721 11.1377L39.7762 11.8193L39.2474 11.1487C38.8622 10.6327 38.3444 10.2301 37.7489 9.98332C36.5866 9.53288 35.2973 9.53288 34.135 9.98332C33.5578 10.2097 33.0218 10.5291 32.5484 10.9288L32.0746 11.3246L30.8516 9.89537V23.7259H33.4188V14.7767C33.4176 14.437 33.4851 14.1004 33.6171 13.7873C33.7399 13.4797 33.923 13.1996 34.1557 12.9636C34.3884 12.7276 34.6661 12.5404 34.9723 12.413C35.2878 12.2797 35.6269 12.2109 35.9695 12.2109C36.3121 12.2109 36.6512 12.2797 36.9666 12.413C37.2786 12.5397 37.5602 12.7308 37.793 12.9737C38.034 13.208 38.2251 13.4885 38.3549 13.7983C38.487 14.1114 38.5544 14.448 38.5532 14.7877V23.7369H41.1205V14.7767C41.1193 14.437 41.1867 14.1004 41.3188 13.7873C41.4473 13.4821 41.6302 13.2027 41.8587 12.9627C42.0929 12.7294 42.3696 12.5428 42.674 12.413C42.9895 12.2797 43.3286 12.2109 43.6712 12.2109C44.0137 12.2109 44.3528 12.2797 44.6683 12.413C44.9772 12.5453 45.2578 12.7357 45.4947 12.9737C45.7288 13.2114 45.9158 13.4912 46.0456 13.7983C46.1776 14.1114 46.2451 14.448 46.2439 14.7877V23.7369H48.8001V14.7767C48.8039 14.0899 48.669 13.4094 48.4034 12.7758C48.1257 12.1613 47.7331 11.6053 47.2465 11.1377Z" fill="#2C2C2C"/>
<path d="M64.1037 11.3351C63.4728 10.7049 62.7241 10.2044 61.9 9.86195C61.0183 9.5057 60.0748 9.32638 59.1235 9.33423C58.181 9.32942 57.2475 9.51647 56.38 9.88393C55.5544 10.2533 54.8067 10.7756 54.1763 11.4231C53.5259 12.0925 53.0098 12.8799 52.6558 13.7428C51.9064 15.6207 51.9064 17.7138 52.6558 19.5917C53.3582 21.3211 54.7163 22.704 56.4351 23.4396C57.7266 23.987 59.1536 24.1329 60.5296 23.8583C61.9056 23.5837 63.1665 22.9014 64.1477 21.9004C64.8003 21.2369 65.3167 20.4526 65.6682 19.5917C66.0487 18.6677 66.2398 17.6771 66.2302 16.6783C66.2459 15.6432 66.0549 14.6155 65.6682 13.6549C65.3029 12.7875 64.7714 11.9995 64.1037 11.3351ZM63.2332 18.6022C63.0091 19.1613 62.68 19.6725 62.2636 20.1084C61.8572 20.5249 61.3698 20.8541 60.8313 21.0759C60.2809 21.3098 59.6886 21.4295 59.0904 21.4277C58.4717 21.4342 57.859 21.3067 57.2945 21.0539C56.7578 20.8147 56.2746 20.4708 55.8731 20.0424C55.4679 19.6043 55.1501 19.0931 54.9366 18.5362C54.7031 17.9449 54.5871 17.3138 54.595 16.6783C54.585 16.0247 54.7009 15.3752 54.9366 14.7653C55.145 14.2059 55.4634 13.6938 55.8731 13.2591C56.2771 12.832 56.7697 12.4981 57.3165 12.2806C58.4294 11.8302 59.6743 11.8302 60.7872 12.2806C61.329 12.5013 61.8174 12.8349 62.2196 13.2591C62.6337 13.6904 62.9593 14.1983 63.1781 14.7543C63.6427 15.995 63.6427 17.3615 63.1781 18.6022H63.2332Z" fill="#2C2C2C"/>
<path d="M80.035 11.4119C79.477 10.8499 78.8146 10.4018 78.0848 10.0926C77.0092 9.63699 75.8253 9.49838 74.6733 9.69322C73.5212 9.88806 72.4492 10.4082 71.5841 11.192L71.0993 11.6318L69.5898 9.89473V23.7252H72.1571V15.7436C72.1579 15.2719 72.2515 14.805 72.4325 14.3693C72.6188 13.9609 72.8762 13.5886 73.1928 13.2699C73.6955 12.763 74.3387 12.4177 75.0397 12.2786C75.7407 12.1395 76.4674 12.2129 77.1263 12.4893C77.5348 12.6523 77.9086 12.8911 78.2281 13.1929C78.5469 13.5098 78.8046 13.8825 78.9883 14.2924C79.1746 14.7264 79.2684 15.1944 79.2638 15.6666V23.6483H81.831V15.7436C81.8336 14.9284 81.6725 14.1209 81.3572 13.3689C81.0466 12.6378 80.5977 11.9734 80.035 11.4119Z" fill="#2C2C2C"/>
<path d="M89.4999 9.89465C88.9393 9.89029 88.3839 10.0026 87.8693 10.2245C87.3759 10.43 86.927 10.7287 86.5471 11.104C86.1618 11.4917 85.8574 11.9516 85.6512 12.4573C85.4451 12.963 85.3414 13.5045 85.3461 14.0504C85.3382 14.6055 85.447 15.156 85.6656 15.6665C85.8728 16.1614 86.1719 16.6128 86.5471 16.9968C86.9309 17.3781 87.3832 17.6839 87.8803 17.8983C88.3911 18.1202 88.9429 18.2326 89.4999 18.2281H93.5105C93.8318 18.2179 94.1515 18.2779 94.4471 18.404C94.6529 18.5027 94.8253 18.6595 94.9428 18.8549C95.0603 19.0503 95.1178 19.2758 95.1082 19.5034C95.1096 19.7137 95.0694 19.9222 94.9897 20.1169C94.9101 20.3116 94.7926 20.4886 94.6442 20.6378C94.4957 20.787 94.319 20.9054 94.1245 20.9862C93.9299 21.067 93.7213 21.1086 93.5105 21.1086H85.3461V23.6592H93.5105C94.0639 23.6624 94.6119 23.5501 95.1192 23.3294C95.6167 23.1266 96.0668 22.8234 96.4414 22.4389C96.8172 22.055 97.123 21.6085 97.3449 21.1196C97.5595 20.6079 97.6682 20.0581 97.6644 19.5034C97.6729 18.9846 97.5702 18.47 97.3631 17.9941C97.1559 17.5181 96.8492 17.0919 96.4634 16.7439C96.0806 16.3912 95.6311 16.1184 95.1412 15.9414C94.6189 15.7507 94.0668 15.6539 93.5105 15.6555H89.4999C89.2933 15.6521 89.0894 15.6075 88.9002 15.5245C88.711 15.4414 88.5403 15.3215 88.3981 15.1718C88.1109 14.8764 87.9457 14.4839 87.9354 14.0724C87.938 13.8671 87.9812 13.6642 88.0625 13.4756C88.1438 13.2869 88.2616 13.1161 88.4091 12.973C88.7003 12.6776 89.0958 12.5079 89.511 12.5002H97.455V9.89465H89.4999Z" fill="#2C2C2C"/>
<path d="M104.376 3.91406H101.819V9.89482H97.4121V12.4454H101.819V17.5907C101.815 18.4036 101.98 19.2086 102.304 19.9544C102.595 20.7055 103.025 21.3954 103.571 21.9883C104.137 22.5435 104.802 22.9873 105.532 23.2966C106.28 23.62 107.087 23.7848 107.901 23.7803H110.182V21.1747H107.978C107.486 21.1799 106.998 21.0826 106.546 20.8889C106.135 20.7056 105.762 20.4484 105.444 20.1303C105.128 19.8116 104.87 19.4393 104.684 19.0309C104.483 18.577 104.378 18.0868 104.376 17.5907V12.4894H110.182V9.89482H104.376V3.91406Z" fill="#2C2C2C"/>
<path d="M132.36 13.3909C132.756 12.9297 133.244 12.5553 133.792 12.2915C134.749 11.8481 135.838 11.7775 136.844 12.0936C137.264 12.2279 137.662 12.4243 138.023 12.6763C138.385 12.9377 138.707 13.2486 138.982 13.5998L139.235 13.9626L141.031 12.1816C140.789 11.8321 140.512 11.5079 140.205 11.2141C139.789 10.8183 139.327 10.475 138.828 10.1917C138.328 9.91362 137.795 9.69939 137.241 9.554C136.691 9.40933 136.124 9.33544 135.555 9.33412C134.612 9.32793 133.678 9.53069 132.823 9.9278C131.991 10.321 131.243 10.8696 130.619 11.5439C129.962 12.2521 129.443 13.076 129.088 13.9736C128.708 14.9285 128.517 15.9477 128.526 16.975C128.521 17.9154 128.708 18.8469 129.077 19.7125C129.441 20.534 129.957 21.2799 130.597 21.9113C131.461 22.7668 132.531 23.3868 133.704 23.712C134.877 24.0373 136.113 24.0571 137.296 23.7693C137.838 23.636 138.363 23.4405 138.861 23.1866C139.356 22.9215 139.821 22.6045 140.249 22.2411C140.539 21.9884 140.808 21.7127 141.053 21.4166L139.213 19.5696C139.147 19.6685 139.059 19.7675 138.982 19.8664C138.701 20.1906 138.375 20.4721 138.012 20.702C137.669 20.9186 137.299 21.0887 136.91 21.2077C135.919 21.5005 134.856 21.4422 133.903 21.0428C133.084 20.72 132.381 20.1601 131.884 19.4351C131.387 18.7101 131.119 17.8533 131.115 16.975C131.106 16.2964 131.222 15.622 131.456 14.9851C131.654 14.4013 131.96 13.8604 132.36 13.3909Z" fill="#2C2C2C"/>
<path d="M152.04 15.5238L156.491 9.9388H153.704L146.994 18.4262V3.91406H144.404V23.7253H145.737L146.994 22.2191L150.409 17.7116L155.059 23.7253H158.001L152.04 15.5238Z" fill="#2C2C2C"/>
<path d="M123.811 11.3351C123.185 10.6991 122.435 10.1978 121.608 9.86195C120.726 9.5057 119.782 9.32638 118.831 9.33423C117.889 9.32942 116.955 9.51647 116.088 9.88393C114.365 10.6201 113.006 12.0079 112.308 13.7428C111.574 15.6237 111.574 17.7109 112.308 19.5917C112.662 20.4539 113.183 21.2384 113.84 21.9004C114.471 22.5465 115.219 23.0686 116.044 23.4396C116.914 23.8097 117.851 24.0005 118.798 24.0005C119.745 24.0005 120.682 23.8097 121.553 23.4396C122.377 23.0686 123.125 22.5465 123.756 21.9004C124.405 21.2364 124.918 20.4521 125.266 19.5917C125.646 18.6677 125.837 17.6771 125.828 16.6783C125.843 15.6432 125.652 14.6155 125.266 13.6549C124.937 12.7943 124.443 12.0062 123.811 11.3351ZM122.941 18.6022C122.717 19.1613 122.388 19.6725 121.971 20.1084C121.568 20.5284 121.08 20.8581 120.539 21.0759C119.989 21.3098 119.396 21.4295 118.798 21.4277C118.2 21.4277 117.608 21.3081 117.057 21.0759C116.518 20.8552 116.03 20.5259 115.625 20.1084C115.208 19.6749 114.882 19.1629 114.666 18.6022C114.197 17.3624 114.197 15.9941 114.666 14.7543C114.885 14.1983 115.211 13.6904 115.625 13.2591C116.029 12.832 116.521 12.4981 117.068 12.2806C117.616 12.0519 118.204 11.936 118.798 11.9398C119.395 11.9345 119.988 12.0505 120.539 12.2806C121.083 12.5037 121.574 12.8369 121.982 13.2591C122.389 13.6962 122.714 14.2026 122.941 14.7543C123.397 15.9966 123.397 17.3599 122.941 18.6022Z" fill="#2C2C2C"/>
</g>
<defs>
<clipPath id="clip0">
<rect width="158" height="24" fill="white"/>
</clipPath>
</defs>
</svg>
