<svg width="48" height="48" viewBox="0 0 48 48" fill="none" xmlns="http://www.w3.org/2000/svg">
<path d="M24.0002 8.79883C20.9937 8.79883 18.0546 9.69037 15.5548 11.3607C13.0549 13.0311 11.1065 15.4052 9.95597 18.1829C8.80541 20.9606 8.50438 24.0171 9.09093 26.9658C9.67747 29.9146 11.1253 32.6232 13.2512 34.7492C15.3772 36.8751 18.0858 38.3229 21.0346 38.9095C23.9833 39.496 27.0398 39.195 29.8175 38.0444C32.5952 36.8939 34.9693 34.9455 36.6397 32.4456C38.31 29.9458 39.2016 27.0067 39.2016 24.0002C39.1961 19.9702 37.5928 16.1069 34.7432 13.2572C31.8935 10.4076 28.0302 8.80429 24.0002 8.79883ZM33.0054 31.0845H30.4443V22.0794C30.4495 21.7377 30.379 21.3991 30.2377 21.088C29.9722 20.4655 29.4764 19.9696 28.8539 19.7042C28.5279 19.5632 28.1764 19.4905 27.8212 19.4905C27.466 19.4905 27.1145 19.5632 26.7885 19.7042C26.481 19.8262 26.2054 20.0169 25.983 20.2618C25.7486 20.5012 25.5597 20.7811 25.4253 21.088C25.3003 21.4035 25.2372 21.74 25.2395 22.0794V31.0845H22.7197V22.0794C22.7249 21.7377 22.6543 21.3991 22.5131 21.088C22.2476 20.4655 21.7518 19.9696 21.1293 19.7042C20.8033 19.5632 20.4518 19.4905 20.0966 19.4905C19.7414 19.4905 19.3899 19.5632 19.0639 19.7042C18.7564 19.8262 18.4808 20.0169 18.2584 20.2618C18.024 20.5012 17.8351 20.7811 17.7007 21.088C17.5757 21.4035 17.5126 21.74 17.5148 22.0794V31.0845H14.995V17.1844L16.2756 18.6095L16.7506 18.1964C17.2275 17.798 17.7642 17.4774 18.341 17.2463C19.512 16.8019 20.8052 16.8019 21.9761 17.2463C22.5738 17.4988 23.094 17.905 23.4839 18.4236L24.0002 19.1052L24.5166 18.403C24.699 18.1418 24.9221 17.9117 25.1775 17.7214C25.4363 17.5357 25.713 17.3766 26.0036 17.2463C26.2894 17.1258 26.5871 17.0358 26.8918 16.9778C27.8944 16.8028 28.9262 16.9174 29.866 17.3083C30.4737 17.5676 31.0272 17.9389 31.4976 18.403C32.4523 19.3819 32.9924 20.6914 33.0054 22.0587V31.0845Z" fill="white"/>
<path d="M23.9998 2.78809C19.8045 2.78809 15.7034 4.03213 12.2152 6.3629C8.72696 8.69367 6.0082 12.0065 4.40274 15.8824C2.79728 19.7584 2.37721 24.0233 3.19567 28.138C4.01413 32.2526 6.03435 36.0322 9.00086 38.9987C11.9674 41.9652 15.7469 43.9854 19.8616 44.8039C23.9763 45.6224 28.2412 45.2023 32.1172 43.5968C35.9931 41.9914 39.3059 39.2726 41.6367 35.7844C43.9674 32.2961 45.2115 28.1951 45.2115 23.9998C45.2006 18.3774 42.9623 12.9885 38.9867 9.01291C35.0111 5.03731 29.6221 2.799 23.9998 2.78809ZM23.9998 42.0308C20.4377 42.0308 16.9556 40.9745 13.9938 38.9955C11.032 37.0165 8.72358 34.2036 7.36042 30.9127C5.99727 27.6217 5.6406 24.0005 6.33553 20.5068C7.03047 17.0131 8.74578 13.804 11.2646 11.2852C13.7834 8.76643 16.9925 7.05111 20.4862 6.35618C23.9798 5.66125 27.6011 6.01791 30.892 7.38107C34.183 8.74423 36.9958 11.0527 38.9748 14.0144C40.9538 16.9762 42.0101 20.4583 42.0101 24.0204C42.0101 26.3846 41.5441 28.7256 40.6388 30.9096C39.7334 33.0935 38.4064 35.0776 36.7338 36.7484C35.0611 38.4191 33.0755 39.7438 30.8905 40.6467C28.7055 41.5495 26.364 42.0128 23.9998 42.0101V42.0308Z" fill="white"/>
<path d="M31.4967 18.4238C31.0263 17.9598 30.4728 17.5884 29.865 17.3291C28.9253 16.9383 27.8935 16.8236 26.8909 16.9986C26.5862 17.0566 26.2885 17.1466 26.0027 17.2671C25.7121 17.3974 25.4353 17.5565 25.1766 17.7422C24.9212 17.9325 24.698 18.1627 24.5156 18.4238L23.9993 19.126L23.4829 18.4444C23.0931 17.9258 22.5729 17.5197 21.9752 17.2671C20.8042 16.8227 19.511 16.8227 18.3401 17.2671C17.7633 17.4982 17.2266 17.8189 16.7497 18.2172L16.2747 18.6303L14.9941 17.2052V31.1054H17.5759V22.0795C17.5737 21.7402 17.6368 21.4036 17.7618 21.0881C17.8961 20.7813 18.0851 20.5013 18.3194 20.262C18.5419 20.0171 18.8174 19.8263 19.1249 19.7043C19.451 19.5634 19.8024 19.4906 20.1576 19.4906C20.5129 19.4906 20.8643 19.5634 21.1903 19.7043C21.8129 19.9698 22.3087 20.4656 22.5742 21.0881C22.7154 21.3993 22.7859 21.7379 22.7807 22.0795V31.0847H25.3625V22.0795C25.3602 21.7402 25.4233 21.4036 25.5483 21.0881C25.6827 20.7813 25.8717 20.5013 26.106 20.262C26.3285 20.0171 26.604 19.8263 26.9115 19.7043C27.2376 19.5634 27.589 19.4906 27.9442 19.4906C28.2994 19.4906 28.6509 19.5634 28.9769 19.7043C29.5994 19.9698 30.0953 20.4656 30.3607 21.0881C30.502 21.3993 30.5725 21.7379 30.5673 22.0795V31.0847H33.1284V22.0795C33.1154 20.7122 32.5753 19.4027 31.6206 18.4238H31.4967Z" fill="#2C2C2C"/>
<path d="M23.9996 5.98927C20.4375 5.98927 16.9554 7.04556 13.9936 9.02456C11.0318 11.0036 8.72338 13.8164 7.36022 17.1073C5.99706 20.3983 5.6404 24.0196 6.33533 27.5132C7.03026 31.0069 8.74558 34.216 11.2644 36.7348C13.7832 39.2536 16.9923 40.9689 20.4859 41.6638C23.9796 42.3588 27.6009 42.0021 30.8918 40.639C34.1828 39.2758 36.9956 36.9674 38.9746 34.0056C40.9536 31.0438 42.0099 27.5617 42.0099 23.9996C42.0126 21.6337 41.5486 19.2905 40.6445 17.1041C39.7403 14.9178 38.4138 12.9313 36.7409 11.2583C35.0679 9.58535 33.0814 8.25883 30.8951 7.35469C28.7087 6.45055 26.3655 5.98655 23.9996 5.98927ZM23.9996 39.201C20.993 39.201 18.054 38.3094 15.5542 36.6391C13.0543 34.9687 11.1059 32.5946 9.95535 29.8169C8.8048 27.0392 8.50376 23.9827 9.09031 21.0339C9.67685 18.0852 11.1246 15.3765 13.2506 13.2506C15.3765 11.1246 18.0852 9.67686 21.0339 9.09031C23.9827 8.50376 27.0392 8.8048 29.8169 9.95535C32.5946 11.1059 34.9687 13.0543 36.6391 15.5542C38.3094 18.054 39.201 20.993 39.201 23.9996C39.1955 28.0296 37.5922 31.8929 34.7425 34.7425C31.8929 37.5922 28.0296 39.1955 23.9996 39.201Z" fill="#00A2D0"/>
<path d="M24 0C19.2533 0 14.6131 1.40757 10.6663 4.04473C6.71954 6.68188 3.6434 10.4302 1.8269 14.8156C0.0103989 19.201 -0.464881 24.0266 0.461164 28.6822C1.38721 33.3377 3.67299 37.6141 7.02945 40.9706C10.3859 44.327 14.6623 46.6128 19.3178 47.5388C23.9734 48.4649 28.799 47.9896 33.1844 46.1731C37.5698 44.3566 41.3181 41.2804 43.9553 37.3337C46.5924 33.3869 48 28.7467 48 24C48 20.8483 47.3792 17.7274 46.1731 14.8156C44.967 11.9038 43.1992 9.25804 40.9706 7.02943C38.742 4.80083 36.0962 3.033 33.1844 1.82689C30.2726 0.620778 27.1517 0 24 0ZM24 45.2117C19.8047 45.2117 15.7037 43.9676 12.2154 41.6369C8.72717 39.3061 6.00841 35.9933 4.40295 32.1174C2.79749 28.2414 2.37743 23.9765 3.19588 19.8618C4.01434 15.7471 6.03456 11.9676 9.00107 9.00106C11.9676 6.03455 15.7471 4.01433 19.8618 3.19587C23.9765 2.37741 28.2414 2.79748 32.1174 4.40294C35.9933 6.0084 39.3061 8.72716 41.6369 12.2154C43.9677 15.7036 45.2117 19.8047 45.2117 24C45.2008 29.6223 42.9625 35.0113 38.9869 38.9869C35.0113 42.9625 29.6223 45.2008 24 45.2117Z" fill="#FF006C"/>
</svg>
