<?xml version="1.0" encoding="UTF-8"?>
<svg viewBox="0 0 288 391" xmlns="http://www.w3.org/2000/svg">
<path d="m109.22 60.363c0.248 0.1212 0.35 0.4206 0.229 0.6687l-1.976 4.0431c-0.121 0.2481-0.42 0.3509-0.668 0.2297s-0.351-0.4207-0.23-0.6688l1.442-2.9506c-46.336 16.447-79.517 60.673-79.517 112.65 0 25.214 7.8085 48.603 21.139 67.883l-0.8225 0.568c-13.443-19.441-21.317-43.027-21.317-68.451 0-52.419 33.47-97.019 80.204-113.6l-2.967-1.4495c-0.248-0.1213-0.351-0.4207-0.229-0.6688 0.121-0.2481 0.42-0.3509 0.668-0.2297l4.044 1.9758z" clip-rule="evenodd" fill="#C4C4C4" fill-rule="evenodd"/>
<path d="m180.56 60.372c-0.126-0.2459-0.028-0.5471 0.218-0.6727l4.007-2.047c0.246-0.1256 0.547-0.0281 0.673 0.2178 0.125 0.2459 0.028 0.5471-0.218 0.6727l-2.94 1.5018c47.776 16.002 82.205 61.123 82.205 114.29 0 24.555-7.345 47.396-19.958 66.443l-0.833-0.552c12.507-18.889 19.791-41.538 19.791-65.891 0-52.713-34.131-97.456-81.502-113.33l1.494 2.9247c0.126 0.2459 0.029 0.5471-0.217 0.6727s-0.548 0.0281-0.673-0.2178l-2.047-4.0075z" clip-rule="evenodd" fill="#C4C4C4" fill-rule="evenodd"/>
<path d="m253.5 174.33c0-51.558-35.634-94.795-83.618-106.42l0.235-0.9719c48.422 11.735 84.383 55.364 84.383 107.4 0 20.812-5.755 40.282-15.76 56.904l3.213-0.762c0.269-0.063 0.539 0.103 0.602 0.372 0.064 0.268-0.102 0.538-0.371 0.601l-4.379 1.038c-0.268 0.064-0.538-0.102-0.601-0.371l-1.038-4.379c-0.064-0.268 0.102-0.538 0.371-0.602 0.269-0.063 0.538 0.103 0.602 0.372l0.757 3.195c9.906-16.466 15.604-35.751 15.604-56.368z" clip-rule="evenodd" fill="#C4C4C4" fill-rule="evenodd"/>
<path d="m146.65 97.646c0.195-0.1952 0.512-0.1952 0.707 0l3.182 3.1816c0.195 0.196 0.195 0.512 0 0.708-0.195 0.195-0.512 0.195-0.707 0l-2.329-2.3289v50.793h-1v-50.793l-2.328 2.3289c-0.195 0.195-0.512 0.195-0.707 0-0.195-0.196-0.195-0.512 0-0.708l3.182-3.1816z" clip-rule="evenodd" fill="#C4C4C4" fill-rule="evenodd"/>
<path d="m212.5 226.5v4.5c0 0.276-0.224 0.5-0.5 0.5h-4.5c-0.276 0-0.5-0.224-0.5-0.5s0.224-0.5 0.5-0.5h3.293l-40.147-40.146 0.708-0.708 40.146 40.147v-3.293c0-0.276 0.224-0.5 0.5-0.5s0.5 0.224 0.5 0.5z" clip-rule="evenodd" fill="#C4C4C4" fill-rule="evenodd"/>
<path d="m121.5 207.5v-4.5c0-0.276-0.224-0.5-0.5-0.5h-4.5c-0.276 0-0.5 0.224-0.5 0.5s0.224 0.5 0.5 0.5h3.293l-40.147 40.146 0.7072 0.708 40.146-40.147v3.293c0 0.276 0.224 0.5 0.5 0.5s0.5-0.224 0.5-0.5z" clip-rule="evenodd" fill="#C4C4C4" fill-rule="evenodd"/>
<path d="m206.75 277.08c-17.35 9.815-37.397 15.417-58.754 15.417-17.535 0-34.186-3.776-49.186-10.56l3.0845-1.127c0.259-0.095 0.393-0.382 0.298-0.642-0.095-0.259-0.382-0.392-0.641-0.297l-4.2268 1.545c-0.2593 0.095-0.3927 0.382-0.2979 0.641l1.5452 4.226c0.0948 0.26 0.3819 0.393 0.6412 0.298 0.2594-0.095 0.3928-0.382 0.298-0.641l-1.1336-3.101c15.132 6.847 31.931 10.658 49.619 10.658 21.534 0 41.75-5.649 59.246-15.547l-0.492-0.87z" clip-rule="evenodd" fill="#C4C4C4" fill-rule="evenodd"/>
<rect x="118" y="151" width="60" height="44" rx="8" fill="#A8A8A8"/>
<path d="m132.82 167.43v11.148h1.596v-11.148h-1.596zm-7.056 7.26v1.296h0.984c2.028 0 3.66-0.06 5.46-0.384l-0.156-1.284c-1.764 0.3-3.336 0.372-5.304 0.372h-0.984zm-0.012-6.312v1.272h3.612v1.764h-3.6v3.756h1.62v-2.496h3.612v-4.296h-5.244z" fill="#fff"/>
<path d="m138.69 173.7v4.512h1.596v-4.512h-1.596zm5.124-6.264v11.112h1.608v-11.112h-1.608zm-7.656 6.936c2.028 0 4.62-0.036 7.044-0.468l-0.084-1.164c-2.364 0.324-5.088 0.336-7.152 0.336l0.192 1.296zm5.436 0.54v1.2h2.544v-1.2h-2.544zm-2.028-7.02c-1.656 0-2.832 0.936-2.832 2.28 0 1.356 1.176 2.28 2.832 2.28 1.632 0 2.82-0.924 2.82-2.28 0-1.344-1.188-2.28-2.82-2.28zm0 1.2c0.768 0 1.32 0.408 1.32 1.08 0 0.684-0.552 1.068-1.32 1.068-0.792 0-1.344-0.384-1.344-1.068 0-0.672 0.552-1.08 1.344-1.08z" fill="#fff"/>
<path d="m148.02 172.56v1.272h7.812v-1.272h-7.812zm-1.164 3.348v1.308h10.056v-1.308h-10.056zm1.164-7.56v4.74h1.584v-3.444h6.144v-1.296h-7.728z" fill="#fff"/>
<path d="m161.08 167.69v1.188h8.28v-1.188h-8.28zm0.084 2.556v1.188h8.112v-1.188h-8.112zm1.332-2.088v2.904h1.596v-2.904h-1.596zm3.852 0v2.904h1.596v-2.904h-1.596zm-6.144 3.852v1.248h10.044v-1.248h-10.044zm4.212 0.756v1.548h1.596v-1.548h-1.596zm-3.06 1.2v1.14h6.108v0.552h-6.096v2.1h1.572v-1.032h6.096v-2.76h-7.68zm0.012 3.348v1.164h7.956v-1.164h-7.956z" fill="#fff"/>
<rect x="206" y="239" width="60" height="44" rx="8" fill="#A8A8A8"/>
<path d="m227.82 252.79v4.092h1.632v-4.092h-1.632zm3.84 0v4.092h1.632v-4.092h-1.632zm-6.108-0.84v1.284h10.068v-1.284h-10.068zm5.004-5.808c-2.364 0-4.008 0.972-4.008 2.496 0 1.5 1.644 2.472 4.008 2.472 2.376 0 4.02-0.972 4.02-2.472 0-1.524-1.644-2.496-4.02-2.496zm0 1.272c1.464 0 2.376 0.432 2.376 1.224 0 0.78-0.912 1.212-2.376 1.212-1.452 0-2.376-0.432-2.376-1.212 0-0.792 0.924-1.224 2.376-1.224z" fill="#fff"/>
<path d="m244.12 245.76v11.148h1.596v-11.148h-1.596zm-1.944 3.888v1.284h2.316v-1.284h-2.316zm-3.216-2.124v0.984c0 2.064-0.876 4.188-2.736 5.064l0.936 1.26c2.076-1.02 3.06-3.612 3.06-6.324v-0.984h-1.26zm0.372 0v0.984c0 2.628 0.96 5.112 3.048 6.096l0.924-1.248c-1.86-0.84-2.724-2.892-2.724-4.848v-0.984h-1.248zm-2.652-0.684v1.284h6.18v-1.284h-6.18z" fill="#fff"/>
<path d="m223.54 276.24 1.092-0.456c-1.008-1.752-1.464-3.78-1.464-5.748 0-1.956 0.456-3.984 1.464-5.736l-1.092-0.468c-1.14 1.848-1.8 3.816-1.8 6.204 0 2.4 0.66 4.356 1.8 6.204z" fill="#fff"/>
<path d="m226.03 264.43v1.104h9.048v-1.104h-9.048zm4.548 1.368c-2.46 0-3.72 0.444-3.72 1.392 0 0.96 1.26 1.392 3.72 1.392 2.448 0 3.72-0.432 3.72-1.392 0-0.948-1.272-1.392-3.72-1.392zm0 1.008c1.476 0 2.028 0.108 2.028 0.384 0 0.288-0.552 0.396-2.028 0.396s-2.028-0.108-2.028-0.396c0-0.276 0.552-0.384 2.028-0.384zm-0.804-3.156v1.716h1.596v-1.716h-1.596zm-4.224 5.412v1.14h10.044v-1.14h-10.044zm4.224-0.936v1.512h1.596v-1.512h-1.596zm-3.072 2.52v1.092h6.06v0.444h-6.048v1.716h1.62v-0.696h6.048v-2.556h-7.68zm0.012 3.072v1.092h7.956v-1.092h-7.956z" fill="#fff"/>
<path d="m236.92 270.92v1.308h0.9c2.028 0 3.36-0.06 4.848-0.336l-0.156-1.284c-1.44 0.264-2.724 0.312-4.692 0.312h-0.9zm0-6.168v6.66h1.596v-5.388h3.432v-1.272h-5.028zm7.212-0.984v11.148h1.596v-11.148h-1.596zm-2.724 3.828v1.296h3.396v-1.296h-3.396z" fill="#fff"/>
<path d="m248.47 276.24c1.128-1.848 1.788-3.804 1.788-6.204 0-2.388-0.66-4.356-1.788-6.204l-1.104 0.468c1.008 1.752 1.476 3.78 1.476 5.736 0 1.968-0.468 3.996-1.476 5.748l1.104 0.456z" fill="#fff"/>
<rect x="30" y="347" width="60" height="44" rx="8" fill="#A8A8A8"/>
<path d="m47.572 362.95v1.308h10.056v-1.308h-10.056zm4.176-2.472v2.82h1.584v-2.82h-1.584zm-0.06-5.424v0.804c0 1.536-1.356 3.24-3.888 3.648l0.66 1.332c2.904-0.528 4.62-2.616 4.62-4.98v-0.804h-1.392zm0.312 0v0.804c0 2.4 1.716 4.44 4.632 4.98l0.66-1.332c-2.544-0.408-3.9-2.076-3.9-3.648v-0.804h-1.392z" fill="#fff"/>
<path d="m65.551 354.44v6.444h1.596v-6.444h-1.596zm1.152 2.58v1.32h1.92v-1.32h-1.92zm-4.344-1.956v0.792c0 1.68-1.368 3.108-4.104 3.804l0.648 1.224c3.3-0.852 5.148-2.856 5.148-5.82h-1.692zm-3.552 0v1.26h4.512v-1.26h-4.512zm0.924 6.288v1.26h5.82v2.94h1.596v-4.2h-7.416z" fill="#fff"/>
<path d="m68.914 366.67h1.176l2.988-11.856h-1.164l-3 11.856z" fill="#fff"/>
<path d="m37.682 377.84v1.26h10.068v-1.26h-10.068zm4.308 0.828v2.34h1.62v-2.34h-1.62zm-3.132 3.408v1.284h7.788v-1.284h-7.788zm0-2.04v2.364h1.608v-2.364h-1.608zm3.852-7.392c-2.4 0-3.996 0.9-3.996 2.304 0 1.416 1.596 2.304 3.996 2.304 2.388 0 3.996-0.888 3.996-2.304 0-1.404-1.608-2.304-3.996-2.304zm0 1.26c1.404 0 2.28 0.36 2.28 1.044s-0.876 1.032-2.28 1.032-2.28-0.348-2.28-1.032 0.876-1.044 2.28-1.044z" fill="#fff"/>
<path d="m53.441 373.9v1.272h3.288v-1.272h-3.288zm0 2.46v1.284h3.288v-1.284h-3.288zm-1.848-3.324c-1.668 0-2.94 1.152-2.94 2.724s1.272 2.724 2.94 2.724c1.656 0 2.928-1.152 2.928-2.724s-1.272-2.724-2.928-2.724zm0 1.356c0.816 0 1.416 0.492 1.416 1.368 0 0.864-0.6 1.38-1.416 1.38s-1.416-0.516-1.416-1.38c0-0.876 0.6-1.368 1.416-1.368zm4.632-1.944v6.504h1.596v-6.504h-1.596zm-2.172 6.732c-2.34 0-3.804 0.816-3.804 2.196s1.464 2.184 3.804 2.184 3.804-0.804 3.804-2.184-1.464-2.196-3.804-2.196zm0 1.236c1.464 0 2.232 0.312 2.232 0.96s-0.768 0.96-2.232 0.96c-1.452 0-2.232-0.312-2.232-0.96s0.78-0.96 2.232-0.96z" fill="#fff"/>
<path d="m69.99 372.44v11.112h1.512v-11.112h-1.512zm-1.332 4.26v1.296h1.848v-1.296h-1.848zm-1.056-4.092v10.44h1.488v-10.44h-1.488zm-3.744 1.56v0.984c0 2.136-0.528 4.104-2.196 5.064l0.96 1.224c1.848-1.116 2.448-3.54 2.448-6.288v-0.984h-1.212zm0.324 0v0.984c0 2.58 0.66 4.872 2.532 5.88l0.912-1.212c-1.656-0.864-2.22-2.712-2.22-4.668v-0.984h-1.224zm-2.16-0.6v1.284h5.052v-1.284h-5.052z" fill="#fff"/>
<path d="m75.61 378.14v2.436h1.596v-2.436h-1.596zm4.872-5.7v8.412h1.596v-8.412h-1.596zm-6.408 9.648v1.272h8.244v-1.272h-8.244zm0-2.028v2.364h1.596v-2.364h-1.596zm-1.2-1.44c2.004 0 4.608-0.06 6.972-0.456l-0.096-1.14c-2.328 0.3-5.04 0.324-7.068 0.324l0.192 1.272zm5.508 0.276v1.092h2.448v-1.092h-2.448zm-2.124-6.072c-1.632 0-2.772 0.804-2.772 1.98 0 1.188 1.14 1.98 2.772 1.98 1.62 0 2.76-0.792 2.76-1.98 0-1.176-1.14-1.98-2.76-1.98zm0 1.164c0.732 0 1.248 0.276 1.248 0.816s-0.516 0.816-1.248 0.816c-0.744 0-1.26-0.276-1.26-0.816s0.516-0.816 1.26-0.816z" fill="#fff"/>
<rect x="30" y="239" width="60" height="44" rx="8" fill="#A8A8A8"/>
<path d="m47.062 255.77v0.516c0 1.308-1.26 2.76-3.816 3.096l0.624 1.284c2.916-0.432 4.596-2.244 4.596-4.38v-0.516h-1.404zm0.3 0v0.516c0 2.136 1.68 3.948 4.596 4.38l0.612-1.284c-2.544-0.336-3.816-1.8-3.816-3.096v-0.516h-1.392zm-0.288 6.72v4.068h1.584v-4.068h-1.584zm-4.188-1.008v1.296h10.044v-1.296h-10.044z" fill="#fff"/>
<path d="m55.369 262.49v1.26h5.976v2.808h1.608v-4.068h-7.584zm5.976-7.044v6.516h1.608v-6.516h-1.608zm-4.44 0.6c-1.728 0-3.024 1.14-3.024 2.724s1.296 2.712 3.024 2.712c1.716 0 3.012-1.128 3.012-2.712s-1.296-2.724-3.012-2.724zm0 1.356c0.84 0 1.452 0.492 1.452 1.368s-0.612 1.38-1.452 1.38-1.464-0.504-1.464-1.38 0.624-1.368 1.464-1.368z" fill="#fff"/>
<path d="m67.947 255.7v1.188h8.28v-1.188h-8.28zm0.084 2.556v1.188h8.112v-1.188h-8.112zm1.332-2.088v2.904h1.596v-2.904h-1.596zm3.852 0v2.904h1.596v-2.904h-1.596zm-6.144 3.852v1.248h10.044v-1.248h-10.044zm4.212 0.756v1.548h1.596v-1.548h-1.596zm-3.06 1.2v1.14h6.108v0.552h-6.096v2.1h1.572v-1.032h6.096v-2.76h-7.68zm0.012 3.348v1.164h7.956v-1.164h-7.956z" fill="#fff"/>
<rect x="117" y="43" width="60" height="44" rx="8" fill="#A8A8A8"/>
<path d="m130.22 51.074v0.804c0 1.596-1.38 3.36-3.888 3.792l0.684 1.32c2.88-0.564 4.596-2.7 4.596-5.112v-0.804h-1.392zm0.324 0v0.804c0 2.448 1.704 4.548 4.584 5.112l0.684-1.32c-2.52-0.432-3.888-2.16-3.888-3.792v-0.804h-1.38zm-4.44 7.824v1.296h10.056v-1.296h-10.056z" fill="#fff"/>
<path d="m141.46 54.482v1.284h1.968v-1.284h-1.968zm-4.2 3.348v1.284h0.756c1.596 0 2.664-0.024 3.912-0.24l-0.132-1.272c-1.212 0.204-2.22 0.228-3.78 0.228h-0.756zm0-6.168v6.636h1.512v-5.376h2.616v-1.26h-4.128zm1.08 2.988v1.224h2.628v-1.224h-2.628zm6.624-4.212v11.112h1.524v-11.112h-1.524zm-2.292 0.192v10.428h1.488v-10.428h-1.488z" fill="#fff"/>
<path d="m155.39 50.426v11.148h1.608v-11.148h-1.608zm-4.38 0.78c-1.68 0-2.916 1.536-2.916 3.96 0 2.448 1.236 3.984 2.916 3.984s2.916-1.536 2.916-3.984c0-2.424-1.236-3.96-2.916-3.96zm0 1.452c0.828 0 1.38 0.876 1.38 2.508 0 1.656-0.552 2.544-1.38 2.544s-1.392-0.888-1.392-2.544c0-1.632 0.564-2.508 1.392-2.508z" fill="#fff"/>
<path d="m162.9 51.098v0.696c0 1.908-0.972 3.384-4.116 4.236l0.6 1.26c3.732-1.068 5.172-3.096 5.172-6.192h-1.656zm-3.552 0v1.26h4.488v-1.26h-4.488zm3.624 2.076-4.188 0.144 0.228 1.236 3.96-0.288v-1.092zm3.264-2.724v6.54h1.608v-6.54h-1.608zm-2.148 6.72c-2.34 0-3.804 0.816-3.804 2.196s1.464 2.184 3.804 2.184c2.328 0 3.804-0.804 3.804-2.184s-1.476-2.196-3.804-2.196zm0 1.248c1.44 0 2.208 0.3 2.208 0.948 0 0.636-0.768 0.96-2.208 0.96-1.452 0-2.208-0.324-2.208-0.96 0-0.648 0.756-0.948 2.208-0.948z" fill="#fff"/>
<path d="m139.13 68.426v11.148h1.608v-11.148h-1.608zm-4.38 0.78c-1.68 0-2.916 1.536-2.916 3.96 0 2.448 1.236 3.984 2.916 3.984s2.916-1.536 2.916-3.984c0-2.424-1.236-3.96-2.916-3.96zm0 1.452c0.828 0 1.38 0.876 1.38 2.508 0 1.656-0.552 2.544-1.38 2.544s-1.392-0.888-1.392-2.544c0-1.632 0.564-2.508 1.392-2.508z" fill="#fff"/>
<path d="m144.85 70.19v1.248c0 1.824-0.9 3.9-2.736 4.764l0.9 1.26c2.04-0.96 3.096-3.516 3.096-6.024v-1.248h-1.26zm0.336 0v1.248c0 2.364 1.032 4.8 3.072 5.748l0.876-1.26c-1.824-0.84-2.688-2.808-2.688-4.488v-1.248h-1.26zm-2.64-0.684v1.308h6.096v-1.308h-6.096zm6.912-1.068v11.112h1.608v-11.112h-1.608zm1.248 4.236v1.32h1.968v-1.32h-1.968z" fill="#fff"/>
<path d="m154.06 68.69v1.188h8.28v-1.188h-8.28zm0.084 2.556v1.188h8.112v-1.188h-8.112zm1.332-2.088v2.904h1.596v-2.904h-1.596zm3.852 0v2.904h1.596v-2.904h-1.596zm-6.144 3.852v1.248h10.044v-1.248h-10.044zm4.212 0.756v1.548h1.596v-1.548h-1.596zm-3.06 1.2v1.14h6.108v0.552h-6.096v2.1h1.572v-1.032h6.096v-2.76h-7.68zm0.012 3.348v1.164h7.956v-1.164h-7.956z" fill="#fff"/>
<rect x="206" y="347" width="60" height="44" rx="8" fill="#A8A8A8"/>
<path d="m215.1 358.73v1.236h0.924c2.268 0 3.588-0.024 5.088-0.252l-0.132-1.236c-1.488 0.228-2.724 0.252-4.956 0.252h-0.924zm0-3.852v4.608h1.596v-3.372h3.624v-1.236h-5.22zm1.104 1.92v1.188h3.876v-1.188h-3.876zm5.64-2.364v5.7h1.596v-5.7h-1.596zm0.948 2.172v1.284h2.112v-1.284h-2.112zm-6.696 3.996v1.212h5.772v0.624h-5.748v2.46h1.584v-1.332h5.736v-2.964h-7.344zm0.024 3.66v1.212h7.644v-1.212h-7.644z" fill="#fff"/>
<path d="m229.75 360.01v1.956h1.596v-1.956h-1.596zm-4.224-0.528v1.26h10.044v-1.26h-10.044zm5.004 2.052c-2.412 0-3.864 0.72-3.864 2.004s1.452 2.004 3.864 2.004c2.4 0 3.852-0.72 3.852-2.004s-1.452-2.004-3.852-2.004zm0 1.2c1.488 0 2.244 0.252 2.244 0.804 0 0.54-0.756 0.804-2.244 0.804s-2.244-0.264-2.244-0.804c0-0.552 0.756-0.804 2.244-0.804zm-1.08-7.26v0.276c0 0.864-1.068 1.848-3.504 2.052l0.552 1.248c2.868-0.264 4.368-1.632 4.368-3.3v-0.276h-1.416zm0.78 0v0.276c0 1.68 1.512 3.036 4.368 3.3l0.552-1.248c-2.448-0.204-3.504-1.176-3.504-2.052v-0.276h-1.416zm-3.792-0.588v1.26h8.232v-1.26h-8.232z" fill="#fff"/>
<path d="m239.46 355.03c-1.716 0-3.024 1.128-3.024 2.7 0 1.56 1.308 2.688 3.024 2.688s3.024-1.128 3.024-2.688c0-1.572-1.308-2.7-3.024-2.7zm0 1.332c0.84 0 1.464 0.516 1.464 1.368 0 0.864-0.624 1.356-1.464 1.356s-1.464-0.492-1.464-1.356c0-0.852 0.624-1.368 1.464-1.368zm4.056-1.932v6.48h1.596v-6.48h-1.596zm1.152 2.508v1.308h1.92v-1.308h-1.92zm-3.18 4.212c-2.304 0-3.768 0.828-3.768 2.196 0 1.38 1.464 2.196 3.768 2.196 2.292 0 3.756-0.816 3.756-2.196 0-1.368-1.464-2.196-3.756-2.196zm0 1.26c1.416 0 2.172 0.3 2.172 0.936 0 0.648-0.756 0.948-2.172 0.948s-2.184-0.3-2.184-0.948c0-0.636 0.768-0.936 2.184-0.936z" fill="#fff"/>
<path d="m249.78 361.01v1.8h1.596v-1.8h-1.596zm4.668-6.576v11.112h1.608v-11.112h-1.608zm1.044 4.512v1.32h1.956v-1.32h-1.956zm-8.208 4.752c1.872 0 4.392 0 6.732-0.456l-0.12-1.152c-2.244 0.312-4.884 0.324-6.804 0.324l0.192 1.284zm0.012-8.04v1.248h6.54v-1.248h-6.54zm3.288 1.692c-1.596 0-2.712 0.84-2.712 2.076 0 1.248 1.116 2.088 2.712 2.088 1.584 0 2.712-0.84 2.712-2.088 0-1.236-1.128-2.076-2.712-2.076zm0 1.2c0.72 0 1.2 0.312 1.2 0.876 0 0.576-0.48 0.888-1.2 0.888-0.732 0-1.2-0.312-1.2-0.888 0-0.564 0.468-0.876 1.2-0.876zm-0.804-4.056v2.1h1.596v-2.1h-1.596z" fill="#fff"/>
<path d="m222.39 372.43v11.112h1.596v-11.112h-1.596zm-2.148 4.26v1.296h2.916v-1.296h-2.916zm-1.5-3.108v0.288c0 2.94-1.044 4.956-4.188 6.516l0.84 1.248c3.852-1.932 4.92-4.68 4.92-8.052h-1.572zm-3.66 0v1.26h4.5v-1.26h-4.5z" fill="#fff"/>
<path d="m233.27 372.42v11.148h1.584v-11.148h-1.584zm-2.52 3.912v1.284h2.976v-1.284h-2.976zm-4.812-3.036v7.656h5.34v-7.656h-1.572v2.688h-2.184v-2.688h-1.584zm1.584 3.924h2.184v2.448h-2.184v-2.448z" fill="#fff"/>
<path d="m244.07 372.43v7.956h1.596v-7.956h-1.596zm-2.7 2.172v1.284h2.94v-1.284h-2.94zm-3.048 7.476v1.272h7.596v-1.272h-7.596zm0-2.328v3.072h1.608v-3.072h-1.608zm-1.344-6.564v4.668h1.584v-4.668h-1.584zm0 4.332v1.332h0.924c1.632 0 3.312-0.084 5.052-0.444l-0.204-1.308c-1.68 0.324-3.276 0.42-4.848 0.42h-0.924z" fill="#fff"/>
<path d="m251.34 373.07v0.804c0 1.596-1.38 3.36-3.888 3.792l0.684 1.32c2.88-0.564 4.596-2.7 4.596-5.112v-0.804h-1.392zm0.324 0v0.804c0 2.448 1.704 4.548 4.584 5.112l0.684-1.32c-2.52-0.432-3.888-2.16-3.888-3.792v-0.804h-1.38zm-4.44 7.824v1.296h10.056v-1.296h-10.056z" fill="#fff"/>
<path d="m3.644 168.84c1.692 0 3.12-0.948 3.12-2.58 0-1.164-0.768-1.908-1.764-2.184v-0.06c0.936-0.372 1.476-1.068 1.476-2.028 0-1.512-1.164-2.364-2.88-2.364-1.044 0-1.896 0.42-2.664 1.092l0.9 1.08c0.528-0.492 1.044-0.78 1.68-0.78 0.756 0 1.188 0.408 1.188 1.104 0 0.792-0.528 1.356-2.16 1.356v1.26c1.932 0 2.448 0.552 2.448 1.416 0 0.804-0.612 1.248-1.512 1.248-0.804 0-1.452-0.396-1.98-0.912l-0.828 1.116c0.624 0.708 1.572 1.236 2.976 1.236z" fill="#A8A8A8"/>
<path d="m10.762 168.84c1.812 0 3-1.584 3-4.644s-1.188-4.572-3-4.572c-1.812 0-3.012 1.5-3.012 4.572 0 3.06 1.2 4.644 3.012 4.644zm0-1.38c-0.76803 0-1.344-0.768-1.344-3.264 0-2.484 0.57599-3.204 1.344-3.204 0.768 0 1.332 0.72 1.332 3.204 0 2.496-0.564 3.264-1.332 3.264z" fill="#A8A8A8"/>
<path d="m16.633 165.25c1.272 0 2.172-1.044 2.172-2.832 0-1.776-0.9-2.796-2.172-2.796s-2.16 1.02-2.16 2.796c0 1.788 0.888 2.832 2.16 2.832zm0-0.996c-0.516 0-0.912-0.528-0.912-1.836s0.396-1.8 0.912-1.8 0.924 0.492 0.924 1.8-0.408 1.836-0.924 1.836zm0.3 4.584h1.044l4.824-9.216h-1.044l-4.824 9.216zm6.156 0c1.26 0 2.172-1.056 2.172-2.832 0-1.788-0.912-2.808-2.172-2.808s-2.16 1.02-2.16 2.808c0 1.776 0.9 2.832 2.16 2.832zm0-1.008c-0.516 0-0.912-0.516-0.912-1.824s0.396-1.812 0.912-1.812 0.924 0.504 0.924 1.812-0.408 1.824-0.924 1.824z" fill="#A8A8A8"/>
<path d="m225.7 160.16v1.296h10.056v-1.296h-10.056zm4.212-2.376v2.688h1.596v-2.688h-1.596zm-3.156-5.448v5.784h7.908v-5.784h-1.584v1.704h-4.74v-1.704h-1.584zm1.584 2.952h4.74v1.56h-4.74v-1.56z" fill="#A8A8A8"/>
<path d="m238.96 152.22v0.984c0 1.512-0.756 3-2.616 3.624l0.852 1.26c2.112-0.732 3.072-2.676 3.072-4.884v-0.984h-1.308zm0.324 0v1.14c0 2.004 0.948 3.732 2.952 4.404l0.828-1.236c-1.74-0.54-2.484-1.836-2.484-3.168v-1.14h-1.296zm4.392-0.6v6.564h1.596v-6.564h-1.596zm1.152 2.568v1.32h1.92v-1.32h-1.92zm-3.18 4.248c-2.316 0-3.768 0.804-3.768 2.148 0 1.356 1.452 2.148 3.768 2.148 2.304 0 3.756-0.792 3.756-2.148 0-1.344-1.452-2.148-3.756-2.148zm0 1.236c1.416 0 2.172 0.3 2.172 0.912 0 0.624-0.756 0.912-2.172 0.912s-2.184-0.288-2.184-0.912c0-0.612 0.768-0.912 2.184-0.912z" fill="#A8A8A8"/>
<path d="m247.88 164.24c1.464-0.48 2.268-1.548 2.268-2.964 0-1.08-0.456-1.728-1.26-1.728-0.636 0-1.152 0.408-1.152 1.044 0 0.66 0.528 1.044 1.104 1.044 0.264 0 0.504-0.084 0.684-0.264l-0.624-1.032 0.06 1.248c0.012 0.708-0.504 1.344-1.44 1.692l0.36 0.96z" fill="#A8A8A8"/>
<path d="m233.04 175.67h2.112l2.724-8.88h-1.812l-1.152 4.32c-0.264 0.996-0.456 1.872-0.744 2.88h-0.06c-0.276-1.008-0.48-1.884-0.756-2.88l-1.164-4.32h-1.872l2.724 8.88z" fill="#A8A8A8"/>
<path d="m238.7 175.67h1.776v-3.156h1.188c1.908 0 3.42-0.9 3.42-2.928 0-2.112-1.512-2.796-3.468-2.796h-2.916v8.88zm1.776-4.56v-2.904h1.008c1.224 0 1.872 0.336 1.872 1.38 0 1.008-0.588 1.524-1.812 1.524h-1.068z" fill="#A8A8A8"/>
<path d="m272.4 164.49c0.036-0.324 0.06-0.684 0.06-1.056 0-0.384-0.024-0.744-0.072-1.08h0.972v2.136h-0.96zm-2.328 1.476c-0.624 0-0.984-0.84-0.984-2.532s0.36-2.52 0.984-2.52c0.612 0 0.972 0.828 0.972 2.52s-0.36 2.532-0.972 2.532zm3.288-4.884h-1.272c-0.408-1.068-1.116-1.656-2.016-1.656-1.476 0-2.4 1.512-2.4 4.008 0 2.508 0.924 4.02 2.4 4.02 0.912 0 1.62-0.612 2.028-1.68h1.26v3.42h1.476v-10.368h-1.476v2.256zm2.196-2.448v11.052h1.5v-11.052h-1.5z" fill="#A8A8A8"/>
<path d="m282.72 161.71h2.256v-1.26h-2.256v-1.536h-1.584v1.536h-2.304v1.26h2.304v0.384c0 1.68-0.864 3.552-2.676 4.368l0.852 1.212c1.26-0.564 2.148-1.692 2.64-3.024 0.492 1.26 1.368 2.316 2.616 2.832l0.84-1.212c-1.812-0.78-2.688-2.58-2.688-4.176v-0.384zm3.276-3.06v11.052h1.584v-11.052h-1.584z" fill="#A8A8A8"/>
<path d="m130.78 307.54v-1.836h3.144v-1.248h-6.156v-1.152h5.82v-1.224h-5.82v-1.08h6.072v-1.26h-7.68v5.964h3.036v1.836h-4.212v1.284h10.008v-1.284h-4.212z" fill="#A8A8A8"/>
<path d="m138.57 306.32h-1.584v3.516h7.836v-1.26h-6.252v-2.256zm5.808-2.064c0.276-1.524 0.276-2.652 0.276-3.744v-1.044h-7.596v1.26h6.036c0 0.324 0 0.648-0.012 0.996l-6.336 0.132 0.18 1.272 6.072-0.252c-0.048 0.432-0.108 0.876-0.216 1.38h-6.96v1.26h9.996v-1.26h-1.44z" fill="#A8A8A8"/>
<path d="m153.24 299.83h-1.596v1.608c0 2.052-0.84 4.164-2.7 5.04l0.948 1.284c1.248-0.612 2.076-1.776 2.556-3.18 0.456 1.32 1.236 2.388 2.388 2.976l0.96-1.248c-1.776-0.876-2.556-2.88-2.556-4.872v-1.608zm6.192 3.396h-1.608v-4.248h-1.584v11.052h1.584v-5.484h1.608v-1.32z" fill="#A8A8A8"/>
<path d="m164.98 308.84c-1.476 0-2.232-0.252-2.232-0.816s0.756-0.804 2.232-0.804 2.232 0.24 2.232 0.804-0.756 0.816-2.232 0.816zm0-2.82c-2.388 0-3.828 0.72-3.828 2.004s1.44 2.016 3.828 2.016 3.84-0.732 3.84-2.016-1.452-2.004-3.84-2.004zm-1.14-2.724c0.36 0.048 0.744 0.072 1.164 0.072 0.408 0 0.792-0.024 1.14-0.06v0.912h-2.304v-0.924zm1.164-2.952c1.512 0 2.376 0.3 2.376 0.924 0 0.6-0.864 0.912-2.376 0.912-1.5 0-2.364-0.312-2.364-0.912 0-0.624 0.864-0.924 2.364-0.924zm2.724 3.876v-1.32c0.816-0.36 1.284-0.912 1.284-1.632 0-1.32-1.56-2.124-4.008-2.124-2.436 0-3.996 0.804-3.996 2.124 0 0.708 0.456 1.26 1.248 1.62v1.332h-2.244v1.248h9.984v-1.248h-2.268z" fill="#A8A8A8"/>
<path d="m128.22 121.3c-0.6 0-0.96-0.828-0.96-2.532 0-1.692 0.36-2.52 0.96-2.52 0.612 0 0.96 0.828 0.96 2.52 0 1.704-0.348 2.532-0.96 2.532zm3.252-3.252h-0.876c-0.18-2.064-1.068-3.288-2.376-3.288-1.464 0-2.388 1.512-2.388 4.008 0 2.508 0.924 4.02 2.388 4.02 1.344 0 2.244-1.296 2.388-3.456h0.864v5.208h1.476v-10.38h-1.476v3.888zm2.244-4.08v11.052h1.5v-11.052h-1.5z" fill="#A8A8A8"/>
<path d="m139.6 121.2c-0.804 0-1.344-0.876-1.344-2.52 0-1.632 0.54-2.508 1.344-2.508 0.816 0 1.356 0.876 1.356 2.508 0 1.644-0.54 2.52-1.356 2.52zm4.668-7.236v3.984h-1.848c-0.216-1.992-1.332-3.204-2.82-3.204-1.644 0-2.856 1.512-2.856 3.936 0 2.436 1.212 3.96 2.856 3.96 1.536 0 2.664-1.296 2.832-3.408h1.836v5.82h1.584v-11.088h-1.584z" fill="#A8A8A8"/>
<path d="m156.36 119.08h-6.192v-2.904h6.108v-1.284h-7.692v5.448h7.776v-1.26zm-8.94 3.336v1.296h10.008v-1.296h-10.008z" fill="#A8A8A8"/>
<path d="m164.62 118.34c-1.38 0.252-2.592 0.324-4.392 0.336v-0.912h3.456v-3.288h-5.04v1.272h3.48v0.84h-3.468v3.36h0.948c2.208 0 3.612-0.06 5.148-0.348l-0.132-1.26zm0.768 5.304h-4.044v-0.9h4.044v0.9zm0-2.112h-4.044v-0.984h-1.572v4.356h7.188v-4.356h-1.572v0.984zm3.036-5.124h-1.464v-2.424h-1.584v6.12h1.584v-2.4h1.464v-1.296z" fill="#A8A8A8"/>
<path d="m176.16 207.68h-2.34v-0.78h-1.584v0.78h-2.352v1.044h6.276v-1.044zm-4.332 2.7c0-0.312 0.444-0.468 1.2-0.468s1.188 0.156 1.188 0.468c0 0.324-0.432 0.492-1.188 0.492s-1.2-0.168-1.2-0.492zm4.608 1.632c-0.84 0.096-1.728 0.168-2.616 0.216v-0.444c1.176-0.144 1.896-0.648 1.896-1.404 0-0.9-1.044-1.44-2.688-1.44s-2.7 0.54-2.7 1.44c0 0.756 0.72 1.26 1.908 1.404v0.504c-0.948 0.024-1.836 0.024-2.628 0.024l0.156 1.08c1.908 0 4.464-0.024 6.78-0.432l-0.108-0.948zm-3.78 4.368h5.844v-2.496h-7.428v1.044h5.868v0.48h-5.856v2.544h7.8v-1.044h-6.228v-0.528zm5.844-6.792v-2.616h-1.584v6.516h1.584v-2.604h1.392v-1.296h-1.392z" fill="#A8A8A8"/>
<path d="m185.54 216.84c-1.476 0-2.232-0.252-2.232-0.828s0.756-0.84 2.232-0.84 2.232 0.264 2.232 0.84-0.756 0.828-2.232 0.828zm0-2.868c-2.388 0-3.828 0.732-3.828 2.04 0 1.296 1.44 2.028 3.828 2.028s3.84-0.732 3.84-2.028c0-1.308-1.452-2.04-3.84-2.04zm0.828-1.8v-0.912h3.072v-1.26h-6.072v-1.296h6.012v-1.26h-7.584v3.816h2.988v0.912h-4.2v1.26h9.996v-1.26h-4.212z" fill="#A8A8A8"/>
<path d="m194.04 210.63h4.728v1.548h-4.728v-1.548zm3.156 4.836v-2.028h3.132v-5.772h-1.56v1.716h-4.728v-1.716h-1.572v5.772h3.144v2.028h-4.2v1.284h10.008v-1.284h-4.224z" fill="#A8A8A8"/>
<path d="m208.77 211.88c-1.74-0.54-2.484-1.836-2.484-3.168v-1.128h-1.608v0.996c0 1.5-0.744 2.976-2.592 3.588l0.828 1.248c1.26-0.444 2.112-1.296 2.592-2.376 0.468 0.936 1.272 1.68 2.436 2.064l0.828-1.224zm-1.428 4.932c-1.416 0-2.172-0.288-2.172-0.912 0-0.612 0.756-0.9 2.172-0.9 1.404 0 2.16 0.288 2.16 0.9 0 0.624-0.756 0.912-2.16 0.912zm0-3.036c-2.304 0-3.744 0.792-3.744 2.124 0 1.344 1.44 2.136 3.744 2.136 2.292 0 3.732-0.792 3.732-2.136 0-1.332-1.44-2.124-3.732-2.124zm3.612-4.224v-2.556h-1.584v6.528h1.584v-2.664h1.464v-1.308h-1.464z" fill="#A8A8A8"/>
<path d="m97.644 217.17c1.692 0 3.12-0.948 3.12-2.58 0-1.164-0.768-1.908-1.764-2.184v-0.06c0.936-0.372 1.476-1.068 1.476-2.028 0-1.512-1.164-2.364-2.88-2.364-1.044 0-1.896 0.42-2.664 1.092l0.9 1.08c0.528-0.492 1.044-0.78 1.68-0.78 0.756 0 1.188 0.408 1.188 1.104 0 0.792-0.528 1.356-2.16 1.356v1.26c1.932 0 2.448 0.552 2.448 1.416 0 0.804-0.612 1.248-1.512 1.248-0.804 0-1.452-0.396-1.98-0.912l-0.828 1.116c0.624 0.708 1.572 1.236 2.976 1.236z" fill="#A8A8A8"/>
<path d="m104.76 217.17c1.812 0 3-1.584 3-4.644s-1.188-4.572-3-4.572-3.012 1.5-3.012 4.572c0 3.06 1.2 4.644 3.012 4.644zm0-1.38c-0.768 0-1.344-0.768-1.344-3.264 0-2.484 0.576-3.204 1.344-3.204s1.332 0.72 1.332 3.204c0 2.496-0.564 3.264-1.332 3.264z" fill="#A8A8A8"/>
<path d="m110.63 213.58c1.272 0 2.172-1.044 2.172-2.832 0-1.776-0.9-2.796-2.172-2.796s-2.16 1.02-2.16 2.796c0 1.788 0.888 2.832 2.16 2.832zm0-0.996c-0.516 0-0.912-0.528-0.912-1.836s0.396-1.8 0.912-1.8 0.924 0.492 0.924 1.8-0.408 1.836-0.924 1.836zm0.3 4.584h1.044l4.824-9.216h-1.044l-4.824 9.216zm6.156 0c1.26 0 2.172-1.056 2.172-2.832 0-1.788-0.912-2.808-2.172-2.808s-2.16 1.02-2.16 2.808c0 1.776 0.9 2.832 2.16 2.832zm0-1.008c-0.516 0-0.912-0.516-0.912-1.824s0.396-1.812 0.912-1.812 0.924 0.504 0.924 1.812-0.408 1.824-0.924 1.824z" fill="#A8A8A8"/>
<path d="m243.04 320h2.124l2.712-8.892h-1.8l-1.152 4.332c-0.276 0.984-0.468 1.872-0.756 2.868h-0.06c-0.276-0.996-0.468-1.884-0.744-2.868l-1.176-4.332h-1.86l2.712 8.892z" fill="#A8A8A8"/>
<path d="m248.7 320h1.776v-3.156h1.188c1.908 0 3.432-0.912 3.432-2.94 0-2.1-1.512-2.796-3.48-2.796h-2.916v8.892zm1.776-4.56v-2.916h1.008c1.224 0 1.872 0.348 1.872 1.38 0 1.02-0.588 1.536-1.812 1.536h-1.068z" fill="#A8A8A8"/>
<path d="m30.324 316.35 1.38-2.208c0.252-0.48 0.492-0.972 0.708-1.452h0.048c-0.024 0.528-0.06 1.332-0.06 1.848v1.812h-2.076zm2.076 3.648h1.644v-2.304h1.044v-1.344h-1.044v-5.244h-2.124l-3.312 5.388v1.2h3.792v2.304z" fill="#A8A8A8"/>
<path d="m38.763 320.17c1.812 0 3-1.584 3-4.644s-1.188-4.572-3-4.572-3.012 1.5-3.012 4.572c0 3.06 1.2 4.644 3.012 4.644zm0-1.38c-0.768 0-1.344-0.768-1.344-3.264 0-2.484 0.576-3.204 1.344-3.204s1.332 0.72 1.332 3.204c0 2.496-0.564 3.264-1.332 3.264z" fill="#A8A8A8"/>
<path d="m44.633 316.58c1.272 0 2.172-1.044 2.172-2.832 0-1.776-0.9-2.796-2.172-2.796s-2.16 1.02-2.16 2.796c0 1.788 0.888 2.832 2.16 2.832zm0-0.996c-0.516 0-0.912-0.528-0.912-1.836s0.396-1.8 0.912-1.8 0.924 0.492 0.924 1.8-0.408 1.836-0.924 1.836zm0.3 4.584h1.044l4.824-9.216h-1.044l-4.824 9.216zm6.156 0c1.26 0 2.172-1.056 2.172-2.832 0-1.788-0.912-2.808-2.172-2.808s-2.16 1.02-2.16 2.808c0 1.776 0.9 2.832 2.16 2.832zm0-1.008c-0.516 0-0.912-0.516-0.912-1.824s0.396-1.812 0.912-1.812 0.924 0.504 0.924 1.812-0.408 1.824-0.924 1.824z" fill="#A8A8A8"/>
<path d="m59.499 337.79v-54.793h1v54.793l2.3284-2.329c0.1953-0.195 0.5118-0.195 0.7071 0 0.1953 0.196 0.1953 0.512 0 0.708l-3.182 3.182c-0.1952 0.195-0.5118 0.195-0.7071 0l-3.182-3.182c-0.1952-0.196-0.1952-0.512 0-0.708 0.1953-0.195 0.5119-0.195 0.7071 0l2.3285 2.329z" clip-rule="evenodd" fill="#C4C4C4" fill-rule="evenodd"/>
<path d="m235.5 337.79v-54.793h1v54.793l2.329-2.329c0.195-0.195 0.512-0.195 0.707 0 0.195 0.196 0.195 0.512 0 0.708l-3.182 3.182c-0.195 0.195-0.512 0.195-0.707 0l-3.182-3.182c-0.195-0.196-0.195-0.512 0-0.708 0.195-0.195 0.512-0.195 0.707 0l2.328 2.329z" clip-rule="evenodd" fill="#C4C4C4" fill-rule="evenodd"/>
<path d="m69.288 1.2954v5.456h10.064v-5.456h-10.064zm7.968 1.664v2.112h-5.888v-2.112h5.888zm-9.616 5.264v1.696h13.392v-1.696h-13.392zm5.616-2.192v2.944h2.128v-2.944h-2.128zm-4 7.44v1.696h10.272v-1.696h-10.272zm0-2.592v3.168h2.128v-3.168h-2.128z" fill="#616161"/>
<path d="m87.662 1.4554v1.072c0 2.128-1.84 4.48-5.184 5.056l0.912 1.76c3.84-0.752 6.128-3.6 6.128-6.816v-1.072h-1.856zm0.432 0v1.072c0 3.264 2.272 6.064 6.112 6.816l0.912-1.76c-3.36-0.576-5.184-2.88-5.184-5.056v-1.072h-1.84zm-5.92 10.432v1.728h13.408v-1.728h-13.408z" fill="#616161"/>
<path d="m97.221 7.3274v1.68h1.232c2.9599 0 4.7519-0.064 6.7359-0.416l-0.224-1.664c-1.936 0.336-3.632 0.4-6.5119 0.4h-1.232zm0-5.76v6.304h2.1281v-4.608h4.8318v-1.696h-6.9599zm1.472 2.88v1.648h5.1679v-1.648h-5.1679zm7.5199-3.84v8.944h2.128v-8.944h-2.128zm1.536 3.584v1.76h2.56v-1.76h-2.56zm-9.2959 5.984v1.696h7.7599v3.552h2.128v-5.248h-9.8879z" fill="#616161"/>
<path d="m116.2 7.9354v1.68h10.416v-1.68h-10.416zm-1.568 4.144v1.712h13.408v-1.712h-13.408zm5.632-3.296v4.048h2.128v-4.048h-2.128zm-4.064-7.168v6.96h2.16v-5.264h8.128v-1.696h-10.288zm1.504 3.136v1.664h8.448v-1.664h-8.448z" fill="#616161"/>
<path d="m130.79 1.2634v1.696h9.392v-1.696h-9.392zm-1.648 6.416v1.696h13.408v-1.696h-13.408zm9.76-6.416v1.392c0 1.52 0 3.12-0.48 5.312l2.096 0.208c0.48-2.304 0.48-3.952 0.48-5.52v-1.392h-2.096zm0.64 3.008-9.168 0.192 0.256 1.712 8.912-0.368v-1.536zm-8.848 9.2v1.696h10.512v-1.696h-10.512zm0-3.024v3.44h2.128v-3.44h-2.128z" fill="#616161"/>
<path d="m147.9 13.999h7.44v-1.984h-5.072v-3.152h4.144v-2h-4.144v-2.736h4.896v-1.968h-7.264v11.84z" fill="#616161"/>
<path d="m160.88 14.223c0.992 0 2.096-0.336 2.944-1.072l-0.928-1.552c-0.496 0.4-1.104 0.72-1.76 0.72-1.28 0-2.208-1.104-2.208-2.784 0-1.696 0.912-2.784 2.304-2.784 0.48 0 0.912 0.192 1.36 0.576l1.104-1.504c-0.656-0.576-1.488-0.992-2.608-0.992-2.432 0-4.56 1.728-4.56 4.704 0 2.96 1.888 4.688 4.352 4.688z" fill="#616161"/>
<path d="m168.5 14.223c2.24 0 4.288-1.728 4.288-4.688 0-2.976-2.048-4.704-4.288-4.704-2.256 0-4.304 1.728-4.304 4.704 0 2.96 2.048 4.688 4.304 4.688zm0-1.904c-1.232 0-1.904-1.104-1.904-2.784 0-1.696 0.672-2.784 1.904-2.784 1.216 0 1.888 1.088 1.888 2.784 0 1.68-0.672 2.784-1.888 2.784z" fill="#616161"/>
<path d="m176.98 14.223c2.32 0 3.552-1.248 3.552-2.832 0-1.648-1.296-2.256-2.48-2.704-0.96-0.336-1.776-0.592-1.776-1.232 0-0.528 0.368-0.88 1.184-0.88 0.656 0 1.296 0.32 1.92 0.768l1.072-1.408c-0.736-0.576-1.76-1.104-3.056-1.104-2.048 0-3.328 1.136-3.328 2.72 0 1.52 1.264 2.192 2.4 2.64 0.928 0.352 1.872 0.672 1.872 1.328 0 0.56-0.416 0.96-1.312 0.96-0.832 0-1.584-0.368-2.4-0.992l-1.056 1.488c0.88 0.736 2.208 1.248 3.408 1.248z" fill="#616161"/>
<path d="m182.91 17.599c2.016 0 2.976-1.216 3.76-3.312l3.184-9.232h-2.256l-1.248 4.144c-0.208 0.84798-0.432 1.696-0.624 2.544h-0.08c-0.272-0.864-0.496-1.728-0.768-2.544l-1.408-4.144h-2.384l3.488 8.784-0.144 0.528c-0.272 0.8-0.784 1.376-1.68 1.376-0.224 0-0.464-0.08-0.624-0.128l-0.432 1.808c0.336 0.112 0.704 0.176 1.216 0.176z" fill="#616161"/>
<path d="m193.69 14.223c2.32 0 3.552-1.248 3.552-2.832 0-1.648-1.296-2.256-2.48-2.704-0.96-0.336-1.776-0.592-1.776-1.232 0-0.528 0.368-0.88 1.184-0.88 0.656 0 1.296 0.32 1.92 0.768l1.072-1.408c-0.736-0.576-1.76-1.104-3.056-1.104-2.048 0-3.328 1.136-3.328 2.72 0 1.52 1.264 2.192 2.4 2.64 0.928 0.352 1.872 0.672 1.872 1.328 0 0.56-0.416 0.96-1.312 0.96-0.832 0-1.584-0.368-2.4-0.992l-1.056 1.488c0.88 0.736 2.208 1.248 3.408 1.248z" fill="#616161"/>
<path d="m201.66 14.223c0.8 0 1.424-0.176 1.904-0.336l-0.384-1.712c-0.256 0.096-0.592 0.208-0.896 0.208-0.784 0-1.216-0.48-1.216-1.504v-3.984h2.224v-1.84h-2.224v-2.432h-1.952l-0.256 2.432-1.392 0.096v1.744h1.248v3.984c0 2 0.816 3.344 2.944 3.344z" fill="#616161"/>
<path d="m208.45 14.223c1.104 0 2.224-0.368 3.104-0.976l-0.784-1.456c-0.656 0.4-1.296 0.624-2.016 0.624-1.328 0-2.288-0.752-2.496-2.224h5.536c0.048-0.22398 0.096-0.63998 0.096-1.088 0-2.48-1.264-4.272-3.744-4.272-2.112 0-4.16 1.792-4.16 4.704 0 2.96 1.952 4.688 4.464 4.688zm-2.224-5.6c0.192-1.312 1.024-1.984 1.968-1.984 1.152 0 1.696 0.768 1.696 1.984h-3.664z" fill="#616161"/>
<path d="m213.64 13.999h2.352v-6.16c0.608-0.672 1.2-0.992 1.696-0.992 0.864 0 1.264 0.464 1.264 1.872v5.28h2.352v-6.16c0.64-0.672 1.2-0.992 1.712-0.992 0.864 0 1.248 0.464 1.248 1.872v5.28h2.352v-5.584c0-2.24-0.864-3.584-2.768-3.584-1.168 0-2.032 0.704-2.864 1.552-0.416-0.992-1.168-1.552-2.464-1.552-1.152 0-1.984 0.64-2.736 1.408h-0.048l-0.192-1.184h-1.904v8.944z" fill="#616161"/>
</svg>
