<svg width="25" height="24" viewBox="0 0 25 24" fill="none" xmlns="http://www.w3.org/2000/svg">
    <path fill-rule="evenodd" clip-rule="evenodd" d="M21.369 14.341c-.425.265-.925.298-1.305.087-.483-.27-.75-.898-.75-1.774v-2.618c0-1.264-.506-2.164-1.355-2.407-1.438-.413-2.52 1.32-2.925 1.972l-2.536 4.05v-4.95c-.029-1.14-.404-1.821-1.117-2.027-.472-.135-1.178-.081-1.864.953l-5.68 8.987A9.757 9.757 0 0 1 2.68 12c0-5.414 4.404-9.818 9.817-9.818 5.412 0 9.816 4.404 9.816 9.818 0 .01.002.018.003.026l-.002.027c.051 1.049-.293 1.882-.946 2.288zm3.126-2.34v-.055C24.463 5.353 19.094 0 12.496 0 5.882 0 .5 5.383.5 12c0 6.616 5.382 12 11.998 12 3.035 0 5.932-1.137 8.156-3.2a1.09 1.09 0 1 0-1.483-1.6 9.782 9.782 0 0 1-6.673 2.618 9.792 9.792 0 0 1-7.305-3.268l5.123-8.105v3.737c0 1.794.707 2.374 1.3 2.544.592.17 1.498.054 2.45-1.468l2.818-4.5c.09-.146.173-.271.25-.38v2.276c0 1.678.681 3.02 1.87 3.68 1.072.596 2.42.543 3.517-.14 1.331-.828 2.049-2.354 1.974-4.193z" fill="#9CA8BA"/>
</svg>
