<svg width="24" height="24" viewBox="0 0 24 24" fill="none" xmlns="http://www.w3.org/2000/svg">
    <path d="M15.169 14.232c-.117.121-.224.156-.403.137l-1.612.402c.158.137.34.18.44.199.111.02.216.021.283.021h.002c.134 0 .266-.009.375-.016l.008-.001c.193-.013.323-.02.44-.008h.002c.137.014.303.015.478-.044.179-.06.313-.164.416-.27m-.43-.42.427.423.003-.003m-.43-.42.434.416c-.002 0-.003.002-.004.004m-.43-.42 3.229-3.254c.036.02.069.04.099.06l.3-.448.416.418.002-.001m-3.616 3.645 3.616-3.645m0 0c.021-.022.042-.043.06-.064a.6.6 0 0 0-.11-.901c-.679-.456-1.69-.64-3.182-.104l-.804.289-.236-.822c-.238-.833-.816-1.978-1.775-2.823-.932-.822-2.24-1.378-4.051-1.078-1.544.256-2.46 1.087-3.009 2.02a5.58 5.58 0 0 0-.743 2.67v.753l-.751.045a4.096 4.096 0 0 0-2.265.925l.314.374-.314-.374c-.727.61-1.353 1.61-1.353 3.268 0 .549.069 1.024.19 1.435a.6.6 0 0 0 .95.299c1.871-1.497 3.747-2.99 5.626-4.476.144-.114.275-.262.353-.462.075-.194.077-.38.065-.526v-.005a1.042 1.042 0 0 1 .268-.794 1.02 1.02 0 0 1 .758-.33 1.01 1.01 0 0 1 .752.345 1.035 1.035 0 0 1 .252.8l-.002.017c0 .011-.002.025-.006.055l-.002.012c-.008.06-.028.211.001.373a.923.923 0 0 0 .318.539l8.696-1.46zm0 0v-.001l-.418-.416m.418.417-.418-.417m0 0 .034-.05-.444-.403a.487.487 0 0 1-.02.021l-.003.002-.12.12.553.31zm-16.97 6.996a.6.6 0 0 1 .207-.43 8852.946 8852.946 0 0 0 5.791-4.625c.134-.107.289-.188.473-.222.17-.03.323-.014.437.004.29.043.583.05.874.02h.004l.008-.001c.072-.007.211-.02.358.005.182.032.34.113.477.235.863.769 1.73 1.532 2.602 2.29l-.393.453M1.826 17.586l19.191.882c.541-.21 1.388-.844 1.388-2.058 0-1.374-1.076-2.132-1.626-2.322l-.997-.345.058-1.054c.007-.132 0-.274-.02-.422l.246-.246-.425-.424-.556.223c.033.084.061.168.084.25a646.934 646.934 0 0 0-3.127 3.16M1.826 17.586a.6.6 0 0 0 .173.446c.106.107.215.201.322.284.74.57 1.648.758 2.235.752l-2.73-1.482zm10.838-2.271.392-.455a.916.916 0 0 1 .314.534c.03.16.01.313.002.377l-.002.013m-.706-.47c.144.125.129.247.11.397m-.11-.396c-.874-.76-1.744-1.524-2.608-2.295l2.718 2.69m.596.074-.596-.073m.596.073-.002.017c-.07.575.287 1.06.777 1.167.55.12 1.063-.19 1.197-.672.024-.085.026-.194.02-.416v-.01c-.003-.104-.007-.236.001-.37v-.001c.003-.051.009-.15.03-.252a.865.865 0 0 1 .221-.437m-2.244.974-8.803 3.284h16.45a.599.599 0 0 0 .217-.04c.683-.265 1.771-1.072 1.771-2.617 0-1.724-1.339-2.65-2.03-2.89l-.57-.197.034-.602a3.246 3.246 0 0 0-.24-1.349.6.6 0 0 0-.982-.2 646.857 646.857 0 0 0-3.603 3.637m-2.84.9-.002.018c-.105.863.433 1.648 1.244 1.826.834.182 1.678-.282 1.904-1.097.052-.187.047-.39.042-.593-.003-.11-.006-.221 0-.33.006-.104.016-.239.08-.304m0 0-.428-.42m.428.42-.428-.42m-11.05 4.458h-.006a3.988 3.988 0 0 1-2.359-.794c-.754-.58-1.404-1.575-1.404-3.29s.652-2.772 1.424-3.42c.796-.668 1.76-.934 2.382-.971a.6.6 0 0 0 .563-.6c0-.664.183-1.774.77-2.77.576-.977 1.538-1.849 3.15-2.116 1.648-.274 2.899.141 3.833.818.95.69 1.598 1.67 1.972 2.542.104.243.186.474.246.683a.6.6 0 0 0 .78.4 6.27 6.27 0 0 1 .834-.24c1.485-.31 2.442.148 3.037.81.626.7.892 1.675.852 2.413a.6.6 0 0 0 .403.6c.725.25 2.164 1.229 2.164 3.077 0 1.771-1.324 2.628-2.054 2.858H4.564z" fill="#9CA8BA" stroke="#9CA8BA" stroke-width="1.2" stroke-linejoin="round"/>
</svg>
