<svg width="121" height="40" viewBox="0 0 121 40" fill="none" xmlns="http://www.w3.org/2000/svg">
    <rect x="1" y=".5" width="119" height="39" rx="6.5" fill="#0C0D10"/>
    <path d="M82.027 19.2v2.291H80.59v1.503h1.436v5.105c0 1.743.788 2.44 2.772 2.44.349 0 .68-.041.971-.091v-1.486c-.249.025-.406.042-.68.042-.889 0-1.279-.415-1.279-1.362v-4.648h1.96V21.49h-1.96v-2.29h-1.784zM90.824 30.664c2.64 0 4.258-1.768 4.258-4.699 0-2.913-1.626-4.69-4.258-4.69-2.64 0-4.266 1.777-4.266 4.69 0 2.93 1.618 4.699 4.266 4.699zm0-1.586c-1.552 0-2.424-1.137-2.424-3.113 0-1.959.872-3.104 2.424-3.104 1.544 0 2.424 1.145 2.424 3.104 0 1.968-.88 3.113-2.424 3.113zM96.467 30.49h1.785v-5.338c0-1.27.955-2.125 2.308-2.125.315 0 .846.058.996.108v-1.76c-.191-.05-.532-.075-.797-.075-1.179 0-2.183.648-2.44 1.536h-.133V21.45h-1.719v9.04zM105.987 22.795c1.32 0 2.183.921 2.225 2.34h-4.566c.1-1.41 1.021-2.34 2.341-2.34zm2.216 5.254c-.332.706-1.07 1.096-2.15 1.096-1.427 0-2.349-1.005-2.407-2.59v-.1h6.384v-.622c0-2.84-1.52-4.557-4.035-4.557-2.548 0-4.167 1.834-4.167 4.723 0 2.888 1.586 4.665 4.176 4.665 2.067 0 3.511-.996 3.918-2.615h-1.719zM70.323 27.151c.138 2.22 1.988 3.64 4.74 3.64 2.943 0 4.784-1.489 4.784-3.863 0-1.867-1.05-2.9-3.596-3.493l-1.368-.336c-1.617-.378-2.271-.886-2.271-1.772 0-1.119 1.015-1.85 2.538-1.85 1.445 0 2.443.714 2.624 1.858h1.875c-.112-2.09-1.953-3.562-4.474-3.562-2.71 0-4.516 1.472-4.516 3.683 0 1.824 1.023 2.908 3.269 3.433l1.6.387c1.643.387 2.366.955 2.366 1.901 0 1.101-1.136 1.901-2.684 1.901-1.66 0-2.813-.748-2.977-1.927h-1.91zM51.836 21.3c-1.229 0-2.291.615-2.84 1.644h-.132V21.45h-1.718v12.044h1.785V29.12h.14c.474.954 1.495 1.519 2.781 1.519 2.283 0 3.736-1.801 3.736-4.674 0-2.872-1.453-4.665-3.752-4.665zm-.507 7.737c-1.494 0-2.432-1.179-2.432-3.063 0-1.893.938-3.072 2.44-3.072 1.511 0 2.416 1.154 2.416 3.063 0 1.918-.905 3.072-2.424 3.072zM61.833 21.3c-1.229 0-2.291.615-2.84 1.644h-.132V21.45h-1.718v12.044h1.784V29.12h.141c.474.954 1.495 1.519 2.781 1.519 2.283 0 3.736-1.801 3.736-4.674 0-2.872-1.453-4.665-3.752-4.665zm-.507 7.737c-1.494 0-2.432-1.179-2.432-3.063 0-1.893.938-3.072 2.44-3.072 1.511 0 2.416 1.154 2.416 3.063 0 1.918-.905 3.072-2.424 3.072zM43.944 30.49h2.047L41.51 18.074h-2.073l-4.483 12.414h1.979l1.144-3.295h4.732l1.136 3.295zm-3.57-10.161h.146l1.798 5.248h-3.751l1.806-5.248zM36.152 8.71v5.99h2.163c1.784 0 2.818-1.1 2.818-3.013 0-1.885-1.042-2.976-2.818-2.976h-2.163zm.93.847h1.129c1.24 0 1.976.789 1.976 2.142 0 1.374-.723 2.154-1.976 2.154h-1.129V9.557zM44.298 14.787c1.32 0 2.13-.884 2.13-2.35 0-1.456-.814-2.344-2.13-2.344-1.32 0-2.133.888-2.133 2.345 0 1.465.809 2.349 2.133 2.349zm0-.793c-.776 0-1.212-.569-1.212-1.556 0-.98.436-1.553 1.212-1.553.772 0 1.212.573 1.212 1.553 0 .983-.44 1.556-1.212 1.556zM53.32 10.18h-.893l-.805 3.449h-.07l-.93-3.45h-.855l-.93 3.45h-.067l-.809-3.45h-.905l1.245 4.52h.918l.93-3.328h.07l.934 3.329h.925l1.241-4.52zM54.347 14.7h.892v-2.644c0-.706.42-1.146 1.08-1.146.66 0 .975.361.975 1.088V14.7h.892v-2.926c0-1.075-.556-1.681-1.565-1.681-.68 0-1.129.303-1.349.805h-.066v-.718h-.86v4.52zM59.591 14.7h.893V8.416h-.893V14.7zM63.84 14.787c1.32 0 2.129-.884 2.129-2.35 0-1.456-.814-2.344-2.13-2.344-1.32 0-2.133.888-2.133 2.345 0 1.465.81 2.349 2.134 2.349zm0-.793c-.777 0-1.212-.569-1.212-1.556 0-.98.435-1.553 1.212-1.553.772 0 1.212.573 1.212 1.553 0 .983-.44 1.556-1.212 1.556zM68.627 14.023c-.485 0-.838-.236-.838-.643 0-.399.282-.61.905-.652l1.104-.07v.377c0 .56-.498.988-1.17.988zm-.228.751c.594 0 1.088-.257 1.357-.71h.071v.636h.86v-3.088c0-.955-.64-1.52-1.773-1.52-1.025 0-1.756.499-1.847 1.275h.863c.1-.32.444-.502.942-.502.61 0 .926.27.926.747v.39l-1.225.07c-1.074.067-1.68.536-1.68 1.35 0 .825.635 1.352 1.506 1.352zM73.714 14.774c.623 0 1.15-.294 1.42-.788h.07v.714h.855V8.416h-.892v2.482H75.1c-.244-.498-.767-.793-1.386-.793-1.141 0-1.876.905-1.876 2.333 0 1.432.727 2.336 1.876 2.336zm.253-3.868c.748 0 1.216.594 1.216 1.536 0 .946-.464 1.531-1.216 1.531-.755 0-1.207-.577-1.207-1.535 0-.95.456-1.532 1.207-1.532zM81.846 14.787c1.32 0 2.129-.884 2.129-2.35 0-1.456-.814-2.344-2.13-2.344-1.32 0-2.133.888-2.133 2.345 0 1.465.81 2.349 2.134 2.349zm0-.793c-.776 0-1.212-.569-1.212-1.556 0-.98.436-1.553 1.212-1.553.772 0 1.212.573 1.212 1.553 0 .983-.44 1.556-1.212 1.556zM85.156 14.7h.892v-2.644c0-.706.42-1.146 1.08-1.146.66 0 .975.361.975 1.088V14.7h.892v-2.926c0-1.075-.556-1.681-1.565-1.681-.68 0-1.129.303-1.349.805h-.066v-.718h-.859v4.52zM93.105 9.055v1.146h-.718v.75h.718v2.553c0 .872.394 1.22 1.386 1.22.174 0 .34-.02.486-.045v-.743c-.125.012-.204.02-.34.02-.445 0-.64-.207-.64-.68v-2.324h.98V10.2h-.98V9.055h-.892zM96.174 14.7h.893v-2.64c0-.685.407-1.145 1.137-1.145.63 0 .967.365.967 1.087V14.7h.892v-2.918c0-1.075-.593-1.685-1.556-1.685-.68 0-1.158.303-1.378.81h-.07V8.415h-.885V14.7zM103.282 10.852c.66 0 1.092.461 1.113 1.17h-2.283c.05-.705.511-1.17 1.17-1.17zm1.109 2.627c-.166.353-.536.548-1.075.548-.714 0-1.175-.502-1.204-1.295v-.05h3.192v-.31c0-1.42-.76-2.28-2.017-2.28-1.275 0-2.084.918-2.084 2.362 0 1.445.793 2.333 2.088 2.333 1.033 0 1.755-.498 1.959-1.308h-.859zM25.27 20.301a4.989 4.989 0 0 1 2.357-4.152 5.128 5.128 0 0 0-3.992-2.158c-1.679-.176-3.307 1.005-4.163 1.005-.872 0-2.19-.987-3.608-.958a5.359 5.359 0 0 0-4.473 2.728c-1.934 3.348-.491 8.27 1.361 10.976.927 1.325 2.01 2.806 3.428 2.753 1.387-.057 1.905-.884 3.58-.884 1.658 0 2.144.884 3.59.85 1.489-.023 2.426-1.33 3.32-2.668a10.96 10.96 0 0 0 1.52-3.093 4.824 4.824 0 0 1-2.92-4.399zM22.538 12.211a4.873 4.873 0 0 0 1.115-3.49 4.958 4.958 0 0 0-3.208 1.66 4.679 4.679 0 0 0-1.143 3.36 4.147 4.147 0 0 0 3.236-1.53z" fill="#fff"/>
    <rect x="1" y=".5" width="119" height="39" rx="6.5" stroke="#A6A6A6"/>
</svg>
