<svg width="24" height="24" viewBox="0 0 24 24" fill="none" xmlns="http://www.w3.org/2000/svg">
    <path fill-rule="evenodd" clip-rule="evenodd" d="M1.586 21.749a.75.75 0 0 0 .66-.375 11.392 11.392 0 0 1 9.75-5.625v4.5a.75.75 0 0 0 .465.69.75.75 0 0 0 .818-.158l9-9a.75.75 0 0 0 0-1.065l-9-9a.75.75 0 0 0-.818-.157.75.75 0 0 0-.465.69V6.83a12.893 12.893 0 0 0-11.25 12.75c.002.502.034 1.003.098 1.5a.75.75 0 0 0 .592.645l.15.023zm10.785-7.5a13.215 13.215 0 0 0-10.125 4.5 11.482 11.482 0 0 1 10.568-10.5.75.75 0 0 0 .682-.75V4.056l7.193 7.193-7.193 7.192V15a.75.75 0 0 0-.75-.75h-.405.03z" fill="#9CA8BA"/>
</svg>
