<svg width="165" height="117" viewBox="0 0 165 117" fill="none" xmlns="http://www.w3.org/2000/svg">
    <path d="M33 50.716c-20.217 0-7.73-26.124-32-26.124V117h160V5c-21.714 0-10.286 19.359-32 19.592-21.714.233-9.437-13.061-29.168-13.061-16.224 0-13.403 21.457-34.832 21.457-21.429 0-13.714 17.728-32 17.728z" fill="#F4F2FF" style="mix-blend-mode:multiply" opacity="0.6" />
    <path d="M1 24.592c20.494 0 13.67 26.124 32 26.124 18.286 0 13.403-17.728 32-17.728s17.664-21.457 33.888-21.457c19.731 0 12.174 13.294 30.112 13.06C146.938 24.36 139.286 5 161 5" stroke="#4C34DC" stroke-width="2" stroke-linecap="round" stroke-linejoin="round"/>
    <circle cx="161" cy="4.5" r="3" fill="#fff" stroke="#4C34DC" stroke-width="2"/>
</svg>
