<svg width="197" height="22" viewBox="0 0 197 22" fill="none" xmlns="http://www.w3.org/2000/svg">
    <path d="M1.572 16V7.36h2.664c.088 0 .242.002.462.006.22.004.43.02.63.048.668.088 1.226.332 1.674.732.452.396.792.9 1.02 1.512.228.612.342 1.286.342 2.022 0 .736-.114 1.41-.342 2.022a3.721 3.721 0 0 1-1.02 1.518c-.448.396-1.006.638-1.674.726-.2.024-.412.04-.636.048-.22.004-.372.006-.456.006H1.572zm1.098-1.02h1.566c.152 0 .322-.004.51-.012.188-.012.352-.03.492-.054.472-.088.854-.286 1.146-.594.292-.308.506-.692.642-1.152.136-.46.204-.956.204-1.488 0-.544-.07-1.046-.21-1.506a2.745 2.745 0 0 0-.642-1.146c-.292-.304-.672-.498-1.14-.582a3.268 3.268 0 0 0-.498-.054c-.192-.008-.36-.012-.504-.012H2.67v6.6zm8.912 1.2c-.484 0-.89-.088-1.218-.264a1.88 1.88 0 0 1-.738-.708 1.927 1.927 0 0 1-.246-.96c0-.34.064-.634.192-.882.132-.252.316-.46.552-.624.236-.168.518-.3.846-.396a9.676 9.676 0 0 1 1.032-.216 35.38 35.38 0 0 1 1.164-.174c.392-.052.758-.102 1.098-.15l-.384.222c.012-.576-.104-1.002-.348-1.278-.24-.276-.656-.414-1.248-.414-.392 0-.736.09-1.032.27-.292.176-.498.464-.618.864l-1.014-.306c.156-.568.458-1.014.906-1.338.448-.324 1.038-.486 1.77-.486.588 0 1.092.106 1.512.318.424.208.728.524.912.948.092.2.15.418.174.654.024.232.036.476.036.732V16h-.948v-1.554l.222.144c-.244.524-.586.92-1.026 1.188-.436.268-.968.402-1.596.402zm.162-.894c.384 0 .716-.068.996-.204.284-.14.512-.322.684-.546.172-.228.284-.476.336-.744.06-.2.092-.422.096-.666.008-.248.012-.438.012-.57l.372.162c-.348.048-.69.094-1.026.138-.336.044-.654.092-.954.144-.3.048-.57.106-.81.174a2.639 2.639 0 0 0-.498.216 1.131 1.131 0 0 0-.372.342.89.89 0 0 0-.138.51c0 .176.044.344.132.504.092.16.232.29.42.39.192.1.442.15.75.15zm8.364.714a4.802 4.802 0 0 1-1.14.09 2.53 2.53 0 0 1-.996-.222 1.432 1.432 0 0 1-.666-.648 1.917 1.917 0 0 1-.21-.774 29.804 29.804 0 0 1-.012-.894V7.72h1.068v5.784c0 .264.002.49.006.678.008.188.05.35.126.486.144.256.372.406.684.45.316.044.696.032 1.14-.036V16zm-4.338-5.598V9.52h4.338v.882H15.77zm7.496 5.778c-.484 0-.89-.088-1.218-.264a1.88 1.88 0 0 1-.738-.708 1.927 1.927 0 0 1-.246-.96c0-.34.064-.634.192-.882.132-.252.316-.46.552-.624.236-.168.518-.3.846-.396a9.676 9.676 0 0 1 1.032-.216 35.38 35.38 0 0 1 1.164-.174c.392-.052.758-.102 1.098-.15l-.384.222c.012-.576-.104-1.002-.348-1.278-.24-.276-.656-.414-1.248-.414-.392 0-.736.09-1.032.27-.292.176-.498.464-.618.864l-1.014-.306c.156-.568.458-1.014.906-1.338.448-.324 1.038-.486 1.77-.486.588 0 1.092.106 1.512.318.424.208.728.524.912.948.092.2.15.418.174.654.024.232.036.476.036.732V16h-.948v-1.554l.222.144c-.244.524-.586.92-1.026 1.188-.436.268-.968.402-1.596.402zm.162-.894c.384 0 .716-.068.996-.204.284-.14.512-.322.684-.546.172-.228.284-.476.336-.744.06-.2.092-.422.096-.666.008-.248.012-.438.012-.57l.372.162c-.348.048-.69.094-1.026.138-.336.044-.654.092-.954.144-.3.048-.57.106-.81.174a2.639 2.639 0 0 0-.498.216 1.131 1.131 0 0 0-.372.342.89.89 0 0 0-.138.51c0 .176.044.344.132.504.092.16.232.29.42.39.192.1.442.15.75.15zm10.124.894c-.608 0-1.12-.15-1.536-.45a2.846 2.846 0 0 1-.948-1.23 4.587 4.587 0 0 1-.318-1.746c0-.652.106-1.236.318-1.752.216-.516.532-.922.948-1.218.42-.296.934-.444 1.542-.444.6 0 1.116.15 1.548.45.436.296.77.702 1.002 1.218.232.516.348 1.098.348 1.746 0 .648-.116 1.23-.348 1.746a2.927 2.927 0 0 1-1.002 1.23c-.432.3-.95.45-1.554.45zm-2.982 2.7V9.52h.954v4.77h.12v4.59H30.57zm2.85-3.678c.428 0 .782-.108 1.062-.324.28-.216.49-.508.63-.876.14-.372.21-.788.21-1.248 0-.456-.07-.868-.21-1.236a1.879 1.879 0 0 0-.636-.876c-.284-.216-.646-.324-1.086-.324-.42 0-.768.104-1.044.312-.276.204-.482.49-.618.858a3.607 3.607 0 0 0-.204 1.266c0 .472.066.894.198 1.266.136.368.344.658.624.87.28.208.638.312 1.074.312zm4.352.798V9.52h.954v1.566l-.156-.204c.076-.2.174-.384.294-.552.124-.168.262-.306.414-.414.168-.136.358-.24.57-.312.212-.072.428-.114.648-.126a2.08 2.08 0 0 1 .618.042v1.002a2.025 2.025 0 0 0-.738-.048 1.5 1.5 0 0 0-.744.294c-.208.148-.37.328-.486.54-.112.212-.19.442-.234.69a4.218 4.218 0 0 0-.066.75V16h-1.074zm7.119.18c-.644 0-1.2-.146-1.668-.438a2.902 2.902 0 0 1-1.074-1.212c-.252-.516-.378-1.108-.378-1.776 0-.68.128-1.276.384-1.788s.618-.91 1.086-1.194c.468-.288 1.018-.432 1.65-.432.648 0 1.206.146 1.674.438.468.288.826.69 1.074 1.206.252.512.378 1.102.378 1.77 0 .676-.126 1.272-.378 1.788a2.897 2.897 0 0 1-1.08 1.206c-.468.288-1.024.432-1.668.432zm0-1.014c.672 0 1.172-.224 1.5-.672.328-.448.492-1.028.492-1.74 0-.732-.166-1.314-.498-1.746-.332-.436-.83-.654-1.494-.654-.452 0-.824.102-1.116.306-.292.204-.51.486-.654.846-.144.36-.216.776-.216 1.248 0 .728.168 1.312.504 1.752.336.44.83.66 1.482.66zm5.965.834-2.352-6.48h1.08l1.818 5.118 1.812-5.118H54.3L51.948 16h-1.092zm4.649-7.626V7.27h1.068v1.104h-1.068zm0 7.626V9.52h1.068V16h-1.068zm5.412.18c-.604 0-1.122-.15-1.554-.45a2.987 2.987 0 0 1-1.002-1.23c-.232-.516-.348-1.098-.348-1.746 0-.648.116-1.23.348-1.746.236-.516.57-.922 1.002-1.218.432-.3.948-.45 1.548-.45.612 0 1.126.148 1.542.444.416.296.73.702.942 1.218.216.516.324 1.1.324 1.752 0 .644-.108 1.226-.324 1.746a2.804 2.804 0 0 1-.942 1.23c-.416.3-.928.45-1.536.45zm.132-.978c.436 0 .794-.104 1.074-.312.28-.212.486-.502.618-.87a3.67 3.67 0 0 0 .204-1.266c0-.48-.068-.902-.204-1.266a1.78 1.78 0 0 0-.612-.858c-.276-.208-.626-.312-1.05-.312-.44 0-.804.108-1.092.324a1.935 1.935 0 0 0-.636.876c-.136.368-.204.78-.204 1.236 0 .46.07.876.21 1.248.14.368.35.66.63.876.284.216.638.324 1.062.324zm1.896.798v-4.77h-.12V7.36H63.9V16h-.954zm5.443.18c-.636 0-1.192-.14-1.668-.42a2.942 2.942 0 0 1-1.104-1.182c-.264-.508-.396-1.1-.396-1.776 0-.708.13-1.32.39-1.836.26-.52.622-.92 1.086-1.2.468-.284 1.016-.426 1.644-.426.652 0 1.206.15 1.662.45.46.3.804.728 1.032 1.284.232.556.332 1.218.3 1.986h-1.08v-.384c-.012-.796-.174-1.39-.486-1.782-.312-.396-.776-.594-1.392-.594-.66 0-1.162.212-1.506.636-.344.424-.516 1.032-.516 1.824 0 .764.172 1.356.516 1.776.344.42.834.63 1.47.63.428 0 .8-.098 1.116-.294a2 2 0 0 0 .744-.846l1.026.354a2.906 2.906 0 0 1-1.14 1.332 3.16 3.16 0 0 1-1.698.468zm-2.394-3.12v-.858h4.788v.858h-4.788zm9.22 3.12c-.604 0-1.122-.15-1.554-.45a2.987 2.987 0 0 1-1.002-1.23c-.232-.516-.348-1.098-.348-1.746 0-.648.116-1.23.348-1.746.236-.516.57-.922 1.002-1.218.432-.3.948-.45 1.548-.45.612 0 1.126.148 1.542.444.416.296.73.702.942 1.218.216.516.324 1.1.324 1.752 0 .644-.108 1.226-.324 1.746a2.804 2.804 0 0 1-.942 1.23c-.416.3-.928.45-1.536.45zm.132-.978c.436 0 .794-.104 1.074-.312.28-.212.486-.502.618-.87a3.67 3.67 0 0 0 .204-1.266c0-.48-.068-.902-.204-1.266a1.78 1.78 0 0 0-.612-.858c-.276-.208-.626-.312-1.05-.312-.44 0-.804.108-1.092.324a1.935 1.935 0 0 0-.636.876c-.136.368-.204.78-.204 1.236 0 .46.07.876.21 1.248.14.368.35.66.63.876.284.216.638.324 1.062.324zm1.896.798v-4.77h-.12V7.36h1.074V16h-.954zm8.013.18c-.608 0-1.12-.15-1.535-.45a2.846 2.846 0 0 1-.948-1.23 4.587 4.587 0 0 1-.319-1.746c0-.652.106-1.236.319-1.752.215-.516.531-.922.947-1.218.42-.296.934-.444 1.543-.444.6 0 1.115.15 1.547.45.437.296.77.702 1.002 1.218.232.516.348 1.098.348 1.746 0 .648-.116 1.23-.348 1.746a2.927 2.927 0 0 1-1.002 1.23c-.431.3-.95.45-1.553.45zM82.275 16V7.36h1.073v3.87h-.12V16h-.954zm2.85-.798c.428 0 .782-.108 1.062-.324.28-.216.49-.508.63-.876.14-.372.21-.788.21-1.248 0-.456-.07-.868-.21-1.236a1.879 1.879 0 0 0-.636-.876c-.285-.216-.647-.324-1.087-.324-.42 0-.767.104-1.044.312-.276.204-.482.49-.618.858a3.607 3.607 0 0 0-.203 1.266c0 .472.066.894.198 1.266.135.368.343.658.623.87.28.208.638.312 1.075.312zm4.9 3.678 1.253-3.408.018 1.008-2.832-6.96h1.122l2.22 5.598h-.384l2.082-5.598h1.086l-3.528 9.36h-1.038z" fill="#9CA8BA"/>
    <g clip-path="url(#kx9590ko6a)">
        <path fill-rule="evenodd" clip-rule="evenodd" d="M117.439 12.561c-.279.176-.607.198-.857.057-.317-.179-.492-.598-.492-1.182V9.691c0-.843-.333-1.443-.89-1.605-.945-.275-1.655.88-1.922 1.314l-1.665 2.7V8.8c-.019-.76-.266-1.213-.734-1.35-.31-.091-.774-.055-1.224.634l-3.731 5.992a6.582 6.582 0 0 1-.759-3.076c0-3.61 2.892-6.546 6.448-6.546 3.555 0 6.447 2.937 6.447 6.546l.002.018-.001.018c.034.698-.193 1.255-.622 1.525zm2.053-1.56v-.037c-.02-4.396-3.547-7.964-7.88-7.964-4.344 0-7.88 3.589-7.88 8 0 4.41 3.536 8 7.881 8a7.791 7.791 0 0 0 5.357-2.134.735.735 0 0 0-.187-1.193.714.714 0 0 0-.787.127 6.374 6.374 0 0 1-4.383 1.746 6.39 6.39 0 0 1-4.798-2.18l3.365-5.402v2.49c0 1.197.464 1.584.853 1.697.39.113.985.036 1.609-.979l1.851-3c.06-.097.114-.18.164-.253v1.517c0 1.119.448 2.013 1.229 2.454.704.397 1.589.361 2.31-.094.875-.552 1.346-1.57 1.296-2.796zm10.971-2.734c.19.115.354.371.354.602a.687.687 0 0 1-.669.678.802.802 0 0 1-.252-.051 2.56 2.56 0 0 0-1.501-.512c-1.311 0-2.219 1.075-2.219 2.406 0 1.332.908 2.394 2.219 2.394.656 0 1.236-.269 1.677-.678a.681.681 0 0 1 .391-.128c.354 0 .631.281.631.64 0 .23-.139.435-.315.55-.631.538-1.488.896-2.371.896-2.018 0-3.657-1.664-3.657-3.712s1.639-3.712 3.657-3.712c.757 0 1.475.23 2.055.627zm3.69 1.549c1.374 0 2.534 1.165 2.534 2.598 0 1.434-1.16 2.65-2.534 2.65-1.438 0-2.636-1.216-2.636-2.65 0-1.433 1.198-2.598 2.636-2.598zm-.013 3.968c.605 0 1.122-.576 1.122-1.357 0-.78-.517-1.267-1.122-1.267-.656 0-1.198.474-1.198 1.267 0 .781.542 1.357 1.198 1.357zm3.412.486v-3.66c0-.397.315-.73.706-.73.391 0 .719.333.719.73v3.66c0 .397-.328.73-.719.73-.391 0-.706-.333-.706-.73zm-.113-5.772c0-.474.365-.858.819-.858.466 0 .845.384.845.858 0 .46-.379.832-.845.832a.824.824 0 0 1-.819-.832zm4.269 3.788v1.984c0 .397-.328.73-.719.73a.722.722 0 0 1-.707-.73v-3.827c0-.307.253-.563.556-.563.302 0 .542.256.542.563.58-.537 1.084-.627 1.563-.627 1.426 0 2.056 1.075 2.056 2.291v2.163c0 .397-.328.73-.719.73-.391 0-.706-.333-.706-.73v-1.984c0-.627-.076-1.152-.971-1.152-.631 0-.896.525-.896 1.152h.001zm7.926.756a.465.465 0 0 1-.366-.18l-1.664-1.804v3.212c0 .397-.328.73-.719.73a.722.722 0 0 1-.707-.73V7.91a.28.28 0 0 1 .266-.18c.125 0 .226.102.302.18l2.648 2.982c.076.09.177.14.228.14.05 0 .151-.05.226-.14l2.649-2.983c.076-.077.176-.18.302-.18a.28.28 0 0 1 .265.18v6.361c0 .397-.315.73-.706.73a.732.732 0 0 1-.719-.73v-3.212l-1.664 1.804c-.089.103-.202.18-.341.18zm6.855.742c.643 0 1.185-.576 1.185-1.357 0-.78-.555-1.293-1.185-1.293-.631 0-1.136.525-1.136 1.293 0 .755.505 1.357 1.136 1.357zm1.513.653-.026-.167c-.277.55-1.16.794-1.727.794-1.337 0-2.321-1.216-2.321-2.65 0-1.433 1.009-2.598 2.396-2.598.24 0 1.035.064 1.652.794l.026-.167c0-.307.239-.563.542-.563.303 0 .555.256.555.563v3.994a.564.564 0 0 1-.555.563.554.554 0 0 1-.543-.563h.001zm5.051-3.303h-.151c-.896.052-1.072.564-1.072 1.152v1.984c0 .397-.328.73-.719.73-.391 0-.706-.333-.706-.73v-3.827c0-.307.252-.563.555-.563.303 0 .542.256.542.563.53-.499.959-.601 1.4-.627h.139c.34 0 .655.294.655.666a.667.667 0 0 1-.643.652zm5.493 2.804a.65.65 0 0 1 .101.345c0 .371-.341.717-.707.717-.252 0-.466-.192-.63-.397l-1.639-1.907v1.574c0 .397-.328.73-.719.73a.722.722 0 0 1-.707-.73V8.46c0-.398.316-.73.707-.73.391 0 .718.332.718.73v3.622l1.64-1.818c.164-.192.365-.384.618-.384.353 0 .681.333.681.704a.62.62 0 0 1-.089.333l-1.298 1.42 1.324 1.6zm2.794-2.778c-.391 0-1.022.205-1.022.806h2.056c0-.614-.656-.806-1.035-.806h.001zm1.866 1.715h-2.888c0 .858.82.986 1.185.986a2.5 2.5 0 0 0 .934-.18.69.69 0 0 1 .365-.115c.316 0 .58.27.58.59a.61.61 0 0 1-.315.511c-.441.32-1.009.397-1.551.397-1.437 0-2.635-.78-2.635-2.586 0-1.42.731-2.662 2.433-2.662 1.375 0 2.422.896 2.447 2.496a.564.564 0 0 1-.555.563zm3.967 2.189h-.391c-1.085 0-1.715-.474-1.715-2.176v-1.754h-.366a.667.667 0 0 1-.643-.652c0-.372.302-.666.643-.666h.366V8.459c0-.397.315-.73.706-.73.391 0 .719.333.719.73v1.357h.592c.341 0 .644.294.644.666a.668.668 0 0 1-.644.652h-.592v1.472c0 .973.05 1.178.479 1.178h.202c.34 0 .63.282.63.64 0 .346-.29.64-.63.64zm6.905-6.797c.189.115.353.371.353.602a.686.686 0 0 1-.669.678.802.802 0 0 1-.252-.051 2.56 2.56 0 0 0-1.501-.512c-1.311 0-2.219 1.075-2.219 2.406 0 1.332.908 2.394 2.219 2.394a2.46 2.46 0 0 0 1.678-.678.679.679 0 0 1 .391-.128c.353 0 .63.281.63.64 0 .23-.139.435-.315.55-.631.538-1.488.896-2.371.896-2.018 0-3.657-1.664-3.657-3.712s1.639-3.712 3.657-3.712c.757 0 1.475.23 2.056.627zm3.613 5.517c.644 0 1.186-.576 1.186-1.357 0-.78-.555-1.293-1.186-1.293-.63 0-1.135.525-1.135 1.293 0 .755.505 1.357 1.135 1.357zm1.513.653-.025-.167c-.277.55-1.16.794-1.728.794-1.336 0-2.32-1.216-2.32-2.65 0-1.433 1.009-2.598 2.396-2.598.24 0 1.034.064 1.652.794l.025-.167c0-.307.24-.563.543-.563.302 0 .555.256.555.563v3.994a.565.565 0 0 1-.555.563.554.554 0 0 1-.543-.563zm5.014-.653c.631 0 1.135-.602 1.135-1.357 0-.768-.504-1.293-1.135-1.293s-1.186.512-1.186 1.293c0 .781.543 1.357 1.186 1.357zm-1.186.858v1.817c0 .397-.327.73-.719.73-.39 0-.706-.333-.706-.73v-6.016c0-.307.253-.563.555-.563.303 0 .543.256.543.614.529-.55 1.185-.678 1.677-.678 1.387 0 2.396 1.165 2.396 2.598 0 1.434-.984 2.65-2.321 2.65-.416 0-1.034-.128-1.425-.422z" fill="#141414"/>
    </g>
    <defs>
        <clipPath id="kx9590ko6a">
            <path fill="#fff" transform="translate(103.732 3)" d="M0 0h93.268v16H0z"/>
        </clipPath>
    </defs>
</svg>
