<svg width="200" height="92" viewBox="0 0 200 92" fill="none" xmlns="http://www.w3.org/2000/svg">
    <rect width="200" height="92" rx="8" fill="#FFF0F0"/>
    <path d="M56.698 51.156 16 25.141V16h168v60l-32.884-24.844-20.511 6.797L89.907 33.11l-33.21 18.047z" fill="url(#tmo3tv1uta)"/>
    <path d="M15.73 25.562a.5.5 0 1 1 .54-.843l-.54.843zm40.968 25.594.238.44-.259.14-.249-.158.27-.422zM89.907 33.11l-.239-.439.253-.138.246.15-.26.427zm40.698 24.844.157.475-.22.073-.198-.121.261-.427zm20.511-6.797-.157-.474.249-.083.21.158-.302.4zM184 76l-5.73-.71 3.481-4.607L184 76zM16.27 24.72l40.697 26.015-.539.843-40.697-26.016.538-.843zm40.189 25.997 33.21-18.047.477.879-33.21 18.047-.477-.88zm33.709-18.034 40.697 24.843-.521.854-40.697-24.844.52-.853zm40.279 24.795 20.512-6.796.315.949-20.512 6.797-.315-.95zm20.971-6.72 29.293 22.13-.603.798-29.293-22.13.603-.799z" fill="#FB1F1F"/>
    <defs>
        <linearGradient id="tmo3tv1uta" x1="100.326" y1="76" x2="100.326" y2="16" gradientUnits="userSpaceOnUse">
            <stop stop-color="#FF9A9A"/>
            <stop offset="1" stop-color="#FF9A9A" stop-opacity="0"/>
        </linearGradient>
    </defs>
</svg>
