<svg width="24" height="24" viewBox="0 0 24 24" fill="none" xmlns="http://www.w3.org/2000/svg">
    <path d="M12 5.666A6.334 6.334 0 1 0 18.334 12 6.343 6.343 0 0 0 12 5.666zm3.752 9.286h-1.067V11.2a1.093 1.093 0 0 0-1.523-.99.903.903 0 0 0-.336.232c-.098.1-.176.217-.232.345a1.1 1.1 0 0 0-.078.413v3.752h-1.05V11.2a1.093 1.093 0 0 0-1.523-.99.903.903 0 0 0-.336.232c-.097.1-.176.217-.232.345a1.101 1.101 0 0 0-.077.413v3.752h-1.05V9.16l.533.594.198-.172c.199-.166.423-.3.663-.396a2.134 2.134 0 0 1 1.514 0c.25.105.466.274.629.49L12 9.96l.215-.292c.076-.11.169-.205.276-.284.107-.078.223-.144.344-.198.119-.05.243-.088.37-.112a2.23 2.23 0 0 1 1.239.138c.253.108.484.262.68.456.398.408.623.953.628 1.523v3.76z" fill="#fff"/>
    <path d="M12 3.162A8.838 8.838 0 1 0 20.838 12 8.855 8.855 0 0 0 12 3.162zm0 16.351a7.504 7.504 0 1 1 5.306-2.2A7.494 7.494 0 0 1 12 19.504v.008z" fill="#fff"/>
    <path d="M15.175 9.676c-.242-.234-.478-.348-.731-.456a2.23 2.23 0 0 0-1.24-.138 1.833 1.833 0 0 0-.37.112c-.12.054-.236.12-.344.198-.106.08-.2.175-.275.284L12 9.968l-.215-.284a1.532 1.532 0 0 0-.629-.49 2.134 2.134 0 0 0-1.514 0c-.24.096-.464.23-.663.396l-.198.172-.533-.594v5.792h1.075V11.2c0-.142.026-.283.078-.414.056-.128.134-.245.232-.344a.903.903 0 0 1 .336-.233 1.085 1.085 0 0 1 .86 0 1.093 1.093 0 0 1 .663.99v3.752h1.076V11.2c-.001-.141.025-.282.077-.413.056-.128.135-.245.232-.344a.903.903 0 0 1 .336-.233 1.085 1.085 0 0 1 .86 0 1.093 1.093 0 0 1 .663.99v3.752h1.067V11.2c-.005-.57-.165-1.076-.628-1.523z" fill="#2C2C2C"/>
    <path d="M12 4.496A7.504 7.504 0 1 0 19.504 12 7.497 7.497 0 0 0 12 4.496zm0 13.838A6.334 6.334 0 1 1 18.334 12 6.342 6.342 0 0 1 12 18.334z" fill="#00A2D0"/>
    <path d="M12 2a10 10 0 1 0 0 20 10 10 0 0 0 0-20zm0 18.838A8.839 8.839 0 1 1 20.838 12 8.855 8.855 0 0 1 12 20.838z" fill="#FF006C"/>
</svg>
