<svg width="24" height="24" viewBox="0 0 24 24" fill="none" xmlns="http://www.w3.org/2000/svg">
    <path d="M7.57 7.315a.645.645 0 0 0-1.059.23L1.042 22.127a.645.645 0 0 0 .83.83l14.583-5.47a.645.645 0 0 0 .23-1.058L7.57 7.315zm-.204 1.62 2.649 2.648c.183 2.202 1 4.32 2.33 6.07l-2.757 1.035a10.385 10.385 0 0 1-2.835-8.118l.613-1.636zM5.63 20.171a10.24 10.24 0 0 1-1.577-2.4l1.557-4.15a11.589 11.589 0 0 0 2.677 5.553l-2.657.997zm-2.178-.797c.27.446.57.872.897 1.277l-1.601.6.704-1.877zm10.16-2.196a10.357 10.357 0 0 1-2.032-4.032l3.486 3.486-1.454.546zM15.975 13.038c.252.252.66.252.912 0 2.424-2.425 4.785-1.675 4.809-1.667a.645.645 0 0 0 .408-1.223c-.127-.043-3.147-1.003-6.129 1.978a.644.644 0 0 0 0 .912zM10.962 8.025c.252.251.66.251.912 0 2.981-2.982 2.02-6.002 1.978-6.129a.644.644 0 1 0-1.223.408c.008.024.758 2.385-1.667 4.81a.644.644 0 0 0 0 .91zM13.24 9.392a.644.644 0 0 0 .909.915c.333-.166 1.366.457 1.94-.118.568-.568-.035-1.58.116-1.935.355-.151 1.367.453 1.935-.115.568-.569-.035-1.581.115-1.936.356-.151 1.368.453 1.936-.115.568-.568-.036-1.58.115-1.936.354-.15 1.368.453 1.936-.115.574-.574-.047-1.61.117-1.94a.644.644 0 0 0-.915-.908c-.508.508-.409 1.225-.313 1.738-.513-.096-1.23-.195-1.738.313-.508.507-.408 1.225-.313 1.737-.512-.095-1.23-.195-1.737.313-.509.508-.41 1.225-.313 1.738-.513-.096-1.23-.195-1.738.313s-.409 1.225-.313 1.738c-.513-.096-1.23-.195-1.738.313zM16.887 3.923a.644.644 0 1 0-.912-.911.644.644 0 0 0 .912.911zM20.988 8.67a.644.644 0 1 0 0-1.29.644.644 0 0 0 0 1.29zM19.621 13.949a.644.644 0 1 0 .911.911.644.644 0 0 0-.911-.911zM10.507 4.835a.644.644 0 1 0-.912-.912.644.644 0 0 0 .912.912z" fill="#8673FF"/>
</svg>
