<svg width="18" height="18" viewBox="0 0 18 18" fill="none" xmlns="http://www.w3.org/2000/svg">
    <path d="m15.37 14.524-.738-1.862c.848-.4 1.392-1.063 1.392-1.828 0-1.247-1.448-2.225-3.296-2.225-.91 0-1.723.237-2.314.627a1.873 1.873 0 0 0-1.57-1.263c.08-.264.12-.566.12-.911 0-.68-.154-1.195-.47-1.575-.382-.46-.988-.694-1.799-.695L5.677 3.096H1.5v.879h3.68l.59.983c-.48.16-1.006.437-1.576.826-.69.471-1.188.938-1.21.958l-.34.32.34.32c.022.02.52.486 1.21.958.963.658 1.804.992 2.5.992l.15-.003a1.862 1.862 0 0 0 .122 1.323l-.34.848-1.428-.714-1.495 3.738H2.57v.88h1.727l1.361-3.405 1.429.714.53-1.323a1.857 1.857 0 0 0 1.94.068l1.578 3.945h1.659v-.879H11.73l-.711-1.777a4.607 4.607 0 0 0 1.708.312c.376 0 .736-.04 1.07-.115l.975 2.46H16.5v-.88h-1.13zM6.375 6.846h-1.25v-1.1h1.25v1.1z" fill="#00A2D0"/>
    <path d="m7.964 15.281 4.5-11.25-.928-.371-4.5 11.25.928.371z" fill="#00A2D0"/>
    <path d="m9.75 4.596 2.398-1.068.977 2.193" stroke="#00A2D0"/>
</svg>
