<svg width="16" height="16" viewBox="0 0 16 16" fill="none" xmlns="http://www.w3.org/2000/svg">
    <g clip-path="url(#h55w71zjma)" fill="#fff">
        <path d="M8 .667C3.956.667.667 3.957.667 8c0 4.044 3.29 7.334 7.333 7.334 4.044 0 7.333-3.29 7.333-7.334 0-4.043-3.29-7.333-7.333-7.333zm0 13.596A6.27 6.27 0 0 1 1.737 8 6.27 6.27 0 0 1 8 1.738 6.27 6.27 0 0 1 14.263 8 6.27 6.27 0 0 1 8 14.263z"/>
        <path d="M10.498 8h-2.32V4.79a.535.535 0 1 0-1.07 0v3.747c0 .295.24.535.535.535h2.855a.535.535 0 0 0 0-1.07z"/>
    </g>
    <defs>
        <clipPath id="h55w71zjma">
            <path fill="#fff" d="M0 0h16v16H0z"/>
        </clipPath>
    </defs>
</svg>
