<svg width="26" height="16" viewBox="0 0 26 16" fill="none" xmlns="http://www.w3.org/2000/svg">
    <path d="M20 6.015c0-.688-.598-1.248-1.332-1.248-.735 0-1.332.56-1.332 1.248 0 .331.138.633.363.856-.4.42-.982.685-1.628.685-1.047 0-1.924-.693-2.136-1.616.245-.227.397-.541.397-.888 0-.689-.598-1.25-1.332-1.25-.735 0-1.332.561-1.332 1.25 0 .347.152.661.397.888-.212.923-1.089 1.616-2.136 1.616a2.245 2.245 0 0 1-1.628-.685c.225-.223.363-.525.363-.856 0-.688-.597-1.248-1.332-1.248-.734 0-1.332.56-1.332 1.248 0 .597.449 1.097 1.047 1.22.141 1.097.442 2.48 1.077 3.422v1.153c0 .214.184.387.412.387h8.928c.228 0 .412-.173.412-.387v-1.153c.635-.941.935-2.325 1.077-3.422.598-.123 1.047-.623 1.047-1.22zm-1.84 0c0-.262.228-.475.508-.475s.507.213.507.475c0 .263-.227.476-.507.476s-.508-.213-.508-.476zm-5.668-.963c0-.263.228-.476.508-.476s.508.213.508.476c0 .262-.228.475-.508.475s-.508-.213-.508-.475zm-5.667.963c0-.262.227-.475.507-.475s.508.213.508.475c0 .263-.228.476-.508.476s-.507-.213-.507-.476zm2.123 5.409v-.495h8.104v.495H8.948zm8.29-1.269H8.762c-.434-.69-.683-1.66-.826-2.534.53.44 1.229.708 1.992.708 1.37 0 2.53-.863 2.892-2.04a1.418 1.418 0 0 0 .358 0c.362 1.177 1.521 2.04 2.892 2.04.763 0 1.462-.268 1.993-.709-.143.875-.392 1.845-.827 2.535z" fill="#8673FF"/>
</svg>
