<?xml version="1.0" encoding="utf-8"?>
<!-- Generator: Adobe Illustrator 23.1.0, SVG Export Plug-In . SVG Version: 6.00 Build 0)  -->
<svg version="1.1" id="레이어_1" xmlns="http://www.w3.org/2000/svg" xmlns:xlink="http://www.w3.org/1999/xlink" x="0px"
	 y="0px" viewBox="0 0 20 19.6" style="enable-background:new 0 0 20 19.6;" xml:space="preserve">
<style type="text/css">
	.st0{fill:#141414;}
</style>
<path class="st0" d="M18.6,2.7H1.4c-0.3,0-0.6,0.3-0.6,0.6v13.4c0,0.3,0.3,0.6,0.6,0.6h17.1c0.3,0,0.6-0.3,0.6-0.6V3.3
	C19.2,2.9,18.9,2.7,18.6,2.7L18.6,2.7z M18,3.9v11.3l-4.7-5c-0.2-0.2-0.6-0.2-0.8,0c0,0,0,0,0,0l-2,2.1L7.7,8.7
	C7.5,8.4,7.1,8.4,6.8,8.6c0,0-0.1,0.1-0.1,0.1L2,14.9v-11L18,3.9L18,3.9z M17.2,16H2.6l4.5-6l2.7,3.5c0.2,0.3,0.6,0.3,0.8,0.1
	c0,0,0.1,0,0.1-0.1l2.1-2.2C12.8,11.4,17.2,16,17.2,16z"/>
<g>
	<path class="st0" d="M13.1,8.8c1.1,0,1.9-0.9,1.9-1.9c0-1.1-0.9-1.9-1.9-1.9c-1.1,0-1.9,0.9-1.9,1.9C11.1,7.9,12,8.8,13.1,8.8z
		 M13.1,6.1c0.4,0,0.7,0.4,0.7,0.8c0,0.4-0.3,0.7-0.7,0.7c-0.4,0-0.7-0.4-0.7-0.8C12.4,6.4,12.7,6.1,13.1,6.1z"/>
</g>
</svg>
