<svg width="17" height="16" viewBox="0 0 17 16" fill="none" xmlns="http://www.w3.org/2000/svg">
    <path d="m14.162 13.492-.656-1.656c.753-.354 1.237-.944 1.237-1.624 0-1.11-1.287-1.978-2.93-1.978-.809 0-1.532.21-2.057.557a1.664 1.664 0 0 0-1.395-1.123c.07-.234.106-.503.106-.81 0-.603-.136-1.061-.417-1.4-.34-.409-.878-.616-1.599-.617l-.905-1.508H1.833v.781h3.27l.526.875c-.427.143-.895.388-1.401.734a9.797 9.797 0 0 0-1.075.851l-.303.285.303.284c.018.018.462.433 1.075.852.856.585 1.603.881 2.221.881.046 0 .09 0 .134-.002a1.655 1.655 0 0 0 .109 1.176l-.302.754-1.27-.635-1.33 3.323H2.786v.781H4.32l1.21-3.026 1.27.635.47-1.176a1.65 1.65 0 0 0 1.725.06l1.403 3.507h1.475v-.781h-.946l-.632-1.58c.44.177.959.278 1.518.278.335 0 .655-.036.952-.103l.866 2.186h1.535v-.781h-1.004zM6.166 6.667h-1.11v-.978h1.11v.978z" fill="orange"/>
    <path d="m7.207 3.851.012-.1c.033.043.069.083.108.123.36.36.864.442 1.308.308-.135.444-.052.947.308 1.307.039.04.08.075.122.108l-.1.013-.17.022c-.153.02-.32.045-.469.085l-.13.034-.094.095-.12.12-1.131-1.132.12-.12.094-.095.035-.13c.04-.147.064-.315.085-.467l.022-.17z" stroke="orange"/>
</svg>
