<svg width="20" height="20" viewBox="0 0 20 20" fill="none" xmlns="http://www.w3.org/2000/svg">
    <path d="m15.33 7.772-.685.313-2.528-2.874a5 5 0 0 0-4.462-1.653l-2.847.4v-.625H.833v7.448h3.975v-.977h.746a4.1 4.1 0 0 0 1.813 1.605l-.858.392 2.011 4.403H4.056v1.075h15.11v-1.075L15.33 7.772zM3.734 9.707H1.907v-5.3h1.827v5.3zm2.616-.68-.148-.297H4.808V5.042l2.997-.42A3.928 3.928 0 0 1 11.31 5.92l2.314 2.63-.813.372a1.798 1.798 0 0 0-1.46-.748H8.797V9.25h2.556c.4 0 .726.326.726.726v.726H9.059A3.012 3.012 0 0 1 6.35 9.026zm1.582 3.305 1.22-.557h4v-1.8l-.001-.026 1.648-.753L18 16.204H9.701l-1.769-3.872z" fill="#fff"/>
</svg>
