<svg width="70" height="70" viewBox="0 0 70 70" fill="none" xmlns="http://www.w3.org/2000/svg">
    <path fill-rule="evenodd" clip-rule="evenodd" d="m69.682 35.828-60.718 22.1-.79-2.17L68.893 33.66l.79 2.169zM61.79 14.142l-60.72 22.1-.789-2.169 60.72-22.1.788 2.169z" fill="#9CA8BA"/>
    <path fill-rule="evenodd" clip-rule="evenodd" d="M43.88 59.396c-9.502 3.459-19.712 1.022-26.623-5.437l.788-.843c6.606 6.174 16.362 8.5 25.44 5.196 9.078-3.304 15.056-11.357 16.148-20.333l1.146.14c-1.143 9.39-7.398 17.819-16.9 21.277zM9.238 31.76c1.182-9.342 7.423-17.713 16.883-21.156 9.46-3.443 19.62-1.042 26.532 5.355l-.784.846c-6.606-6.114-16.316-8.406-25.354-5.117-9.037 3.29-15.002 11.287-16.133 20.217l-1.144-.145z" fill="#9CA8BA"/>
    <path fill-rule="evenodd" clip-rule="evenodd" d="M5.057 33.069c.75-11.513 8.14-22.059 19.682-26.26 11.542-4.2 23.985-.873 31.958 7.465l-1.668 1.595c-7.364-7.701-18.85-10.768-29.5-6.891-10.65 3.876-17.476 13.608-18.17 24.241l-2.302-.15z" fill="#9CA8BA"/>
    <g clip-path="url(#3iqxu3i4ka)" fill="#9CA8BA">
        <path d="m15.406 36.338 2.835 7.787-4.987 1.815-2.835-7.787 4.987-1.815zm-1.066 1.959-1.845.672 1.825 5.012 1.845-.671-1.824-5.013zm10.339 7.146-1.57.572-2.383-6.544-1.073.39 2.168 5.955-1.571.572-4.125-11.334 1.57-.572 1.439 3.953 1.073-.391-1.53-4.201 1.571-.572 4.43 12.172zM35.168 35.533l.51 1.4-4.738 1.725 1.448 3.979-1.662.605-1.449-3.979-4.75 1.73-.51-1.401 11.15-4.059zm-6.655-1.017c-.017.145-.121.346-.314.604a12.03 12.03 0 0 1-.811.947 17.8 17.8 0 0 1-.51.534 57.143 57.143 0 0 1-1.76 1.7l-1.176-1.113c.393-.36.801-.751 1.226-1.172.425-.422.817-.831 1.176-1.229.33-.367.535-.716.612-1.045.078-.33.044-.696-.102-1.097l-.42-1.152 1.676-.61.42 1.152c.145.402.354.704.625.906.272.203.652.339 1.142.407.53.074 1.094.136 1.69.186.596.05 1.16.086 1.693.11l-.182 1.578a46.3 46.3 0 0 1-1.615-.102c-.28-.021-.555-.044-.826-.07a18.134 18.134 0 0 1-.734-.08c-.507-.063-.904-.131-1.193-.204-.288-.073-.49-.158-.604-.254l-.013.004zM38.727 30.977c-.002.13-.054.306-.155.53-.101.225-.232.47-.392.736l-.613 1.024c-.212.354-.464.742-.755 1.164l-1.394-.857c.3-.425.555-.81.766-1.153.211-.343.419-.696.624-1.057.226-.408.354-.79.382-1.147a2.653 2.653 0 0 0-.171-1.123l-.51-1.4 1.675-.61.5 1.374c.077.21.158.392.245.548a1.753 1.753 0 0 0 .744.722c.166.088.367.173.604.255a34.311 34.311 0 0 0 1.672.459l.61.148-.502 1.472a21.267 21.267 0 0 1-1.03-.262l-1.056-.297a12.596 12.596 0 0 1-.805-.278c-.202-.08-.344-.164-.426-.253l-.013.005zm7.246.401 1.262 3.469-6.034 2.196.334.916 6.4-2.33.476 1.31-7.997 2.91-1.262-3.468 6.034-2.197-.334-.916-6.099 2.22-.476-1.309 7.696-2.8zm-.2-.55-1.65.6-2.2-6.046 1.649-.6 2.2 6.046zM49.175 31.34l-1.853-5.092-.982.358-.48-1.322 6.046-2.201.481 1.322-.916.333 1.825 5.013a94.874 94.874 0 0 0 .97-.472l.615 1.244c-.428.235-.929.476-1.5.724-.572.247-1.22.503-1.945.767l-2.788 1.014-.48-1.322 1.007-.366zm.739-6.035-1.035.376 1.854 5.092 1.034-.377-1.854-5.09zm5.187.039.916-.334-1.53-4.2 1.558-.568 4.43 12.172-1.557.567-2.382-6.544-.916.334 2.167 5.955-1.557.567-4.126-11.335 1.558-.567 1.439 3.953z"/>
    </g>
    <path d="M20.788 19.45c.13-.122.26-.21.392-.268.13-.06.266-.098.406-.106l.04.238c-.148.02-.271.052-.373.104-.102.049-.202.12-.3.212a.756.756 0 0 0-.194.272.669.669 0 0 0-.044.303c.009.105.04.21.092.315.054.106.129.211.223.315l.23.25c.224.242.442.374.652.399.21.024.408-.048.588-.214a1.02 1.02 0 0 0 .259-.348 1.2 1.2 0 0 0 .092-.347l.25.046c-.013.133-.05.269-.11.408-.061.14-.169.283-.326.426-.253.235-.518.331-.792.293-.274-.038-.544-.2-.804-.483l-.223-.24c-.257-.28-.391-.556-.4-.83-.009-.274.105-.522.344-.742l-.002-.004z" fill="#9CA8BA"/>
    <path fill-rule="evenodd" clip-rule="evenodd" d="M21.085 18.97c.153-.07.316-.115.486-.126a.23.23 0 0 1 .242.192l.04.239a.23.23 0 0 1-.197.267.924.924 0 0 0-.298.08l-.004.002a.999.999 0 0 0-.244.174.527.527 0 0 0-.136.187.437.437 0 0 0-.029.2.623.623 0 0 0 .069.23c.041.084.103.172.186.263l.23.25c.206.223.376.31.509.326.132.015.265-.026.404-.155a.794.794 0 0 0 .278-.547.231.231 0 0 1 .272-.205l.25.046c.118.022.2.13.188.25-.016.16-.06.318-.127.476l-.001.003a1.532 1.532 0 0 1-.381.502c-.292.27-.622.402-.98.352-.345-.047-.66-.248-.943-.555l-.223-.241c-.278-.304-.45-.63-.46-.978-.012-.339.127-.638.385-.888a.23.23 0 0 1 .03-.035c.145-.134.295-.239.454-.309z" fill="#9CA8BA"/>
    <path d="m24.19 16.946.127.192-1.125.736.521.797 1.06-.692.126.192-1.06.693.56.854 1.146-.75.126.192-1.363.891-1.456-2.228 1.341-.876-.003-.001z" fill="#9CA8BA"/>
    <path fill-rule="evenodd" clip-rule="evenodd" d="M24.035 16.775a.23.23 0 0 1 .253-.038l.003.002a.23.23 0 0 1 .109.106l.11.166a.23.23 0 0 1-.067.32l-.932.61.269.411.866-.566a.23.23 0 0 1 .32.066l.125.192a.23.23 0 0 1-.066.32l-.866.567.306.468.953-.624a.23.23 0 0 1 .32.066l.126.192a.23.23 0 0 1-.067.32l-1.362.891a.231.231 0 0 1-.32-.067L22.66 17.95a.231.231 0 0 1 .067-.32l1.31-.855z" fill="#9CA8BA"/>
    <path d="m25.796 16.069.282-.122 1.949 1.427a.869.869 0 0 1 .097.078l.115.1-.923-2.14.227-.097L28.6 17.76l-.282.122-1.954-1.433a1.452 1.452 0 0 1-.096-.075 1.198 1.198 0 0 1-.11-.098l.924 2.14-.227.097-1.057-2.445h-.002z" fill="#9CA8BA"/>
    <path fill-rule="evenodd" clip-rule="evenodd" d="M27.452 15.103a.23.23 0 0 1 .303.12l1.056 2.445a.23.23 0 0 1-.12.304l-.282.122a.23.23 0 0 1-.228-.026l-1.46-1.07.573 1.326a.23.23 0 0 1-.12.303l-.228.098a.23.23 0 0 1-.303-.12L25.6 16.19a.23.23 0 0 1 .105-.333l.282-.122a.23.23 0 0 1 .229.026l1.462 1.07-.573-1.327a.23.23 0 0 1 .12-.303l.228-.098z" fill="#9CA8BA"/>
    <path d="M30.252 14.472a1.29 1.29 0 0 1 .88.065l-.083.229a1.211 1.211 0 0 0-.376-.094 1.33 1.33 0 0 0-.366.038.744.744 0 0 0-.302.141.651.651 0 0 0-.187.243.872.872 0 0 0-.075.322c-.005.12.007.248.04.383l.077.33c.076.322.199.544.371.668.173.124.377.158.62.102.162-.04.295-.098.398-.175a1.12 1.12 0 0 0 .252-.259l.194.163a1.369 1.369 0 0 1-.298.302 1.324 1.324 0 0 1-.493.212c-.334.08-.613.034-.834-.134-.22-.167-.376-.44-.464-.816l-.074-.319c-.088-.368-.07-.675.058-.918.126-.242.348-.401.664-.477l-.002-.006z" fill="#9CA8BA"/>
    <path fill-rule="evenodd" clip-rule="evenodd" d="M30.141 14.27c-.338.093-.602.283-.755.579-.162.309-.174.676-.08 1.077l.075.319c.095.408.272.736.55.947.287.22.642.266 1.026.174a1.55 1.55 0 0 0 .577-.25l.003-.002c.138-.105.255-.222.347-.354a.23.23 0 0 0-.041-.309l-.194-.162a.23.23 0 0 0-.338.045.892.892 0 0 1-.2.206.863.863 0 0 1-.314.134c-.189.044-.322.014-.431-.064-.108-.077-.212-.237-.28-.533h-.001l-.079-.33a1.155 1.155 0 0 1-.032-.32.64.64 0 0 1 .054-.239.42.42 0 0 1 .122-.158.517.517 0 0 1 .21-.096c.113-.026.213-.036.3-.032.084.007.185.03.3.077a.23.23 0 0 0 .306-.134l.083-.23a.23.23 0 0 0-.122-.289 1.524 1.524 0 0 0-.479-.126h-.003a1.746 1.746 0 0 0-.546.047.23.23 0 0 0-.058.022z" fill="#9CA8BA"/>
    <path d="m34.444 13.966.014.228-1.341.087.061.95 1.264-.081.015.228-1.265.082.067 1.02 1.368-.088.014.228-1.624.105-.172-2.657 1.599-.102z" fill="#9CA8BA"/>
    <path fill-rule="evenodd" clip-rule="evenodd" d="M32.672 13.915a.23.23 0 0 1 .159-.077l1.598-.103.014.23.23-.014.015.228a.23.23 0 0 1-.215.244l-1.111.073.031.49 1.034-.067a.23.23 0 0 1 .245.216l.015.228a.23.23 0 0 1-.216.245l-1.034.066.037.56 1.138-.073a.231.231 0 0 1 .245.215l.014.229a.23.23 0 0 1-.215.244l-1.625.105a.23.23 0 0 1-.245-.215l-.171-2.656a.231.231 0 0 1 .057-.168z" fill="#9CA8BA"/>
    <path d="m36.499 14.025-.221 2.423 1.328.121-.02.228-1.584-.142.24-2.652.257.024v-.002z" fill="#9CA8BA"/>
    <path fill-rule="evenodd" clip-rule="evenodd" d="M36.095 13.826a.23.23 0 0 1 .17-.052l.224.02a.23.23 0 0 1 .227.153v.002a.23.23 0 0 1 .01.12l-.197 2.17 1.098.1a.23.23 0 0 1 .21.25l-.02.229a.23.23 0 0 1-.251.21l-1.585-.143a.231.231 0 0 1-.209-.251l.24-2.652a.23.23 0 0 1 .083-.156z" fill="#9CA8BA"/>
    <path d="M49.351 50.422a1.5 1.5 0 0 1-.39.272c-.13.06-.266.097-.406.111l-.043-.24c.148-.019.27-.053.372-.105.101-.052.2-.122.3-.215a.731.731 0 0 0 .19-.273.638.638 0 0 0 .042-.303.853.853 0 0 0-.095-.314 1.432 1.432 0 0 0-.224-.313l-.233-.248c-.224-.24-.444-.37-.656-.392-.211-.021-.406.052-.585.22a1.022 1.022 0 0 0-.345.698l-.25-.044c.011-.132.048-.268.107-.41.06-.139.166-.284.32-.428.25-.236.514-.337.79-.3.275.035.545.195.81.477l.224.24c.26.276.395.551.408.824.014.272-.1.522-.336.743z" fill="#9CA8BA"/>
    <path fill-rule="evenodd" clip-rule="evenodd" d="m49.351 50.422.157.17c-.143.133-.292.24-.45.312-.153.07-.314.115-.48.131a.23.23 0 0 1-.25-.189l-.043-.24a.23.23 0 0 1 .197-.269.918.918 0 0 0 .297-.083c.08-.04.162-.097.247-.177a.501.501 0 0 0 .132-.185l.001-.004a.407.407 0 0 0 .028-.194v-.005a.627.627 0 0 0-.072-.23 1.209 1.209 0 0 0-.188-.26l-.231-.246c-.207-.22-.378-.308-.51-.321-.135-.014-.266.028-.405.159a.798.798 0 0 0-.2.267l-.002.003a.928.928 0 0 0-.071.28.23.23 0 0 1-.27.207l-.25-.044a.23.23 0 0 1-.19-.247c.014-.16.058-.32.124-.479v-.002c.076-.177.206-.347.375-.506.287-.27.616-.408.978-.36.346.044.661.242.948.547l.224.24c.284.301.454.626.47.97.018.354-.133.666-.408.924l-.158-.169z" fill="#9CA8BA"/>
    <path d="m45.973 52.956-.128-.19 1.119-.745-.53-.793-1.052.703-.128-.19 1.053-.702-.568-.852-1.14.762-.125-.19 1.353-.903 1.48 2.215-1.334.89v-.005z" fill="#9CA8BA"/>
    <path fill-rule="evenodd" clip-rule="evenodd" d="M45.7 49.664a.23.23 0 0 1 .32.064l1.478 2.215a.23.23 0 0 1-.064.32l-1.333.89a.23.23 0 0 1-.339-.097l-.108-.16a.23.23 0 0 1 .063-.321l.927-.618-.273-.408-.861.574a.23.23 0 0 1-.32-.063l-.127-.189a.23.23 0 0 1 .063-.32l.861-.575-.312-.468-.948.633a.23.23 0 0 1-.32-.065l-.126-.19a.23.23 0 0 1 .065-.32l1.353-.902z" fill="#9CA8BA"/>
    <path d="m44.372 53.848-.28.125-1.962-1.408a1.287 1.287 0 0 1-.099-.075 4.473 4.473 0 0 0-.117-.1l.942 2.13-.226.1-1.078-2.434.28-.124 1.966 1.416.098.074a1.7 1.7 0 0 1 .112.097l-.943-2.13.227-.1 1.078 2.435.002-.006z" fill="#9CA8BA"/>
    <path fill-rule="evenodd" clip-rule="evenodd" d="M43.2 51.209a.23.23 0 0 1 .303.117l1.057 2.388a.231.231 0 0 1 .022.232l-.003.006a.231.231 0 0 1-.158.127l-.236.105a.23.23 0 0 1-.228-.024L42.48 53.1l.586 1.327a.23.23 0 0 1-.118.305l-.226.1a.23.23 0 0 1-.304-.118l-1.078-2.435a.23.23 0 0 1 .118-.304l.279-.124a.23.23 0 0 1 .228.024l1.474 1.06-.585-1.322a.231.231 0 0 1 .118-.305l.226-.1z" fill="#9CA8BA"/>
    <path d="M39.934 55.486c-.171.043-.33.059-.474.047a1.17 1.17 0 0 1-.406-.104l.081-.229a1.092 1.092 0 0 0 .742.05.745.745 0 0 0 .301-.145.656.656 0 0 0 .187-.244.892.892 0 0 0 .072-.321 1.304 1.304 0 0 0-.043-.383l-.081-.329c-.077-.32-.205-.542-.377-.663-.172-.122-.38-.154-.618-.094a1.033 1.033 0 0 0-.644.438l-.196-.162a1.3 1.3 0 0 1 .294-.304c.121-.093.286-.165.492-.215.335-.083.614-.04.834.126.222.164.38.436.47.811l.079.32c.09.367.074.675-.05.92-.126.244-.345.405-.66.483l-.003-.002z" fill="#9CA8BA"/>
    <path fill-rule="evenodd" clip-rule="evenodd" d="M39.208 52.603a1.54 1.54 0 0 0-.577.257 1.528 1.528 0 0 0-.346.359.23.23 0 0 0 .046.305l.196.162a.231.231 0 0 0 .338-.049.808.808 0 0 1 .507-.343h.002c.184-.046.32-.018.43.058.107.076.214.236.285.53l.08.33v.002c.03.116.041.22.037.313a.662.662 0 0 1-.052.239.425.425 0 0 1-.122.16.514.514 0 0 1-.209.098h-.002a1.02 1.02 0 0 1-.304.034.872.872 0 0 1-.296-.073.23.23 0 0 0-.304.137l-.08.228a.23.23 0 0 0 .119.287c.154.072.316.112.486.126.165.013.34-.004.519-.047a.227.227 0 0 0 .031-.005c.368-.09.649-.287.81-.602.158-.31.167-.68.07-1.08h-.001l-.08-.32c-.097-.406-.276-.734-.555-.94-.288-.218-.642-.261-1.028-.166z" fill="#9CA8BA"/>
    <path d="m35.746 56.03-.017-.23 1.34-.099-.071-.95-1.263.095-.016-.228 1.262-.093-.074-1.02-1.366.1-.017-.23 1.624-.12.195 2.655-1.598.118.001.002z" fill="#9CA8BA"/>
    <path fill-rule="evenodd" clip-rule="evenodd" d="M35.35 53.225a.23.23 0 0 1 .157-.08l1.624-.12a.231.231 0 0 1 .247.214l.195 2.655a.23.23 0 0 1-.213.247l-1.565.115a.23.23 0 0 1-.266-.147v-.002a.23.23 0 0 1-.014-.079l-.016-.21a.23.23 0 0 1 .213-.247l1.109-.083-.036-.489-1.033.077a.23.23 0 0 1-.247-.214l-.017-.227a.23.23 0 0 1 .214-.247l1.032-.076-.04-.56-1.136.083a.23.23 0 0 1-.247-.213l-.017-.23a.23.23 0 0 1 .055-.167z" fill="#9CA8BA"/>
    <path d="m33.691 55.99.198-2.425-1.329-.108.018-.228 1.587.13-.218 2.653-.258-.021.002-.001z" fill="#9CA8BA"/>
    <path fill-rule="evenodd" clip-rule="evenodd" d="M32.428 53.054a.23.23 0 0 1 .169-.054l1.587.13a.23.23 0 0 1 .211.248l-.218 2.653a.23.23 0 0 1-.25.211l-.257-.021a.23.23 0 0 1-.207-.28l.177-2.164-1.099-.09a.23.23 0 0 1-.21-.248l.017-.227a.23.23 0 0 1 .08-.158z" fill="#9CA8BA"/>
    <path fill-rule="evenodd" clip-rule="evenodd" d="M64.943 36.932c-.75 11.513-8.14 22.058-19.682 26.26-11.542 4.2-23.985.873-31.958-7.465l1.668-1.595c7.363 7.7 18.85 10.767 29.5 6.89 10.65-3.876 17.477-13.607 18.17-24.24l2.302.15z" fill="#9CA8BA"/>
    <defs>
        <clipPath id="3iqxu3i4ka">
            <path fill="#fff" transform="rotate(-20 109.922 -9.856)" d="M0 0h49v13.079H0z"/>
        </clipPath>
    </defs>
</svg>
