<svg width="24" height="24" viewBox="0 0 24 24" fill="none" xmlns="http://www.w3.org/2000/svg">
    <path d="M20.816 3.532h-3.387V2.177a.677.677 0 0 0-.678-.677H7.267a.677.677 0 0 0-.677.677v1.355H3.203a.677.677 0 0 0-.678.678v1.355a4.745 4.745 0 0 0 4.065 4.687v.054c0 2.759 2.073 5.038 4.742 5.373v1.402H7.945a.677.677 0 0 0-.678.677v3.387H6.59a.677.677 0 1 0 0 1.355h10.839a.677.677 0 1 0 0-1.355h-.678v-3.387a.677.677 0 0 0-.677-.677h-3.387v-1.402c2.669-.335 4.742-2.614 4.742-5.373v-.054a4.745 4.745 0 0 0 4.064-4.687V4.21a.677.677 0 0 0-.677-.678zm-5.42 14.903v2.71H8.622v-2.71h6.774zM3.88 5.565v-.678h2.71v3.996a3.393 3.393 0 0 1-2.71-3.318zm12.194 4.741a4.069 4.069 0 0 1-4.065 4.065 4.069 4.069 0 0 1-4.064-4.065V2.856h8.129v7.451zm4.064-4.741a3.393 3.393 0 0 1-2.71 3.318V4.887h2.71v.678z" fill="#fff"/>
</svg>
