<svg width="20" height="20" viewBox="0 0 20 20" fill="none" xmlns="http://www.w3.org/2000/svg">
    <g clip-path="url(#10ld7h86fa)">
        <path d="M1.203.863 12.27.045c1.36-.116 1.709-.038 2.563.584l3.533 2.488c.583.428.777.545.777 1.01v13.65c0 .855-.311 1.36-1.398 1.438l-12.852.778c-.816.039-1.204-.078-1.632-.622L.66 15.988C.193 15.365 0 14.899 0 14.355V2.223C0 1.523.31.94 1.203.863z" fill="#fff"/>
        <path fill-rule="evenodd" clip-rule="evenodd" d="M12.27.045 1.203.863C.311.94 0 1.523 0 2.223v12.131c0 .545.193 1.011.66 1.634l2.601 3.383c.428.544.816.66 1.632.622l12.852-.778c1.086-.077 1.398-.583 1.398-1.439V4.128c0-.442-.175-.57-.689-.947L14.834.63c-.855-.622-1.205-.7-2.564-.584zm-7.086 3.86c-1.05.07-1.287.086-1.883-.398L1.785 2.3c-.154-.156-.076-.35.312-.39l10.638-.776c.894-.078 1.359.233 1.708.505l1.825 1.322c.078.04.272.272.039.272L5.32 3.895l-.136.01zM3.961 17.66V6.073c0-.506.155-.74.62-.778l12.619-.74c.428-.038.621.234.621.74v11.509c0 .506-.078.934-.776.973l-12.076.7c-.698.038-1.008-.195-1.008-.817zM15.88 6.695c.077.35 0 .7-.35.74l-.582.115v8.555c-.506.271-.971.427-1.36.427-.621 0-.776-.195-1.242-.777L8.541 9.767v5.793l1.204.272s0 .7-.971.7l-2.678.156c-.078-.156 0-.545.271-.622l.7-.194v-7.66l-.971-.079c-.078-.35.116-.855.66-.894l2.873-.194 3.96 6.066V7.745l-1.009-.116c-.078-.429.233-.74.62-.778l2.68-.156z" fill="#000"/>
    </g>
    <defs>
        <clipPath id="10ld7h86fa">
            <path fill="#fff" d="M0 0h20v20H0z"/>
        </clipPath>
    </defs>
</svg>
