<svg width="20" height="20" viewBox="0 0 20 20" fill="none" xmlns="http://www.w3.org/2000/svg">
    <path fill-rule="evenodd" clip-rule="evenodd" d="M15.625 6.25h-.037a5.625 5.625 0 0 0-11.175 0h-.038a3.125 3.125 0 1 0 0 6.25h1.25V6.875a4.375 4.375 0 0 1 8.75 0v6.25a2.5 2.5 0 0 1-1.981 2.444 2.5 2.5 0 1 0 .031 1.25 3.75 3.75 0 0 0 3.2-3.694V12.5a3.125 3.125 0 1 0 0-6.25zM2.5 9.375c0-1.036.84-1.875 1.875-1.875v3.75A1.875 1.875 0 0 1 2.5 9.375zM10 17.5a1.25 1.25 0 1 1 0-2.5 1.25 1.25 0 0 1 0 2.5zm5.625-6.25V7.5a1.875 1.875 0 0 1 0 3.75z" fill="#8673FF"/>
</svg>
