<svg width="26" height="26" viewBox="0 0 26 26" fill="none" xmlns="http://www.w3.org/2000/svg">
    <g clip-path="url(#c43vpxq2ka)" fill="orange">
        <path d="M10 3.833C4.947 3.833.835 7.945.835 13c0 5.054 4.112 9.166 9.167 9.166 5.054 0 9.166-4.112 9.166-9.166 0-5.055-4.112-9.167-9.166-9.167zm0 16.995c-4.316 0-7.828-3.512-7.828-7.828 0-4.317 3.512-7.829 7.829-7.829 4.316 0 7.828 3.512 7.828 7.828 0 4.317-3.512 7.83-7.828 7.83z"/>
        <path d="M13.123 13h-2.9V8.985a.67.67 0 1 0-1.338 0v4.684c0 .37.3.669.67.669h3.568a.669.669 0 1 0 0-1.338z"/>
    </g>
</svg>
