<svg width="20" height="20" viewBox="0 0 20 20" fill="none" xmlns="http://www.w3.org/2000/svg">
    <path fill-rule="evenodd" clip-rule="evenodd" d="M8.125 13.125h8.231l-1.612 1.619.881.881L18.75 12.5l-3.125-3.125-.881.881 1.612 1.619H8.125v1.25zm5.444-7.319a.625.625 0 0 1 .181.444v2.5H12.5V7.5H8.75c-.69 0-1.25-.56-1.25-1.25V2.5h-5v15h10v-1.25h1.25v1.25c0 .69-.56 1.25-1.25 1.25h-10c-.69 0-1.25-.56-1.25-1.25v-15c0-.69.56-1.25 1.25-1.25h6.25a.625.625 0 0 1 .444.181l4.375 4.375zM8.75 2.756V6.25h3.494L8.75 2.756z" fill="#141414"/>
</svg>
