<svg width="60" height="60" viewBox="0 0 60 60" fill="none" xmlns="http://www.w3.org/2000/svg">
    <path d="M52.07 54.996H7.93V25.504H5V13.785h9.639c-.068-.164-.109-.282-.162-.39-1.226-2.59-.476-5.56 1.82-7.265.829-.615 1.78-.911 2.765-1.129h1.465c.15.046.3.098.453.136a5.742 5.742 0 0 1 3.473 2.259c.375.51.723 1.04 1.104 1.546 1.27 1.684 2.786 3.118 4.443 4.442l.314-.25c1.953-1.586 3.674-3.39 5.061-5.502a5.566 5.566 0 0 1 2.627-2.17c.475-.195.976-.31 1.47-.462h1.465c.09.036.18.066.274.088 3.308.542 5.488 3.758 4.746 7.014-.128.561-.36 1.098-.556 1.682H55v11.719h-2.93v29.493zm-26.499-2.952V25.543H10.885v26.5H25.57zm23.535 0v-26.5H34.421v26.5h14.685zM25.571 22.552v-5.8H7.956v5.8h17.615zm3-5.817v35.309h2.868V16.736H28.57zm5.859 0v5.8h17.614v-5.799H34.43zm-8.594-2.95.124-.184c-.426-.378-.91-.71-1.27-1.144-.941-1.139-1.813-2.335-2.742-3.485-.651-.807-1.542-1.13-2.558-1.01a2.909 2.909 0 0 0-2.575 2.951 2.915 2.915 0 0 0 2.787 2.855c.811.044 1.627.015 2.441.016h3.793zm8.289-.008c2.11 0 4.176.034 6.24-.011 1.408-.032 2.495-1.03 2.756-2.393a2.909 2.909 0 0 0-1.655-3.17c-1.211-.568-2.637-.23-3.501.863-.483.613-.89 1.285-1.385 1.885-.78.95-1.607 1.86-2.451 2.827h-.004z" fill="#141414"/>
</svg>
