<svg width="61" height="60" viewBox="0 0 61 60" fill="none" xmlns="http://www.w3.org/2000/svg">
    <path d="M40.083 18.66h-13.66a1.555 1.555 0 1 0 0 3.11h13.66c.86 0 1.555-.697 1.555-1.555l-1.555-1.555z" fill="#141414"/>
    <path d="m41.638 20.215-1.555-1.555c.859 0 1.555.696 1.555 1.555zM26.424 29.194h18.89a1.555 1.555 0 1 1 0 3.11h-18.89a1.554 1.554 0 1 1 0-3.11zM26.425 39.076h13.659a1.555 1.555 0 1 1 0 3.11h-13.66a1.554 1.554 0 1 1 0-3.11z" fill="#141414"/>
    <path fill-rule="evenodd" clip-rule="evenodd" d="M15.06 27.741h-4.475C6.403 27.741 3 31.145 3 35.326V47.46c0 4.183 3.403 7.586 7.585 7.586.343 0 .68-.023 1.009-.068l.041-.005H47.64c5.023 0 9.111-4.088 9.111-9.11V6.554c0-.86-.696-1.555-1.555-1.555h-38.58c-.858 0-1.554.696-1.554 1.555V27.74zm1.783 24.122.476-.914a7.531 7.531 0 0 0 .851-3.49V8.11h35.47v37.752c0 3.26-2.74 6.002-6 6.002H16.842zm-5.633.072c1.854-.365 3.586-1.962 3.85-3.85V30.85h-4.475a4.48 4.48 0 0 0-4.476 4.476V47.46a4.48 4.48 0 0 0 4.476 4.476h.625z" fill="#141414"/>
</svg>
