<svg width="18" height="18" viewBox="0 0 18 18" fill="none" xmlns="http://www.w3.org/2000/svg">
    <path fill-rule="evenodd" clip-rule="evenodd" d="M16.875 3.938h-2.869a2.812 2.812 0 0 0-5.512 0H1.125v1.125h7.369a2.812 2.812 0 0 0 5.512 0h2.869V3.938zm-5.625 2.25a1.687 1.687 0 1 1 0-3.375 1.687 1.687 0 0 1 0 3.375zM1.125 14.063h2.869a2.812 2.812 0 0 0 5.512 0h7.369v-1.126H9.506a2.812 2.812 0 0 0-5.512 0H1.125v1.126zm3.938-.563a1.687 1.687 0 1 1 3.374 0 1.687 1.687 0 0 1-3.374 0z" fill="#141414"/>
</svg>
