<svg width="24" height="24" viewBox="0 0 24 24" fill="none" xmlns="http://www.w3.org/2000/svg">
    <g clip-path="url(#goaak8pbqa)">
        <path fill-rule="evenodd" clip-rule="evenodd" d="M12 0c6.628 0 12 5.372 12 12s-5.372 12-12 12S0 18.628 0 12 5.372 0 12 0z" fill="#9CA8BA"/>
        <path d="M7.626 9.266c2.414-2.357 6.333-2.357 8.747 0l.291.286a.295.295 0 0 1 0 .427l-.994.97a.155.155 0 0 1-.22 0l-.398-.389a4.39 4.39 0 0 0-6.104 0l-.426.417a.155.155 0 0 1-.22 0l-.994-.97a.295.295 0 0 1 0-.427l.318-.314zm10.805 2.007.886.862a.294.294 0 0 1 0 .427l-3.989 3.895a.314.314 0 0 1-.436 0l-2.831-2.766a.08.08 0 0 0-.108 0l-2.831 2.766a.314.314 0 0 1-.436 0l-4.003-3.895a.294.294 0 0 1 0-.427l.886-.862a.314.314 0 0 1 .436 0l2.83 2.765a.08.08 0 0 0 .109 0l2.83-2.765a.314.314 0 0 1 .437 0l2.831 2.765a.08.08 0 0 0 .108 0l2.831-2.765a.332.332 0 0 1 .45 0z" fill="#fff"/>
    </g>
    <defs>
        <clipPath id="goaak8pbqa">
            <path fill="#fff" d="M0 0h24v24H0z"/>
        </clipPath>
    </defs>
</svg>
