<svg width="70" height="70" viewBox="0 0 70 70" fill="none" xmlns="http://www.w3.org/2000/svg">
    <path fill-rule="evenodd" clip-rule="evenodd" d="m69.682 35.828-60.718 22.1-.79-2.17L68.893 33.66l.79 2.169zM61.79 14.142l-60.72 22.1-.789-2.169 60.72-22.1.788 2.169z" fill="#43C890"/>
    <path d="M26.662 36.18a1.45 1.45 0 0 1-.107.436 6.62 6.62 0 0 1-.373.755 44.3 44.3 0 0 1-1.395 2.32l-1.417-.855c.28-.416.532-.807.752-1.172.221-.366.435-.748.643-1.148.181-.34.293-.7.337-1.08.043-.38-.012-.782-.167-1.207l-.663-1.821 1.666-.607.644 1.77c.078.217.16.406.243.567a1.818 1.818 0 0 0 .724.754c.161.093.354.177.578.253.327.117.702.236 1.125.357.422.121.839.235 1.25.34l-.493 1.477a34.921 34.921 0 0 1-2.093-.609c-.289-.091-.55-.18-.783-.267-.233-.088-.386-.177-.458-.268l-.013.004zm5.48 6.92a7.206 7.206 0 0 1-1.553.388 4.286 4.286 0 0 1-1.365-.026 2.687 2.687 0 0 1-1.068-.444 1.8 1.8 0 0 1-.648-.87l-.208-.572a1.8 1.8 0 0 1-.063-1.083c.091-.357.269-.699.533-1.026a4.286 4.286 0 0 1 1.029-.898 7.203 7.203 0 0 1 1.44-.7 7.207 7.207 0 0 1 1.552-.389 4.29 4.29 0 0 1 1.366.027c.412.08.768.228 1.067.443.3.216.516.505.648.87l.209.572a1.8 1.8 0 0 1 .062 1.083c-.091.357-.269.699-.533 1.026a4.29 4.29 0 0 1-1.029.898 7.211 7.211 0 0 1-1.439.7zm-1.416-3.891a3.827 3.827 0 0 0-.787.39 3.33 3.33 0 0 0-.602.491 1.71 1.71 0 0 0-.353.527.665.665 0 0 0-.028.489l.123.338a.666.666 0 0 0 .336.357c.17.09.373.148.61.176.235.027.494.023.776-.01.283-.035.567-.104.853-.208a3.83 3.83 0 0 0 .787-.39c.238-.155.438-.319.602-.491.163-.172.28-.348.353-.526a.666.666 0 0 0 .029-.49l-.124-.338a.666.666 0 0 0-.336-.357 1.71 1.71 0 0 0-.609-.176 3.329 3.329 0 0 0-.777.01 3.832 3.832 0 0 0-.853.208zm.384-5.503-2.134.776-.506-1.392 2.133-.777-.89-2.446 1.64-.596 2.609 7.169-1.64.597-1.212-3.331zM38.974 32.641l-.8-2.199 1.652-.601.8 2.199 5.582-2.032.502 1.38-11.085 4.034-.502-1.38 3.85-1.4zm3.846-7.043.644 1.77c.054.147.113.33.177.546.064.218.128.452.19.705.063.252.12.506.174.762.054.255.095.49.125.706l-1.667.4a11.817 11.817 0 0 0-.274-1.36c-.11-.41-.225-.781-.345-1.11l-.157-.43-6.427 2.34-.507-1.393 8.067-2.936zm.407 13.467a8.075 8.075 0 0 1-1.554.403 4.788 4.788 0 0 1-1.4.023 2.656 2.656 0 0 1-1.103-.401 1.712 1.712 0 0 1-.67-.869l-.142-.39a1.713 1.713 0 0 1-.045-1.096c.105-.358.301-.697.587-1.017.287-.32.648-.614 1.087-.882a8.07 8.07 0 0 1 1.45-.69 8.076 8.076 0 0 1 1.555-.404 4.791 4.791 0 0 1 1.399-.023c.425.062.793.196 1.104.402.31.206.534.495.67.868l.142.39c.135.374.15.74.045 1.097a2.653 2.653 0 0 1-.588 1.017 4.79 4.79 0 0 1-1.086.881 8.076 8.076 0 0 1-1.45.69zm-1.302-3.579c-.286.105-.56.231-.82.38-.26.148-.48.305-.661.469-.181.164-.313.335-.396.512a.635.635 0 0 0-.039.5l.066.183a.635.635 0 0 0 .352.358c.177.083.388.13.632.139.244.009.514-.013.809-.066a5.313 5.313 0 0 0 1.691-.616c.26-.149.481-.305.662-.47.18-.163.313-.334.396-.512a.635.635 0 0 0 .038-.5l-.066-.182a.635.635 0 0 0-.351-.358 1.636 1.636 0 0 0-.633-.139 3.765 3.765 0 0 0-.808.066 5.313 5.313 0 0 0-.872.236z" fill="#43C890"/>
    <path fill-rule="evenodd" clip-rule="evenodd" d="M43.88 59.396c-9.502 3.459-19.712 1.022-26.623-5.437l.788-.843c6.606 6.174 16.362 8.5 25.44 5.196 9.078-3.304 15.056-11.357 16.148-20.333l1.146.14c-1.143 9.39-7.398 17.819-16.9 21.277zM9.238 31.76c1.182-9.342 7.423-17.713 16.883-21.156 9.46-3.443 19.62-1.042 26.532 5.355l-.784.846c-6.606-6.114-16.316-8.406-25.354-5.117-9.037 3.29-15.002 11.287-16.133 20.217l-1.144-.145z" fill="#43C890"/>
    <path fill-rule="evenodd" clip-rule="evenodd" d="M5.057 33.069c.75-11.513 8.14-22.059 19.682-26.26 11.543-4.2 23.982-.872 31.958 7.465l-1.668 1.595c-7.366-7.7-18.85-10.768-29.5-6.891-10.65 3.876-17.476 13.608-18.17 24.241l-2.302-.15z" fill="#43C890"/>
    <path d="M21.21 22.718a.96.96 0 0 0 .153-.235.672.672 0 0 0 .06-.226.426.426 0 0 0-.027-.197.331.331 0 0 0-.102-.144l-.06-.05a.461.461 0 0 0-.144-.085.332.332 0 0 0-.171-.006.858.858 0 0 0-.224.088 3.146 3.146 0 0 0-.302.201 2.15 2.15 0 0 1-.345.22.93.93 0 0 1-.282.09.483.483 0 0 1-.232-.024.651.651 0 0 1-.201-.12l-.064-.056a.59.59 0 0 1-.167-.229.64.64 0 0 1-.044-.276.898.898 0 0 1 .075-.3 1.466 1.466 0 0 1 .538-.606c.115-.069.228-.117.336-.144l.082.227c-.105.027-.205.07-.305.131-.099.06-.194.144-.284.248a.895.895 0 0 0-.13.197.62.62 0 0 0-.06.204.45.45 0 0 0 .018.19.36.36 0 0 0 .106.158l.057.048c.043.036.09.063.139.077.049.014.104.016.162.002a.79.79 0 0 0 .205-.079c.078-.04.165-.1.264-.172a2.88 2.88 0 0 1 .376-.243.923.923 0 0 1 .294-.102.485.485 0 0 1 .241.023.737.737 0 0 1 .222.135l.064.056a.58.58 0 0 1 .165.222.68.68 0 0 1 .05.281.868.868 0 0 1-.071.316 1.521 1.521 0 0 1-.592.655c-.14.083-.283.14-.43.169l-.079-.244c.16-.039.296-.09.411-.16.115-.068.212-.148.29-.24h.008z" fill="#43C890"/>
    <path fill-rule="evenodd" clip-rule="evenodd" d="M21.128 23.391c-.16.095-.328.163-.503.197a.23.23 0 0 1-.264-.155l-.08-.244a.23.23 0 0 1 .166-.296c.144-.034.257-.079.347-.133a.933.933 0 0 0 .233-.193.236.236 0 0 1 .034-.032c.041-.052.07-.1.091-.146a.443.443 0 0 0 .041-.15.196.196 0 0 0-.011-.092l-.003-.008a.102.102 0 0 0-.031-.045h-.001l-.06-.05-.003-.003a.237.237 0 0 0-.067-.041.107.107 0 0 0-.05 0 .64.64 0 0 0-.16.065 2.957 2.957 0 0 0-.276.184c-.133.1-.26.183-.383.242a1.157 1.157 0 0 1-.352.111.713.713 0 0 1-.34-.035.878.878 0 0 1-.273-.163l-.066-.056a.817.817 0 0 1-.23-.319.87.87 0 0 1-.06-.375c.008-.128.04-.253.094-.377.055-.126.132-.245.224-.354l.002-.002c.128-.148.26-.27.406-.357l.118.199-.118-.199c.13-.078.264-.136.398-.17a.23.23 0 0 1 .273.146l.082.227a.23.23 0 0 1-.16.303.856.856 0 0 0-.242.104l-.12-.197.12.197a1.007 1.007 0 0 0-.229.202v.001a.67.67 0 0 0-.097.147.39.39 0 0 0-.039.128.218.218 0 0 0 .008.093.13.13 0 0 0 .039.055l-.003-.002-.149.176.154-.173-.002-.001.054.046a.15.15 0 0 0 .053.031.09.09 0 0 0 .046 0l.008-.002a.575.575 0 0 0 .143-.058c.063-.032.138-.082.234-.153l.137.186-.137-.186c.149-.11.283-.197.406-.261l.107.204-.107-.204c.124-.066.248-.11.368-.127a.715.715 0 0 1 .354.035c.105.039.201.1.292.177l.063.054-.001-.001-.148.177.15-.175a.812.812 0 0 1 .227.308.91.91 0 0 1 .07.376 1.097 1.097 0 0 1-.09.4 1.46 1.46 0 0 1-.248.39h.001l-.176-.15.175.151a1.75 1.75 0 0 1-.44.373z" fill="#43C890"/>
    <path d="M23.495 20.48c.18-.148.264-.314.26-.502-.005-.187-.114-.407-.328-.664l-.974-1.178.197-.162 1.035 1.252c.236.284.344.547.328.786-.016.24-.141.457-.37.646-.232.192-.465.272-.705.241-.238-.028-.475-.185-.711-.47l-1.035-1.251.196-.163.974 1.178c.211.257.41.404.592.445.182.042.364-.012.54-.16l.002.003z" fill="#43C890"/>
    <path fill-rule="evenodd" clip-rule="evenodd" d="M23.79 20.835c-.267.222-.563.334-.88.293-.323-.039-.607-.246-.861-.552l-1.035-1.252a.23.23 0 0 1 .03-.325l.197-.162a.23.23 0 0 1 .325.031l.974 1.178c.2.243.357.343.465.367.095.022.205.002.342-.112a.212.212 0 0 1 .023-.017c.12-.107.156-.204.154-.3-.003-.108-.07-.277-.274-.522l-.975-1.179a.23.23 0 0 1 .031-.325l.196-.162a.23.23 0 0 1 .325.03l1.035 1.252c.255.308.403.627.38.95-.02.317-.187.588-.452.807z" fill="#43C890"/>
    <path d="M25.003 16.413c.155-.088.302-.144.443-.173.142-.03.281-.031.421-.011l-.015.241a1.193 1.193 0 0 0-.387.016c-.111.026-.225.072-.343.14a.767.767 0 0 0-.25.22.645.645 0 0 0-.113.285.89.89 0 0 0 .019.33c.027.115.076.235.145.357l.169.294c.163.287.344.467.543.537.2.07.408.046.621-.076a1.029 1.029 0 0 0 .5-.6l.23.103a1.3 1.3 0 0 1-.2.373c-.093.122-.231.236-.414.342-.299.17-.578.205-.838.106-.26-.1-.484-.318-.675-.653l-.162-.285c-.187-.33-.256-.629-.202-.899.052-.27.22-.483.502-.644l.006-.003z" fill="#43C890"/>
    <path fill-rule="evenodd" clip-rule="evenodd" d="M26.486 18.991c-.343.196-.695.251-1.035.121-.326-.125-.585-.39-.792-.754l-.163-.286c-.202-.357-.296-.713-.228-1.056.067-.349.287-.613.614-.8a1.733 1.733 0 0 1 .517-.201 1.43 1.43 0 0 1 .501-.015.23.23 0 0 1 .197.244l-.015.24a.231.231 0 0 1-.253.216.965.965 0 0 0-.313.01c-.085.02-.177.057-.28.115a.538.538 0 0 0-.176.155.412.412 0 0 0-.073.182.659.659 0 0 0 .015.245c.022.09.061.19.121.297l.169.294c.151.265.296.39.42.433.127.044.265.035.43-.059a.803.803 0 0 0 .394-.472.231.231 0 0 1 .313-.137l.23.102a.23.23 0 0 1 .126.285c-.05.15-.128.297-.236.438a1.605 1.605 0 0 1-.481.402l-.002.001z" fill="#43C890"/>
    <path d="M28.275 14.93c.167-.06.322-.093.466-.096.144-.003.284.017.415.06l-.056.237a1.158 1.158 0 0 0-.382-.05 1.366 1.366 0 0 0-.36.077.75.75 0 0 0-.285.175.67.67 0 0 0-.16.262.886.886 0 0 0-.038.328c.007.12.035.245.084.377l.116.319c.11.31.257.518.442.622.186.105.393.115.625.03a1.03 1.03 0 0 0 .374-.22 1.18 1.18 0 0 0 .221-.283l.21.14c-.063.116-.15.228-.261.333a1.35 1.35 0 0 1-.466.265c-.323.118-.606.103-.844-.039s-.421-.394-.554-.759l-.112-.308c-.127-.356-.14-.663-.045-.919.098-.257.3-.438.606-.55l.004-.001z" fill="#43C890"/>
    <path fill-rule="evenodd" clip-rule="evenodd" d="M29.843 17.409a1.576 1.576 0 0 1-.544.314c-.373.135-.73.127-1.041-.058-.3-.178-.51-.484-.653-.878l-.112-.31c-.14-.389-.165-.755-.044-1.077v-.002c.127-.331.388-.554.743-.684l.004-.001c.185-.067.366-.106.54-.11.169-.004.335.02.492.072a.23.23 0 0 1 .152.272l-.056.237a.23.23 0 0 1-.289.168.928.928 0 0 0-.304-.041 1.131 1.131 0 0 0-.296.064.52.52 0 0 0-.197.119.438.438 0 0 0-.106.171.658.658 0 0 0-.027.244c.006.094.028.196.07.312l.117.32c.102.287.222.434.338.499.117.066.253.08.433.015a.801.801 0 0 0 .292-.169.95.95 0 0 0 .179-.228.23.23 0 0 1 .33-.083l.211.14a.23.23 0 0 1 .075.302c-.076.14-.178.272-.307.392z" fill="#43C890"/>
    <path d="m32.377 13.953.04.226-1.323.238.17.938 1.247-.226.04.226-1.247.226.183 1.007 1.348-.243.04.226-1.601.288-.473-2.62 1.577-.284-.001-.002z" fill="#43C890"/>
    <path fill-rule="evenodd" clip-rule="evenodd" d="M33.102 16.53a.23.23 0 0 1-.186.268l-1.602.288a.23.23 0 0 1-.268-.186l-.472-2.62a.23.23 0 0 1 .186-.268l1.544-.279a.23.23 0 0 1 .29.14v.003c.006.017.01.034.013.051l.037.21a.23.23 0 0 1-.186.268l-1.095.198.087.483 1.02-.184a.23.23 0 0 1 .267.187l.041.226a.23.23 0 0 1-.186.267l-1.02.184.1.553 1.122-.201a.231.231 0 0 1 .268.186l.04.226z" fill="#43C890"/>
    <path d="M35.032 16.228a.894.894 0 0 0 .277-.042.63.63 0 0 0 .21-.106.422.422 0 0 0 .129-.15.344.344 0 0 0 .04-.172v-.078a.43.43 0 0 0-.034-.165.313.313 0 0 0-.11-.132.746.746 0 0 0-.212-.106 3.124 3.124 0 0 0-.351-.094 2.237 2.237 0 0 1-.39-.113.949.949 0 0 1-.254-.15.464.464 0 0 1-.135-.19.697.697 0 0 1-.042-.23l-.002-.086a.599.599 0 0 1 .236-.49.876.876 0 0 1 .276-.143c.105-.033.223-.054.348-.055.18-.004.332.016.463.057.128.042.24.092.33.155l-.118.212a1.11 1.11 0 0 0-.671-.19.895.895 0 0 0-.231.033.58.58 0 0 0-.194.09.447.447 0 0 0-.13.14.325.325 0 0 0-.045.186v.074c0 .056.012.108.034.155a.32.32 0 0 0 .106.123c.048.037.114.07.196.1.083.032.183.06.303.084.173.038.316.077.43.121a.924.924 0 0 1 .272.154.475.475 0 0 1 .143.199.75.75 0 0 1 .044.254l.001.085a.6.6 0 0 1-.058.272.683.683 0 0 1-.176.224.876.876 0 0 1-.285.155 1.276 1.276 0 0 1-.385.062 1.457 1.457 0 0 1-.908-.281l.129-.22c.135.094.265.162.393.204.128.042.25.06.373.058l-.002-.004z" fill="#43C890"/>
    <path fill-rule="evenodd" clip-rule="evenodd" d="M34.988 16.001a.903.903 0 0 1-.255-.047 1.298 1.298 0 0 1-.334-.173.23.23 0 0 0-.33.072l-.13.22a.23.23 0 0 0 .06.3 1.688 1.688 0 0 0 1.051.328h.002c.16-.003.313-.026.455-.074.135-.046.256-.11.358-.197a.91.91 0 0 0 .235-.3l.002-.003a.83.83 0 0 0 .08-.374l-.002-.083a.981.981 0 0 0-.057-.33.704.704 0 0 0-.21-.295 1.15 1.15 0 0 0-.339-.194 3.152 3.152 0 0 0-.464-.132h-.001a1.844 1.844 0 0 1-.27-.073.57.57 0 0 1-.142-.073.092.092 0 0 1-.033-.034.144.144 0 0 1-.012-.058V14.398a.094.094 0 0 1 .013-.056l.003-.006a.216.216 0 0 1 .065-.067.35.35 0 0 1 .116-.053.672.672 0 0 1 .173-.025h.001a.882.882 0 0 1 .538.149.23.23 0 0 0 .333-.077l.12-.213a.23.23 0 0 0-.072-.303 1.538 1.538 0 0 0-.39-.183l-.002-.001a1.653 1.653 0 0 0-.536-.068 1.422 1.422 0 0 0-.415.066c-.129.041-.247.102-.347.18a.828.828 0 0 0-.325.678l.002.084a.924.924 0 0 0 .056.306c.04.112.11.205.2.283l.002.002c.085.073.192.138.315.189.122.05.268.092.43.126.14.03.246.059.324.085a.532.532 0 0 1 .147.07l.005.005c.026.02.032.031.033.034.01.024.015.048.015.078v.003l.002.078v.002a.114.114 0 0 1-.017.063.193.193 0 0 1-.066.072.402.402 0 0 1-.133.066l-.006.002a.666.666 0 0 1-.205.03.231.231 0 0 0-.043.004z" fill="#43C890"/>
    <path d="M38.098 16.433c.101.015.195.017.282.005a.674.674 0 0 0 .223-.069.407.407 0 0 0 .221-.29l.012-.075a.446.446 0 0 0-.005-.167.336.336 0 0 0-.086-.15.733.733 0 0 0-.194-.141 3.046 3.046 0 0 0-.33-.15 2.06 2.06 0 0 1-.366-.177.92.92 0 0 1-.224-.19.517.517 0 0 1-.104-.21.703.703 0 0 1-.004-.235l.014-.084a.575.575 0 0 1 .106-.262.64.64 0 0 1 .211-.182.884.884 0 0 1 .295-.095 1.455 1.455 0 0 1 .798.134c.12.062.22.132.3.207l-.15.19a1.08 1.08 0 0 0-.271-.188 1.202 1.202 0 0 0-.361-.11.882.882 0 0 0-.236-.005.613.613 0 0 0-.205.058.446.446 0 0 0-.151.116.346.346 0 0 0-.076.176l-.01.072a.333.333 0 0 0 .09.296c.042.043.1.086.175.133.075.044.172.087.287.131.163.066.299.127.403.19a.89.89 0 0 1 .243.196c.057.07.093.14.109.218a.71.71 0 0 1 .003.257l-.014.084a.565.565 0 0 1-.103.256.67.67 0 0 1-.21.192.862.862 0 0 1-.308.107c-.118.018-.248.02-.39-.003a1.518 1.518 0 0 1-.477-.153 1.392 1.392 0 0 1-.37-.275l.164-.195c.118.114.236.201.354.264.119.062.239.102.358.12l-.003.004z" fill="#43C890"/>
    <path fill-rule="evenodd" clip-rule="evenodd" d="M38.173 16.21a.733.733 0 0 0 .175 0h.002a.443.443 0 0 0 .147-.045.192.192 0 0 0 .069-.056.177.177 0 0 0 .03-.068l.012-.074a.215.215 0 0 0-.002-.08v-.001a.223.223 0 0 0-.03-.042.512.512 0 0 0-.133-.094l-.004-.002a2.849 2.849 0 0 0-.302-.137 2.282 2.282 0 0 1-.406-.196c-.11-.07-.206-.15-.28-.24a.747.747 0 0 1-.149-.305l-.001-.007a.936.936 0 0 1-.007-.31l.001-.006.014-.083a.805.805 0 0 1 .15-.364.869.869 0 0 1 .286-.247c.11-.059.233-.1.37-.12a1.684 1.684 0 0 1 .936.157c.138.071.255.153.354.244a.23.23 0 0 1 .023.313l-.152.19a.23.23 0 0 1-.34.022.85.85 0 0 0-.214-.148.974.974 0 0 0-.293-.087.65.65 0 0 0-.174-.005h-.002a.385.385 0 0 0-.128.036.217.217 0 0 0-.075.057.115.115 0 0 0-.025.06l-.01.073-.002.006a.106.106 0 0 0 .004.059c0 .001.004.014.027.039a.703.703 0 0 0 .127.093c.059.035.142.073.25.115h.003c.166.067.315.134.435.206.121.071.225.152.304.249a.726.726 0 0 1 .157.318.938.938 0 0 1 .004.34l-.013.082a.798.798 0 0 1-.144.355.901.901 0 0 1-.28.256 1.093 1.093 0 0 1-.39.137 1.747 1.747 0 0 1-1.01-.18 1.623 1.623 0 0 1-.43-.32.23.23 0 0 1-.009-.308l.165-.195a.23.23 0 0 1 .337-.017c.105.102.205.175.3.225a.895.895 0 0 0 .285.096.217.217 0 0 1 .038.01z" fill="#43C890"/>
    <path d="M49.102 47.073a.966.966 0 0 0-.153.234.674.674 0 0 0-.06.226.428.428 0 0 0 .027.197.334.334 0 0 0 .102.144l.06.05c.046.04.095.068.143.085.05.016.108.02.172.006a.861.861 0 0 0 .223-.089 3.14 3.14 0 0 0 .303-.2c.127-.096.24-.17.345-.22a.933.933 0 0 1 .282-.09.483.483 0 0 1 .232.024c.07.026.136.066.2.12l.065.056c.076.066.132.14.167.229a.64.64 0 0 1 .044.276.895.895 0 0 1-.075.3 1.467 1.467 0 0 1-.538.606 1.253 1.253 0 0 1-.336.144l-.083-.227c.106-.027.206-.07.306-.131.099-.06.193-.144.283-.248a.9.9 0 0 0 .13-.197.618.618 0 0 0 .06-.204.448.448 0 0 0-.017-.19.36.36 0 0 0-.106-.158l-.057-.048a.377.377 0 0 0-.139-.077.32.32 0 0 0-.163-.002.79.79 0 0 0-.204.079c-.078.04-.165.1-.264.172a2.886 2.886 0 0 1-.376.243.923.923 0 0 1-.294.102.484.484 0 0 1-.242-.023.739.739 0 0 1-.221-.135l-.064-.056a.581.581 0 0 1-.165-.222.679.679 0 0 1-.05-.281.866.866 0 0 1 .071-.316 1.518 1.518 0 0 1 .592-.655c.14-.083.283-.14.43-.169l.078.244c-.16.039-.296.09-.41.16a1.16 1.16 0 0 0-.291.24h-.007z" fill="#43C890"/>
    <path fill-rule="evenodd" clip-rule="evenodd" d="M49.184 46.399c.16-.095.328-.162.503-.197a.23.23 0 0 1 .264.155l.08.244a.23.23 0 0 1-.166.296c-.144.034-.257.079-.347.133a.929.929 0 0 0-.233.193.236.236 0 0 1-.034.032.687.687 0 0 0-.091.146.444.444 0 0 0-.041.15.196.196 0 0 0 .014.1c.007.02.018.034.031.045h.001l.06.05.002.002a.237.237 0 0 0 .068.042c.01.003.026.005.05 0a.633.633 0 0 0 .16-.065c.073-.042.165-.102.276-.184.133-.1.26-.183.383-.242.121-.058.238-.096.352-.111a.714.714 0 0 1 .34.035c.101.037.19.092.273.163l.066.056c.098.086.18.19.23.32 0 0 0-.001 0 0a.87.87 0 0 1 .06.374c-.008.127-.04.253-.094.377a1.44 1.44 0 0 1-.224.354l-.002.002a1.692 1.692 0 0 1-.406.356l-.118-.198.118.199c-.13.078-.264.136-.398.17a.23.23 0 0 1-.273-.145l-.082-.228a.231.231 0 0 1 .16-.303.855.855 0 0 0 .242-.104l.12.197-.12-.197c.074-.045.151-.112.229-.202v-.001a.667.667 0 0 0 .097-.147.389.389 0 0 0 .039-.128.218.218 0 0 0-.008-.093.128.128 0 0 0-.039-.055l.003.002.149-.176-.154.173.002.001-.054-.046a.149.149 0 0 0-.053-.031.09.09 0 0 0-.046 0 .573.573 0 0 0-.15.06h-.001a1.89 1.89 0 0 0-.234.153l-.137-.186.137.186c-.149.11-.282.197-.406.261l-.107-.204.107.205a1.154 1.154 0 0 1-.368.126.715.715 0 0 1-.354-.035.967.967 0 0 1-.291-.176l-.001-.001-.063-.054.001.001.148-.177-.15.175a.812.812 0 0 1-.227-.308.91.91 0 0 1-.07-.376c.004-.135.035-.267.09-.4a1.46 1.46 0 0 1 .248-.39h-.001l.176.15-.175-.151c.13-.153.277-.277.44-.373z" fill="#43C890"/>
    <path d="M46.816 49.31c-.179.148-.263.314-.259.502.005.187.114.407.328.664l.974 1.178-.197.162-1.035-1.252c-.236-.284-.344-.547-.328-.786.016-.24.141-.457.37-.645.232-.193.465-.273.705-.242.238.028.475.185.711.47l1.035 1.251-.196.163-.974-1.178c-.211-.257-.41-.404-.592-.445-.182-.042-.364.012-.54.16l-.002-.002z" fill="#43C890"/>
    <path fill-rule="evenodd" clip-rule="evenodd" d="M46.521 48.954c.268-.222.563-.334.881-.293.322.039.607.246.86.552h.001l1.035 1.252a.23.23 0 0 1-.03.324l-.197.163a.23.23 0 0 1-.325-.031l-.974-1.178c-.2-.243-.357-.343-.465-.367-.096-.022-.206-.002-.342.112a.238.238 0 0 1-.023.017c-.12.107-.156.205-.154.3.002.108.07.277.274.522l.975 1.179a.23.23 0 0 1-.031.325l-.197.162a.23.23 0 0 1-.324-.03L46.45 50.71c-.256-.308-.403-.627-.381-.95.021-.317.188-.588.452-.807z" fill="#43C890"/>
    <path d="M45.309 53.377a1.512 1.512 0 0 1-.443.173c-.142.03-.281.031-.421.011l.015-.241c.148.015.276.01.387-.016.111-.026.225-.072.343-.14a.768.768 0 0 0 .25-.22.645.645 0 0 0 .113-.285.89.89 0 0 0-.019-.33 1.378 1.378 0 0 0-.145-.357l-.169-.294c-.163-.287-.344-.467-.543-.537-.2-.07-.408-.046-.621.076a1.03 1.03 0 0 0-.5.6l-.23-.103c.042-.126.107-.25.2-.373.093-.122.231-.236.414-.342.299-.17.578-.205.838-.106.26.1.484.318.675.653l.162.285c.187.33.256.629.202.899-.052.27-.22.483-.502.645l-.006.002z" fill="#43C890"/>
    <path fill-rule="evenodd" clip-rule="evenodd" d="M43.825 50.799c.344-.196.696-.251 1.035-.121.327.125.586.39.793.754l.163.286c.202.358.296.713.227 1.056-.067.35-.286.613-.613.8a1.735 1.735 0 0 1-.517.202c-.17.036-.337.037-.501.014a.23.23 0 0 1-.198-.243l.016-.242a.23.23 0 0 1 .253-.215c.13.013.232.008.312-.01.085-.02.178-.057.28-.115a.539.539 0 0 0 .177-.155.414.414 0 0 0 .072-.182.66.66 0 0 0-.015-.245 1.14 1.14 0 0 0-.12-.297l-.169-.294c-.151-.265-.296-.39-.42-.433-.128-.044-.266-.035-.43.059a.801.801 0 0 0-.394.472.23.23 0 0 1-.313.138l-.231-.103a.23.23 0 0 1-.125-.285c.05-.15.128-.297.236-.438.117-.154.281-.287.48-.402l.002-.001z" fill="#43C890"/>
    <path d="M42.037 54.86c-.167.06-.322.093-.466.096a1.239 1.239 0 0 1-.415-.06l.056-.237c.143.041.271.056.382.05.113-.006.233-.033.36-.077a.75.75 0 0 0 .285-.175.67.67 0 0 0 .16-.262.888.888 0 0 0 .038-.328 1.327 1.327 0 0 0-.084-.377l-.116-.319c-.11-.31-.257-.518-.442-.622-.185-.105-.393-.115-.625-.03-.158.057-.282.129-.374.22a1.18 1.18 0 0 0-.221.283l-.21-.14c.063-.115.15-.228.261-.333a1.35 1.35 0 0 1 .466-.265c.323-.118.606-.103.844.039s.421.394.554.759l.112.308c.127.356.14.663.045.919-.098.257-.3.438-.606.55l-.004.001z" fill="#43C890"/>
    <path fill-rule="evenodd" clip-rule="evenodd" d="M40.468 52.381c.142-.132.327-.234.545-.314.373-.135.73-.127 1.041.058.3.178.51.484.653.878l.112.31c.14.389.165.755.044 1.077v.002c-.128.331-.388.554-.743.683l-.004.002a1.696 1.696 0 0 1-.54.11 1.467 1.467 0 0 1-.492-.072.23.23 0 0 1-.153-.272l.057-.237a.23.23 0 0 1 .288-.168.932.932 0 0 0 .305.041c.086-.005.185-.026.296-.064a.52.52 0 0 0 .197-.118.44.44 0 0 0 .105-.172.66.66 0 0 0 .027-.244 1.098 1.098 0 0 0-.07-.312l-.116-.32c-.102-.287-.223-.434-.339-.499-.117-.066-.253-.08-.432-.014a.803.803 0 0 0-.471.396.231.231 0 0 1-.33.083l-.211-.14a.23.23 0 0 1-.075-.302c.075-.14.178-.272.306-.392z" fill="#43C890"/>
    <path d="m37.935 55.837-.04-.226 1.323-.238-.17-.938-1.247.225-.04-.225 1.247-.226-.183-1.007-1.348.243-.04-.226 1.601-.288.473 2.62-1.577.284.001.002z" fill="#43C890"/>
    <path fill-rule="evenodd" clip-rule="evenodd" d="M37.21 53.26a.23.23 0 0 1 .186-.268l1.602-.288a.23.23 0 0 1 .268.186l.472 2.62a.23.23 0 0 1-.186.269l-1.544.278a.23.23 0 0 1-.29-.14v-.003a.23.23 0 0 1-.013-.051l-.037-.21a.23.23 0 0 1 .186-.268l1.096-.198-.088-.483-1.02.184a.23.23 0 0 1-.267-.186l-.04-.226a.23.23 0 0 1 .185-.268l1.02-.184-.1-.553-1.122.202a.23.23 0 0 1-.268-.187l-.04-.226z" fill="#43C890"/>
    <path d="M35.28 53.562a.894.894 0 0 0-.277.042.628.628 0 0 0-.21.106.423.423 0 0 0-.129.15.344.344 0 0 0-.04.172v.078a.43.43 0 0 0 .034.165c.02.049.056.092.11.132.05.04.123.075.212.106.09.032.207.063.351.094.154.032.286.07.39.113.104.043.19.096.254.151.065.057.11.12.135.189.025.07.041.147.042.23l.002.086a.598.598 0 0 1-.237.49.878.878 0 0 1-.275.143 1.192 1.192 0 0 1-.348.055 1.428 1.428 0 0 1-.463-.057 1.303 1.303 0 0 1-.33-.155l.118-.212a1.111 1.111 0 0 0 .671.19.899.899 0 0 0 .231-.033.58.58 0 0 0 .194-.09c.054-.039.099-.085.13-.14a.325.325 0 0 0 .045-.186v-.074a.373.373 0 0 0-.034-.155.319.319 0 0 0-.106-.123.778.778 0 0 0-.196-.1 2.081 2.081 0 0 0-.303-.084 2.936 2.936 0 0 1-.43-.121.926.926 0 0 1-.272-.154.474.474 0 0 1-.143-.199.749.749 0 0 1-.044-.254l-.001-.085a.599.599 0 0 1 .058-.272c.04-.084.1-.159.176-.224a.876.876 0 0 1 .285-.155c.114-.039.242-.058.385-.062a1.456 1.456 0 0 1 .908.281l-.129.22a1.526 1.526 0 0 0-.393-.204 1.112 1.112 0 0 0-.373-.058l.002.004z" fill="#43C890"/>
    <path fill-rule="evenodd" clip-rule="evenodd" d="M35.324 53.789a.91.91 0 0 1 .255.047 1.3 1.3 0 0 1 .334.173.231.231 0 0 0 .33-.072l.129-.22a.23.23 0 0 0-.06-.3 1.684 1.684 0 0 0-1.051-.328 1.5 1.5 0 0 0-.456.074c-.136.046-.256.11-.358.197a.913.913 0 0 0-.236.3l-.001.003a.83.83 0 0 0-.08.374l.001.083c.001.12.022.232.058.33.044.121.118.216.21.295.093.08.208.143.339.194.13.05.285.093.464.132h.001c.114.024.202.048.269.074a.571.571 0 0 1 .143.072.093.093 0 0 1 .032.034.144.144 0 0 1 .013.058V55.392a.094.094 0 0 1-.013.056l-.003.006a.217.217 0 0 1-.065.067.35.35 0 0 1-.117.053.667.667 0 0 1-.172.025h-.001a.88.88 0 0 1-.538-.149.23.23 0 0 0-.333.077l-.12.213a.23.23 0 0 0 .072.303c.115.079.248.137.39.183l.002.001c.158.05.336.073.536.068.148-.001.288-.026.414-.066.13-.041.247-.102.347-.18a.83.83 0 0 0 .325-.678l-.001-.084a.922.922 0 0 0-.056-.306.693.693 0 0 0-.2-.283l-.002-.002a1.177 1.177 0 0 0-.316-.189 2.463 2.463 0 0 0-.43-.126 2.889 2.889 0 0 1-.323-.085.529.529 0 0 1-.152-.075c-.027-.02-.032-.031-.033-.034a.199.199 0 0 1-.016-.078v-.003l-.001-.078v-.002a.113.113 0 0 1 .016-.063.195.195 0 0 1 .061-.068l.006-.004a.4.4 0 0 1 .133-.066l.006-.002a.663.663 0 0 1 .205-.03.223.223 0 0 0 .043-.004z" fill="#43C890"/>
    <path d="M32.214 53.356a1.01 1.01 0 0 0-.282-.005.676.676 0 0 0-.223.069.407.407 0 0 0-.221.29l-.012.075a.445.445 0 0 0 .005.167c.011.053.041.1.086.15a.73.73 0 0 0 .194.141c.083.046.195.096.33.15.148.057.27.116.366.177.096.06.17.124.224.19a.517.517 0 0 1 .104.21.704.704 0 0 1 .004.235l-.014.084a.574.574 0 0 1-.106.262.639.639 0 0 1-.211.182.882.882 0 0 1-.295.095 1.458 1.458 0 0 1-.798-.135 1.32 1.32 0 0 1-.3-.206l.15-.19c.077.072.166.136.271.188.105.053.224.088.361.11.081.012.158.013.236.005a.616.616 0 0 0 .205-.058c.06-.03.11-.067.151-.116a.346.346 0 0 0 .077-.175l.01-.073a.334.334 0 0 0-.09-.296.916.916 0 0 0-.176-.133 2.035 2.035 0 0 0-.287-.131 2.842 2.842 0 0 1-.403-.19.887.887 0 0 1-.243-.196.496.496 0 0 1-.109-.218.713.713 0 0 1-.003-.257l.014-.084a.567.567 0 0 1 .103-.256.667.667 0 0 1 .21-.192.862.862 0 0 1 .308-.107c.118-.019.248-.02.39.003.174.028.334.077.477.153.145.075.267.168.37.275l-.164.195a1.546 1.546 0 0 0-.354-.264 1.124 1.124 0 0 0-.358-.12l.003-.004z" fill="#43C890"/>
    <path fill-rule="evenodd" clip-rule="evenodd" d="M32.139 53.58a.723.723 0 0 0-.176 0 .442.442 0 0 0-.148.045.178.178 0 0 0-.1.124l-.011.074a.217.217 0 0 0 .002.08v.001a.224.224 0 0 0 .03.042.513.513 0 0 0 .133.094l.003.002c.07.039.172.084.303.137.156.06.293.124.405.196.11.07.207.15.28.24a.745.745 0 0 1 .15.312c.02.101.022.205.007.31v.006l-.014.083a.805.805 0 0 1-.15.364.87.87 0 0 1-.286.247c-.11.06-.233.1-.37.12a1.686 1.686 0 0 1-.936-.157 1.554 1.554 0 0 1-.354-.244.23.23 0 0 1-.023-.313l.151-.19a.23.23 0 0 1 .341-.023.852.852 0 0 0 .213.15c.08.039.174.068.293.087.061.009.118.01.175.004h.002a.383.383 0 0 0 .128-.036.217.217 0 0 0 .075-.057.118.118 0 0 0 .025-.06l.01-.073.001-.006a.105.105 0 0 0-.003-.059.112.112 0 0 0-.027-.039.71.71 0 0 0-.127-.093 1.829 1.829 0 0 0-.251-.115h-.003a3.075 3.075 0 0 1-.435-.206 1.117 1.117 0 0 1-.304-.249.728.728 0 0 1-.156-.318.943.943 0 0 1-.005-.34l.014-.082a.796.796 0 0 1 .143-.355.9.9 0 0 1 .281-.257c.114-.067.244-.113.39-.136a1.75 1.75 0 0 1 1.01.18c.166.086.309.194.429.32a.23.23 0 0 1 .01.309l-.165.195a.23.23 0 0 1-.337.016 1.326 1.326 0 0 0-.301-.225.893.893 0 0 0-.285-.096.237.237 0 0 1-.038-.01z" fill="#43C890"/>
    <path fill-rule="evenodd" clip-rule="evenodd" d="M64.943 36.932c-.75 11.513-8.14 22.058-19.682 26.26-11.542 4.2-23.985.873-31.958-7.465l1.668-1.595c7.363 7.7 18.85 10.767 29.5 6.89 10.65-3.876 17.477-13.607 18.17-24.24l2.302.15z" fill="#43C890"/>
</svg>
