<svg width="18" height="18" viewBox="0 0 18 18" fill="none" xmlns="http://www.w3.org/2000/svg">
    <path d="m15.37 14.429-.738-1.863c.848-.399 1.392-1.062 1.392-1.827 0-1.248-1.448-2.226-3.296-2.226-.91 0-1.723.238-2.314.627a1.873 1.873 0 0 0-1.57-1.263c.08-.264.12-.566.12-.91 0-.68-.154-1.196-.47-1.576-.382-.46-.988-.694-1.799-.695L5.677 3H1.5v.879h3.68l.59.984c-.48.16-1.006.436-1.576.825-.69.472-1.188.938-1.21.958l-.34.32.34.32c.022.02.52.487 1.21.958.963.658 1.804.992 2.5.992.05 0 .1 0 .15-.003a1.862 1.862 0 0 0 .122 1.323l-.34.848-1.428-.714-1.495 3.739H2.57v.878h1.727l1.361-3.404 1.429.714.53-1.323a1.857 1.857 0 0 0 1.94.068l1.578 3.945h1.659v-.879H11.73l-.711-1.777a4.607 4.607 0 0 0 1.708.313c.376 0 .736-.04 1.07-.116l.975 2.46H16.5v-.88h-1.13zM6.375 6.75h-1.25v-1.1h1.25v1.1z" fill="#141414"/>
</svg>
