<svg width="18" height="18" viewBox="0 0 18 18" fill="none" xmlns="http://www.w3.org/2000/svg">
    <path d="m15.37 15.179-.738-1.863c.848-.399 1.392-1.062 1.392-1.827 0-1.248-1.448-2.226-3.296-2.226-.91 0-1.723.238-2.314.627a1.873 1.873 0 0 0-1.57-1.263c.08-.264.12-.566.12-.91 0-.68-.154-1.196-.47-1.576-.382-.46-.988-.694-1.799-.695L5.677 3.75H1.5v.879h3.68l.59.984c-.48.16-1.006.436-1.576.825-.69.472-1.188.938-1.21.958l-.34.32.34.32c.022.02.52.487 1.21.958.963.658 1.804.992 2.5.992.05 0 .1 0 .15-.003a1.862 1.862 0 0 0 .122 1.323l-.34.848-1.428-.714-1.495 3.739H2.57v.878h1.727l1.361-3.404 1.429.714.53-1.323a1.857 1.857 0 0 0 1.94.068l1.578 3.945h1.659v-.878H11.73L11.02 13.4a4.607 4.607 0 0 0 1.708.313c.376 0 .736-.04 1.07-.116l.975 2.46H16.5v-.88h-1.13zM6.375 7.5h-1.25V6.4h1.25v1.1z" fill="orange"/>
    <path d="m11.122 6.094-.01-.007.002-.027a.14.14 0 0 1 .043-.087.14.14 0 0 1 .09-.043c.011 0 .02.001.023.003a.014.014 0 0 1 .006.003.015.015 0 0 1 .003.006.062.062 0 0 1 .003.023.14.14 0 0 1-.044.09.144.144 0 0 1-.079.042c-.024.004-.036-.002-.037-.003zm-1.58.037c.082.082.171.15.265.206l-.276.036-.19.025c-.172.023-.357.05-.52.094l-.129.035-.095.094-.178.179-1.362-1.362.178-.179.095-.094.035-.13c.043-.162.071-.348.094-.519l.024-.19.037-.276c.056.094.124.182.205.264.419.418 1.021.489 1.528.29-.2.506-.129 1.109.29 1.527zM7.798 2.743l-.028.002-.006-.01c-.001-.002-.007-.013-.004-.037a.144.144 0 0 1 .043-.08.14.14 0 0 1 .09-.043l.023.002a.014.014 0 0 1 .006.004.014.014 0 0 1 .003.006.061.061 0 0 1 .003.023.14.14 0 0 1-.044.09.14.14 0 0 1-.086.043zm2.007 1.345h-.036l.001-.035a.14.14 0 0 1 .043-.09.14.14 0 0 1 .09-.044c.012 0 .02.002.023.003a.014.014 0 0 1 .006.003.014.014 0 0 1 .004.006.061.061 0 0 1 .002.024.14.14 0 0 1-.043.09.139.139 0 0 1-.09.043z" stroke="orange"/>
</svg>
