<svg width="70" height="70" viewBox="0 0 70 70" fill="none" xmlns="http://www.w3.org/2000/svg">
    <path fill-rule="evenodd" clip-rule="evenodd" d="m69.682 35.828-60.718 22.1-.79-2.17L68.893 33.66l.79 2.169zM61.79 14.142l-60.72 22.1-.789-2.169 60.72-22.1.788 2.169z" fill="#C79058"/>
    <path d="m34.75 35.872.507 1.392-4.71 1.714 1.378 3.786-1.652.602-1.378-3.786-4.723 1.719-.507-1.393 11.085-4.034zm-3.796-5.735 1.86 5.113-8.066 2.936-1.861-5.113 8.067-2.936zm-5.069 6.073 4.788-1.742-.857-2.356-4.788 1.743.857 2.355zM39.227 36.836l-.606-1.666c-.411-.076-.76-.219-1.048-.429a1.77 1.77 0 0 1-.626-.848l-.18-.494a1.78 1.78 0 0 1-.063-1.045c.084-.35.258-.681.523-.993a4.603 4.603 0 0 1 1.016-.871c.413-.269.889-.5 1.426-.696a6.985 6.985 0 0 1 1.534-.382 4.59 4.59 0 0 1 1.345.012 2.4 2.4 0 0 1 1.039.425c.289.214.497.494.623.841l.18.495c.13.355.15.707.06 1.054-.09.347-.264.68-.52 1l.605 1.665 2.889-1.052.497 1.367-11.085 4.034-.498-1.366 2.889-1.051zm.598-9.206 3.682-1.34.502 1.379-9.03 3.287-.502-1.38 3.683-1.34-.517-1.418 1.666-.606.516 1.418zm.332 3.504c-.676.246-1.164.539-1.463.879-.299.34-.402.635-.31.886l.123.339c.091.251.36.41.808.479.447.068 1.009-.021 1.685-.267.677-.247 1.164-.54 1.463-.879.299-.34.403-.635.311-.887l-.123-.338c-.092-.252-.36-.411-.808-.48-.447-.067-1.01.021-1.686.268zm1.331 3.656c-.382.139-.742.24-1.082.305l.421 1.158 2.108-.767-.422-1.158c-.319.175-.66.33-1.025.462z" fill="#C79058"/>
    <path fill-rule="evenodd" clip-rule="evenodd" d="M43.877 59.397c-9.502 3.459-19.71 1.022-26.622-5.437l.788-.843c6.606 6.174 16.362 8.5 25.44 5.196C52.56 55.009 58.539 46.956 59.63 37.98l1.145.14c-1.142 9.39-7.397 17.819-16.899 21.277zM9.238 31.76c1.182-9.342 7.423-17.713 16.883-21.156 9.46-3.443 19.62-1.042 26.532 5.355l-.784.846c-6.606-6.114-16.316-8.406-25.354-5.117-9.037 3.29-15.002 11.287-16.133 20.217l-1.144-.145z" fill="#C79058"/>
    <path fill-rule="evenodd" clip-rule="evenodd" d="M5.054 33.07c.75-11.513 8.141-22.059 19.683-26.26 11.542-4.2 23.985-.873 31.958 7.465l-1.668 1.595c-7.364-7.701-18.85-10.768-29.5-6.891C14.875 12.855 8.05 22.587 7.356 33.22l-2.303-.15z" fill="#C79058"/>
    <path d="M17.962 25.663c-.006.017-.013.032-.02.047-.006.014-.016.028-.023.043l-.316.584 1.01.546-.124.227-2.342-1.267.437-.81a1.17 1.17 0 0 1 .215-.287.781.781 0 0 1 .258-.16.61.61 0 0 1 .282-.034c.097.009.189.039.28.087l.049.026a.688.688 0 0 1 .366.744l1.317.102-.132.245-1.258-.097.001.004zm-1.486.065.923.499.277-.514c.11-.204.15-.37.119-.504a.48.48 0 0 0-.26-.316l-.034-.017a.467.467 0 0 0-.393-.041c-.125.045-.239.16-.336.343l-.297.548v.002z" fill="#C79058"/>
    <path fill-rule="evenodd" clip-rule="evenodd" d="M18.691 27.22a.23.23 0 0 1-.312.092l-2.342-1.267a.23.23 0 0 1-.094-.312l.437-.81c.074-.136.162-.25.259-.344l.002-.002.002-.002c.1-.091.212-.162.335-.206a.843.843 0 0 1 .385-.047.977.977 0 0 1 .363.112l.003.002.049.026a.918.918 0 0 1 .492.733l1.099.086a.23.23 0 0 1 .185.34l-.132.244a.23.23 0 0 1-.22.12l-1.101-.084-.185.342.806.437a.23.23 0 0 1 .093.313l-.124.227zm-1.218-1.616c.1-.188.109-.292.097-.343-.014-.056-.049-.113-.144-.165l-.033-.017c-.09-.048-.152-.047-.206-.028-.05.018-.127.077-.212.236l-.188.347.518.28.168-.31z" fill="#C79058"/>
    <path d="m18.974 21.512.181.14-.825 1.06.751.586.779-.998.18.14-.777 1 .806.628.842-1.08.181.14-1 1.285-2.101-1.634.984-1.265-.001-.002z" fill="#C79058"/>
    <path fill-rule="evenodd" clip-rule="evenodd" d="M20.273 24.556a.23.23 0 0 1-.323.04l-2.1-1.635a.23.23 0 0 1-.041-.323l.966-1.242a.231.231 0 0 1 .34-.066l.181.14a.231.231 0 0 1 .041.325l-.683.877.387.303.637-.817a.23.23 0 0 1 .323-.04l.181.14a.231.231 0 0 1 .041.324l-.636.819.442.344.7-.898a.23.23 0 0 1 .323-.04l.181.14a.23.23 0 0 1 .041.324l-1 1.285z" fill="#C79058"/>
    <path d="m20.04 20.325.21-.192 2.223 1.211h.003L21.46 19.02l.199-.182 1.096 2.607-.218.199-2.497-1.321h-.002z" fill="#C79058"/>
    <path fill-rule="evenodd" clip-rule="evenodd" d="M22.695 21.815a.23.23 0 0 1-.264.034l-2.474-1.309a.23.23 0 0 1-.073-.386l.21-.192a.23.23 0 0 1 .266-.032l1.636.891-.746-1.707a.23.23 0 0 1 .055-.263l.198-.182a.23.23 0 0 1 .37.08l1.096 2.607a.23.23 0 0 1-.057.26l-.217.199z" fill="#C79058"/>
    <path d="M23.734 17.319c.14-.088.277-.143.416-.166a.891.891 0 0 1 .403.027c.13.04.256.109.373.209.118.1.227.224.324.378l.196.309c.098.154.166.306.205.453.039.148.049.29.03.427a.877.877 0 0 1-.146.375 1.09 1.09 0 0 1-.326.305c-.14.088-.277.143-.416.166a.886.886 0 0 1-.402-.026 1.068 1.068 0 0 1-.373-.208 1.66 1.66 0 0 1-.325-.378l-.196-.309a1.63 1.63 0 0 1-.206-.453 1.051 1.051 0 0 1-.032-.423.883.883 0 0 1 .149-.376c.077-.116.188-.218.328-.306l-.002-.004zm1.348 2.117a.704.704 0 0 0 .346-.514c.028-.213-.044-.457-.216-.727l-.172-.27c-.172-.27-.36-.44-.566-.504a.704.704 0 0 0-.613.092.704.704 0 0 0-.345.514c-.028.214.044.458.215.727l.172.271c.172.27.362.439.567.504.205.065.41.035.612-.093z" fill="#C79058"/>
    <path fill-rule="evenodd" clip-rule="evenodd" d="M23.573 17.154a.235.235 0 0 1 .039-.03c.16-.102.326-.17.5-.199h.004c.168-.026.338-.018.505.035.163.049.316.135.455.252.136.116.26.259.37.43l.195.31c.109.17.187.345.233.518.046.175.059.347.035.517v.002a1.109 1.109 0 0 1-.184.472c-.098.143-.23.267-.394.37a1.365 1.365 0 0 1-.5.198 1.12 1.12 0 0 1-.506-.032 1.3 1.3 0 0 1-.454-.251l-.003-.002a1.89 1.89 0 0 1-.37-.43l-.195-.31a1.858 1.858 0 0 1-.235-.517 1.28 1.28 0 0 1-.037-.516c.025-.17.088-.329.186-.471a1.27 1.27 0 0 1 .356-.346zm.967 2.155a.475.475 0 0 0 .419-.068.475.475 0 0 0 .24-.35c.018-.14-.026-.328-.181-.572l-.172-.27c0-.001 0 0 0 0-.157-.246-.308-.366-.442-.409a.474.474 0 0 0-.42.068.475.475 0 0 0-.24.35c-.017.14.027.329.182.572l.172.271c.157.245.308.366.442.408z" fill="#C79058"/>
    <path d="M27.122 15.575c.165-.067.318-.106.462-.116.143-.01.284.004.418.042l-.047.237a1.187 1.187 0 0 0-.385-.034 1.23 1.23 0 0 0-.356.095.688.688 0 0 0-.424.454.86.86 0 0 0-.023.33c.014.118.047.244.099.372l.129.314c.126.306.282.506.471.6.19.095.398.096.625.003.154-.063.275-.142.364-.235.089-.094.156-.192.21-.295l.216.13c-.057.119-.14.235-.245.344-.108.11-.257.207-.454.286-.318.13-.6.13-.845 0-.244-.132-.438-.375-.585-.732l-.125-.303c-.145-.35-.173-.657-.088-.916.087-.26.28-.453.579-.575l.004-.001z" fill="#C79058"/>
    <path fill-rule="evenodd" clip-rule="evenodd" d="M28.269 18.316c-.365.15-.722.16-1.04-.01h-.001c-.307-.166-.53-.46-.69-.847m0 0-.125-.303c-.158-.383-.201-.748-.094-1.076v-.002c.113-.334.361-.572.712-.715.003 0 .005-.002.008-.003a1.74 1.74 0 0 1 .527-.13c.171-.013.338.005.497.049a.23.23 0 0 1 .165.266l-.046.238a.23.23 0 0 1-.278.181.963.963 0 0 0-.31-.03h-.002a1.002 1.002 0 0 0-.288.079l-.003.001a.52.52 0 0 0-.192.128.458.458 0 0 0-.098.176.632.632 0 0 0-.015.239c.011.095.038.2.084.312l.128.313c.117.283.244.423.36.48l.002.002c.12.06.257.067.433-.005a.809.809 0 0 0 .456-.423.231.231 0 0 1 .324-.091l.216.13a.23.23 0 0 1 .09.298c-.07.144-.168.28-.287.404l-.001.001c-.135.139-.314.25-.532.338" fill="#C79058"/>
    <path d="m32.197 16.916-.27.06-.467-.744-1.1.243-.117.873-.26.057.39-2.814.285-.064 1.539 2.387v.002zm-1.806-.678.94-.21-.407-.647c-.027-.04-.05-.078-.074-.116l-.077-.124c-.027-.047-.058-.097-.09-.154-.033-.057-.072-.123-.116-.203-.006.09-.011.166-.017.231-.005.066-.01.125-.016.178a3.359 3.359 0 0 1-.018.147c-.006.044-.011.09-.019.137l-.104.76h-.002z" fill="#C79058"/>
    <path fill-rule="evenodd" clip-rule="evenodd" d="M32.4 17.027a.23.23 0 0 1-.153.114l-.271.06a.23.23 0 0 1-.245-.103l-.38-.606-.784.173-.096.713a.23.23 0 0 1-.179.195l-.259.057a.23.23 0 0 1-.278-.257l.39-2.814a.23.23 0 0 1 .178-.193l.284-.064a.23.23 0 0 1 .244.1l1.54 2.387a.22.22 0 0 1 .022.046l.001.002a.231.231 0 0 1-.014.19zm-1.438-1.153-.232-.368c0-.002-.002-.003-.003-.005l-.001.01-.06.428.296-.065z" fill="#C79058"/>
    <path d="m34.774 14.042.014.228-.85.052.147 2.43-.257.014-.147-2.429-.849.051-.014-.228 1.956-.118z" fill="#C79058"/>
    <path fill-rule="evenodd" clip-rule="evenodd" d="M34.258 16.905a.23.23 0 0 1-.16.077l-.257.015a.23.23 0 0 1-.243-.216l-.134-2.2-.618.038a.23.23 0 0 1-.244-.216l-.014-.228a.23.23 0 0 1 .216-.245l1.956-.118.014.228v.003l.23-.015.015.228a.231.231 0 0 1-.217.245l-.62.038.134 2.199a.23.23 0 0 1-.058.167z" fill="#C79058"/>
    <path d="m36.326 14.101.256.017-.178 2.656-.256-.017.178-2.656z" fill="#C79058"/>
    <path fill-rule="evenodd" clip-rule="evenodd" d="M36.635 16.79a.23.23 0 0 1-.246.215l-.257-.017a.23.23 0 0 1-.215-.246l.178-2.655a.23.23 0 0 1 .246-.215l.256.017a.23.23 0 0 1 .215.246l-.177 2.655z" fill="#C79058"/>
    <path d="M39.347 14.468c.162.034.298.09.413.171a.907.907 0 0 1 .27.3c.065.12.105.257.12.408.017.154.006.318-.032.498l-.073.358a1.658 1.658 0 0 1-.17.467 1.093 1.093 0 0 1-.274.326.872.872 0 0 1-.367.165 1.095 1.095 0 0 1-.447-.009 1.106 1.106 0 0 1-.414-.17.877.877 0 0 1-.269-.3 1.072 1.072 0 0 1-.121-.408 1.571 1.571 0 0 1 .032-.498l.074-.359c.038-.178.094-.334.168-.469.074-.135.167-.242.274-.325a.88.88 0 0 1 .37-.167c.139-.028.288-.024.447.01l-.001.002zm-.515 2.46a.709.709 0 0 0 .607-.128c.17-.134.288-.358.353-.672l.067-.314c.065-.313.047-.565-.054-.756a.695.695 0 0 0-.504-.36.701.701 0 0 0-.607.128c-.172.134-.288.358-.355.672l-.065.314c-.065.313-.047.564.054.756.102.191.27.311.504.36z" fill="#C79058"/>
    <path fill-rule="evenodd" clip-rule="evenodd" d="M39.436 14.251c.17.04.322.105.457.2h.002c.14.101.254.226.337.377.082.15.13.318.148.495.02.182.005.37-.036.569l-.073.36a1.884 1.884 0 0 1-.194.53l-.001.003a1.324 1.324 0 0 1-.333.393 1.104 1.104 0 0 1-.463.21c-.172.034-.353.03-.54-.01a1.334 1.334 0 0 1-.5-.208 1.108 1.108 0 0 1-.338-.378 1.302 1.302 0 0 1-.148-.494 1.798 1.798 0 0 1 .036-.57l.073-.36c.042-.196.106-.373.192-.53.088-.163.202-.295.335-.398.137-.107.293-.175.464-.21a1.334 1.334 0 0 1 .582.021zm-.139 2.366c.11-.086.21-.25.269-.536v-.001l.067-.314c.06-.285.035-.475-.032-.6a.466.466 0 0 0-.346-.241h-.002a.472.472 0 0 0-.417.083c-.112.087-.21.25-.27.538l-.066.312c-.06.286-.034.476.032.601a.466.466 0 0 0 .347.242.48.48 0 0 0 .418-.084z" fill="#C79058"/>
    <path d="m42.1 15.264.282.116.345 2.39c.005.042.01.084.013.122l.009.154.88-2.157.228.094-1.006 2.466-.283-.116-.345-2.399a1.7 1.7 0 0 1-.022-.27l-.88 2.158-.228-.094 1.006-2.466v.002z" fill="#C79058"/>
    <path fill-rule="evenodd" clip-rule="evenodd" d="M42.94 18.661a.23.23 0 0 1-.176.001l-.283-.116a.23.23 0 0 1-.141-.18l-.259-1.797-.546 1.34a.23.23 0 0 1-.301.126l-.229-.094a.23.23 0 0 1-.126-.3l1.006-2.466a.23.23 0 0 1 .327-.115l.258.106c.075.031.13.1.14.18l.26 1.794.545-1.338a.23.23 0 0 1 .301-.127l.228.094a.23.23 0 0 1 .127.3l-1.006 2.466a.23.23 0 0 1-.125.126z" fill="#C79058"/>
    <path d="M52.085 44.432c.006-.017.013-.031.02-.046l.023-.043.316-.584-1.01-.546.124-.227 2.343 1.267-.438.81a1.173 1.173 0 0 1-.214.287.783.783 0 0 1-.259.16.61.61 0 0 1-.282.034.746.746 0 0 1-.28-.087l-.049-.027a.688.688 0 0 1-.366-.743l-1.317-.103.132-.244 1.258.097-.001-.005zm1.486-.064-.923-.5-.277.514c-.11.205-.15.372-.118.505a.48.48 0 0 0 .26.316l.033.017a.467.467 0 0 0 .393.041c.126-.046.239-.16.337-.343l.296-.548v-.002z" fill="#C79058"/>
    <path fill-rule="evenodd" clip-rule="evenodd" d="M51.356 42.876a.23.23 0 0 1 .312-.093l2.343 1.267c.111.06.153.2.093.313l-.437.81a1.4 1.4 0 0 1-.258.343l-.003.003-.002.002c-.1.091-.212.161-.335.206a.843.843 0 0 1-.385.047.978.978 0 0 1-.363-.113h-.002l-.05-.027a.919.919 0 0 1-.492-.734l-1.099-.085a.23.23 0 0 1-.185-.34l.132-.245a.23.23 0 0 1 .22-.12l1.101.085.185-.343-.806-.436a.23.23 0 0 1-.093-.313l.124-.227zm1.218 1.616c-.1.188-.108.292-.097.343.014.056.049.112.144.164l.033.017c.09.048.152.048.206.029.05-.019.127-.077.212-.236v-.001l.188-.346-.518-.28-.167.31z" fill="#C79058"/>
    <path d="m51.073 48.583-.18-.14.824-1.06-.75-.586-.78.998-.18-.14.777-1-.806-.628-.842 1.08-.18-.14 1-1.286 2.1 1.635-.983 1.264v.003z" fill="#C79058"/>
    <path fill-rule="evenodd" clip-rule="evenodd" d="M49.774 45.54a.23.23 0 0 1 .324-.04l2.1 1.634a.23.23 0 0 1 .04.324l-.966 1.242a.23.23 0 0 1-.34.066l-.181-.141a.231.231 0 0 1-.041-.324l.683-.878-.387-.302-.637.816a.23.23 0 0 1-.323.04l-.181-.14a.23.23 0 0 1-.041-.324l.636-.818-.441-.344-.7.898a.23.23 0 0 1-.324.04l-.181-.14a.23.23 0 0 1-.041-.324l1-1.285z" fill="#C79058"/>
    <path d="m50.008 49.771-.21.192-2.224-1.212-.002.001 1.014 2.322-.198.183-1.097-2.607.218-.2 2.497 1.322.002-.001z" fill="#C79058"/>
    <path fill-rule="evenodd" clip-rule="evenodd" d="M47.352 48.281a.23.23 0 0 1 .264-.034l2.474 1.309a.23.23 0 0 1 .073.386l-.21.192a.23.23 0 0 1-.266.032l-1.636-.891.747 1.707a.23.23 0 0 1-.056.262l-.198.183a.23.23 0 0 1-.37-.08l-1.096-2.607a.23.23 0 0 1 .057-.26l.217-.199z" fill="#C79058"/>
    <path d="M46.313 52.777c-.14.087-.278.142-.416.166a.892.892 0 0 1-.403-.028 1.036 1.036 0 0 1-.373-.208 1.66 1.66 0 0 1-.325-.378l-.196-.31a1.62 1.62 0 0 1-.204-.453 1.076 1.076 0 0 1-.03-.426.876.876 0 0 1 .146-.375 1.09 1.09 0 0 1 .326-.305c.14-.088.277-.143.416-.166a.886.886 0 0 1 .402.025c.13.039.254.11.373.208.118.1.227.225.324.378l.197.31c.097.153.167.305.206.452.04.148.051.289.031.424a.883.883 0 0 1-.148.375 1.064 1.064 0 0 1-.328.306l.002.005zm-1.348-2.118a.704.704 0 0 0-.346.514c-.028.214.044.458.215.727l.173.272c.171.269.36.438.566.503.206.065.41.035.612-.093a.704.704 0 0 0 .346-.514c.028-.213-.044-.457-.215-.727l-.173-.27c-.171-.27-.36-.44-.566-.504a.704.704 0 0 0-.612.092z" fill="#C79058"/>
    <path fill-rule="evenodd" clip-rule="evenodd" d="M46.474 52.941a.225.225 0 0 1-.039.03 1.367 1.367 0 0 1-.5.199h-.004a1.122 1.122 0 0 1-.505-.035 1.268 1.268 0 0 1-.455-.253 1.89 1.89 0 0 1-.37-.43l-.195-.31a1.856 1.856 0 0 1-.233-.518 1.304 1.304 0 0 1-.035-.516v-.002c.025-.169.085-.328.184-.472.098-.143.23-.267.394-.37.16-.102.326-.17.5-.199.172-.028.344-.016.507.032.164.05.315.137.453.252l.003.002c.136.115.26.258.37.43l.195.309c.108.169.189.342.235.518.046.171.062.344.037.515-.025.17-.088.33-.185.472-.092.136-.214.25-.357.346zm-.967-2.155a.475.475 0 0 0-.419.068.475.475 0 0 0-.24.35c-.018.14.026.328.181.571l.172.272c.157.245.309.365.442.407a.475.475 0 0 0 .42-.067.475.475 0 0 0 .24-.35c.018-.14-.026-.329-.182-.572l-.172-.271c-.157-.246-.308-.366-.442-.408z" fill="#C79058"/>
    <path d="M42.925 54.52a1.516 1.516 0 0 1-.461.116 1.226 1.226 0 0 1-.418-.042l.046-.238c.144.034.272.046.385.034.112-.01.23-.042.356-.095a.752.752 0 0 0 .276-.186.691.691 0 0 0 .148-.268c.028-.1.037-.21.023-.33a1.442 1.442 0 0 0-.099-.371l-.129-.314c-.126-.306-.282-.507-.471-.6-.19-.096-.398-.096-.625-.003a1.035 1.035 0 0 0-.364.235 1.284 1.284 0 0 0-.21.295l-.216-.13c.058-.12.14-.235.245-.345.108-.11.257-.206.454-.285.318-.13.601-.13.845 0 .244.131.438.375.585.732l.126.303c.144.35.172.657.087.916-.087.26-.28.453-.579.574l-.004.002z" fill="#C79058"/>
    <path fill-rule="evenodd" clip-rule="evenodd" d="M41.778 51.78c.365-.15.722-.16 1.04.009h.001c.307.166.53.462.69.848m0 0 .125.303c.158.383.2.748.094 1.076v.001c-.113.335-.361.573-.712.715l-.008.003a1.74 1.74 0 0 1-.528.131 1.454 1.454 0 0 1-.496-.05.23.23 0 0 1-.165-.266l.046-.237a.23.23 0 0 1 .278-.181c.13.03.23.037.31.03l.001-.001a1 1 0 0 0 .29-.078l.002-.001a.522.522 0 0 0 .192-.128.46.46 0 0 0 .097-.176.634.634 0 0 0 .016-.24 1.207 1.207 0 0 0-.084-.311l-.128-.313c-.117-.283-.244-.424-.36-.481h-.002c-.12-.061-.257-.068-.434.003a.807.807 0 0 0-.283.181 1.05 1.05 0 0 0-.172.242.231.231 0 0 1-.324.092l-.217-.13a.23.23 0 0 1-.089-.298c.07-.144.168-.28.287-.404v-.001c.136-.14.315-.25.533-.339" fill="#C79058"/>
    <path d="m37.85 53.18.27-.06.467.744 1.1-.243.117-.873.26-.057-.39 2.814-.285.064-1.539-2.387v-.002zm1.806.678-.94.21.407.647c.027.04.05.078.074.116l.077.124c.027.047.058.097.09.154.034.056.073.123.116.203.007-.09.011-.166.017-.232a12.615 12.615 0 0 1 .034-.324c.006-.044.011-.09.019-.137l.104-.76h.002z" fill="#C79058"/>
    <path fill-rule="evenodd" clip-rule="evenodd" d="M37.647 53.069a.23.23 0 0 1 .153-.114l.27-.06a.23.23 0 0 1 .246.103l.38.606.784-.173.096-.713a.23.23 0 0 1 .178-.195l.26-.057a.23.23 0 0 1 .278.257l-.39 2.814a.23.23 0 0 1-.178.193l-.284.064a.23.23 0 0 1-.244-.1l-1.54-2.387a.234.234 0 0 1-.023-.046v-.002a.231.231 0 0 1 .014-.19zm1.438 1.153.231.367.004.006.001-.01.06-.429-.296.066z" fill="#C79058"/>
    <path d="m35.273 56.053-.014-.229.85-.051-.147-2.43.257-.015.148 2.43.848-.051.014.228-1.956.117z" fill="#C79058"/>
    <path fill-rule="evenodd" clip-rule="evenodd" d="M35.79 53.19a.23.23 0 0 1 .158-.076l.258-.015a.23.23 0 0 1 .243.216l.134 2.199.618-.037a.23.23 0 0 1 .244.216l.014.228a.23.23 0 0 1-.216.245l-1.956.117-.014-.228v-.002l-.23.015-.015-.229a.23.23 0 0 1 .217-.244l.62-.038-.134-2.199a.23.23 0 0 1 .058-.167z" fill="#C79058"/>
    <path d="m33.721 55.993-.256-.017.178-2.655.256.017-.178 2.655z" fill="#C79058"/>
    <path fill-rule="evenodd" clip-rule="evenodd" d="M33.412 53.306a.23.23 0 0 1 .246-.215l.256.017a.23.23 0 0 1 .215.245l-.177 2.656a.23.23 0 0 1-.246.215l-.257-.017a.23.23 0 0 1-.215-.246l.178-2.655z" fill="#C79058"/>
    <path d="M30.7 55.627a1.103 1.103 0 0 1-.413-.17.906.906 0 0 1-.27-.3 1.072 1.072 0 0 1-.12-.408 1.599 1.599 0 0 1 .032-.498l.073-.359c.039-.178.095-.334.17-.466.076-.134.166-.243.274-.326a.872.872 0 0 1 .367-.166c.137-.028.285-.025.448.01.162.033.298.09.413.17.115.081.204.182.269.3.065.12.105.257.121.408.017.154.006.32-.032.498l-.074.358a1.724 1.724 0 0 1-.168.47 1.036 1.036 0 0 1-.274.325.88.88 0 0 1-.37.166c-.139.029-.288.024-.447-.009l.001-.003zm.515-2.458a.709.709 0 0 0-.607.127c-.17.133-.287.358-.352.671l-.068.315c-.065.313-.047.564.054.756.102.191.271.311.504.359.235.05.435.006.607-.127.172-.134.288-.358.355-.672l.065-.314c.065-.313.047-.565-.054-.756a.695.695 0 0 0-.504-.36z" fill="#C79058"/>
    <path fill-rule="evenodd" clip-rule="evenodd" d="M30.612 55.844a1.312 1.312 0 0 1-.458-.199l-.002-.001a1.139 1.139 0 0 1-.336-.376 1.3 1.3 0 0 1-.15-.495c-.019-.182-.004-.37.037-.569l.073-.36c.043-.197.106-.375.194-.531l.001-.002c.089-.155.198-.288.333-.393.137-.107.293-.175.463-.21.172-.035.353-.03.541.01.187.04.353.106.498.208.145.101.257.229.339.377.082.15.13.318.148.495.02.181.007.372-.035.57l-.074.359a1.953 1.953 0 0 1-.191.531 1.266 1.266 0 0 1-.336.398 1.11 1.11 0 0 1-.464.21 1.334 1.334 0 0 1-.581-.022zm.138-2.366c-.11.087-.21.25-.269.536v.002l-.067.313c-.06.285-.035.475.032.6a.466.466 0 0 0 .346.242h.002a.472.472 0 0 0 .418-.084c.11-.086.208-.249.27-.537l.065-.313c.06-.285.035-.475-.032-.6a.466.466 0 0 0-.346-.242.48.48 0 0 0-.42.083z" fill="#C79058"/>
    <path d="m27.947 54.831-.282-.115-.345-2.39c-.005-.042-.01-.084-.012-.123-.003-.04-.007-.09-.01-.154l-.88 2.158-.228-.094 1.006-2.466.283.116.345 2.399.015.122c.003.036.007.086.007.147l.88-2.157.228.094-1.006 2.466v-.003z" fill="#C79058"/>
    <path fill-rule="evenodd" clip-rule="evenodd" d="M27.107 51.435a.23.23 0 0 1 .177-.001l.282.115c.076.031.13.1.141.181l.259 1.797.546-1.34a.23.23 0 0 1 .302-.126l.228.094a.23.23 0 0 1 .126.3l-1.006 2.466a.23.23 0 0 1-.326.114l-.259-.105a.231.231 0 0 1-.14-.181l-.259-1.793-.546 1.338a.231.231 0 0 1-.301.126l-.228-.093a.23.23 0 0 1-.126-.301l1.005-2.466a.231.231 0 0 1 .125-.125z" fill="#C79058"/>
    <path fill-rule="evenodd" clip-rule="evenodd" d="M64.943 36.932c-.75 11.513-8.14 22.058-19.682 26.26-11.542 4.2-23.985.873-31.958-7.465l1.668-1.595c7.363 7.7 18.85 10.767 29.5 6.89 10.65-3.876 17.477-13.607 18.17-24.24l2.302.15z" fill="#C79058"/>
</svg>
