<svg width="24" height="24" viewBox="0 0 24 24" fill="none" xmlns="http://www.w3.org/2000/svg">
    <path fill-rule="evenodd" clip-rule="evenodd" d="m21.276 15.475-2.024-2.025V10a7.552 7.552 0 0 0-6.75-7.5V1h-1.5v1.5a7.612 7.612 0 0 0-6.75 7.5v3.45l-2.025 2.025a.682.682 0 0 0-.225.525v2.25a.705.705 0 0 0 .75.75h5.25a3.75 3.75 0 1 0 7.5 0h5.25a.705.705 0 0 0 .75-.75V16a.682.682 0 0 0-.226-.525zm-9.524 5.775A2.25 2.25 0 0 1 9.502 19h4.5a2.25 2.25 0 0 1-2.25 2.25zm8.25-3.75h-16.5v-1.2l2.025-2.025a.682.682 0 0 0 .225-.525V10a6 6 0 1 1 12 0v3.75c-.006.2.076.391.225.525L20 16.3v1.2z" fill="#fff"/>
    <path d="M16.45 1c1.835.41 4.745 3.643 4.75 5.5h-1.5c0-1.06-2.29-3.585-3.25-3.954V1zM2.2 6.5C2.232 4.654 5.128 1.436 6.95 1l-.002 1.547C5.99 2.917 3.7 5.44 3.7 6.5H2.2z" fill="#fff"/>
</svg>
