<svg width="18" height="18" viewBox="0 0 18 18" fill="none" xmlns="http://www.w3.org/2000/svg">
    <path d="m6.263 6.564-.05-.669H4.715v5.98h1.597V7.647c.203-.376.531-.564.984-.564.328 0 .56.078.696.232.137.155.205.406.205.752v3.808h1.597L9.79 7.769c.184-.457.515-.686.994-.686.336 0 .57.08.702.238.133.155.2.402.2.74v3.814h1.602V8.056c0-.759-.159-1.326-.476-1.702-.316-.38-.799-.57-1.447-.57-.778 0-1.376.305-1.796.913-.288-.608-.817-.912-1.587-.912-.722 0-1.295.26-1.718.779z" fill="#8673FF"/>
    <path fill-rule="evenodd" clip-rule="evenodd" d="M16.5 9a7.5 7.5 0 1 1-15 0 7.5 7.5 0 0 1 15 0zm-1.429 0A6.071 6.071 0 1 1 2.93 9 6.071 6.071 0 0 1 15.07 9z" fill="#8673FF"/>
</svg>
