<svg width="20" height="20" viewBox="0 0 20 20" fill="none" xmlns="http://www.w3.org/2000/svg">
    <g clip-path="url(#62z28nc47a)" fill="#141414">
        <path d="M1.91 1.91h2.585V.833H.833v3.662H1.91V1.91zM16.599 16.69V5.75h-2.982v1.077h1.905V8.29h-1.349v1.077h1.349V10.9h-3.08V9.255h-1.077V10.9h-2.2V6.5h1.261V5.425H9.164V3.433h-5.79v5.79h4.713v3.956h-1.73v2.434H3.93v1.078h5.234v-1.077h-1.73v-1.358h1.73v-2.279h1.644v4.713H16.6zm-1.077-1.077h-3.637v-3.636h3.637v3.636zM4.451 4.51h3.636v3.636H4.451V4.51zM13.635 3.433h2.964V4.51h-2.964V3.433z"/>
        <path d="M5.712 5.7h1.113v1.077H5.712V5.7zM13.06 13.257h1.113v1.077H13.06v-1.077zM11.137 3.433h1.113V4.51h-1.113V3.433zM11.347 7.108h1.112v1.077h-1.112V7.108zM3.912 13.179h1.112v1.077H3.912v-1.077zM3.68 10.9h3.127v1.077H3.68V10.9zM1.91 15.54H.833v3.663h3.662v-1.078H1.91v-2.584zM15.505.833V1.91h2.585v2.585h1.077V.833h-3.662zM18.09 18.125h-2.585v1.078h3.662V15.54h-1.078v2.584z"/>
    </g>
    <defs>
        <clipPath id="62z28nc47a">
            <path fill="#fff" d="M0 0h20v20H0z"/>
        </clipPath>
    </defs>
</svg>
