<svg width="24" height="24" viewBox="0 0 24 24" fill="none" xmlns="http://www.w3.org/2000/svg">
    <path d="M20.828 21.998H3.172V10.202H2V5.514h3.855c-.026-.066-.043-.113-.064-.156a2.332 2.332 0 0 1 .728-2.906c.331-.246.711-.365 1.106-.452h.586c.06.019.12.04.18.055.56.117 1.056.44 1.39.903.15.204.29.417.442.619.507.673 1.114 1.247 1.777 1.777l.125-.1c.782-.635 1.47-1.356 2.025-2.201.25-.392.618-.696 1.05-.868.191-.078.391-.124.59-.185h.585a.758.758 0 0 0 .11.035 2.327 2.327 0 0 1 1.898 2.806c-.051.224-.144.44-.223.673H22V10.2h-1.172v11.797zm-10.6-1.18v-10.6H4.355v10.6h5.875zm9.415 0v-10.6h-5.875v10.6h5.875zM10.228 9.02V6.7H3.183v2.32h7.046zm1.2-2.327v14.124h1.148V6.695h-1.148zm2.344 0v2.32h7.046v-2.32h-7.046zm-3.438-1.18.05-.074c-.17-.15-.364-.283-.508-.457-.376-.456-.725-.934-1.097-1.394-.26-.323-.617-.452-1.023-.404a1.164 1.164 0 0 0-.698 1.972c.207.212.487.337.783.35.324.018.65.006.976.007h1.517zm3.316-.003c.844 0 1.67.013 2.496-.005.563-.012.998-.411 1.102-.957a1.163 1.163 0 0 0-.662-1.268 1.15 1.15 0 0 0-1.4.346c-.193.244-.356.513-.554.753-.312.38-.643.744-.98 1.131h-.002z" fill="#9CA8BA"/>
</svg>
