<svg width="20" height="20" viewBox="0 0 20 20" fill="none" xmlns="http://www.w3.org/2000/svg">
    <path fill-rule="evenodd" clip-rule="evenodd" d="m6.434 16.182 2.183.58v-.759l.178-.178h1.248V17.34H8.706l-1.649-.713-.623-.445z" fill="#141414"/>
    <path fill-rule="evenodd" clip-rule="evenodd" d="m13.565 16.182-2.14.58v-.759l-.178-.178H10V17.34h1.337l1.65-.713.579-.445z" fill="#CDBDB2"/>
    <path fill-rule="evenodd" clip-rule="evenodd" d="m8.795 14.533-.178 1.471.223-.178h2.317l.268.178-.179-1.47-.356-.224-1.783.045-.312.178z" fill="#393939"/>
    <path fill-rule="evenodd" clip-rule="evenodd" d="m7.594 4.595 1.07 2.495.49 7.264h1.737l.535-7.264.98-2.495H7.595z" fill="#F89C35"/>
    <path fill-rule="evenodd" clip-rule="evenodd" d="m2.914 10.075-1.248 3.61 3.12-.178H6.79v-1.56L6.7 8.738l-.445.357-3.342.98z" fill="#F89D35"/>
    <path fill-rule="evenodd" clip-rule="evenodd" d="m5.275 10.477 3.655.09-.401 1.871-1.738-.445-1.516-1.516z" fill="#D87C30"/>
    <path fill-rule="evenodd" clip-rule="evenodd" d="m5.275 10.52 1.516 1.427v1.426L5.275 10.52z" fill="#EA8D3A"/>
    <path fill-rule="evenodd" clip-rule="evenodd" d="m6.791 11.992 1.783.446.579 1.916-.401.223-1.961-1.159v-1.426z" fill="#F89D35"/>
    <path fill-rule="evenodd" clip-rule="evenodd" d="m6.79 13.418-.356 2.763 2.362-1.649-2.006-1.114z" fill="#EB8F35"/>
    <path fill-rule="evenodd" clip-rule="evenodd" d="m8.93 10.566.223 3.788-.669-1.938.446-1.85z" fill="#EA8E3A"/>
    <path fill-rule="evenodd" clip-rule="evenodd" d="m4.74 13.463 2.05-.045-.356 2.763-1.694-2.718z" fill="#D87C30"/>
    <path fill-rule="evenodd" clip-rule="evenodd" d="m2.646 17.384 3.788-1.203-1.693-2.718-3.075.223.98 3.698z" fill="#EB8F35"/>
    <path fill-rule="evenodd" clip-rule="evenodd" d="M8.662 7.09 6.746 8.694l-1.47 1.783 3.654.133-.268-3.52z" fill="#E8821E"/>
    <path fill-rule="evenodd" clip-rule="evenodd" d="m6.434 16.18 2.362-1.649-.179 1.426v.802l-1.604-.312-.58-.267zM13.565 16.18l-2.318-1.649.178 1.426v.802l1.605-.312.535-.267z" fill="#DFCEC3"/>
    <path fill-rule="evenodd" clip-rule="evenodd" d="m7.95 11.368.49 1.025-1.739-.446 1.248-.579z" fill="#393939"/>
    <path fill-rule="evenodd" clip-rule="evenodd" d="m2.602 2.5 6.06 4.59-1.025-2.496L2.602 2.5z" fill="#E88F35"/>
    <path fill-rule="evenodd" clip-rule="evenodd" d="m2.601 2.5-.802 2.451.445 2.674-.311.178.445.401-.356.312.49.446-.312.267.713.891 3.342-1.025C7.89 7.788 8.691 7.12 8.662 7.09c-.03-.03-2.05-1.56-6.061-4.59z" fill="#8E5A30"/>
    <path fill-rule="evenodd" clip-rule="evenodd" d="m17.084 10.075 1.248 3.61-3.12-.178h-2.005v-1.56l.09-3.209.445.357 3.342.98z" fill="#F89D35"/>
    <path fill-rule="evenodd" clip-rule="evenodd" d="m14.723 10.477-3.655.09.402 1.871 1.737-.445 1.516-1.516z" fill="#D87C30"/>
    <path fill-rule="evenodd" clip-rule="evenodd" d="m14.723 10.52-1.516 1.427v1.426l1.516-2.852z" fill="#EA8D3A"/>
    <path fill-rule="evenodd" clip-rule="evenodd" d="m13.207 11.992-1.783.446-.579 1.916.401.223 1.961-1.159v-1.426z" fill="#F89D35"/>
    <path fill-rule="evenodd" clip-rule="evenodd" d="m13.208 13.418.357 2.763-2.318-1.604 1.96-1.159z" fill="#EB8F35"/>
    <path fill-rule="evenodd" clip-rule="evenodd" d="m11.068 10.566-.223 3.788.669-1.938-.446-1.85z" fill="#EA8E3A"/>
    <path fill-rule="evenodd" clip-rule="evenodd" d="m15.258 13.463-2.05-.045.356 2.763 1.694-2.718z" fill="#D87C30"/>
    <path fill-rule="evenodd" clip-rule="evenodd" d="m17.352 17.384-3.788-1.203 1.693-2.718 3.075.223-.98 3.698z" fill="#EB8F35"/>
    <path fill-rule="evenodd" clip-rule="evenodd" d="m11.336 7.09 1.916 1.604 1.47 1.783-3.654.133.268-3.52z" fill="#E8821E"/>
    <path fill-rule="evenodd" clip-rule="evenodd" d="m12.049 11.368-.49 1.025 1.738-.446-1.248-.579z" fill="#393939"/>
    <path fill-rule="evenodd" clip-rule="evenodd" d="m17.396 2.5-6.06 4.59 1.025-2.496L17.396 2.5z" fill="#E88F35"/>
    <path fill-rule="evenodd" clip-rule="evenodd" d="m17.397 2.5.802 2.451-.445 2.674.311.178-.445.401.356.312-.49.446.312.267-.713.891-3.342-1.025c-1.634-1.307-2.436-1.975-2.407-2.005.03-.03 2.05-1.56 6.061-4.59z" fill="#8E5A30"/>
</svg>
