<svg width="20" height="20" viewBox="0 0 20 20" fill="none" xmlns="http://www.w3.org/2000/svg">
    <path d="M18.75 7.345c0-.918-.747-1.665-1.665-1.665s-1.665.747-1.665 1.665c0 .441.173.843.454 1.141-.5.56-1.227.913-2.036.913a2.736 2.736 0 0 1-2.67-2.155 1.66 1.66 0 0 0 .497-1.184c0-.918-.747-1.665-1.665-1.665s-1.665.747-1.665 1.665c0 .463.19.882.496 1.184A2.735 2.735 0 0 1 6.161 9.4a2.724 2.724 0 0 1-2.035-.913c.281-.298.454-.7.454-1.141 0-.918-.747-1.665-1.665-1.665S1.25 6.427 1.25 7.345c0 .796.561 1.462 1.308 1.626.178 1.462.553 3.307 1.347 4.563v1.537c0 .285.23.515.515.515h11.16c.284 0 .515-.23.515-.515v-1.537c.794-1.256 1.17-3.1 1.347-4.563a1.668 1.668 0 0 0 1.308-1.626zm-2.3 0a.635.635 0 1 1 1.27.001.635.635 0 0 1-1.27-.001zM9.367 6.06a.635.635 0 1 1 1.27.001.635.635 0 0 1-1.27-.001zM2.28 7.345a.635.635 0 1 1 1.27.001.635.635 0 0 1-1.27-.001zm2.655 7.21v-.66h10.129v.66H4.934zm10.36-1.69H4.704c-.542-.92-.853-2.213-1.032-3.38a3.747 3.747 0 0 0 2.49.945 3.769 3.769 0 0 0 3.616-2.72 1.664 1.664 0 0 0 .446 0 3.769 3.769 0 0 0 3.615 2.72c.955 0 1.828-.357 2.492-.945-.179 1.166-.49 2.459-1.033 3.38z" fill="#fff"/>
</svg>
