<svg width="25" height="24" viewBox="0 0 25 24" fill="none" xmlns="http://www.w3.org/2000/svg">
    <g clip-path="url(#7tot8y5uya)">
        <path fill-rule="evenodd" clip-rule="evenodd" d="m22.428 9.231-.024-.128C22.13 7.795 21.007 7 19.466 7H5.55C4 7 2.87 7.81 2.596 9.119l-.024.128c-.048.281-.072.562-.072.907v3.652c0 .457.048.778.048.778v.016C2.733 16.101 3.856 17 5.55 17h10.056c.088 0 .16-.072.16-.16v-5.915a.161.161 0 0 0-.16-.161h-.578a.161.161 0 0 0-.16.16v5.185H5.774c-1.508 0-2.367-.915-2.367-2.271v-3.692c0-1.372.867-2.255 2.367-2.255H19.241c1.51 0 2.36.875 2.36 2.239v3.692c0 1.356-.859 2.28-2.36 2.28H18.392a.161.161 0 0 0-.16.16v.57c0 .088.072.16.16.16h1.067c1.694 0 2.801-.899 2.986-2.4v-.016s.048-.329.048-.778v-3.652a5.35 5.35 0 0 0-.072-.915" fill="#fff"/>
    </g>
    <defs>
        <clipPath id="7tot8y5uya">
            <path fill="#fff" transform="translate(2.5 7)" d="M0 0h20v10H0z"/>
        </clipPath>
    </defs>
</svg>
