<svg width="32" height="16" viewBox="0 0 32 16" fill="none" xmlns="http://www.w3.org/2000/svg">
    <g clip-path="url(#5f4co9309a)" fill="#1465E5">
        <path d="m31.726 3.57-.04-.199c-.436-2.088-2.22-3.378-4.683-3.378H4.855C2.392-.007.591 1.29.155 3.37l-.042.201c-.082.483-.12.972-.113 1.462v5.843c0 .418.025.836.076 1.25v.022c.29 2.403 2.076 3.839 4.776 3.839h16.013a.253.253 0 0 0 .254-.254v-9.46a.253.253 0 0 0-.254-.254h-.924a.253.253 0 0 0-.253.254v8.293H5.21c-2.397 0-3.774-1.463-3.775-3.636V5.02c0-2.197 1.375-3.606 3.774-3.606h21.448c2.399 0 3.759 1.4 3.759 3.59v5.913c0 2.173-1.364 3.642-3.762 3.642H25.307a.253.253 0 0 0-.254.254v.934a.253.253 0 0 0 .252.253h1.709c2.703 0 4.467-1.44 4.758-3.845v-.021c.05-.415.077-.833.077-1.25V5.038a8.242 8.242 0 0 0-.114-1.461"/>
        <path d="M13.254 10.349c0 .958.598 1.608 1.492 1.608h.398a.254.254 0 0 0 .238-.157.256.256 0 0 0 .02-.098v-.8a.245.245 0 0 0-.074-.178.252.252 0 0 0-.18-.075h-.461V4.26a.253.253 0 0 0-.254-.254h-.926a.253.253 0 0 0-.253.254v6.096M16.474 6.793v3.558c0 .956.6 1.6 1.493 1.6h.387a.253.253 0 0 0 .253-.254v-.8a.243.243 0 0 0-.02-.097.25.25 0 0 0-.233-.155h-.45V6.793a.253.253 0 0 0-.253-.252h-.924a.253.253 0 0 0-.253.252zM12.156 4.36l.01-.03a.253.253 0 0 0 .01-.052.714.714 0 0 0 0-.083.36.36 0 0 0-.036-.083l-.016-.024-.035-.032-.034-.023-.037-.017a.62.62 0 0 0-.088-.017H10.84a.251.251 0 0 0-.061.017.24.24 0 0 0-.083.054L7.45 6.859a.988.988 0 0 0-.074 1.32l3.29 3.665.016.015.011.01c.02.02.044.037.07.048h.013c.028.01.057.016.086.017h1.09a.236.236 0 0 0 .078-.017.262.262 0 0 0 .076-.044.13.13 0 0 0 .023-.012.198.198 0 0 0 .044-.062v-.026a.306.306 0 0 0 .014-.066v-.023a.254.254 0 0 0-.054-.152L8.634 7.524l3.472-3.096a.277.277 0 0 0 .05-.074M16.727 5.4h.924a.252.252 0 0 0 .253-.251v-.89a.255.255 0 0 0-.253-.252h-.924a.251.251 0 0 0-.253.25v.898c0 .03.006.058.017.085a.25.25 0 0 0 .236.169M6.457 4.244a.253.253 0 0 0-.254-.253H5.28a.29.29 0 0 0-.088.018l-.023.012a.188.188 0 0 0-.054.036l-.019.016a.264.264 0 0 0-.045.068.245.245 0 0 0-.02.1v7.433a.254.254 0 0 0 .253.257h.924a.253.253 0 0 0 .253-.252V4.246M26.753 9.419l.01-.046v-.05c.067-.437.074-.88.02-1.318-.148-1.217-1.075-1.974-2.422-1.974h-2.297a.252.252 0 0 0-.18.075.25.25 0 0 0-.075.18v.908c0 .034.007.068.02.1.026.06.075.108.135.135.032.012.066.02.1.02h2.142c.845 0 1.284.385 1.284 1.128v.027c0 .76-.433 1.146-1.284 1.146h-2.169a.275.275 0 0 0-.063.013.21.21 0 0 0-.07.048h-.013v.013a.233.233 0 0 0-.045.07.23.23 0 0 0-.012.097v.908a.253.253 0 0 0 .253.253h2.328c1.245 0 2.13-.676 2.355-1.749"/>
    </g>
    <defs>
        <clipPath id="5f4co9309a">
            <path fill="#fff" d="M0 0h31.846v16H0z"/>
        </clipPath>
    </defs>
</svg>
