<svg width="24" height="24" viewBox="0 0 24 24" fill="none" xmlns="http://www.w3.org/2000/svg">
    <mask id="arisr6qqra" style="mask-type:luminance" maskUnits="userSpaceOnUse" x="2" y="2" width="20" height="20">
        <path d="M22 2.732H2v18.536h20V2.732z" fill="#fff"/>
    </mask>
    <g mask="url(#arisr6qqra)" fill="#fff">
        <path opacity=".5" d="m16.831 12.076-1.205 2.39a3.56 3.56 0 0 1-3.176 1.96H4.424A2.43 2.43 0 0 0 2 18.85a2.428 2.428 0 0 0 2.424 2.424h16.369c.969 0 1.543-1.084.998-1.886l-4.96-7.31v-.002z"/>
        <path d="M19.574 2.732H5.657a3.654 3.654 0 0 0-3.652 3.655v12.455a2.43 2.43 0 0 1 2.424-2.424h8.026a3.555 3.555 0 0 0 3.176-1.96l5.021-9.98a1.203 1.203 0 0 0-1.076-1.746h-.004.002zm-6.736 7.527c-.814 0-1.471-.515-1.471-1.15 0-.636.66-1.15 1.471-1.15.812 0 1.472.514 1.472 1.15 0 .635-.66 1.15-1.472 1.15z"/>
    </g>
</svg>
