<svg width="20" height="20" viewBox="0 0 20 20" fill="none" xmlns="http://www.w3.org/2000/svg">
    <path d="M20 16.347A3.63 3.63 0 0 1 16.373 20H3.627A3.63 3.63 0 0 1 0 16.347V3.653A3.63 3.63 0 0 1 3.627 0h12.746A3.63 3.63 0 0 1 20 3.653v12.694z" fill="#31B24A"/>
    <path d="M15.654 1.628H4.056c-1.472 0-2.693 1.23-2.693 2.712v6.438c0 1.482 1.185 2.712 2.693 2.712h3.986l1.364 2.242s0 .037.036.073c.072.145.216.217.395.217.18 0 .323-.109.395-.217.036-.036.036-.072.036-.072l1.365-2.243h3.985c1.472 0 2.693-1.23 2.693-2.712V4.34c.036-1.483-1.185-2.712-2.657-2.712z" fill="#fff"/>
    <path d="M5.135 6.365s-.466 0-.897.397V5.1H3.232v4.376h1.042v-.326s.251.434.861.434c0 0 1.473-.072 1.473-1.627 0 0-.072-1.591-1.473-1.591zM4.92 8.643a.684.684 0 0 1-.682-.687c0-.362.287-.687.682-.687.36 0 .682.29.682.687-.036.398-.323.687-.682.687zM6.93 4.99v1.013s.467-.036.467.868v2.568h1.006V6.654S8.439 4.99 6.93 4.99zM10.88 6.364s-1.723 0-1.723 1.628c0 0-.072 1.591 1.724 1.591 0 0 1.759 0 1.759-1.591-.036 0 .036-1.628-1.76-1.628zm0 2.279a.684.684 0 0 1-.682-.687c0-.362.288-.687.683-.687.359 0 .682.289.682.687-.036.398-.323.687-.682.687zM15.476 6.473v.29s-.287-.398-.861-.398c0 0-1.473-.073-1.473 1.59 0 0 0 1.556 1.437 1.556 0 0 .574.036.897-.398v.253s.072.76-.646.76h-.251v.94h.395s1.508 0 1.508-1.627V6.473h-1.006zm-.61 2.17a.684.684 0 0 1-.682-.687c0-.362.287-.687.682-.687.359 0 .682.29.682.687a.684.684 0 0 1-.682.687z" fill="#F27528"/>
</svg>
