<svg width="20" height="20" viewBox="0 0 20 20" fill="none" xmlns="http://www.w3.org/2000/svg">
    <g clip-path="url(#007zqzthha)">
        <g clip-path="url(#dmog8diwfb)">
            <path d="M10 20c5.523 0 10-4.477 10-10S15.523 0 10 0 0 4.477 0 10s4.477 10 10 10z" fill="url(#qua60ktfnc)"/>
            <path d="m6.769 10.731 1.186 3.284s.149.307.308.307c.158 0 2.52-2.458 2.52-2.458l2.628-5.074-6.6 3.093-.042.848z" fill="#C8DAEA"/>
            <path d="m8.342 11.573-.228 2.42s-.095.742.647 0c.741-.741 1.45-1.313 1.45-1.313" fill="#A9C6D8"/>
            <path d="m6.79 10.848-2.44-.795s-.292-.118-.198-.387c.02-.055.059-.102.175-.183.541-.377 10.01-3.78 10.01-3.78s.267-.09.424-.03a.23.23 0 0 1 .157.171c.017.07.024.143.021.216 0 .062-.008.12-.014.211-.057.93-1.783 7.875-1.783 7.875s-.103.406-.473.42a.677.677 0 0 1-.494-.191c-.726-.624-3.235-2.31-3.79-2.681a.105.105 0 0 1-.045-.075c-.008-.04.035-.088.035-.088s4.369-3.883 4.485-4.29c.01-.032-.025-.048-.07-.034-.29.107-5.32 3.283-5.876 3.634a.268.268 0 0 1-.123.007z" fill="#fff"/>
        </g>
    </g>
    <defs>
        <clipPath id="007zqzthha">
            <path fill="#fff" d="M0 0h20v20H0z"/>
        </clipPath>
        <clipPath id="dmog8diwfb">
            <path fill="#fff" d="M0 0h20v20H0z"/>
        </clipPath>
        <linearGradient id="qua60ktfnc" x1="10" y1="20" x2="10" y2="0" gradientUnits="userSpaceOnUse">
            <stop stop-color="#1D93D2"/>
            <stop offset="1" stop-color="#38B0E3"/>
        </linearGradient>
    </defs>
</svg>
