<svg width="60" height="60" viewBox="0 0 24 24" fill="none" xmlns="http://www.w3.org/2000/svg">
    <path fill-rule="evenodd" clip-rule="evenodd" d="M18.252 11.5v1.95l2.024 2.025c.149.134.23.325.226.525v2.25a.705.705 0 0 1-.75.75h-5.25a3.75 3.75 0 1 1-7.5 0h-5.25a.705.705 0 0 1-.75-.75V16a.682.682 0 0 1 .225-.525l2.025-2.025V10a7.612 7.612 0 0 1 6.75-7.5V1h1.5v1.5c.777.078 1.537.28 2.25.6v1.717a5.917 5.917 0 0 0-3-.817 6 6 0 0 0-6 6v3.75a.682.682 0 0 1-.225.525L2.502 16.3v1.2h16.5v-1.2l-2.025-2.025a.683.683 0 0 1-.226-.525V11.5h1.5zM8.502 19a2.25 2.25 0 0 0 4.5 0h-4.5z" fill="#141414"/>
    <path fill-rule="evenodd" clip-rule="evenodd" d="M18.5 10.5a4 4 0 1 0 0-8 4 4 0 0 0 0 8z" fill="#FB1F1F"/>
</svg>
