<svg width="20" height="20" viewBox="0 0 20 20" fill="none" xmlns="http://www.w3.org/2000/svg">
    <path d="M4.453 15.73h10.124a1.955 1.955 0 0 0 1.953-1.954V3.62a1.955 1.955 0 0 0-1.953-1.953H4.453A1.955 1.955 0 0 0 2.5 3.62v12.76c0 1.077.876 1.953 1.953 1.953H14.576a1.955 1.955 0 0 0 1.954-1.953v-.001c-.545.41-1.221.652-1.953.652H4.453a.652.652 0 0 1 0-1.302zm-.65-12.11c0-.36.291-.651.65-.651h10.124c.359 0 .65.292.65.65v10.157a.652.652 0 0 1-.65.651H4.453c-.228 0-.447.04-.65.112V3.619zm4.621 3.534H7.122c0-.668.287-1.307.786-1.754a2.402 2.402 0 0 1 1.866-.593 2.374 2.374 0 0 1 2.088 2.082c.109.99-.472 1.7-.918 2.149-.115.115-.22.216-.314.305-.426.406-.48.474-.48.755v.032H8.848v-.032c0-.855.41-1.245.883-1.697.092-.088.187-.179.29-.282.42-.422.584-.748.547-1.088a1.063 1.063 0 0 0-.937-.93c-.317-.035-.621.06-.855.27a1.04 1.04 0 0 0-.352.783zm.424 3.953h1.302v1.302H8.848v-1.302z" fill="#8673FF"/>
</svg>
