<svg width="24" height="24" viewBox="0 0 24 24" fill="none" xmlns="http://www.w3.org/2000/svg">
    <path fill-rule="evenodd" clip-rule="evenodd" d="M8 1.5A5.25 5.25 0 1 0 8 12 5.25 5.25 0 0 0 8 1.5zm3.75 5.25a3.75 3.75 0 1 0-7.5 0 3.75 3.75 0 0 0 7.5 0zM14 22.5h1.5v-3.75c0-2.9-2.35-5.25-5.25-5.25h-4.5A5.25 5.25 0 0 0 .5 18.75v3.75H2v-3.75A3.75 3.75 0 0 1 5.75 15h4.5A3.75 3.75 0 0 1 14 18.75v3.75z" fill="#9CA8BA"/>
    <path d="m15.495 12.18 2.72 2.82 5.288-5.436a.733.733 0 1 0-1.052-1.023L18.215 12.9l-1.69-1.722a.718.718 0 0 0-1.03 1.002z" fill="#9CA8BA"/>
</svg>
