<svg width="70" height="70" viewBox="0 0 70 70" fill="none" xmlns="http://www.w3.org/2000/svg">
    <path fill-rule="evenodd" clip-rule="evenodd" d="m69.682 35.827-60.719 22.1-.79-2.169 60.72-22.1.789 2.17zM61.79 14.142l-60.72 22.1-.789-2.169L61 11.973l.79 2.169z" fill="#D61E5C"/>
    <path d="M26.7 35.37c-.001.128-.053.303-.153.527-.1.223-.23.467-.39.73-.195.328-.398.667-.61 1.018-.21.352-.46.738-.75 1.158l-1.385-.852c.298-.422.552-.805.761-1.146.21-.342.417-.692.62-1.05.225-.407.352-.787.38-1.141a2.636 2.636 0 0 0-.17-1.117l-.507-1.392 1.666-.606.497 1.366c.076.208.156.39.242.545a1.742 1.742 0 0 0 .74.718c.165.087.365.172.601.253a35.287 35.287 0 0 0 1.662.456l.606.148-.499 1.463a20.988 20.988 0 0 1-1.023-.261l-1.05-.295c-.334-.105-.6-.197-.801-.276-.2-.08-.342-.163-.423-.252l-.013.005zm7.204.398 1.255 3.448-5.998 2.183.331.91 6.363-2.315.473 1.301-7.95 2.894-1.254-3.448 5.998-2.183-.332-.911-6.063 2.207-.474-1.301 7.651-2.785zm-.199-.547-1.64.597-2.187-6.01 1.64-.598 2.187 6.011zM37.086 35.73l-1.843-5.061-.976.355-.478-1.314 6.011-2.188.479 1.314-.911.332 1.814 4.983.488-.237.475-.232.612 1.236c-.425.234-.922.474-1.491.72-.569.246-1.213.5-1.933.762l-2.771 1.009-.478-1.314 1.002-.365zm.733-5.999-1.027.374 1.842 5.062 1.028-.375-1.843-5.06zm5.157.039.91-.332-1.52-4.176 1.549-.564 4.404 12.1-1.548.564-2.368-6.505-.91.331 2.154 5.92-1.548.564-4.101-11.268 1.548-.564 1.43 3.93z" fill="#D61E5C"/>
    <path fill-rule="evenodd" clip-rule="evenodd" d="M43.879 59.396c-9.502 3.459-19.711 1.022-26.623-5.437l.788-.843c6.607 6.174 16.362 8.5 25.44 5.196 9.078-3.304 15.057-11.357 16.149-20.333l1.145.14c-1.142 9.39-7.397 17.819-16.899 21.277zM9.24 31.76c1.182-9.343 7.423-17.713 16.883-21.157 9.46-3.443 19.62-1.042 26.532 5.355l-.784.847c-6.606-6.115-16.316-8.407-25.354-5.117-9.037 3.29-15.002 11.286-16.133 20.217L9.24 31.76z" fill="#D61E5C"/>
    <path fill-rule="evenodd" clip-rule="evenodd" d="M5.056 33.069c.75-11.513 8.14-22.059 19.683-26.26 11.542-4.2 23.984-.873 31.957 7.465l-1.667 1.595c-7.364-7.701-18.85-10.768-29.5-6.891-10.651 3.876-17.477 13.608-18.17 24.241l-2.303-.15z" fill="#D61E5C"/>
    <path d="m21.39 22.65-1.9-1.864 1.107-1.128.164.162-.926.943.727.715.873-.887.164.159-.873.887.845.832-.181.184v-.002z" fill="#D61E5C"/>
    <path fill-rule="evenodd" clip-rule="evenodd" d="M20.432 19.497a.23.23 0 0 1 .327-.003l.164.161a.231.231 0 0 1 .003.326l-.765.78.398.391.711-.723a.23.23 0 0 1 .326-.003l.163.159a.23.23 0 0 1 .004.327l-.711.723.68.67a.23.23 0 0 1 .003.326l-.18.184a.23.23 0 0 1-.341-.013l-1.886-1.851a.23.23 0 0 1-.003-.327l1.107-1.127z" fill="#D61E5C"/>
    <path d="m25.017 19.543-.222.164-.73-.491-.905.669.249.845-.215.159-.785-2.73.234-.174 2.373 1.555.001.003zm-1.925.114.774-.572-.637-.427c-.04-.024-.077-.05-.116-.075-.036-.026-.078-.053-.12-.084-.044-.03-.093-.064-.147-.104l-.188-.138.08.22c.023.062.04.117.057.168.018.05.03.097.043.139.013.042.026.086.038.133l.215.737v.003z" fill="#D61E5C"/>
    <path fill-rule="evenodd" clip-rule="evenodd" d="M22.505 17.8a.23.23 0 0 1 .264-.007l2.374 1.555a.23.23 0 0 1 .09.114l.001.002a.23.23 0 0 1-.08.264l-.222.165a.23.23 0 0 1-.266.006l-.594-.4-.645.476.203.69a.23.23 0 0 1-.084.25l-.215.16a.231.231 0 0 1-.359-.122l-.785-2.73a.23.23 0 0 1 .084-.25l.234-.173zm.592 1.048.002.008.122.419.244-.18-.36-.241a.24.24 0 0 1-.008-.006z" fill="#D61E5C"/>
    <path d="m24.798 16.612.227-.124 1.28 2.334-.228.124-1.28-2.334z" fill="#D61E5C"/>
    <path fill-rule="evenodd" clip-rule="evenodd" d="M24.914 16.285a.23.23 0 0 1 .313.091l1.28 2.334a.231.231 0 0 1-.092.314l-.227.124a.23.23 0 0 1-.314-.091l-1.279-2.334a.23.23 0 0 1 .092-.314l.227-.124z" fill="#D61E5C"/>
    <path d="m26.863 15.605.896 2.262 1.24-.49.084.212-1.479.587-.981-2.474.24-.095v-.002z" fill="#D61E5C"/>
    <path fill-rule="evenodd" clip-rule="evenodd" d="M26.78 15.389a.23.23 0 0 1 .297.13l.812 2.048 1.024-.405a.23.23 0 0 1 .3.13l.084.211a.23.23 0 0 1-.13.3l-1.478.587a.23.23 0 0 1-.3-.129l-.98-2.474a.231.231 0 0 1 .129-.3l.21-.083a.24.24 0 0 1 .032-.015z" fill="#D61E5C"/>
    <path d="M31.095 16.857c.226-.048.38-.158.461-.325.082-.168.087-.415.018-.741l-.32-1.494.248-.054.34 1.588c.077.36.052.644-.074.85-.127.205-.336.34-.625.401-.294.063-.538.027-.738-.11-.197-.136-.334-.386-.411-.746l-.34-1.588.248-.053.32 1.494c.07.326.177.547.32.667.141.12.326.156.552.109l.001.002z" fill="#D61E5C"/>
    <path fill-rule="evenodd" clip-rule="evenodd" d="M29.428 14.686a.23.23 0 0 1 .177-.274l.248-.053a.23.23 0 0 1 .275.177l.32 1.495c.066.309.16.468.242.539.075.063.181.096.356.059a.238.238 0 0 1 .029-.005c.154-.038.232-.11.274-.194.047-.096.065-.28 0-.591l-.321-1.494a.23.23 0 0 1 .177-.274l.248-.054a.231.231 0 0 1 .274.178l.34 1.588c.083.388.068.741-.103 1.018-.167.271-.436.436-.773.507-.34.073-.652.035-.916-.145l-.002-.001c-.265-.184-.422-.5-.505-.888l-.34-1.588z" fill="#D61E5C"/>
    <path d="M34.43 15.493c-.018.004-.033.004-.05.006a.68.68 0 0 1-.05.001l-.664.025.042 1.149-.259.01-.099-2.66.918-.034c.134-.005.252.009.356.04a.79.79 0 0 1 .27.142.639.639 0 0 1 .173.224.741.741 0 0 1 .067.285l.003.056a.697.697 0 0 1-.113.424.725.725 0 0 1-.342.27l.58 1.186-.277.01-.554-1.132-.001-.002zm-.813-1.249.04 1.049.584-.021c.23-.008.396-.06.495-.153a.48.48 0 0 0 .14-.385l-.001-.037a.466.466 0 0 0-.163-.36c-.103-.086-.26-.124-.468-.117l-.623.022-.004.002z" fill="#D61E5C"/>
    <path fill-rule="evenodd" clip-rule="evenodd" d="M33.12 14.033a.23.23 0 0 1 .221-.239l.92-.035c.153-.005.296.01.428.05h.004c.13.042.246.101.348.184l.003.003a.87.87 0 0 1 .233.304.97.97 0 0 1 .087.37l.003.055v.005a.928.928 0 0 1-.152.56.928.928 0 0 1-.23.237l.484.989a.23.23 0 0 1-.2.332l-.276.01a.23.23 0 0 1-.215-.13l-.488-.995-.385.014.033.919a.23.23 0 0 1-.22.239l-.26.01a.23.23 0 0 1-.24-.221l-.099-2.66zm.736.432.023.59.355-.014c.207-.007.305-.054.344-.09.04-.037.07-.097.067-.21l-.001-.037c-.003-.098-.035-.152-.08-.19-.04-.033-.129-.07-.312-.063l-.396.014z" fill="#D61E5C"/>
    <path d="m38.513 14.25-.03.227-1.332-.171-.12.945 1.257.161-.03.227L37 15.48l-.129 1.014 1.358.174-.03.227-1.616-.208.338-2.64 1.589.203h.003z" fill="#D61E5C"/>
    <path fill-rule="evenodd" clip-rule="evenodd" d="M36.692 14.017a.23.23 0 0 1 .258-.2l1.59.203a.23.23 0 0 1 .068.02l.003.001a.23.23 0 0 1 .13.24l-.03.227a.23.23 0 0 1-.258.198l-1.102-.141-.062.487 1.028.132a.23.23 0 0 1 .2.26l-.03.226a.23.23 0 0 1-.259.199l-1.028-.132-.07.557 1.128.144a.23.23 0 0 1 .2.26l-.031.227a.23.23 0 0 1-.258.198l-1.616-.208a.23.23 0 0 1-.199-.258l.338-2.64z" fill="#D61E5C"/>
    <path d="m48.345 47.638 1.858 1.907-1.13 1.104-.16-.163.945-.923-.71-.731-.892.87-.16-.163.892-.87-.827-.848.184-.18v-.003z" fill="#D61E5C"/>
    <path fill-rule="evenodd" clip-rule="evenodd" d="M48.222 47.443a.23.23 0 0 1 .288.034l1.858 1.907a.23.23 0 0 1-.004.326l-1.13 1.104a.23.23 0 0 1-.326-.003l-.16-.163a.231.231 0 0 1 .003-.327l.781-.763-.389-.4-.726.708a.23.23 0 0 1-.326-.003l-.16-.163a.23.23 0 0 1 .004-.327l.726-.709-.666-.683a.23.23 0 0 1 .004-.326l.164-.159a.23.23 0 0 1 .059-.053z" fill="#D61E5C"/>
    <path d="m44.65 50.667.227-.161.72.505.92-.65-.229-.85.217-.153.727 2.747-.238.168-2.34-1.607h-.003zm1.93-.073-.788.556.627.44.114.079.12.084c.043.031.09.068.142.108.051.04.115.088.186.141a3.44 3.44 0 0 1-.073-.221 1.963 1.963 0 0 1-.052-.17c-.014-.052-.028-.098-.041-.14-.01-.043-.024-.087-.037-.134l-.198-.741v-.002z" fill="#D61E5C"/>
    <path fill-rule="evenodd" clip-rule="evenodd" d="M46.585 49.142c.07.026.124.085.144.158l.727 2.746a.23.23 0 0 1-.09.248l-.24.167a.23.23 0 0 1-.263.002l-2.317-1.59a.23.23 0 0 1-.029-.393l.227-.162a.23.23 0 0 1 .266 0l.586.41.656-.462-.186-.695a.23.23 0 0 1 .09-.248l.217-.153a.23.23 0 0 1 .212-.028zm-.392 2.008.358.251.007.005-.002-.01-.114-.422-.249.176z" fill="#D61E5C"/>
    <path d="m44.808 53.601-.23.12-1.227-2.362.229-.12 1.228 2.362z" fill="#D61E5C"/>
    <path fill-rule="evenodd" clip-rule="evenodd" d="M43.649 51.019a.23.23 0 0 1 .136.113l1.228 2.363a.23.23 0 0 1-.098.31l-.228.12a.23.23 0 0 1-.312-.097l-1.229-2.363a.23.23 0 0 1 .098-.31l.229-.12a.23.23 0 0 1 .176-.016z" fill="#D61E5C"/>
    <path d="m42.723 54.566-.85-2.279-1.25.465-.078-.215 1.49-.554.929 2.496-.243.088h.002z" fill="#D61E5C"/>
    <path fill-rule="evenodd" clip-rule="evenodd" d="M42.132 51.773a.23.23 0 0 1 .12.129l.928 2.496a.231.231 0 0 1-.137.297l-.243.089a.23.23 0 0 1-.305-.168l-.757-2.033-1.034.385a.23.23 0 0 1-.297-.137l-.078-.215a.23.23 0 0 1 .136-.295l1.49-.555a.23.23 0 0 1 .177.007z" fill="#D61E5C"/>
    <path d="M38.518 53.221c-.228.043-.383.15-.468.315-.084.166-.095.413-.033.739l.289 1.501-.25.047-.306-1.596c-.071-.362-.04-.646.09-.848.131-.202.341-.333.636-.388.296-.057.54-.015.735.125.194.14.327.392.398.754l.305 1.596-.25.047-.289-1.502c-.062-.326-.164-.551-.304-.675-.141-.123-.325-.161-.552-.118l-.001.003z" fill="#D61E5C"/>
    <path fill-rule="evenodd" clip-rule="evenodd" d="M38.433 52.764c-.342.065-.614.223-.786.49-.176.273-.2.626-.124 1.017l.305 1.596a.23.23 0 0 0 .27.183l.25-.047a.23.23 0 0 0 .184-.27l-.288-1.501c-.06-.311-.037-.495.012-.591.045-.088.13-.16.305-.193a.238.238 0 0 0 .03-.008c.16-.025.258.01.327.07.082.072.171.235.23.545l.289 1.501a.23.23 0 0 0 .27.184l.25-.047a.23.23 0 0 0 .184-.27l-.306-1.596c-.076-.391-.228-.708-.488-.898h-.002c-.259-.186-.57-.23-.912-.165z" fill="#D61E5C"/>
    <path d="M35.153 54.515c.018-.004.032-.005.05-.006h.048l.664-.011-.017-1.148.259-.004.043 2.662-.92.015a1.15 1.15 0 0 1-.357-.047.78.78 0 0 1-.267-.146.6.6 0 0 1-.166-.23.713.713 0 0 1-.06-.287l-.002-.056a.684.684 0 0 1 .47-.681l-.555-1.198.276-.005.532 1.145.002-.003zm.784 1.264-.015-1.048-.584.009c-.232.003-.397.05-.499.142-.102.09-.148.218-.148.38v.037a.467.467 0 0 0 .155.364c.1.086.256.13.466.125l.622-.01h.003z" fill="#D61E5C"/>
    <path fill-rule="evenodd" clip-rule="evenodd" d="M34.148 53.255a.23.23 0 0 1 .191-.108l.276-.005a.231.231 0 0 1 .213.133l.466 1.002.387-.007-.014-.917a.23.23 0 0 1 .227-.234l.26-.004a.23.23 0 0 1 .233.227l.043 2.662a.23.23 0 0 1-.227.234l-.921.016a1.38 1.38 0 0 1-.428-.058h-.002a1.01 1.01 0 0 1-.345-.19.831.831 0 0 1-.23-.314.944.944 0 0 1-.079-.376v-.055a.913.913 0 0 1 .398-.788l-.462-.999a.23.23 0 0 1 .014-.22zm1.555 2.295-.009-.585-.353.005c-.21.003-.307.047-.348.084-.04.035-.071.092-.072.205l.001.033v.004c.002.1.033.156.075.192.039.034.129.073.309.069h.002l.395-.007z" fill="#D61E5C"/>
    <path d="m31.044 55.669.033-.226 1.33.199.14-.943-1.251-.188.033-.226 1.252.188.153-1.01-1.354-.205.033-.226 1.61.241-.394 2.634-1.585-.238z" fill="#D61E5C"/>
    <path fill-rule="evenodd" clip-rule="evenodd" d="M31.276 52.846a.23.23 0 0 1 .171-.042l1.61.241a.23.23 0 0 1 .195.263l-.395 2.633a.23.23 0 0 1-.262.194l-1.585-.238.034-.226v-.002l-.228-.034.033-.226a.23.23 0 0 1 .263-.194l1.101.164.073-.486-1.024-.154a.23.23 0 0 1-.195-.261l.034-.226a.23.23 0 0 1 .262-.195l1.024.154.084-.555-1.126-.17a.23.23 0 0 1-.194-.262l.034-.226a.23.23 0 0 1 .09-.151z" fill="#D61E5C"/>
    <path fill-rule="evenodd" clip-rule="evenodd" d="M64.945 36.93c-.75 11.514-8.14 22.06-19.682 26.26-11.542 4.201-23.984.874-31.958-7.464l1.668-1.595c7.364 7.7 18.85 10.767 29.5 6.89 10.651-3.876 17.477-13.607 18.17-24.24l2.302.15z" fill="#D61E5C"/>
</svg>
