<svg width="26" height="26" viewBox="0 0 26 26" fill="none" xmlns="http://www.w3.org/2000/svg">
    <path fill-rule="evenodd" clip-rule="evenodd" d="M6.25 12.999a3.75 3.75 0 0 0 3.75 3.75 3.713 3.713 0 0 0 3.75-3.75 3.75 3.75 0 0 0-7.5 0zm1.965-1.785A2.443 2.443 0 0 1 10 10.499a2.444 2.444 0 0 1 2.5 2.5 2.444 2.444 0 0 1-2.5 2.5 2.444 2.444 0 0 1-2.5-2.5 2.444 2.444 0 0 1 .715-1.785z" fill="#9ca8ba"/>
    <path fill-rule="evenodd" clip-rule="evenodd" d="M16.872 12.517v.956l1.181 1.081a1.25 1.25 0 0 1 .256 1.57l-1.425 2.5a1.25 1.25 0 0 1-1.08.624 1.252 1.252 0 0 1-.4-.062l-1.513-.513c-.265.175-.54.331-.825.469l-.32 1.575a1.25 1.25 0 0 1-1.25 1.006h-2.95a1.25 1.25 0 0 1-1.25-1.006l-.318-1.575a7.098 7.098 0 0 1-.819-.469l-1.518.513c-.13.042-.264.063-.4.062a1.25 1.25 0 0 1-1.082-.625l-1.475-2.5a1.25 1.25 0 0 1 .257-1.594l1.18-1.05v-.956l-1.18-1.081a1.25 1.25 0 0 1-.257-1.569l1.475-2.5a1.25 1.25 0 0 1 1.082-.625c.134-.009.27.004.4.038l1.487.537c.265-.174.54-.33.825-.469l.319-1.575a1.25 1.25 0 0 1 1.25-1.006h2.925a1.25 1.25 0 0 1 1.25 1.006l.319 1.575c.283.138.556.295.818.47l1.52-.513a1.25 1.25 0 0 1 .4-.063c.445 0 .857.239 1.08.625l1.475 2.5a1.25 1.25 0 0 1-.237 1.594l-1.2 1.05zm-3.26 4.755 2.144.725 1.475-2.5-1.7-1.544a5.561 5.561 0 0 0 0-1.956l1.7-1.5-1.475-2.5-2.15.7a5.85 5.85 0 0 0-1.687-.981l-.444-2.22h-2.95l-.444 2.245a5.538 5.538 0 0 0-1.693.98l-2.144-.724-1.475 2.5 1.7 1.544a5.562 5.562 0 0 0 0 1.956l-1.7 1.5 1.475 2.5 2.15-.7a5.85 5.85 0 0 0 1.687.981l.444 2.219h2.95l.444-2.244a5.54 5.54 0 0 0 1.694-.981z" fill="#9ca8ba"/>
</svg>
