<svg width="20" height="20" viewBox="0 0 20 20" fill="none" xmlns="http://www.w3.org/2000/svg">
    <path fill-rule="evenodd" clip-rule="evenodd" d="M16.36 20c2.015 0 3.64-1.64 3.64-3.672V3.672C20 1.64 18.375 0 16.36 0H3.64C1.625 0 0 1.64 0 3.672v12.656C0 18.36 1.625 20 3.64 20h12.72zM15.018 6.845a5.576 5.576 0 0 0 1.555-.428 6.794 6.794 0 0 1-1.308 1.355v.356c0 3.601-2.72 7.737-7.668 7.737a7.504 7.504 0 0 1-4.134-1.213c.212.036.424.036.636.036 1.272 0 2.438-.463 3.357-1.176a2.747 2.747 0 0 1-2.509-1.89c.141.036.318.036.495.036.247 0 .494-.036.706-.107-1.236-.25-2.155-1.355-2.155-2.674v-.036c.353.214.777.357 1.201.357-.742-.464-1.201-1.32-1.201-2.246 0-.5.106-.963.353-1.355C5.69 7.237 7.668 8.342 9.894 8.45a3.167 3.167 0 0 1-.07-.606c0-1.497 1.2-2.71 2.685-2.71.777 0 1.484.322 1.979.856.6-.107 1.166-.32 1.696-.641a2.477 2.477 0 0 1-1.166 1.497z" fill="#2AA8E0"/>
</svg>
