<svg width="16" height="16" viewBox="0 0 16 16" fill="none" xmlns="http://www.w3.org/2000/svg">
    <path d="M13.885 14.668H2.115V6.804h-.782V3.679h2.57c-.018-.044-.029-.076-.043-.105a1.555 1.555 0 0 1 .486-1.937c.22-.164.474-.243.737-.3h.39c.04.011.08.025.121.035.373.079.703.294.927.603.1.136.192.277.294.412A6.66 6.66 0 0 0 8 3.572l.083-.067a6.47 6.47 0 0 0 1.35-1.467c.167-.262.412-.464.7-.579.127-.052.26-.083.393-.123h.39c.024.01.048.017.073.023a1.552 1.552 0 0 1 1.266 1.871c-.034.15-.096.293-.148.448h2.56v3.125h-.782v7.865zm-7.066-.787V6.814H2.902v7.067H6.82zm6.276 0V6.814H9.179v7.067h3.916zM6.819 6.016V4.47H2.12v1.546H6.82zm.8-1.55v9.415h.765V4.466h-.766zm1.562 0v1.546h4.697V4.466H9.181zm-2.292-.788.033-.049c-.113-.1-.242-.189-.338-.305-.251-.303-.484-.622-.731-.929a.725.725 0 0 0-.683-.269.776.776 0 0 0 .057 1.548c.216.012.434.004.65.004H6.89zm2.21-.001c.563 0 1.114.008 1.665-.004a.761.761 0 0 0 .735-.638.776.776 0 0 0-1.375-.615c-.129.164-.238.343-.37.503-.207.253-.428.496-.653.754H9.1z" fill="#9CA8BA"/>
</svg>
