<svg width="24" height="24" viewBox="0 0 24 24" fill="none" xmlns="http://www.w3.org/2000/svg">
    <path fill-rule="evenodd" clip-rule="evenodd" d="M3.25 17.5v-1.2l2.025-2.025a.682.682 0 0 0 .225-.525V10a6 6 0 0 1 9.75-4.68l1.08-1.073A7.343 7.343 0 0 0 12.25 2.5V1h-1.5v1.5A7.612 7.612 0 0 0 4 10v3.45l-2.025 2.025A.682.682 0 0 0 1.75 16v1.5h1.5zM19 13.45V10a7.5 7.5 0 0 0-.817-3.375L22 2.808 20.942 1.75 1 21.692l1.058 1.058L5.808 19H7.75a3.75 3.75 0 1 0 7.5 0h5.25a.705.705 0 0 0 .75-.75V16a.682.682 0 0 0-.225-.525L19 13.45zm-7.5 7.8A2.25 2.25 0 0 1 9.25 19h4.5a2.25 2.25 0 0 1-2.25 2.25zm8.25-3.75H7.315l9.75-9.75c.287.715.435 1.48.435 2.25v3.75c-.005.2.077.391.225.525L19.75 16.3v1.2z" fill="#9CA8BA"/>
</svg>
