<svg width="24" height="24" viewBox="0 0 24 24" fill="none" xmlns="http://www.w3.org/2000/svg">
    <path fill-rule="evenodd" clip-rule="evenodd" d="M11.75 12.25a2.75 2.75 0 1 0 0 5.5 2.75 2.75 0 0 0 0-5.5zM10.5 15a1.25 1.25 0 1 1 2.5 0 1.25 1.25 0 0 1-2.5 0z" fill="#9CA8BA"/>
    <path fill-rule="evenodd" clip-rule="evenodd" d="M11.75 1.25A4.75 4.75 0 0 0 7 6v1.26a3.25 3.25 0 0 0-3 3.24v8a3.25 3.25 0 0 0 3.25 3.25h9a3.25 3.25 0 0 0 3.25-3.25v-8a3.25 3.25 0 0 0-3-3.24V6a4.75 4.75 0 0 0-4.75-4.75zM8.5 6A3.25 3.25 0 1 1 15 6v1.25H8.5V6zm-3 4.5c0-.966.784-1.75 1.75-1.75h9c.966 0 1.75.784 1.75 1.75v8a1.75 1.75 0 0 1-1.75 1.75h-9A1.75 1.75 0 0 1 5.5 18.5v-8z" fill="#9CA8BA"/>
</svg>
