<svg width="25" height="24" viewBox="0 0 25 24" fill="none" xmlns="http://www.w3.org/2000/svg">
    <path d="M6.595 8.282c3.261-3.18 8.55-3.18 11.81 0l.393.383a.4.4 0 0 1 0 .575l-1.343 1.31a.213.213 0 0 1-.295 0l-.54-.527c-2.275-2.219-5.964-2.219-8.24 0l-.579.564a.213.213 0 0 1-.295 0l-1.343-1.31a.4.4 0 0 1 0-.575l.431-.42zm14.588 2.708 1.195 1.165a.4.4 0 0 1 0 .576l-5.388 5.254a.425.425 0 0 1-.591 0l-3.825-3.729a.107.107 0 0 0-.148 0l-3.824 3.73a.425.425 0 0 1-.591 0L2.622 12.73a.4.4 0 0 1 0-.576l1.195-1.165a.425.425 0 0 1 .591 0l3.825 3.73c.041.04.107.04.148 0l3.824-3.73a.425.425 0 0 1 .591 0l3.825 3.73c.041.04.107.04.148 0l3.824-3.73a.425.425 0 0 1 .591 0z" fill="#fff"/>
</svg>
