<svg width="20" height="20" viewBox="0 0 20 20" fill="none" xmlns="http://www.w3.org/2000/svg">
    <g clip-path="url(#1za59g1zfa)">
        <path d="M20 0H0v20h20V0z" fill="#12100E"/>
        <path d="M4.773 6.689a.52.52 0 0 0-.17-.44L3.35 4.74v-.226h3.895l3.01 6.603 2.648-6.603h3.713v.226l-1.072 1.028a.314.314 0 0 0-.12.301v7.556c-.019.115.027.23.12.301l1.047 1.029v.226h-5.269v-.226l1.085-1.054c.107-.106.107-.138.107-.3V7.49l-3.017 7.663h-.408L5.576 7.491v5.136a.708.708 0 0 0 .194.59l1.411 1.712v.225H3.18v-.225l1.412-1.712a.683.683 0 0 0 .182-.59V6.69z" fill="#fff"/>
    </g>
    <defs>
        <clipPath id="1za59g1zfa">
            <path fill="#fff" d="M0 0h20v20H0z"/>
        </clipPath>
    </defs>
</svg>
