<svg width="21" height="20" viewBox="0 0 21 20" fill="none" xmlns="http://www.w3.org/2000/svg">
    <path d="m10.508 4.814 1.242-.717V2.384l-1.242-.717v3.147z" fill="#B3B5B6"/>
    <path d="M5.936 12.271V7.453l4.15-2.395V1.667l-6.875 3.97A.421.421 0 0 0 3 6.002v7.94l.002.024 2.934-1.695z" fill="#77C7C4"/>
    <path d="m14.45 12.608-4.152 2.4-4.13-2.385-2.936 1.696 6.855 3.958a.424.424 0 0 0 .422 0l6.876-3.97.004-.002-2.938-1.697z" fill="#6C6E70"/>
    <path d="M17.383 5.637 14.66 4.064v1.711l-2.93 1.692 2.929 1.69v3.084l2.936 1.694V6.003a.432.432 0 0 0-.21-.366z" fill="#B3B5B6"/>
    <path d="m8.842 9.132.002 3.358 2.85-1.645V7.486L8.842 9.132z" fill="#6C6E70"/>
</svg>
