<svg width="20" height="20" viewBox="0 0 20 20" fill="none" xmlns="http://www.w3.org/2000/svg">
    <g clip-path="url(#b5jn7ne0ma)">
        <path d="M9.975.002s5.894-.264 9.02 5.64H9.473s-1.797-.058-3.332 2.114c-.441.912-.915 1.851-.383 3.702-.766-1.293-4.067-7.021-4.067-7.021S4.02.235 9.975.002z" fill="#EF3F36"/>
        <path d="M18.688 14.989s-2.72 5.22-9.41 4.962l4.761-8.216s.951-1.522-.17-3.933c-.571-.837-1.152-1.713-3.026-2.18 1.507-.014 8.135 0 8.135 0s2.482 4.11-.29 9.367z" fill="#FCD900"/>
        <path d="M1.302 15.03s-3.177-4.956.394-10.602c.824 1.425 4.76 8.216 4.76 8.216s.848 1.582 3.502 1.818c1.011-.075 2.064-.138 3.409-1.519-.742 1.307-4.068 7.019-4.068 7.019s-4.817.088-7.997-4.932z" fill="#61BC5B"/>
        <path d="m9.275 20 1.34-5.568s1.47-.116 2.705-1.464C12.554 14.311 9.275 20 9.275 20z" fill="#5AB055"/>
        <path d="M5.489 10.062c0-2.455 1.997-4.446 4.461-4.446a4.454 4.454 0 0 1 4.461 4.446 4.454 4.454 0 0 1-4.461 4.445c-2.464-.002-4.461-1.99-4.461-4.445z" fill="#fff"/>
        <path d="M6.235 10.062A3.708 3.708 0 0 1 9.95 6.361a3.708 3.708 0 0 1 3.715 3.701 3.708 3.708 0 0 1-3.715 3.702 3.71 3.71 0 0 1-3.715-3.702z" fill="url(#6q337d1tyb)"/>
        <path d="M18.973 5.625 13.46 7.236s-.832-1.216-2.62-1.611c1.551-.009 8.134 0 8.134 0z" fill="#EACA05"/>
        <path d="M5.652 11.255c-.775-1.337-3.96-6.818-3.96-6.818l4.083 4.025s-.418.86-.261 2.09l.137.703z" fill="#DF3A32"/>
    </g>
    <defs>
        <linearGradient id="6q337d1tyb" x1="9.95" y1="6.413" x2="9.95" y2="13.541" gradientUnits="userSpaceOnUse">
            <stop stop-color="#86BBE5"/>
            <stop offset="1" stop-color="#1072BA"/>
        </linearGradient>
        <clipPath id="b5jn7ne0ma">
            <path fill="#fff" d="M0 0h20v20H0z"/>
        </clipPath>
    </defs>
</svg>
