<svg width="20" height="20" viewBox="0 0 20 20" fill="none" xmlns="http://www.w3.org/2000/svg">
    <path d="M6.308 6.096a.537.537 0 0 0-.882.191L.868 18.44c-.161.43.26.853.692.691l12.153-4.557a.537.537 0 0 0 .19-.883L6.309 6.096zm-.17 1.35 2.208 2.206a9.72 9.72 0 0 0 1.941 5.06l-2.297.86a8.654 8.654 0 0 1-2.362-6.764l.51-1.363zM4.692 16.81a8.531 8.531 0 0 1-1.314-2l1.297-3.459a9.657 9.657 0 0 0 2.23 4.628l-2.213.83zm-1.815-.664c.225.371.474.726.747 1.064l-1.334.5.587-1.564zm8.467-1.83a8.63 8.63 0 0 1-1.694-3.36l2.906 2.905-1.212.454zM13.313 10.865c.21.21.55.21.76 0 2.02-2.02 3.987-1.396 4.007-1.39a.537.537 0 0 0 .34-1.019c-.106-.035-2.623-.836-5.107 1.65-.21.209-.21.55 0 .759zM9.135 6.687c.21.21.55.21.76 0 2.485-2.485 1.684-5 1.649-5.107a.537.537 0 0 0-1.02.34c.007.02.632 1.987-1.389 4.008-.21.21-.21.55 0 .76zM11.034 7.826a.537.537 0 0 0 .756.763c.278-.138 1.139.38 1.618-.098.473-.473-.03-1.317.096-1.613.296-.126 1.14.378 1.613-.096.473-.473-.03-1.317.096-1.613.296-.126 1.14.378 1.613-.096.473-.473-.03-1.317.096-1.613.294-.125 1.14.377 1.613-.096.478-.478-.04-1.341.098-1.617A.537.537 0 0 0 17.87.99c-.423.423-.34 1.02-.26 1.448-.428-.08-1.026-.163-1.449.26-.423.424-.34 1.021-.26 1.449-.428-.08-1.026-.163-1.449.26-.423.424-.34 1.021-.26 1.449-.428-.08-1.026-.163-1.449.26-.423.424-.34 1.021-.26 1.449-.428-.08-1.026-.163-1.449.26zM14.072 3.27a.537.537 0 1 0-.759-.76.537.537 0 0 0 .76.76zM17.49 7.224a.537.537 0 1 0 0-1.074.537.537 0 0 0 0 1.074zM16.35 11.624a.537.537 0 1 0 .76.76.537.537 0 0 0-.76-.76zM8.755 4.029a.537.537 0 1 0-.76-.76.537.537 0 0 0 .76.76z" fill="#8673FF"/>
</svg>
