<svg width="198" height="30" viewBox="0 0 198 30" fill="none" xmlns="http://www.w3.org/2000/svg">
    <path d="M.73 28.86h1.198a27.263 27.263 0 0 1 8.01-18.945 27.382 27.382 0 0 1 18.985-7.991V.728A28.582 28.582 0 0 0 9.09 9.07 28.457 28.457 0 0 0 .73 28.86z" fill="#FF006C"/>
    <path d="M29.253 0A29.327 29.327 0 0 0 8.58 8.56 29.198 29.198 0 0 0 0 29.19v.357h2.644v-.357a26.562 26.562 0 0 1 7.806-18.762 26.68 26.68 0 0 1 18.803-7.789h.358V0h-.358zm-.33 1.924A27.382 27.382 0 0 0 9.937 9.915 27.263 27.263 0 0 0 1.928 28.86H.73A28.457 28.457 0 0 1 9.09 9.07 28.582 28.582 0 0 1 28.923.728v1.196z" fill="#FF006C"/>
    <path d="M10.357 28.86h1.198a17.667 17.667 0 0 1 5.189-12.153 17.745 17.745 0 0 1 12.179-5.177v-1.196a18.944 18.944 0 0 0-13.026 5.527 18.862 18.862 0 0 0-5.54 12.998z" fill="#00A2D0"/>
    <path d="M9.64 29.19v.356h2.645v-.357a16.926 16.926 0 0 1 4.974-11.968 17 17 0 0 1 11.994-4.963h.358V9.62h-.358a19.662 19.662 0 0 0-13.86 5.74 19.575 19.575 0 0 0-5.752 13.83zm19.283-17.66a17.744 17.744 0 0 0-12.18 5.177 17.667 17.667 0 0 0-5.188 12.152h-1.198a18.862 18.862 0 0 1 5.54-12.998 18.944 18.944 0 0 1 13.026-5.527v1.196z" fill="#00A2D0"/>
    <path d="M19.984 28.86h1.212a8.045 8.045 0 0 1 2.357-5.359 8.078 8.078 0 0 1 5.37-2.351v-1.21a9.306 9.306 0 0 0-6.223 2.71 9.267 9.267 0 0 0-2.716 6.21z" fill="#FF006C"/>
    <path d="M19.282 29.19v.356h2.658v-.357c0-1.943.773-3.806 2.15-5.18a7.35 7.35 0 0 1 5.19-2.145h.359V19.24h-.358a10.024 10.024 0 0 0-7.057 2.917 9.98 9.98 0 0 0-2.942 7.033zm9.64-8.04a8.079 8.079 0 0 0-5.369 2.351 8.045 8.045 0 0 0-2.357 5.358h-1.212a9.267 9.267 0 0 1 2.717-6.208 9.306 9.306 0 0 1 6.222-2.71v1.209z" fill="#FF006C"/>
    <path d="M59.057 13.921a6.696 6.696 0 0 0-2.038-1.374 6.541 6.541 0 0 0-3.691-.399 5.216 5.216 0 0 0-1.116.33c-.37.149-.718.348-1.033.591a3.81 3.81 0 0 0-.84.852l-.62.852-.661-.838a4.474 4.474 0 0 0-1.873-1.457 6.252 6.252 0 0 0-4.518 0 7.083 7.083 0 0 0-1.983 1.182l-.592.495-1.529-1.787v17.288h3.21V18.47a3.154 3.154 0 0 1 .247-1.237 3.105 3.105 0 0 1 1.694-1.718 3.201 3.201 0 0 1 2.493 0c.39.159.742.397 1.033.701a3.154 3.154 0 0 1 .95 2.267V29.67h3.21v-11.2a3.154 3.154 0 0 1 .247-1.237c.16-.381.39-.73.675-1.03a3.201 3.201 0 0 1 4.545.014c.293.296.527.646.689 1.03.165.391.25.812.248 1.237V29.67h3.195v-11.2a6.377 6.377 0 0 0-.496-2.501 6.624 6.624 0 0 0-1.446-2.048zM80.13 14.168a8.528 8.528 0 0 0-2.755-1.841 9.066 9.066 0 0 0-3.47-.66 8.68 8.68 0 0 0-3.43.687 8.939 8.939 0 0 0-2.755 1.924 9.137 9.137 0 0 0-1.9 2.9 9.86 9.86 0 0 0 0 7.311 8.86 8.86 0 0 0 4.724 4.81 8.735 8.735 0 0 0 9.64-1.924 8.93 8.93 0 0 0 1.901-2.886 9.328 9.328 0 0 0 .703-3.642 9.726 9.726 0 0 0-.703-3.779 9.044 9.044 0 0 0-1.956-2.9zm-1.089 9.084a5.907 5.907 0 0 1-1.212 1.883 5.346 5.346 0 0 1-1.79 1.21 5.52 5.52 0 0 1-2.176.44 5.354 5.354 0 0 1-2.245-.468 5.509 5.509 0 0 1-1.777-1.264 5.868 5.868 0 0 1-1.17-1.883 6.118 6.118 0 0 1-.428-2.323 6.364 6.364 0 0 1 .428-2.39c.26-.7.658-1.34 1.17-1.884a5.054 5.054 0 0 1 1.804-1.223 5.783 5.783 0 0 1 4.339 0 5.138 5.138 0 0 1 1.79 1.223c.518.54.925 1.174 1.198 1.87.581 1.55.581 3.258 0 4.81h.07zM100.045 14.265a7.66 7.66 0 0 0-10.564-.275l-.606.55-1.887-2.172v17.288h3.21V19.68a4.5 4.5 0 0 1 .344-1.718c.232-.51.554-.976.95-1.374a4.48 4.48 0 0 1 4.917-.976c.51.204.978.503 1.377.88.399.396.72.862.95 1.374.233.543.35 1.128.345 1.718v9.977h3.209v-9.88a7.604 7.604 0 0 0-.593-2.97 7.721 7.721 0 0 0-1.652-2.445zM111.875 12.368a5.05 5.05 0 0 0-2.038.412 5.191 5.191 0 0 0-1.653 1.1 5.162 5.162 0 0 0-1.501 3.683c-.01.694.126 1.382.4 2.02a5.298 5.298 0 0 0 1.101 1.663 5.4 5.4 0 0 0 1.667 1.127 4.979 4.979 0 0 0 2.024.412h5.014c.401-.013.801.062 1.17.22a1.457 1.457 0 0 1 .827 1.374 1.996 1.996 0 0 1-1.997 2.007h-10.206v3.188h10.206a4.967 4.967 0 0 0 2.01-.412 4.875 4.875 0 0 0 1.653-1.113c.47-.48.852-1.038 1.13-1.65.268-.64.404-1.326.399-2.02a4.55 4.55 0 0 0-1.501-3.45 4.9 4.9 0 0 0-1.653-1.002 5.89 5.89 0 0 0-2.038-.358h-5.014a1.942 1.942 0 0 1-1.377-.604 2.045 2.045 0 0 1-.578-1.375 1.936 1.936 0 0 1 .592-1.374c.364-.37.858-.581 1.377-.59h9.93v-3.258h-9.944z" fill="#2C2C2C"/>
    <path d="M130.468 4.892h-3.195v7.476h-5.509v3.188h5.509v6.432a7.308 7.308 0 0 0 .606 2.955 8.039 8.039 0 0 0 1.584 2.542 7.888 7.888 0 0 0 2.451 1.635c.935.405 1.943.61 2.961.605h2.851v-3.257h-2.754a4.435 4.435 0 0 1-1.791-.357c-.513-.23-.98-.55-1.377-.948a4.739 4.739 0 0 1-.95-1.375 4.52 4.52 0 0 1-.386-1.8v-6.377h7.258v-3.243h-7.258V4.892zM165.451 16.738a5.509 5.509 0 0 1 1.79-1.374 5.3 5.3 0 0 1 5.289.481c.452.327.855.715 1.198 1.155l.317.453 2.245-2.226a7.86 7.86 0 0 0-1.033-1.21 8.762 8.762 0 0 0-1.721-1.278 8.568 8.568 0 0 0-1.984-.797 8.369 8.369 0 0 0-2.107-.275 7.993 7.993 0 0 0-3.416.742 8.99 8.99 0 0 0-2.754 2.02 9.735 9.735 0 0 0-1.915 3.038 9.935 9.935 0 0 0-.702 3.751 8.617 8.617 0 0 0 .689 3.422 8.961 8.961 0 0 0 5.784 5 8.914 8.914 0 0 0 6.446-.657 9.902 9.902 0 0 0 1.735-1.182c.363-.316.699-.66 1.006-1.03l-2.3-2.31c-.083.124-.193.248-.29.372a5.505 5.505 0 0 1-1.212 1.044c-.429.271-.892.483-1.377.632a5.617 5.617 0 0 1-3.76-.206 5.508 5.508 0 0 1-2.523-2.01 5.484 5.484 0 0 1-.961-3.075 6.92 6.92 0 0 1 .427-2.487 6.054 6.054 0 0 1 1.129-1.993zM190.049 19.404l5.564-6.98h-3.484l-8.388 10.608V4.892h-3.236v24.764h1.666l1.57-1.882 4.27-5.635 5.812 7.517h3.677l-7.451-10.252zM154.763 14.168a8.18 8.18 0 0 0-2.754-1.841 9.067 9.067 0 0 0-3.471-.66 8.677 8.677 0 0 0-3.429.687 8.83 8.83 0 0 0-4.724 4.824 10.048 10.048 0 0 0 0 7.311 8.886 8.886 0 0 0 1.914 2.886 9.04 9.04 0 0 0 2.755 1.924 8.797 8.797 0 0 0 6.886 0 9.04 9.04 0 0 0 2.755-1.924 8.89 8.89 0 0 0 1.886-2.886 9.321 9.321 0 0 0 .703-3.642 9.725 9.725 0 0 0-.703-3.779 8.802 8.802 0 0 0-1.818-2.9zm-1.088 9.084a5.897 5.897 0 0 1-1.212 1.883 5.145 5.145 0 0 1-1.79 1.21 5.6 5.6 0 0 1-4.352 0 5.292 5.292 0 0 1-1.791-1.21 5.643 5.643 0 0 1-1.198-1.883 6.789 6.789 0 0 1 0-4.81 5.745 5.745 0 0 1 1.198-1.869 5.052 5.052 0 0 1 1.805-1.223 5.516 5.516 0 0 1 2.162-.426 5.518 5.518 0 0 1 2.176.426c.68.28 1.294.696 1.804 1.223.508.547.914 1.18 1.198 1.87a6.978 6.978 0 0 1 0 4.81z" fill="#2C2C2C"/>
</svg>
