<svg width="24" height="24" viewBox="0 0 24 24" fill="none" xmlns="http://www.w3.org/2000/svg">
    <g clip-path="url(#dewhx28fqa)">
        <path d="M23.64 14.903c-1.603 6.429-8.114 10.341-14.543 8.738C2.67 22.038-1.243 15.527.36 9.098 1.963 2.67 8.474-1.244 14.9.36c6.43 1.603 10.341 8.115 8.739 14.544z" fill="#F7931A"/>
        <path d="M17.291 10.29c.239-1.596-.977-2.454-2.64-3.027l.54-2.163-1.317-.328-.525 2.106a55.34 55.34 0 0 0-1.055-.248l.53-2.12-1.317-.328-.54 2.162c-.286-.065-.567-.13-.84-.198l.002-.006-1.816-.454-.35 1.406s.976.224.956.238c.533.133.63.486.613.766l-.614 2.464c.037.01.084.023.137.044l-.14-.035-.86 3.452c-.066.162-.23.405-.604.313.013.02-.957-.239-.957-.239l-.653 1.507 1.713.427c.319.08.631.164.939.243l-.545 2.187 1.315.329.54-2.165c.359.098.708.188 1.049.272l-.538 2.155 1.317.328.545-2.184c2.245.425 3.933.254 4.644-1.777.572-1.635-.029-2.578-1.21-3.193.86-.199 1.508-.764 1.681-1.933zm-3.008 4.22c-.407 1.634-3.16.75-4.053.529l.723-2.899c.893.223 3.755.664 3.33 2.37zm.407-4.243c-.371 1.487-2.662.732-3.406.546l.656-2.628c.743.185 3.137.53 2.75 2.082z" fill="#fff"/>
    </g>
    <defs>
        <clipPath id="dewhx28fqa">
            <path fill="#fff" d="M0 0h24v24H0z"/>
        </clipPath>
    </defs>
</svg>
