<svg width="24" height="24" viewBox="0 0 24 24" fill="none" xmlns="http://www.w3.org/2000/svg">
    <path d="m12.01 5.777 1.49-.86V2.86L12.01 2v3.777z" fill="#B3B5B6"/>
    <path d="M6.523 14.725V8.943l4.98-2.874V2l-8.25 4.764A.505.505 0 0 0 3 7.202v9.529l.003.028 3.52-2.034z" fill="#77C7C4"/>
    <path d="m16.74 15.13-4.983 2.88-4.955-2.863-3.524 2.036 8.226 4.75a.509.509 0 0 0 .506 0l8.251-4.764.006-.003-3.527-2.036z" fill="#6C6E70"/>
    <path d="m20.261 6.764-3.27-1.887V6.93l-3.516 2.03 3.515 2.028v3.7l3.524 2.033V7.203a.518.518 0 0 0-.253-.44z" fill="#B3B5B6"/>
    <path d="m10.01 10.957.003 4.03 3.42-1.975v-4.03l-3.422 1.975z" fill="#6C6E70"/>
</svg>
