<svg width="24" height="24" viewBox="0 0 24 24" fill="none" xmlns="http://www.w3.org/2000/svg">
    <g clip-path="url(#w4lvizpc6a)">
        <path d="M.846 9.22C2.381 3.057 8.621-.693 14.78.843c6.162 1.536 9.91 7.777 8.375 13.938-1.536 6.16-7.776 9.91-13.938 8.374C3.06 21.62-.69 15.38.846 9.219z" fill="#FAFBFC" stroke="#D4D9EA"/>
        <path d="m12.139 2-.135.456V15.68l.135.134 6.138-3.629L12.138 2z" fill="#343434"/>
        <path d="m12.139 2-6.14 10.185 6.14 3.63V2z" fill="#8C8C8C"/>
        <path d="m12.139 16.976-.076.092v4.711l.075.221 6.143-8.65-6.142 3.626z" fill="#3C3C3B"/>
        <path d="M12.139 22v-5.024l-6.14-3.626L12.14 22z" fill="#8C8C8C"/>
        <path d="m12.139 15.814 6.138-3.628-6.139-2.79v6.418z" fill="#141414"/>
        <path d="m6 12.186 6.139 3.628V9.396l-6.14 2.79z" fill="#393939"/>
    </g>
    <defs>
        <clipPath id="w4lvizpc6a">
            <path fill="#fff" d="M0 0h24v24H0z"/>
        </clipPath>
    </defs>
</svg>
