<svg width="24" height="24" viewBox="0 0 24 24" fill="none" xmlns="http://www.w3.org/2000/svg">
    <g clip-path="url(#0dvjot507a)" fill="#1465E5">
        <path d="m21.829 9.231-.025-.124c-.273-1.305-1.388-2.112-2.927-2.112H5.034c-1.539 0-2.665.811-2.937 2.112l-.026.125a5.054 5.054 0 0 0-.071.914v3.652c0 .261.015.522.047.781v.014c.182 1.502 1.298 2.399 2.985 2.399h10.009a.158.158 0 0 0 .158-.158V10.92a.158.158 0 0 0-.158-.159h-.578a.158.158 0 0 0-.158.159v5.183H5.257c-1.498 0-2.359-.914-2.36-2.272v-3.696c0-1.372.86-2.253 2.36-2.253H18.66c1.5 0 2.35.874 2.35 2.244v3.695c0 1.358-.852 2.277-2.352 2.277H17.817a.158.158 0 0 0-.159.158v.584a.158.158 0 0 0 .158.158h1.068c1.69 0 2.792-.9 2.973-2.403v-.014c.032-.259.049-.52.049-.78v-3.653a5.156 5.156 0 0 0-.072-.913"/>
        <path d="M10.284 13.468c0 .598.373 1.005.932 1.005h.25a.157.157 0 0 0 .113-.046.158.158 0 0 0 .047-.114v-.499a.155.155 0 0 0-.098-.147.157.157 0 0 0-.06-.011h-.289V9.66a.158.158 0 0 0-.158-.158h-.579a.158.158 0 0 0-.158.158v3.81M12.296 11.245v2.224c0 .598.375 1 .933 1h.242a.158.158 0 0 0 .158-.159v-.5a.15.15 0 0 0-.012-.06.157.157 0 0 0-.146-.097h-.281v-2.408a.158.158 0 0 0-.158-.157h-.578a.158.158 0 0 0-.158.157zM9.598 9.725l.006-.019a.163.163 0 0 0 .007-.033.465.465 0 0 0 0-.052.228.228 0 0 0-.024-.051l-.01-.015-.021-.02-.021-.015-.024-.01a.39.39 0 0 0-.055-.011h-.682a.156.156 0 0 0-.038.01.151.151 0 0 0-.051.034l-2.029 1.744a.618.618 0 0 0-.046.824l2.057 2.291.01.01.007.006a.138.138 0 0 0 .043.03h.008c.017.006.036.01.054.01h.681a.147.147 0 0 0 .049-.01.17.17 0 0 0 .048-.027.09.09 0 0 0 .014-.008.125.125 0 0 0 .027-.04v-.015a.19.19 0 0 0 .009-.041v-.015a.158.158 0 0 0-.034-.095l-2.187-2.504 2.17-1.936a.172.172 0 0 0 .032-.046M12.454 10.375h.578a.158.158 0 0 0 .158-.157V9.66a.16.16 0 0 0-.158-.157h-.578a.158.158 0 0 0-.158.156v.562a.15.15 0 0 0 .01.053.157.157 0 0 0 .148.105M6.036 9.653a.158.158 0 0 0-.159-.159H5.3a.182.182 0 0 0-.055.012l-.015.007a.117.117 0 0 0-.034.022l-.011.01a.165.165 0 0 0-.029.043.153.153 0 0 0-.013.062v4.646c0 .022.004.043.013.063a.158.158 0 0 0 .146.098h.577a.158.158 0 0 0 .159-.158V9.654M18.72 12.886l.007-.028v-.032c.042-.272.046-.55.011-.823-.091-.76-.671-1.233-1.512-1.233H15.79a.158.158 0 0 0-.112.046.157.157 0 0 0-.048.113v.567c0 .021.005.043.013.062a.165.165 0 0 0 .084.085c.02.008.041.012.063.012h1.338c.528 0 .803.241.803.706v.017c0 .475-.27.716-.803.716h-1.355a.173.173 0 0 0-.04.008.131.131 0 0 0-.043.03h-.008v.008a.149.149 0 0 0-.029.043.152.152 0 0 0-.007.062v.567a.158.158 0 0 0 .158.158h1.455c.778 0 1.332-.423 1.472-1.093"/>
    </g>
    <defs>
        <clipPath id="0dvjot507a">
            <path fill="#fff" transform="translate(2 7)" d="M0 0h19.904v10H0z"/>
        </clipPath>
    </defs>
</svg>
