<svg width="296" height="348" viewBox="0 0 296 348" fill="none" xmlns="http://www.w3.org/2000/svg">
    <path d="M108.949 17.22a.5.5 0 0 0-.229-.67l-4.044-1.975a.5.5 0 1 0-.439.899l3.594 1.756-1.756 3.593a.5.5 0 0 0 .898.44l1.976-4.044zM28 130.52c0-52.401 33.729-96.927 80.662-113.047l-.324-.946C61.013 32.782 27 77.678 27 130.52h1zm21.14 67.883C35.808 179.124 28 155.735 28 130.52h-1c0 25.424 7.874 49.01 21.317 68.452l.822-.569zM188.273 16.555a.5.5 0 0 0-.218.672l2.047 4.008a.5.5 0 1 0 .89-.455l-1.819-3.562 3.562-1.82a.5.5 0 0 0-.455-.89l-4.007 2.047zm.073.92C236.314 33.008 271 78.048 271 131.188h1c0-53.586-34.978-99.001-83.346-114.663l-.308.952zM271 131.188c0 24.353-7.284 47.002-19.792 65.891l.834.552C264.655 178.583 272 155.742 272 131.187h-1z" fill="#6EE0B0"/>
    <path d="M238.704 190.692a.501.501 0 0 0 .602.371l4.378-1.038a.501.501 0 0 0-.23-.973l-3.892.922-.923-3.892a.5.5 0 1 0-.973.231l1.038 4.379zM255 132.909c0 21.052-5.94 40.714-16.235 57.405l.851.525c10.39-16.844 16.384-36.688 16.384-57.93h-1zM171.382 26.486C219.366 38.114 255 81.35 255 132.909h1c0-52.03-35.96-95.66-84.382-107.395l-.236.972zM148.854 48.646a.501.501 0 0 0-.708 0l-3.182 3.182a.5.5 0 0 0 .708.707l2.828-2.828 2.828 2.828a.501.501 0 0 0 .708-.707l-3.182-3.182zM148 49v64h1V49h-1zM213.5 188.5a.5.5 0 0 0 .5-.5v-4.5a.5.5 0 0 0-1 0v4h-4a.5.5 0 0 0 0 1h4.5zm.354-.854-41-41-.708.708 41 41 .708-.708zM114.5 154.5a.5.5 0 0 1 .5.5v4.5a.5.5 0 0 1-1 0v-4h-4a.5.5 0 0 1 0-1h4.5zm.354.854-41 41-.708-.708 41-41 .708.708zM101.03 239.059a.5.5 0 0 1 .298-.641l4.227-1.545a.5.5 0 1 1 .343.939l-3.757 1.374 1.374 3.756a.5.5 0 0 1-.939.344l-1.546-4.227zm.681-.625c15.285 7.101 32.323 11.065 50.289 11.065v1c-18.114 0-35.296-3.997-50.711-11.158l.422-.907zM152 249.499c21.357 0 41.404-5.602 58.754-15.417l.492.871c-17.496 9.897-37.712 15.546-59.246 15.546v-1z" fill="#6EE0B0"/>
    <rect x="114.5" y="108" width="70" height="44" rx="8" fill="#8673FF"/>
    <path d="M132.039 129.89h3.15v-3.35h-4.21v.84h3.17v1.68h-3.15v3.58h.77c1.59 0 2.94-.05 4.49-.32l-.11-.84c-1.43.23-2.68.3-4.11.31v-1.9zm4.86-4.17v9.07h1.04v-9.07h-1.04zm5.689 1.22c.77 0 1.31.4 1.31 1.02 0 .63-.54 1.02-1.31 1.02-.78 0-1.32-.39-1.32-1.02 0-.62.54-1.02 1.32-1.02zm0 2.84c1.33 0 2.28-.73 2.28-1.82 0-1.07-.95-1.8-2.28-1.8-1.34 0-2.29.73-2.29 1.8 0 1.09.95 1.82 2.29 1.82zm2.95.35c-1.95.27-4.19.29-5.89.29l.13.85c.68 0 1.44-.01 2.24-.04v3.26h1.03v-3.31c.85-.05 1.71-.14 2.55-.29l-.06-.76zm.63-4.39v6.12h-1.93v.79h1.93v2.12h1.04v-9.03h-1.04zm9.979 4.26h-5.23v-2.63h5.16v-.84h-6.19v4.3h6.26V130zm-7.26 2.76v.85h8.19v-.85h-8.19zm16.555-4.58h-2.08v-1.43h2.08v1.43zm-3.11 0h-1.23v.79h6.59v-.79h-1.22v-1.43h1.27v-.79h-6.69v.79h1.28v1.43zm6.17 2.23v-.82h-8.19v.82h3.57v.73h-2.6v.76h5.18v.63h-5.15v2.16h6.42v-.77h-5.4v-.68h5.14v-2.1h-2.55v-.73h3.58z" fill="#fff"/>
    <rect x="202.5" y="196" width="70" height="44" rx="8" fill="#8673FF"/>
    <path d="M232.881 205.9c1.29 0 2.14.44 2.14 1.16 0 .73-.85 1.17-2.14 1.17-1.3 0-2.15-.44-2.15-1.17 0-.72.85-1.16 2.15-1.16zm0 3.16c1.9 0 3.2-.78 3.2-2 0-1.21-1.3-1.99-3.2-1.99-1.91 0-3.21.78-3.21 1.99 0 1.22 1.3 2 3.21 2zm4.11.77h-8.19v.85h2v3.09h1.05v-3.09h2.06v3.09h1.05v-3.09h2.04l-.01-.85zm4.259-3.35h1.96v-.84h-4.95v.84h1.95v.73c0 1.63-.91 3.35-2.3 4.02l.61.82c1.05-.54 1.83-1.64 2.23-2.92.4 1.21 1.17 2.23 2.2 2.73l.6-.81c-1.4-.65-2.3-2.31-2.3-3.84v-.73zm3.22-1.75v3.23h-1.78v.85h1.78v4.97h1.03v-9.05h-1.03zm-17.354 28.26.72-.32c-.86-1.43-1.26-3.12-1.26-4.8 0-1.67.4-3.36 1.26-4.8l-.72-.31c-.93 1.51-1.48 3.14-1.48 5.11 0 1.99.55 3.6 1.48 5.12zm9.415-9.67h-3.12v-.71h-1.04v.71h-3.16v.74h7.32v-.74zm-5.7 7.04h5.12v-1.94h-6.18v.72h5.14v.54h-5.12v2.01h6.42v-.73h-5.38v-.6zm.19-4.85c0-.33.58-.48 1.87-.48 1.28 0 1.87.15 1.87.48 0 .34-.59.49-1.87.49-1.29 0-1.87-.15-1.87-.49zm2.39 1.66v-.51c1.59-.07 2.44-.45 2.44-1.15 0-.78-1.03-1.15-2.96-1.15-1.94 0-2.96.37-2.96 1.15 0 .7.84 1.08 2.44 1.15v.51h-3.56v.76h8.16v-.76h-3.56zm6.069-2.76h3.07v-.84h-4.1v6.01h.71c1.68 0 2.78-.06 4.03-.3l-.1-.83c-1.15.21-2.14.26-3.61.27v-4.31zm5-1.68v3.21h-2.42v.85h2.42v5h1.03v-9.06h-1.03zm3.399 10.26c.94-1.52 1.49-3.13 1.49-5.12 0-1.97-.55-3.6-1.49-5.11l-.72.31c.86 1.44 1.26 3.13 1.26 4.8 0 1.68-.4 3.37-1.26 4.8l.72.32z" fill="#fff"/>
    <rect x="26.5" y="304" width="70" height="44" rx="8" fill="#8673FF"/>
    <path d="M57.57 317.01c-1.78-.3-3.23-1.64-3.23-3.04v-.68h-1.09v.68c0 1.39-1.45 2.74-3.24 3.04l.44.86c1.47-.29 2.75-1.19 3.35-2.39.58 1.2 1.86 2.1 3.34 2.39l.43-.86zm-3.27 2.79v-2.11h-1.03v2.11h-3.53v.85h8.18v-.85H54.3zm4.999-6.52v.83h3.11c-.18 1.38-1.42 2.5-3.54 3.04l.42.81c2.66-.71 4.21-2.34 4.21-4.68h-4.2zm.75 5.96h4.91v2.54h1.03v-3.37h-5.94v.83zm7.22-4.29h-1.28v-2.22h-1.03v5.28h1.03v-2.21h1.28v-.85zm2.725 7.85h.8l2.78-9.79h-.8l-2.78 9.79zm-23.425 8.97c1.27 0 2.1.37 2.1 1.01s-.83 1.01-2.1 1.01c-1.28 0-2.11-.37-2.11-1.01s.83-1.01 2.11-1.01zm0 2.85c1.93 0 3.2-.71 3.2-1.84 0-1.13-1.27-1.84-3.2-1.84-1.94 0-3.2.71-3.2 1.84 0 1.13 1.26 1.84 3.2 1.84zm-2.04 2.31h-1.04v2.67h6.28v-.84h-5.24v-1.83zm-2.05-1.7v.84h3.64v1.71h1.05v-1.71h3.5v-.84h-8.19zm10.309-1.8c0-.79.58-1.31 1.38-1.31.78 0 1.36.52 1.36 1.31 0 .78-.58 1.3-1.36 1.3-.8 0-1.38-.52-1.38-1.3zm5.35-.61v1.22h-1.72a2 2 0 0 0 .09-.61c0-.22-.03-.42-.08-.61h1.71zm0 2.05v1.19h1.03v-5.33h-1.03v1.25h-2.18c-.42-.45-1.05-.73-1.79-.73-1.35 0-2.36.9-2.36 2.18 0 1.27 1.01 2.17 2.36 2.17.73 0 1.37-.27 1.79-.73h2.18zm-1.98 4.09c-1.28 0-2.03-.33-2.03-.95 0-.6.75-.94 2.03-.94 1.29 0 2.03.34 2.03.94 0 .62-.74.95-2.03.95zm0-2.7c-1.88 0-3.04.65-3.04 1.75 0 1.11 1.16 1.76 3.04 1.76 1.88 0 3.05-.65 3.05-1.76 0-1.1-1.17-1.75-3.05-1.75zm9.725-3.68h1.51v-.85h-4.14v.85h1.63v.5c0 1.79-.57 3.36-1.88 4.12l.63.77c.89-.53 1.47-1.45 1.78-2.6.33 1 .89 1.82 1.75 2.29l.6-.79c-1.31-.68-1.88-2.16-1.88-3.79v-.5zm4.02-1.85v3.57h-.99v-3.4h-.97v8.45h.97v-4.2h.99v4.62h.98v-9.04h-.98zm7.11 5.31v.72h1.77v.84h1.03v-6.87h-1.03v5.31h-1.77zm-1.8-4.2c.74 0 1.25.32 1.25.83s-.51.83-1.25.83c-.75 0-1.26-.32-1.26-.83s.51-.83 1.26-.83zm0 2.42c1.32 0 2.23-.63 2.23-1.59 0-.96-.91-1.59-2.23-1.59-1.33 0-2.24.63-2.24 1.59 0 .96.91 1.59 2.24 1.59zm-.41 3.05h1.03v-1.74c.77-.05 1.56-.13 2.32-.26l-.08-.74c-1.91.24-4.13.26-5.79.27l.13.84c.72 0 1.53-.01 2.39-.05v1.68zm-.27 1.45v-1.83h-1.03v2.67h6.52v-.84h-5.49z" fill="#fff"/>
    <rect x="26.5" y="196" width="70" height="44" rx="8" fill="#8673FF"/>
    <path d="M54.898 217.07c-1.82-.26-3.18-1.39-3.18-2.56v-.48h-1.09v.48c0 1.19-1.34 2.3-3.18 2.56l.4.83c1.5-.24 2.75-.99 3.33-2.04.59 1.04 1.82 1.8 3.32 2.04l.4-.83zm.35 1.68h-8.16v.84h3.54v3.19h1.03v-3.19h3.59v-.84zm2.39.79v.84h5.06v2.4h1.03v-3.24h-6.09zm5.06-5.8v5.34h1.03v-5.34h-1.03zm-3.84.52c-1.38 0-2.4.89-2.4 2.17 0 1.28 1.02 2.17 2.4 2.17 1.37 0 2.39-.89 2.39-2.17 0-1.28-1.02-2.17-2.39-2.17zm0 .87c.8 0 1.39.51 1.39 1.3s-.59 1.3-1.39 1.3c-.81 0-1.39-.51-1.39-1.3s.58-1.3 1.39-1.3zm13.985 1.05h-2.08v-1.43h2.08v1.43zm-3.11 0h-1.23v.79h6.59v-.79h-1.22v-1.43h1.27v-.79h-6.69v.79h1.28v1.43zm6.17 2.23v-.82h-8.19v.82h3.57v.73h-2.6v.76h5.18v.63h-5.15v2.16h6.42v-.77h-5.4v-.68h5.14v-2.1h-2.55v-.73h3.58z" fill="#fff"/>
    <rect x="113.5" width="70" height="44" rx="8" fill="#8673FF"/>
    <path d="M138.442 13.15c-1.78-.32-3.23-1.71-3.23-3.15v-.68h-1.09V10c0 1.43-1.45 2.82-3.23 3.15l.44.85c1.47-.3 2.74-1.24 3.33-2.48.59 1.24 1.86 2.18 3.33 2.48l.45-.85zm-7.83 2.61v.85h8.18v-.85h-8.18zm10.489-2.73h1.98v-.81h-1.98v-1.61h2.36v-.83h-3.35v5.9h.6c1.37 0 2.22-.03 3.24-.21l-.09-.84c-.89.16-1.65.2-2.76.21v-1.81zm3.59-.93h-1.16v.85h1.16v4.39h.97V8.93h-.97v3.17zm1.84-3.37v9.03h.99V8.73h-.99zm8.869 0v9.06h1.04V8.73h-1.04zm-3.77.67c-1.34 0-2.32 1.24-2.32 3.18 0 1.96.98 3.19 2.32 3.19 1.35 0 2.33-1.23 2.33-3.19 0-1.94-.98-3.18-2.33-3.18zm0 .93c.79 0 1.34.85 1.34 2.25 0 1.42-.55 2.27-1.34 2.27-.78 0-1.33-.85-1.33-2.27 0-1.4.55-2.25 1.33-2.25zm14.019-1.59h-1.03v5.39h1.03V8.74zm-6.82.57v.84h3.08c-.03.3-.1.59-.19.85l-3.34.14.15.82 2.76-.21c-.54.71-1.46 1.29-2.87 1.68l.39.82c2.95-.85 4.19-2.52 4.19-4.94h-4.17zm3.82 7.66c-1.29 0-2.04-.35-2.04-.95 0-.61.75-.94 2.04-.94 1.27 0 2.02.33 2.02.94 0 .6-.75.95-2.02.95zm0-2.71c-1.89 0-3.07.66-3.07 1.76s1.18 1.75 3.07 1.75c1.88 0 3.05-.65 3.05-1.75s-1.17-1.76-3.05-1.76zm-22.171 12.47v9.06h1.04v-9.06h-1.04zm-3.77.67c-1.34 0-2.32 1.24-2.32 3.18 0 1.96.98 3.19 2.32 3.19 1.35 0 2.33-1.23 2.33-3.19 0-1.94-.98-3.18-2.33-3.18zm0 .93c.79 0 1.34.85 1.34 2.25 0 1.42-.55 2.27-1.34 2.27-.78 0-1.33-.85-1.33-2.27 0-1.4.55-2.25 1.33-2.25zm9.739.16h1.91v-.85h-4.91v.85h1.97v.87c0 1.5-.92 3.21-2.3 3.87l.59.82c1.04-.51 1.84-1.59 2.24-2.85.41 1.14 1.18 2.14 2.19 2.62l.57-.81c-1.37-.65-2.26-2.25-2.26-3.65v-.87zm5.24 1.81h-1.41v-3.56h-1.03v9.03h1.03v-4.62h1.41v-.85zm8.156-1.12h-2.08v-1.43h2.08v1.43zm-3.11 0h-1.23v.79h6.59v-.79h-1.22v-1.43h1.27v-.79h-6.69v.79h1.28v1.43zm6.17 2.23v-.82h-8.19v.82h3.57v.73h-2.6v.76h5.18v.63h-5.15v2.16h6.42v-.77h-5.4v-.68h5.14v-2.1h-2.55v-.73h3.58z" fill="#fff"/>
    <rect x="202.5" y="304" width="70" height="44" rx="8" fill="#8673FF"/>
    <path d="M224.742 316.15c-1.14.18-2.1.22-3.73.22v-.84h2.98v-.79h-2.98v-.78h3.15v-.81h-4.18v4.04h.71c1.87 0 2.91-.03 4.14-.23l-.09-.81zm-2.88 3.93h4.8v-2.25h-5.83v.8h4.81v.71h-4.79v2.35h6.11v-.8h-5.1v-.81zm4.8-5.46v-1.88h-1.03v4.68h1.03v-1.95h1.27v-.85h-1.27zm2.919 1.83c1.58-.17 2.82-.82 3.31-1.75.48.93 1.72 1.58 3.31 1.75l.36-.81c-1.67-.17-2.83-.87-2.97-1.68h2.64v-.83h-6.67v.83h2.62c-.14.81-1.3 1.51-2.97 1.68l.37.81zm5.36 3.72c0 .52-.75.81-2.07.81-1.32 0-2.06-.29-2.06-.81 0-.54.74-.82 2.06-.82s2.07.28 2.07.82zm2.03-2.44v-.82h-8.17v.82h3.57v.83c-1.64.1-2.61.67-2.61 1.61 0 1.02 1.17 1.6 3.11 1.6 1.95 0 3.11-.58 3.11-1.6 0-.94-.95-1.5-2.58-1.6v-.84h3.57zm2.159-2.32c0-.78.59-1.29 1.39-1.29.81 0 1.4.51 1.4 1.29 0 .79-.59 1.29-1.4 1.29-.8 0-1.39-.5-1.39-1.29zm3.8 0c0-1.27-1.03-2.15-2.41-2.15-1.37 0-2.4.88-2.4 2.15s1.03 2.16 2.4 2.16c1.38 0 2.41-.89 2.41-2.16zm-.78 5.54c-1.26 0-1.99-.32-1.99-.91 0-.6.73-.92 1.99-.92s1.99.32 1.99.92c0 .59-.73.91-1.99.91zm0-2.65c-1.85 0-3.01.65-3.01 1.74 0 1.08 1.16 1.73 3.01 1.73 1.86 0 3.01-.65 3.01-1.73 0-1.09-1.15-1.74-3.01-1.74zm2.91-3.4v-2.16h-1.03v5.31h1.03v-2.3h1.28v-.85h-1.28zm7.569-1.12h-2.16v-1.01h-1.03v1.01h-2.18v.83h5.37v-.83zm-3.87 2.97c0-.56.49-.9 1.2-.9s1.19.34 1.19.9c0 .55-.48.89-1.19.89s-1.2-.34-1.2-.89zm1.71 1.64c1-.16 1.65-.78 1.65-1.64 0-1.02-.88-1.69-2.16-1.69-1.29 0-2.17.67-2.17 1.69 0 .86.65 1.47 1.65 1.64v.88c-.84.03-1.65.03-2.34.03l.14.85c1.55 0 3.64-.02 5.57-.36l-.08-.76c-.72.11-1.49.16-2.26.2v-.84zm5.08-1.88h-1.28v-3.78h-1.03v9.04h1.03v-4.41h1.28v-.85zm-35.587 15.18v.84h3.14c-.17 2.05-1.19 3.64-3.54 4.8l.55.8c3.06-1.52 4.04-3.79 4.04-6.44h-4.19zm6.09-.95v3.55h-1.94v.85h1.94v4.64h1.04v-9.04h-1.04zm6.319 6h-2.2v-2.21h2.2v2.21zm2.9-6.02v3.29h-1.89v-2.56h-1.01v2.27h-2.2v-2.28h-1.02v6.14h4.23v-2.74h1.89v4.95h1.04v-9.06l-1.04-.01zm9.189 6.53h1.03v-6.51h-1.03v1.88h-2.4v.84h2.4v3.79zm-1.26-2.59c-1.24.24-2.4.33-3.65.34v-3.61h-1.03v4.48h.72c1.41 0 2.71-.08 4.11-.36l-.15-.85zm-2.54 4.1v-2.04h-1.03v2.88h6.09v-.84h-5.06zm14.379-3.61c-1.78-.32-3.23-1.71-3.23-3.15v-.68h-1.09v.68c0 1.43-1.45 2.82-3.23 3.15l.44.85c1.47-.3 2.74-1.24 3.33-2.48.59 1.24 1.86 2.18 3.33 2.48l.45-.85zm-7.83 2.61v.85h8.18v-.85h-8.18z" fill="#fff"/>
    <path d="M3.537 125.14c1.41 0 2.6-.79 2.6-2.15 0-.97-.64-1.59-1.47-1.82v-.05c.78-.31 1.23-.89 1.23-1.69 0-1.26-.97-1.97-2.4-1.97-.87 0-1.58.35-2.22.91l.75.9c.44-.41.87-.65 1.4-.65.63 0 .99.34.99.92 0 .66-.44 1.13-1.8 1.13v1.05c1.61 0 2.04.46 2.04 1.18 0 .67-.51 1.04-1.26 1.04-.67 0-1.21-.33-1.65-.76l-.69.93c.52.59 1.31 1.03 2.48 1.03zm6.099 0c1.51 0 2.5-1.32 2.5-3.87s-.99-3.81-2.5-3.81-2.51 1.25-2.51 3.81c0 2.55 1 3.87 2.51 3.87zm0-1.15c-.64 0-1.12-.64-1.12-2.72 0-2.07.48-2.67 1.12-2.67.64 0 1.11.6 1.11 2.67 0 2.08-.47 2.72-1.11 2.72zm5.058-1.84c1.06 0 1.81-.87 1.81-2.36 0-1.48-.75-2.33-1.81-2.33s-1.8.85-1.8 2.33c0 1.49.74 2.36 1.8 2.36zm0-.83c-.43 0-.76-.44-.76-1.53s.33-1.5.76-1.5.77.41.77 1.5-.34 1.53-.77 1.53zm.25 3.82h.87l4.02-7.68h-.87l-4.02 7.68zm5.13 0c1.05 0 1.81-.88 1.81-2.36 0-1.49-.76-2.34-1.81-2.34s-1.8.85-1.8 2.34c0 1.48.75 2.36 1.8 2.36zm0-.84c-.43 0-.76-.43-.76-1.52s.33-1.51.76-1.51.77.42.77 1.51-.34 1.52-.77 1.52zM216.236 119.69h3.94v1.29h-3.94v-1.29zm2.63 4.03v-1.69h2.61v-4.81h-1.3v1.43h-3.94v-1.43h-1.31v4.81h2.62v1.69h-3.5v1.07h8.34v-1.07h-3.52zm9.809-2.99c-1.45-.45-2.07-1.53-2.07-2.64v-.94h-1.34v.83c0 1.25-.62 2.48-2.16 2.99l.69 1.04c1.05-.37 1.76-1.08 2.16-1.98.39.78 1.06 1.4 2.03 1.72l.69-1.02zm-1.19 4.11c-1.18 0-1.81-.24-1.81-.76 0-.51.63-.75 1.81-.75 1.17 0 1.8.24 1.8.75 0 .52-.63.76-1.8.76zm0-2.53c-1.92 0-3.12.66-3.12 1.77 0 1.12 1.2 1.78 3.12 1.78 1.91 0 3.11-.66 3.11-1.78 0-1.11-1.2-1.77-3.11-1.77zm3.01-3.52v-2.13h-1.32v5.44h1.32v-2.22h1.22v-1.09h-1.22zm2.36 8.34c1.21-.4 1.89-1.29 1.89-2.46 0-.91-.38-1.45-1.06-1.45-.52 0-.95.34-.95.87 0 .56.44.87.92.87h.09c.01.56-.42 1.08-1.2 1.37l.31.8zm6.887-2.13h1.77l2.26-7.41h-1.5l-.96 3.61c-.23.82-.39 1.56-.63 2.39h-.05c-.23-.83-.39-1.57-.62-2.39l-.98-3.61h-1.55l2.26 7.41zm4.882 0h1.48v-2.63h.99c1.59 0 2.86-.76 2.86-2.45 0-1.75-1.26-2.33-2.9-2.33h-2.43V125zm1.48-3.8v-2.43h.84c1.02 0 1.56.29 1.56 1.15 0 .85-.49 1.28-1.51 1.28h-.89zM281.251 121.52c.03-.27.05-.57.05-.88 0-.32-.02-.62-.06-.9h.81v1.78h-.8zm-1.94 1.23c-.52 0-.82-.7-.82-2.11s.3-2.1.82-2.1c.51 0 .81.69.81 2.1 0 1.41-.3 2.11-.81 2.11zm2.74-4.07h-1.06c-.34-.89-.93-1.38-1.68-1.38-1.23 0-2 1.26-2 3.34 0 2.09.77 3.35 2 3.35.76 0 1.35-.51 1.69-1.4h1.05v2.85h1.23v-8.64h-1.23v1.88zm1.83-2.04v9.21h1.25v-9.21h-1.25zm6.139 2.56h1.88v-1.05h-1.88v-1.28h-1.32v1.28h-1.92v1.05h1.92v.32c0 1.4-.72 2.96-2.23 3.64l.71 1.01c1.05-.47 1.79-1.41 2.2-2.52.41 1.05 1.14 1.93 2.18 2.36l.7-1.01c-1.51-.65-2.24-2.15-2.24-3.48v-.32zm2.73-2.55v9.21h1.32v-9.21h-1.32zM135.229 266.78v-1.53h2.62v-1.04h-5.13v-.96h4.85v-1.02h-4.85v-.9h5.06v-1.05h-6.4v4.97h2.53v1.53h-3.51v1.07h8.34v-1.07h-3.51zm6.659-1.01h-1.32v2.93h6.53v-1.05h-5.21v-1.88zm4.84-1.72c.23-1.27.23-2.21.23-3.12v-.87h-6.33v1.05h5.03c0 .27 0 .54-.01.83l-5.28.11.15 1.06 5.06-.21c-.04.36-.09.73-.18 1.15h-5.8v1.05h8.33v-1.05h-1.2zm7.725-3.69h-1.33v1.34c0 1.71-.7 3.47-2.25 4.2l.79 1.07c1.04-.51 1.73-1.48 2.13-2.65.38 1.1 1.03 1.99 1.99 2.48l.8-1.04c-1.48-.73-2.13-2.4-2.13-4.06v-1.34zm5.16 2.83h-1.34v-3.54h-1.32v9.21h1.32v-4.57h1.34v-1.1zm4.789 4.68c-1.23 0-1.86-.21-1.86-.68 0-.47.63-.67 1.86-.67s1.86.2 1.86.67c0 .47-.63.68-1.86.68zm0-2.35c-1.99 0-3.19.6-3.19 1.67 0 1.07 1.2 1.68 3.19 1.68s3.2-.61 3.2-1.68c0-1.07-1.21-1.67-3.2-1.67zm-.95-2.27c.3.04.62.06.97.06.34 0 .66-.02.95-.05v.76h-1.92v-.77zm.97-2.46c1.26 0 1.98.25 1.98.77 0 .5-.72.76-1.98.76-1.25 0-1.97-.26-1.97-.76 0-.52.72-.77 1.97-.77zm2.27 3.23v-1.1c.68-.3 1.07-.76 1.07-1.36 0-1.1-1.3-1.77-3.34-1.77-2.03 0-3.33.67-3.33 1.77 0 .59.38 1.05 1.04 1.35v1.11h-1.87v1.04h8.32v-1.04h-1.89zM155.102 77.75c-.5 0-.8-.69-.8-2.11 0-1.41.3-2.1.8-2.1.51 0 .8.69.8 2.1 0 1.42-.29 2.11-.8 2.11zm2.71-2.71h-.73c-.15-1.72-.89-2.74-1.98-2.74-1.22 0-1.99 1.26-1.99 3.34 0 2.09.77 3.35 1.99 3.35 1.12 0 1.87-1.08 1.99-2.88h.72v4.34h1.23V71.8h-1.23v3.24zm1.87-3.4v9.21h1.25v-9.21h-1.25zm5.069 6.03c-.67 0-1.12-.73-1.12-2.1 0-1.36.45-2.09 1.12-2.09.68 0 1.13.73 1.13 2.09 0 1.37-.45 2.1-1.13 2.1zm3.89-6.03v3.32h-1.54c-.18-1.66-1.11-2.67-2.35-2.67-1.37 0-2.38 1.26-2.38 3.28 0 2.03 1.01 3.3 2.38 3.3 1.28 0 2.22-1.08 2.36-2.84h1.53v4.85h1.32v-9.24h-1.32zm10.239 4.26h-5.16v-2.42h5.09v-1.07h-6.41v4.54h6.48V75.9zm-7.45 2.78v1.08h8.34v-1.08h-8.34zm14.499-3.4c-1.15.21-2.16.27-3.66.28v-.76h2.88v-2.74h-4.2v1.06h2.9v.7h-2.89v2.8h.79c1.84 0 3.01-.05 4.29-.29l-.11-1.05zm.64 4.42h-3.37v-.75h3.37v.75zm0-1.76h-3.37v-.82h-1.31v3.63h5.99v-3.63h-1.31v.82zm2.53-4.27h-1.22v-2.02h-1.32v5.1h1.32v-2h1.22v-1.08zM208.382 161.23h-1.95v-.65h-1.32v.65h-1.96v.87h5.23v-.87zm-3.61 2.25c0-.26.37-.39 1-.39s.99.13.99.39c0 .27-.36.41-.99.41s-1-.14-1-.41zm3.84 1.36c-.7.08-1.44.14-2.18.18v-.37c.98-.12 1.58-.54 1.58-1.17 0-.75-.87-1.2-2.24-1.2s-2.25.45-2.25 1.2c0 .63.6 1.05 1.59 1.17v.42c-.79.02-1.53.02-2.19.02l.13.9c1.59 0 3.72-.02 5.65-.36l-.09-.79zm-3.15 3.64h4.87v-2.08h-6.19v.87h4.89v.4h-4.88v2.12h6.5v-.87h-5.19v-.44zm4.87-5.66v-2.18h-1.32v5.43h1.32v-2.17h1.16v-1.08h-1.16zm6.039 6.05c-1.23 0-1.86-.21-1.86-.69s.63-.7 1.86-.7 1.86.22 1.86.7-.63.69-1.86.69zm0-2.39c-1.99 0-3.19.61-3.19 1.7 0 1.08 1.2 1.69 3.19 1.69s3.2-.61 3.2-1.69c0-1.09-1.21-1.7-3.2-1.7zm.69-1.5v-.76h2.56v-1.05h-5.06v-1.08h5.01v-1.05h-6.32v3.18h2.49v.76h-3.5v1.05h8.33v-1.05h-3.51zm6.559-1.29h3.94v1.29h-3.94v-1.29zm2.63 4.03v-1.69h2.61v-4.81h-1.3v1.43h-3.94v-1.43h-1.31v4.81h2.62v1.69h-3.5v1.07h8.34v-1.07h-3.52zm9.809-2.99c-1.45-.45-2.07-1.53-2.07-2.64v-.94h-1.34v.83c0 1.25-.62 2.48-2.16 2.99l.69 1.04c1.05-.37 1.76-1.08 2.16-1.98.39.78 1.06 1.4 2.03 1.72l.69-1.02zm-1.19 4.11c-1.18 0-1.81-.24-1.81-.76 0-.51.63-.75 1.81-.75 1.17 0 1.8.24 1.8.75 0 .52-.63.76-1.8.76zm0-2.53c-1.92 0-3.12.66-3.12 1.77 0 1.12 1.2 1.78 3.12 1.78 1.91 0 3.11-.66 3.11-1.78 0-1.11-1.2-1.77-3.11-1.77zm3.01-3.52v-2.13h-1.32v5.44h1.32v-2.22h1.22v-1.09h-1.22zM75.537 169.14c1.41 0 2.6-.79 2.6-2.15 0-.97-.64-1.59-1.47-1.82v-.05c.78-.31 1.23-.89 1.23-1.69 0-1.26-.97-1.97-2.4-1.97-.87 0-1.58.35-2.22.91l.75.9c.44-.41.87-.65 1.4-.65.63 0 .99.34.99.92 0 .66-.44 1.13-1.8 1.13v1.05c1.61 0 2.04.46 2.04 1.18 0 .67-.51 1.04-1.26 1.04-.67 0-1.21-.33-1.65-.76l-.69.93c.52.59 1.31 1.03 2.48 1.03zm6.098 0c1.51 0 2.5-1.32 2.5-3.87s-.99-3.81-2.5-3.81-2.51 1.25-2.51 3.81c0 2.55 1 3.87 2.51 3.87zm0-1.15c-.64 0-1.12-.64-1.12-2.72 0-2.07.48-2.67 1.12-2.67.64 0 1.11.6 1.11 2.67 0 2.08-.47 2.72-1.11 2.72zm5.06-1.84c1.06 0 1.81-.87 1.81-2.36 0-1.48-.75-2.33-1.81-2.33s-1.8.85-1.8 2.33c0 1.49.74 2.36 1.8 2.36zm0-.83c-.43 0-.76-.44-.76-1.53s.33-1.5.76-1.5.77.41.77 1.5-.34 1.53-.77 1.53zm.25 3.82h.87l4.02-7.68h-.87l-4.02 7.68zm5.13 0c1.05 0 1.81-.88 1.81-2.36 0-1.49-.76-2.34-1.81-2.34s-1.8.85-1.8 2.34c0 1.48.75 2.36 1.8 2.36zm0-.84c-.43 0-.76-.43-.76-1.52s.33-1.51.76-1.51.77.42.77 1.51-.34 1.52-.77 1.52zM244.784 274h1.77l2.26-7.41h-1.5l-.96 3.61c-.23.82-.39 1.56-.63 2.39h-.05c-.23-.83-.39-1.57-.62-2.39l-.98-3.61h-1.55l2.26 7.41zm4.882 0h1.48v-2.63h.99c1.59 0 2.86-.76 2.86-2.45 0-1.75-1.26-2.33-2.9-2.33h-2.43V274zm1.48-3.8v-2.43h.84c1.02 0 1.56.29 1.56 1.15 0 .85-.49 1.28-1.51 1.28h-.89zM36.437 270.96l1.15-1.84c.21-.4.41-.81.59-1.21h.04c-.02.44-.05 1.11-.05 1.54v1.51h-1.73zm1.73 3.04h1.37v-1.92h.87v-1.12h-.87v-4.37h-1.77l-2.76 4.49v1h3.16V274zm5.468.14c1.51 0 2.5-1.32 2.5-3.87s-.99-3.81-2.5-3.81-2.51 1.25-2.51 3.81c0 2.55 1 3.87 2.51 3.87zm0-1.15c-.64 0-1.12-.64-1.12-2.72 0-2.07.48-2.67 1.12-2.67.64 0 1.11.6 1.11 2.67 0 2.08-.47 2.72-1.11 2.72zm5.06-1.84c1.06 0 1.81-.87 1.81-2.36 0-1.48-.75-2.33-1.81-2.33s-1.8.85-1.8 2.33c0 1.49.74 2.36 1.8 2.36zm0-.83c-.43 0-.76-.44-.76-1.53s.33-1.5.76-1.5.77.41.77 1.5-.34 1.53-.77 1.53zm.25 3.82h.87l4.02-7.68h-.87l-4.02 7.68zm5.13 0c1.05 0 1.81-.88 1.81-2.36 0-1.49-.76-2.34-1.81-2.34s-1.8.85-1.8 2.34c0 1.48.75 2.36 1.8 2.36zm0-.84c-.43 0-.76-.43-.76-1.52s.33-1.51.76-1.51.77.42.77 1.51-.34 1.52-.77 1.52zM61.146 299.354a.5.5 0 0 0 .708 0l3.181-3.182a.501.501 0 0 0-.707-.708l-2.828 2.829-2.828-2.829a.5.5 0 0 0-.707.708l3.181 3.182zM61 240v59h1v-59h-1zM237.146 299.354a.502.502 0 0 0 .708 0l3.182-3.182a.502.502 0 0 0-.708-.708l-2.828 2.829-2.828-2.829a.502.502 0 0 0-.708.708l3.182 3.182zM237 240v59h1v-59h-1z" fill="#6EE0B0"/>
</svg>
