<svg width="24" height="24" viewBox="0 0 24 24" fill="none" xmlns="http://www.w3.org/2000/svg">
    <path d="m13.165 1.46 9.353 8.923c.31.297.482.692.482 1.112 0 .42-.171.814-.482 1.111 0 0-.058.058-.097.093-.62.546-2.16 0-2.16 0v8.73c0 .866-.74 1.571-1.648 1.571h-4.876v-6.09c0-.521-.443-.944-.989-.944h-1.497c-.545 0-.988.423-.988.943V23H5.387c-.909 0-1.648-.705-1.648-1.572v-8.73s-1.54.547-2.16 0c-.04-.034-.096-.092-.096-.092A1.526 1.526 0 0 1 1 11.495c0-.42.171-.815.483-1.112l9.352-8.923C11.146 1.164 11.56 1 12 1c.44 0 .854.163 1.165.46z" fill="url(#585hqkbf5a)"/>
    <defs>
        <linearGradient id="585hqkbf5a" x1="1" y1="12" x2="23" y2="12" gradientUnits="userSpaceOnUse">
            <stop stop-color="#8673FF"/>
            <stop offset="1" stop-color="#5A3FFA"/>
        </linearGradient>
    </defs>
</svg>
