<svg width="24" height="24" viewBox="0 0 24 24" fill="none" xmlns="http://www.w3.org/2000/svg">
    <path d="M.5 11a2 2 0 0 1 2-2h3a2 2 0 0 1 2 2v11a1 1 0 0 1-1 1h-5a1 1 0 0 1-1-1V11z" fill="url(#c0q6hoo61a)"/>
    <path d="M8.5 3a2 2 0 0 1 2-2h3a2 2 0 0 1 2 2v19a1 1 0 0 1-1 1h-5a1 1 0 0 1-1-1V3z" fill="url(#swnvx1pz7b)"/>
    <path d="M16.5 8a2 2 0 0 1 2-2h3a2 2 0 0 1 2 2v14a1 1 0 0 1-1 1h-5a1 1 0 0 1-1-1V8z" fill="url(#ffj78asmtc)"/>
    <defs>
        <linearGradient id="c0q6hoo61a" x1=".5" y1="16" x2="7.5" y2="16" gradientUnits="userSpaceOnUse">
            <stop stop-color="#8673FF"/>
            <stop offset="1" stop-color="#5A3FFA"/>
        </linearGradient>
        <linearGradient id="swnvx1pz7b" x1="8.5" y1="12" x2="15.5" y2="12" gradientUnits="userSpaceOnUse">
            <stop stop-color="#8673FF"/>
            <stop offset="1" stop-color="#5A3FFA"/>
        </linearGradient>
        <linearGradient id="ffj78asmtc" x1="16.5" y1="14.5" x2="23.5" y2="14.5" gradientUnits="userSpaceOnUse">
            <stop stop-color="#8673FF"/>
            <stop offset="1" stop-color="#5A3FFA"/>
        </linearGradient>
    </defs>
</svg>
