<svg width="25" height="24" viewBox="0 0 25 24" fill="none" xmlns="http://www.w3.org/2000/svg">
    <path d="m13.665 1.46 9.352 8.923c.312.297.483.692.483 1.112 0 .42-.171.814-.483 1.111 0 0-.057.058-.096.093-.62.546-2.16 0-2.16 0v8.73c0 .866-.74 1.571-1.648 1.571h-4.876v-6.09c0-.521-.443-.944-.989-.944h-1.497c-.545 0-.988.423-.988.943V23H5.887c-.909 0-1.648-.705-1.648-1.572v-8.73s-1.54.547-2.16 0c-.04-.034-.096-.092-.096-.092a1.526 1.526 0 0 1-.483-1.111c0-.42.171-.815.483-1.112l9.352-8.923c.311-.296.725-.46 1.165-.46.44 0 .854.163 1.165.46z" fill="#9CA8BA"/>
</svg>
