<svg width="24" height="24" viewBox="0 0 24 24" fill="none" xmlns="http://www.w3.org/2000/svg">
    <path d="M2 3a1 1 0 0 1 1-1h7a1 1 0 0 1 1 1v7a1 1 0 0 1-1 1H3a1 1 0 0 1-1-1V3z" fill="url(#cp6in6d7sa)"/>
    <path d="M13 3a1 1 0 0 1 1-1h7a1 1 0 0 1 1 1v7a1 1 0 0 1-1 1h-7a1 1 0 0 1-1-1V3z" fill="url(#zlxx9f0zrb)"/>
    <path d="M2 14a1 1 0 0 1 1-1h7a1 1 0 0 1 1 1v7a1 1 0 0 1-1 1H3a1 1 0 0 1-1-1v-7z" fill="url(#9589f9qegc)"/>
    <path d="M13 14a1 1 0 0 1 1-1h7a1 1 0 0 1 1 1v7a1 1 0 0 1-1 1h-7a1 1 0 0 1-1-1v-7z" fill="url(#3lx4u5o64d)"/>
    <defs>
        <linearGradient id="cp6in6d7sa" x1="2" y1="6.5" x2="11" y2="6.5" gradientUnits="userSpaceOnUse">
            <stop stop-color="#8673FF"/>
            <stop offset="1" stop-color="#5A3FFA"/>
        </linearGradient>
        <linearGradient id="zlxx9f0zrb" x1="13" y1="6.5" x2="22" y2="6.5" gradientUnits="userSpaceOnUse">
            <stop stop-color="#8673FF"/>
            <stop offset="1" stop-color="#5A3FFA"/>
        </linearGradient>
        <linearGradient id="9589f9qegc" x1="2" y1="17.5" x2="11" y2="17.5" gradientUnits="userSpaceOnUse">
            <stop stop-color="#8673FF"/>
            <stop offset="1" stop-color="#5A3FFA"/>
        </linearGradient>
        <linearGradient id="3lx4u5o64d" x1="13" y1="17.5" x2="22" y2="17.5" gradientUnits="userSpaceOnUse">
            <stop stop-color="#8673FF"/>
            <stop offset="1" stop-color="#5A3FFA"/>
        </linearGradient>
    </defs>
</svg>
