<svg width="25" height="24" viewBox="0 0 25 24" fill="none" xmlns="http://www.w3.org/2000/svg">
    <g clip-path="url(#xh2qzlazza)">
        <circle cx="12.5" cy="12" r="12" fill="#9CA8BA"/>
        <path d="M11.319 8.144c0 .647.423 1.2 1.27 1.661V6.501a1.683 1.683 0 0 0-.878.579c-.212.274-.33.523-.355.747l-.037.317zm2.352 5.077v4.107a2.05 2.05 0 0 0 .952-.784c.236-.36.354-.772.354-1.232 0-.834-.435-1.53-1.306-2.09zm0 5.656-.019.71a.55.55 0 0 1-.205.448c-.125.112-.299.168-.523.168-.224 0-.336-.112-.336-.336v-.896c-1.12 0-2.084-.274-2.893-.822-.797-.56-1.195-1.306-1.195-2.24v-.018c0-.46.069-.859.206-1.195.149-.348.33-.604.54-.765.412-.336.785-.517 1.12-.542l.206-.018c.349 0 .666.087.952.261.286.162.43.392.43.69a.39.39 0 0 1-.168.318c-.212.137-.38.305-.505.504-.112.2-.18.367-.205.504l-.019.205c0 .909.51 1.456 1.531 1.643v-4.835a19.08 19.08 0 0 0-.616-.261 13.101 13.101 0 0 1-.69-.317c-.2-.1-.411-.218-.635-.355a5.88 5.88 0 0 1-.765-.579c-.585-.522-.878-1.213-.878-2.072 0-1.132.336-2.016 1.008-2.65.685-.647 1.543-1.052 2.576-1.214V4.56c0-.162.075-.292.224-.392A.93.93 0 0 1 13.354 4c.199 0 .298.137.298.41v.71c.921 0 1.699.18 2.334.541.634.349.951.834.951 1.456 0 .448-.13.822-.392 1.12a1.204 1.204 0 0 1-.97.448c-.187 0-.373-.037-.56-.112-.174-.074-.261-.186-.261-.336l.074-.578c0-.399-.124-.691-.373-.878a1.515 1.515 0 0 0-.803-.354l.019 3.901.112.056c.05.012.193.075.43.187.248.112.49.23.727.354.237.112.542.293.915.542.386.249.672.491.858.728.51.634.766 1.369.766 2.202 0 1.307-.361 2.334-1.083 3.08-.722.747-1.63 1.214-2.725 1.4z" fill="#fff"/>
    </g>
    <defs>
        <clipPath id="xh2qzlazza">
            <path fill="#fff" transform="translate(.5)" d="M0 0h24v24H0z"/>
        </clipPath>
    </defs>
</svg>
