<svg width="24" height="24" viewBox="0 0 24 24" fill="none" xmlns="http://www.w3.org/2000/svg">
    <g clip-path="url(#fkhs8i4eja)">
        <circle cx="12" cy="12" r="12" fill="url(#936bahb54b)"/>
        <path d="M10.819 8.144c0 .647.423 1.2 1.269 1.661V6.501a1.683 1.683 0 0 0-.877.579c-.212.274-.33.523-.355.747l-.037.317zm2.352 5.077v4.107a2.05 2.05 0 0 0 .952-.784c.236-.36.354-.772.354-1.232 0-.834-.435-1.53-1.306-2.09zm0 5.656-.019.71a.55.55 0 0 1-.205.448c-.125.112-.299.168-.523.168-.224 0-.336-.112-.336-.336v-.896c-1.12 0-2.084-.274-2.893-.822C8.398 17.59 8 16.843 8 15.91v-.018c0-.46.068-.859.205-1.195.15-.348.33-.604.542-.765.41-.336.784-.517 1.12-.542l.205-.018c.348 0 .666.087.952.261.286.162.43.392.43.69a.39.39 0 0 1-.169.318c-.211.137-.38.305-.504.504-.112.2-.18.367-.205.504l-.019.205c0 .909.51 1.456 1.531 1.643v-4.835a19.08 19.08 0 0 0-.616-.261 13.139 13.139 0 0 1-.69-.317c-.2-.1-.411-.218-.635-.355a5.882 5.882 0 0 1-.766-.579c-.585-.522-.877-1.213-.877-2.072 0-1.132.336-2.016 1.008-2.65.684-.647 1.543-1.052 2.576-1.214V4.56c0-.162.075-.292.224-.392A.93.93 0 0 1 12.853 4c.2 0 .299.137.299.41v.71c.92 0 1.699.18 2.333.541.635.349.952.834.952 1.456 0 .448-.13.822-.392 1.12a1.204 1.204 0 0 1-.97.448c-.187 0-.374-.037-.56-.112-.175-.074-.262-.186-.262-.336l.075-.578c0-.399-.124-.691-.373-.878a1.515 1.515 0 0 0-.803-.354l.019 3.901.112.056c.05.012.193.075.429.187.249.112.492.23.728.354.236.112.541.293.915.542.385.249.672.491.858.728.51.634.766 1.369.766 2.202 0 1.307-.361 2.334-1.083 3.08-.722.747-1.63 1.214-2.725 1.4z" fill="#fff"/>
    </g>
    <defs>
        <linearGradient id="936bahb54b" x1="0" y1="12" x2="24" y2="12" gradientUnits="userSpaceOnUse">
            <stop stop-color="#8673FF"/>
            <stop offset="1" stop-color="#5A3FFA"/>
        </linearGradient>
        <clipPath id="fkhs8i4eja">
            <path fill="#fff" d="M0 0h24v24H0z"/>
        </clipPath>
    </defs>
</svg>
